<?xml version="1.0" encoding="UTF-8" standalone="no"?>
<!DOCTYPE svg PUBLIC "-//W3C//DTD SVG 1.1//EN" "http://www.w3.org/Graphics/SVG/1.1/DTD/svg11.dtd">
<svg width="102.86" height="102.86" viewBox="0.00 0.00 500.00 500.00" xmlns="http://www.w3.org/2000/svg" xmlns:xlink="http://www.w3.org/1999/xlink">
<g stroke-linecap="round" id="레이어_1">
<path d="M218.36,309.84 C221.29,309.72 238.21,308.48 244.15,308.08 C250.25,307.63 263.61,307.76 271.45,307.88 C279.55,308.07 299.39,308.74 302.15,309.91 C303.34,310.45 302.64,324.53 301.13,329.69 C300.49,331.82 298.45,336.00 296.74,338.21 C294.98,340.43 292.39,342.73 289.72,344.45 C287.30,345.99 283.21,347.35 280.64,347.47 C277.99,347.55 271.78,346.01 268.87,344.66 C266.56,343.57 258.17,338.02 256.73,337.21 C253.78,335.58 247.55,332.95 245.39,332.33 C236.58,329.95 223.50,327.35 222.57,327.08 C220.49,326.48 216.26,323.09 216.17,323.05 C215.98,322.96 214.29,324.28 213.91,324.35 C213.91,324.35 214.10,321.61 214.10,321.61 C214.04,323.85 212.26,340.16 213.13,344.18 C214.20,348.87 216.84,354.95 218.08,356.23 C219.54,357.57 222.93,357.98 225.28,357.38 C227.79,356.71 232.22,354.86 235.80,352.80 C238.75,351.08 253.82,341.46 258.37,339.21 C264.38,336.26 276.81,331.47 281.71,331.13 C284.52,330.97 290.11,332.18 292.32,333.74 C294.63,335.44 297.81,340.08 298.71,343.18 C299.43,345.82 299.78,350.86 299.44,353.53 C299.09,356.08 297.59,360.74 296.31,362.62 C295.53,363.71 293.68,365.42 292.45,366.12 C290.30,367.31 284.86,367.84 280.75,368.04 C275.49,368.26 241.07,360.64 228.38,357.70 C219.85,355.90 216.35,355.94 215.49,356.15 C214.56,358.25 214.36,365.05 215.55,368.13 C219.01,376.82 221.33,385.38 223.27,386.77 C224.18,387.38 228.84,389.18 231.33,389.10 C232.95,389.04 248.94,386.76 257.85,386.18 C262.98,385.79 282.62,382.59 283.76,382.31 C285.25,381.93 288.57,377.76 289.01,377.19 C289.85,376.08 291.45,373.10 292.64,371.21 C289.80,377.60 287.56,383.37 286.67,384.14 C285.51,385.07 273.66,385.15 265.39,384.60 C262.71,384.43 255.73,383.67 255.10,383.66 C252.50,383.62 235.92,385.23 229.86,385.10 C228.17,385.06 225.93,385.00 225.36,385.03 C227.03,386.32 230.56,387.55 233.19,387.98 C241.22,389.21 262.18,387.17 269.27,386.44 C273.57,386.00 281.00,385.55 283.83,384.16 C286.69,382.69 287.81,380.97 288.40,379.24 C288.44,379.12 288.51,378.88 288.61,378.54" fill="none" stroke="rgb(255, 255, 255)" stroke-width="32.41" stroke-opacity="1.00" stroke-linejoin="round"/>
<path d="M247.08,304.09 C247.08,304.09 246.60,304.23 246.60,304.23 C248.52,302.64 275.74,295.59 281.58,295.68 C282.04,295.69 282.34,295.80 282.40,295.88 C282.12,295.95 278.54,297.23 274.05,297.99 C268.10,298.99 256.62,301.06 253.49,301.76 C250.83,302.37 244.23,305.08 242.71,305.42 C243.64,305.52 251.53,304.81 261.20,304.59 C262.72,304.57 272.34,304.70 273.04,304.64 C268.22,303.05 248.66,304.94 247.74,305.83 C248.10,307.47 270.77,308.57 273.69,308.72 C258.26,306.42 250.24,307.01 249.87,307.12 C249.75,308.19 260.41,310.12 267.76,310.79 C273.88,311.34 282.80,311.21 283.29,311.03 C280.65,309.97 267.59,309.81 265.18,310.63 C268.74,310.83 278.58,309.26 284.43,307.71 C292.05,305.68 298.55,302.52 299.09,301.85 C298.66,300.98 298.06,300.50 296.84,300.25 C292.73,299.45 280.20,300.74 274.38,302.26 C274.96,303.18 286.79,300.86 288.54,299.78 C288.61,299.73 288.75,299.63 288.95,299.46 C288.56,298.61 285.09,298.00 282.57,298.05 C279.75,298.13 274.09,299.27 271.99,300.20 C269.98,301.11 269.00,302.24 268.69,302.80 C269.42,303.88 270.22,304.45 271.57,304.61 C274.14,304.90 279.52,303.97 283.11,302.86 C289.58,300.82 291.56,298.95 291.89,298.49 C291.19,297.62 290.36,297.13 288.95,296.98 C286.15,296.69 280.26,297.27 276.93,298.15 C270.10,299.97 265.10,303.31 264.81,304.19 C265.26,305.09 268.44,306.32 271.68,306.48 C275.69,306.62 289.41,303.69 290.74,302.73 C290.84,302.65 290.97,302.50 291.13,302.29 C289.58,301.34 284.90,301.49 282.03,302.21 C275.49,303.88 272.15,306.48 271.68,306.98 C272.18,307.77 272.89,308.12 274.24,308.05 C278.62,307.80 291.51,303.38 292.41,302.26 C292.46,302.19 292.52,302.05 292.58,301.86 C292.58,301.86 287.60,301.05 287.60,301.05 C287.60,301.05 290.80,300.39 290.80,300.39 C290.17,299.35 281.99,297.90 275.77,298.21 C271.13,298.45 260.61,300.19 255.06,301.73 C256.04,302.42 293.04,298.33 294.70,299.17 C294.82,299.24 295.02,299.35 295.29,299.49 C295.20,299.48 287.17,298.42 285.85,298.67 C285.29,298.78 284.20,299.16 283.90,299.29" fill="none" stroke="rgb(5, 45, 161)" stroke-width="6.00" stroke-opacity="1.00" stroke-linejoin="round"/>
<path d="M241.64,312.51 C241.64,312.51 241.27,312.00 241.27,312.00 C240.64,312.11 239.94,313.51 239.74,314.71 C239.50,316.29 240.04,318.56 240.97,319.14 C241.94,319.70 244.26,319.65 244.98,319.16 C245.68,318.65 246.42,316.46 246.11,315.21 C245.80,314.07 244.23,312.25 243.34,311.95 C242.40,311.65 240.58,311.88 240.19,312.47 C239.69,313.31 239.94,316.12 240.78,317.39 C241.56,318.52 243.73,319.70 244.74,319.75 C245.55,319.78 246.79,318.98 247.06,318.13 C247.37,317.07 246.84,314.33 246.17,313.20 C245.65,312.34 244.32,311.38 243.74,311.36 C243.02,311.39 242.02,313.59 242.09,315.36 C242.16,316.76 242.96,319.30 243.61,320.30 C244.42,321.51 246.64,322.60 247.62,322.49 C248.46,322.36 249.63,320.63 249.82,319.16 C249.98,317.79 249.32,315.43 248.86,314.80 C248.43,314.25 247.24,314.17 246.49,315.04 C245.55,316.18 244.70,319.37 244.95,320.95 C245.23,322.46 246.79,324.12 248.17,324.18 C249.62,324.18 252.44,322.46 253.42,321.13 C254.22,320.00 254.38,318.16 253.81,317.58 C253.09,316.90 250.71,316.49 249.84,316.97 C249.04,317.45 247.97,320.14 248.06,321.61 C248.17,323.01 249.67,325.56 250.64,326.23 C251.56,326.83 253.44,326.87 254.09,326.43 C254.79,325.91 255.45,323.99 255.20,322.66 C254.73,320.40 253.50,320.04 253.15,320.02 C252.50,320.33 251.95,322.37 252.20,324.07 C252.45,325.61 253.72,327.94 254.37,328.35 C255.06,328.74 257.03,328.36 257.70,327.56 C258.35,326.76 258.76,324.70 258.49,324.09 C258.23,323.54 257.24,323.01 256.80,323.26 C256.34,323.56 255.97,325.01 256.12,325.92 C256.62,328.45 258.23,327.89 258.56,327.66 C258.49,327.56 258.42,327.48 258.35,327.43 C258.28,327.38 258.12,327.28 257.86,327.13" fill="none" stroke="rgb(5, 45, 161)" stroke-width="6.00" stroke-opacity="1.00" stroke-linejoin="round"/>
<path d="M234.58,305.36 C233.93,304.63 232.70,304.18 231.64,304.16 C230.34,304.15 228.39,304.87 228.05,305.64 C227.64,306.69 228.37,309.59 229.53,310.70 C230.67,311.72 233.46,312.32 234.71,311.94 C235.74,311.59 236.78,310.07 236.66,308.92 C236.49,307.61 234.68,305.50 233.50,305.15 C232.44,304.86 230.25,305.46 229.71,306.12 C229.14,306.84 228.90,309.06 229.46,309.68 C230.11,310.33 232.87,310.80 233.99,310.47 C234.84,310.20 235.94,308.95 236.11,308.23 C236.26,307.50 235.61,306.43 235.05,306.32 C233.71,306.11 233.77,309.46 234.80,309.69 C234.80,309.69 233.98,308.00 233.98,308.00 C233.27,308.25 229.54,305.24 227.84,303.75 C224.38,300.72 214.65,296.56 210.30,294.68 C207.66,293.65 192.81,293.37 190.11,294.44 C189.07,294.88 188.77,295.45 188.71,295.81 C188.91,296.52 191.50,297.60 195.78,297.82 C197.75,297.90 205.14,297.31 206.22,297.22 C206.22,297.22 190.88,296.96 190.88,296.96 C192.36,298.82 211.54,299.87 212.76,300.00 C212.00,300.03 200.70,299.80 196.87,300.91 C196.04,301.15 195.23,301.50 195.16,301.57 C195.83,303.21 214.15,302.02 217.49,301.88 C215.94,301.82 200.58,300.73 196.29,301.61 C196.15,301.64 196.03,301.67 195.93,301.70 C196.18,302.13 200.61,303.50 203.42,304.04 C205.49,304.43 216.04,305.68 220.73,306.40 C220.69,306.40 214.12,304.76 212.48,304.63 C210.44,304.47 209.02,304.50 207.73,304.71 C207.73,304.71 221.29,304.58 221.29,304.58 C220.83,302.87 214.17,300.16 206.67,297.74 C206.67,297.74 220.60,300.77 220.60,300.77 C220.60,300.77 207.60,297.16 207.60,297.16 C208.31,297.38 222.97,302.66 224.85,303.67 C227.00,304.85 227.85,306.47 227.91,307.08 C227.94,307.81 226.95,309.30 225.41,310.23 C224.01,311.07 208.55,318.63 204.84,321.70 C204.39,322.08 204.13,322.43 204.15,322.48 C204.15,322.48 221.05,311.12 221.05,311.12 C213.04,315.24 203.39,324.24 202.85,324.99 C202.96,325.40 218.35,314.10 219.40,313.21 C219.61,313.03 219.85,312.78 220.14,312.48 C211.43,316.38 204.24,326.08 204.16,326.70 C205.67,327.81 222.21,316.50 224.58,314.64 C224.58,314.64 211.88,324.30 211.88,324.30 C211.44,326.79 225.70,314.86 225.79,314.73 C225.79,314.73 216.05,322.91 216.05,322.91 C216.05,322.91 224.81,316.30 224.81,316.30 C224.74,316.28 224.42,316.39 224.10,316.59 C224.00,316.66 223.81,316.79 223.54,316.99" fill="none" stroke="rgb(5, 45, 161)" stroke-width="6.00" stroke-opacity="1.00" stroke-linejoin="round"/>
<path d="M183.75,295.40 C184.03,294.79 186.39,293.62 190.45,292.53 C193.91,291.61 200.79,290.88 204.16,291.04 C206.46,291.16 215.05,292.66 216.46,293.11 C218.50,293.77 222.28,296.03 223.41,297.36 C224.09,298.17 225.63,301.81 225.21,302.15 C225.17,302.17 225.15,302.22 225.16,302.29" fill="none" stroke="rgb(0, 0, 0)" stroke-width="6.00" stroke-opacity="1.00" stroke-linejoin="round"/>
<path d="M225.64,300.74 C224.97,301.25 224.02,303.37 224.04,306.01 C224.09,308.50 225.38,312.03 226.71,313.28 C227.98,314.44 230.96,315.67 232.32,315.64 C233.40,315.55 237.61,311.25 238.41,309.65 C239.09,308.17 239.37,304.80 238.86,303.84 C238.40,303.02 235.50,301.10 234.41,300.95 C231.84,300.62 226.29,301.49 224.78,301.72 C224.41,301.77 223.98,301.83 223.48,301.89" fill="none" stroke="rgb(0, 0, 0)" stroke-width="6.00" stroke-opacity="1.00" stroke-linejoin="round"/>
<path d="M184.03,293.74 C184.05,293.78 184.07,293.84 184.10,293.90 C184.88,295.71 186.98,298.95 190.49,301.57 C192.24,302.85 197.26,305.67 200.96,306.76 C204.19,307.70 218.88,308.96 220.40,308.35 C221.64,307.78 222.68,306.51 223.28,305.59 C223.29,305.58 223.30,305.52 223.28,305.53" fill="none" stroke="rgb(0, 0, 0)" stroke-width="6.00" stroke-opacity="1.00" stroke-linejoin="round"/>
<path d="M222.99,307.02 C222.93,307.04 222.89,307.04 222.86,307.04 C221.78,307.19 215.74,309.63 213.02,311.14 C211.27,312.13 206.96,315.07 205.24,316.80 C201.20,320.92 200.30,328.53 200.43,329.00 C200.74,329.03 216.54,326.01 220.72,323.95 C225.18,321.70 228.17,317.08 228.16,316.34 C228.16,316.34 227.65,316.11 227.65,316.11" fill="none" stroke="rgb(0, 0, 0)" stroke-width="6.00" stroke-opacity="1.00" stroke-linejoin="round"/>
<path d="M223.62,312.34 C222.93,312.79 217.82,316.80 215.36,318.64 C215.09,318.85 214.78,319.12 214.44,319.44" fill="none" stroke="rgb(0, 0, 0)" stroke-width="6.00" stroke-opacity="1.00" stroke-linejoin="round"/>
<path d="M235.13,314.93 C235.47,316.06 235.99,317.51 236.50,318.54 C237.75,321.03 241.41,324.26 243.54,325.62 C246.81,327.62 252.71,331.29 255.12,331.87 C257.12,332.32 260.48,332.47 261.32,331.63 C261.93,330.97 262.64,327.57 262.37,326.91 C257.99,316.76 245.34,308.32 244.51,308.13 C243.93,308.01 243.13,308.29 242.55,308.73 C242.45,308.81 242.33,308.92 242.20,309.06" fill="none" stroke="rgb(0, 0, 0)" stroke-width="6.00" stroke-opacity="1.00" stroke-linejoin="round"/>
<path d="M238.38,311.86 C240.44,313.29 241.85,314.31 243.49,315.56 C245.17,316.84 247.24,318.25 248.81,319.19 C249.09,319.35 249.24,319.42 249.25,319.39" fill="none" stroke="rgb(0, 0, 0)" stroke-width="6.00" stroke-opacity="1.00" stroke-linejoin="round"/>
<path d="M241.62,303.25 C241.62,303.25 240.63,303.84 240.63,303.84 C245.16,301.16 254.23,297.55 259.68,296.24 C264.83,295.02 276.90,294.03 282.46,294.13 C286.28,294.22 292.26,295.11 294.79,295.75 C296.94,296.33 299.97,298.21 300.40,299.19 C300.25,299.76 298.59,301.79 296.05,304.74 C293.84,307.28 290.04,310.43 286.45,312.14 C283.44,313.54 277.39,314.58 273.58,314.45 C270.20,314.30 265.21,313.75 261.78,313.09 C258.61,312.46 250.63,309.26 250.09,309.09" fill="none" stroke="rgb(0, 0, 0)" stroke-width="6.00" stroke-opacity="1.00" stroke-linejoin="round"/>
<path d="M201.46,308.14 C201.46,308.14 200.57,309.68 200.57,309.68" fill="none" stroke="rgb(0, 0, 0)" stroke-width="6.00" stroke-opacity="1.00" stroke-linejoin="round"/>
<path d="M317.11,300.67 C317.55,305.18 317.53,317.75 317.32,325.23 C316.93,334.35 316.00,346.44 314.72,353.03 C313.37,359.81 309.45,372.27 306.68,380.00 C303.30,388.83 299.74,395.97 298.46,397.31 C298.29,397.49 297.98,397.77 297.53,398.14" fill="none" stroke="rgb(0, 0, 0)" stroke-width="6.00" stroke-opacity="1.00" stroke-linejoin="round"/>
<path d="M202.70,308.47 C201.96,308.72 200.12,311.17 199.04,314.18 C197.55,318.47 195.60,328.44 195.29,333.94 C195.00,339.42 195.92,351.44 197.44,358.96 C198.78,365.56 202.27,377.57 204.39,383.17 C206.65,389.07 212.32,398.99 213.83,401.59 C214.29,402.36 214.75,403.12 215.22,403.89" fill="none" stroke="rgb(0, 0, 0)" stroke-width="6.00" stroke-opacity="1.00" stroke-linejoin="round"/>
<path d="M207.19,330.60 C207.23,331.77 207.32,334.39 207.38,335.86 C207.76,343.63 208.80,359.69 209.31,362.71 C210.03,366.92 211.18,370.98 211.58,371.85 C211.68,372.06 211.80,372.18 211.93,372.22" fill="none" stroke="rgb(0, 0, 0)" stroke-width="5.00" stroke-opacity="1.00" stroke-linejoin="round"/>
<path d="M224.10,323.76 C223.84,325.05 222.87,336.54 223.80,354.28 C224.27,361.28 225.77,373.18 225.84,373.59 C225.86,373.73 225.90,373.93 225.95,374.17" fill="none" stroke="rgb(0, 0, 0)" stroke-width="5.00" stroke-opacity="1.00" stroke-linejoin="round"/>
<path d="M237.28,320.78 C237.31,323.18 237.25,327.82 237.59,337.71 C238.38,356.66 239.32,369.61 239.70,371.10 C239.70,371.10 240.18,369.90 240.18,369.90" fill="none" stroke="rgb(0, 0, 0)" stroke-width="5.00" stroke-opacity="1.00" stroke-linejoin="round"/>
<path d="M252.69,331.36 C252.69,331.32 252.70,331.45 252.70,331.50 C252.85,333.64 253.31,340.03 253.62,344.28 C254.20,352.05 255.51,369.34 255.71,370.75 C255.71,370.75 256.02,371.01 256.02,371.01 C256.02,371.01 256.15,370.85 256.15,370.85" fill="none" stroke="rgb(0, 0, 0)" stroke-width="5.00" stroke-opacity="1.00" stroke-linejoin="round"/>
<path d="M267.72,321.56 C267.72,321.56 268.17,317.02 268.17,317.02 C268.60,323.20 269.61,336.73 270.19,344.06 C270.74,351.97 271.85,370.26 271.91,370.93 C271.92,371.12 271.97,371.25 272.03,371.32 C272.03,371.32 272.09,371.23 272.09,371.23" fill="none" stroke="rgb(0, 0, 0)" stroke-width="5.00" stroke-opacity="1.00" stroke-linejoin="round"/>
<path d="M286.30,312.92 C286.66,314.76 287.24,320.43 287.83,331.38 C288.16,339.59 288.62,355.02 288.77,362.24 C288.95,367.99 289.23,368.90 289.62,369.18 C289.62,369.18 290.04,368.61 290.04,368.61" fill="none" stroke="rgb(0, 0, 0)" stroke-width="5.00" stroke-opacity="1.00" stroke-linejoin="round"/>
<path d="M302.86,300.15 C302.84,300.01 302.90,300.43 302.92,300.56 C304.25,309.69 304.78,319.19 304.82,328.66 C304.76,337.27 304.19,350.53 303.64,356.78 C303.26,360.85 302.59,367.79 302.82,369.92 C302.82,369.92 302.97,369.87 302.97,369.87" fill="none" stroke="rgb(0, 0, 0)" stroke-width="5.00" stroke-opacity="1.00" stroke-linejoin="round"/>
<path d="M202.83,372.93 C202.83,372.93 202.83,372.94 202.83,372.94 C211.30,374.55 218.19,374.80 230.81,374.54 C245.33,374.22 268.31,373.76 288.47,372.09 C296.04,371.41 308.74,368.10 310.46,367.08 C310.62,366.99 310.79,366.83 310.95,366.60 C310.98,366.55 311.03,366.50 311.08,366.45" fill="none" stroke="rgb(0, 0, 0)" stroke-width="6.00" stroke-opacity="1.00" stroke-linejoin="round"/>
<path d="M220.97,332.68 C220.97,332.68 218.14,333.68 218.14,333.68 C219.41,333.81 242.17,332.27 246.65,332.22 C251.08,332.21 251.74,332.26 252.69,332.42 C252.13,334.95 253.62,347.66 253.63,350.79 C253.64,352.46 253.35,354.44 252.89,356.19 C252.81,356.48 252.76,356.59 252.72,356.52" fill="none" stroke="rgb(0, 0, 0)" stroke-width="6.00" stroke-opacity="1.00" stroke-linejoin="round"/>
<path d="M218.25,333.08 C218.30,333.66 218.57,337.32 218.54,340.04 C218.36,346.32 218.14,355.91 218.10,359.21 C218.10,359.21 218.26,359.02 218.26,359.02" fill="none" stroke="rgb(0, 0, 0)" stroke-width="6.00" stroke-opacity="1.00" stroke-linejoin="round"/>
<path d="M217.80,357.45 C219.44,358.87 220.50,359.70 222.49,361.08 C233.12,368.48 233.95,369.26 233.90,369.47 C233.90,369.47 234.22,369.36 234.22,369.36" fill="none" stroke="rgb(0, 0, 0)" stroke-width="6.00" stroke-opacity="1.00" stroke-linejoin="round"/>
<path d="M235.66,368.62 C235.66,368.62 235.49,368.68 235.49,368.68 C235.49,368.68 254.11,355.01 254.11,355.01 C254.11,355.01 254.12,354.86 254.12,354.86" fill="none" stroke="rgb(0, 0, 0)" stroke-width="6.00" stroke-opacity="1.00" stroke-linejoin="round"/>
<path d="M222.73,337.35 C222.73,337.35 222.11,337.18 222.11,337.18 C227.51,336.94 242.59,335.24 246.06,335.29 C246.56,335.30 247.13,335.35 247.78,335.43 C247.78,335.43 249.44,356.34 249.44,356.34 C249.44,356.34 249.12,356.27 249.12,356.27" fill="none" stroke="rgb(0, 29, 255)" stroke-width="6.00" stroke-opacity="1.00" stroke-linejoin="round"/>
<path d="M224.46,340.41 C224.46,340.41 225.31,355.70 225.31,355.70 C225.12,355.95 226.25,358.09 231.66,361.67 C232.64,362.29 235.18,361.93 236.48,360.44 C239.11,357.27 244.36,351.37 244.69,350.49 C244.74,350.36 245.39,342.91 245.13,341.52 C244.86,340.20 243.71,339.36 242.77,339.56 C242.00,339.74 237.11,342.33 234.50,343.47 C232.29,344.43 229.10,345.35 229.18,345.31 C228.42,343.42 232.81,339.77 235.18,338.44 C229.79,340.67 227.43,344.41 227.41,344.76 C228.54,345.48 232.09,344.68 234.23,344.03 C235.15,343.74 239.23,342.36 239.48,342.37 C239.48,342.37 228.49,353.23 228.49,353.23 C229.62,353.81 233.07,352.58 235.91,351.36 C237.87,350.46 241.93,348.65 242.12,348.79 C242.12,348.79 232.34,358.54 232.34,358.54 C232.34,358.54 244.34,352.64 244.34,352.64 C244.34,352.64 235.03,359.70 235.03,359.70 C235.03,359.70 245.24,355.01 245.24,355.01 C245.24,355.01 244.98,355.14 244.98,355.14" fill="none" stroke="rgb(0, 29, 255)" stroke-width="9.49" stroke-opacity="1.00" stroke-linejoin="round"/>
<path d="M229.91,342.65 C229.27,341.83 227.30,340.76 225.69,341.81 C224.30,342.74 224.12,344.69 224.53,345.23 C226.27,347.15 229.31,350.81 229.22,351.93 C229.10,352.73 227.88,354.01 226.05,353.96 C223.99,353.87 222.35,352.90 222.28,352.65 C222.28,352.65 223.19,352.21 223.19,352.21" fill="none" stroke="rgb(0, 0, 0)" stroke-width="5.00" stroke-opacity="1.00" stroke-linejoin="round"/>
<path d="M236.17,346.62 C236.18,346.61 236.16,346.62 236.15,346.62 C235.48,347.06 235.02,348.05 235.29,348.84 C235.62,349.73 236.99,351.07 237.69,351.17 C238.40,351.24 239.19,349.98 239.16,348.91 C239.08,347.66 237.59,345.63 236.00,345.68 C235.54,345.69 234.74,345.97 234.65,346.04" fill="none" stroke="rgb(0, 0, 0)" stroke-width="5.00" stroke-opacity="1.00" stroke-linejoin="round"/>
<path d="M242.93,341.59 C242.93,341.59 243.70,351.60 243.70,351.60 C243.88,351.77 245.54,351.13 246.28,350.98 C247.18,350.80 248.50,350.65 250.22,350.55 C250.66,350.52 251.00,350.53 251.24,350.57" fill="none" stroke="rgb(0, 0, 0)" stroke-width="5.00" stroke-opacity="1.00" stroke-linejoin="round"/>
<path d="M242.85,328.57 C242.65,328.59 239.17,328.25 234.60,328.38 C228.79,328.61 217.20,329.38 212.97,329.17 C212.86,330.04 213.97,348.60 213.84,350.59 C213.77,351.66 213.39,354.63 213.23,355.74 C213.29,355.72 213.34,355.70 213.39,355.67 C213.44,355.64 213.54,355.57 213.72,355.45" fill="none" stroke="rgb(255, 35, 0)" stroke-width="5.00" stroke-opacity="1.00" stroke-linejoin="round"/>
<path d="M217.62,329.74 C217.61,329.73 217.59,329.71 217.55,329.67 C217.00,329.19 216.13,328.89 215.20,329.58 C214.68,329.99 214.99,338.70 214.75,349.62 C214.69,351.30 214.57,355.23 214.66,355.43 C214.68,355.47 214.75,355.54 214.85,355.63" fill="none" stroke="rgb(255, 35, 0)" stroke-width="5.00" stroke-opacity="1.00" stroke-linejoin="round"/>
</g>
</svg>
