<?xml version="1.0" encoding="UTF-8" standalone="no"?>
<!DOCTYPE svg PUBLIC "-//W3C//DTD SVG 1.1//EN" "http://www.w3.org/Graphics/SVG/1.1/DTD/svg11.dtd">
<svg width="102.86" height="102.86" viewBox="0.00 0.00 500.00 500.00" xmlns="http://www.w3.org/2000/svg" xmlns:xlink="http://www.w3.org/1999/xlink">
<g stroke-linecap="round" id="레이어_1">
<path d="M218.36,309.84 C221.29,309.72 238.21,308.48 244.15,308.08 C250.25,307.63 263.61,307.76 271.45,307.88 C279.55,308.07 299.39,308.74 302.15,309.91 C303.34,310.45 302.64,324.53 301.13,329.69 C300.49,331.82 298.45,336.00 296.74,338.21 C294.98,340.43 292.39,342.73 289.72,344.45 C287.30,345.99 283.21,347.35 280.64,347.47 C277.99,347.55 271.78,346.01 268.87,344.66 C266.56,343.57 258.17,338.02 256.73,337.21 C253.78,335.58 247.55,332.95 245.39,332.33 C236.58,329.95 223.50,327.35 222.57,327.08 C220.49,326.48 216.26,323.09 216.17,323.05 C215.98,322.96 214.29,324.28 213.91,324.35 C213.91,324.35 214.10,321.61 214.10,321.61 C214.04,323.85 212.26,340.16 213.13,344.18 C214.20,348.87 216.84,354.95 218.08,356.23 C219.54,357.57 222.93,357.98 225.28,357.38 C227.79,356.71 232.22,354.86 235.80,352.80 C238.75,351.08 253.82,341.46 258.37,339.21 C264.38,336.26 276.81,331.47 281.71,331.13 C284.52,330.97 290.11,332.18 292.32,333.74 C294.63,335.44 297.81,340.08 298.71,343.18 C299.43,345.82 299.78,350.86 299.44,353.53 C299.09,356.08 297.59,360.74 296.31,362.62 C295.53,363.71 293.68,365.42 292.45,366.12 C290.30,367.31 284.86,367.84 280.75,368.04 C275.49,368.26 241.07,360.64 228.38,357.70 C219.85,355.90 216.35,355.94 215.49,356.15 C214.56,358.25 214.36,365.05 215.55,368.13 C219.01,376.82 221.33,385.38 223.27,386.77 C224.18,387.38 228.84,389.18 231.33,389.10 C232.95,389.04 248.94,386.76 257.85,386.18 C262.98,385.79 282.62,382.59 283.76,382.31 C285.25,381.93 288.57,377.76 289.01,377.19 C289.85,376.08 291.45,373.10 292.64,371.21 C289.80,377.60 287.56,383.37 286.67,384.14 C285.51,385.07 273.66,385.15 265.39,384.60 C262.71,384.43 255.73,383.67 255.10,383.66 C252.50,383.62 235.92,385.23 229.86,385.10 C228.17,385.06 225.93,385.00 225.36,385.03 C227.03,386.32 230.56,387.55 233.19,387.98 C241.22,389.21 262.18,387.17 269.27,386.44 C273.57,386.00 281.00,385.55 283.83,384.16 C286.69,382.69 287.81,380.97 288.40,379.24 C288.44,379.12 288.51,378.88 288.61,378.54" fill="none" stroke="rgb(255, 255, 255)" stroke-width="32.41" stroke-opacity="1.00" stroke-linejoin="round"/>
<path d="M247.08,304.09 C247.08,304.09 246.60,304.23 246.60,304.23 C248.52,302.64 275.74,295.59 281.58,295.68 C282.04,295.69 282.34,295.80 282.40,295.88 C282.12,295.95 278.54,297.23 274.05,297.99 C268.10,298.99 256.62,301.06 253.49,301.76 C250.83,302.37 244.23,305.08 242.71,305.42 C243.64,305.52 251.53,304.81 261.20,304.59 C262.72,304.57 272.34,304.70 273.04,304.64 C268.22,303.05 248.66,304.94 247.74,305.83 C248.10,307.47 270.77,308.57 273.69,308.72 C258.26,306.42 250.24,307.01 249.87,307.12 C249.75,308.19 260.41,310.12 267.76,310.79 C273.88,311.34 282.80,311.21 283.29,311.03 C280.65,309.97 267.59,309.81 265.18,310.63 C268.74,310.83 278.58,309.26 284.43,307.71 C292.05,305.68 298.55,302.52 299.09,301.85 C298.66,300.98 298.06,300.50 296.84,300.25 C292.73,299.45 280.20,300.74 274.38,302.26 C274.96,303.18 286.79,300.86 288.54,299.78 C288.61,299.73 288.75,299.63 288.95,299.46 C288.56,298.61 285.09,298.00 282.57,298.05 C279.75,298.13 274.09,299.27 271.99,300.20 C269.98,301.11 269.00,302.24 268.69,302.80 C269.42,303.88 270.22,304.45 271.57,304.61 C274.14,304.90 279.52,303.97 283.11,302.86 C289.58,300.82 291.56,298.95 291.89,298.49 C291.19,297.62 290.36,297.13 288.95,296.98 C286.15,296.69 280.26,297.27 276.93,298.15 C270.10,299.97 265.10,303.31 264.81,304.19 C265.26,305.09 268.44,306.32 271.68,306.48 C275.69,306.62 289.41,303.69 290.74,302.73 C290.84,302.65 290.97,302.50 291.13,302.29 C289.58,301.34 284.90,301.49 282.03,302.21 C275.49,303.88 272.15,306.48 271.68,306.98 C272.18,307.77 272.89,308.12 274.24,308.05 C278.62,307.80 291.51,303.38 292.41,302.26 C292.46,302.19 292.52,302.05 292.58,301.86 C292.58,301.86 287.60,301.05 287.60,301.05 C287.60,301.05 290.80,300.39 290.80,300.39 C290.17,299.35 281.99,297.90 275.77,298.21 C271.13,298.45 260.61,300.19 255.06,301.73 C256.04,302.42 293.04,298.33 294.70,299.17 C294.82,299.24 295.02,299.35 295.29,299.49 C295.20,299.48 287.17,298.42 285.85,298.67 C285.29,298.78 284.20,299.16 283.90,299.29" fill="none" stroke="rgb(5, 45, 161)" stroke-width="6.00" stroke-opacity="1.00" stroke-linejoin="round"/>
<path d="M241.64,312.51 C241.64,312.51 241.27,312.00 241.27,312.00 C240.64,312.11 239.94,313.51 239.74,314.71 C239.50,316.29 240.04,318.56 240.97,319.14 C241.94,319.70 244.26,319.65 244.98,319.16 C245.68,318.65 246.42,316.46 246.11,315.21 C245.80,314.07 244.23,312.25 243.34,311.95 C242.40,311.65 240.58,311.88 240.19,312.47 C239.69,313.31 239.94,316.12 240.78,317.39 C241.56,318.52 243.73,319.70 244.74,319.75 C245.55,319.78 246.79,318.98 247.06,318.13 C247.37,317.07 246.84,314.33 246.17,313.20 C245.65,312.34 244.32,311.38 243.74,311.36 C243.02,311.39 242.02,313.59 242.09,315.36 C242.16,316.76 242.96,319.30 243.61,320.30 C244.42,321.51 246.64,322.60 247.62,322.49 C248.46,322.36 249.63,320.63 249.82,319.16 C249.98,317.79 249.32,315.43 248.86,314.80 C248.43,314.25 247.24,314.17 246.49,315.04 C245.55,316.18 244.70,319.37 244.95,320.95 C245.23,322.46 246.79,324.12 248.17,324.18 C249.62,324.18 252.44,322.46 253.42,321.13 C254.22,320.00 254.38,318.16 253.81,317.58 C253.09,316.90 250.71,316.49 249.84,316.97 C249.04,317.45 247.97,320.14 248.06,321.61 C248.17,323.01 249.67,325.56 250.64,326.23 C251.56,326.83 253.44,326.87 254.09,326.43 C254.79,325.91 255.45,323.99 255.20,322.66 C254.73,320.40 253.50,320.04 253.15,320.02 C252.50,320.33 251.95,322.37 252.20,324.07 C252.45,325.61 253.72,327.94 254.37,328.35 C255.06,328.74 257.03,328.36 257.70,327.56 C258.35,326.76 258.76,324.70 258.49,324.09 C258.23,323.54 257.24,323.01 256.80,323.26 C256.34,323.56 255.97,325.01 256.12,325.92 C256.62,328.45 258.23,327.89 258.56,327.66 C258.49,327.56 258.42,327.48 258.35,327.43 C258.28,327.38 258.12,327.28 257.86,327.13" fill="none" stroke="rgb(5, 45, 161)" stroke-width="6.00" stroke-opacity="1.00" stroke-linejoin="round"/>
<path d="M234.58,305.36 C233.93,304.63 232.70,304.18 231.64,304.16 C230.34,304.15 228.39,304.87 228.05,305.64 C227.64,306.69 228.37,309.59 229.53,310.70 C230.67,311.72 233.46,312.32 234.71,311.94 C235.74,311.59 236.78,310.07 236.66,308.92 C236.49,307.61 234.68,305.50 233.50,305.15 C232.44,304.86 230.25,305.46 229.71,306.12 C229.14,306.84 228.90,309.06 229.46,309.68 C230.11,310.33 232.87,310.80 233.99,310.47 C234.84,310.20 235.94,308.95 236.11,308.23 C236.26,307.50 235.61,306.43 235.05,306.32 C233.71,306.11 233.77,309.46 234.80,309.69 C234.80,309.69 233.98,308.00 233.98,308.00 C233.27,308.25 229.54,305.24 227.84,303.75 C224.38,300.72 214.65,296.56 210.30,294.68 C207.66,293.65 192.81,293.37 190.11,294.44 C189.07,294.88 188.77,295.45 188.71,295.81 C188.91,296.52 191.50,297.60 195.78,297.82 C197.75,297.90 205.14,297.31 206.22,297.22 C206.22,297.22 190.88,296.96 190.88,296.96 C192.36,298.82 211.54,299.87 212.76,300.00 C212.00,300.03 200.70,299.80 196.87,300.91 C196.04,301.15 195.23,301.50 195.16,301.57 C195.83,303.21 214.15,302.02 217.49,301.88 C215.94,301.82 200.58,300.73 196.29,301.61 C196.15,301.64 196.03,301.67 195.93,301.70 C196.18,302.13 200.61,303.50 203.42,304.04 C205.49,304.43 216.04,305.68 220.73,306.40 C220.69,306.40 214.12,304.76 212.48,304.63 C210.44,304.47 209.02,304.50 207.73,304.71 C207.73,304.71 221.29,304.58 221.29,304.58 C220.83,302.87 214.17,300.16 206.67,297.74 C206.67,297.74 220.60,300.77 220.60,300.77 C220.60,300.77 207.60,297.16 207.60,297.16 C208.31,297.38 222.97,302.66 224.85,303.67 C227.00,304.85 227.85,306.47 227.91,307.08 C227.94,307.81 226.95,309.30 225.41,310.23 C224.01,311.07 208.55,318.63 204.84,321.70 C204.39,322.08 204.13,322.43 204.15,322.48 C204.15,322.48 221.05,311.12 221.05,311.12 C213.04,315.24 203.39,324.24 202.85,324.99 C202.96,325.40 218.35,314.10 219.40,313.21 C219.61,313.03 219.85,312.78 220.14,312.48 C211.43,316.38 204.24,326.08 204.16,326.70 C205.67,327.81 222.21,316.50 224.58,314.64 C224.58,314.64 211.88,324.30 211.88,324.30 C211.44,326.79 225.70,314.86 225.79,314.73 C225.79,314.73 216.05,322.91 216.05,322.91 C216.05,322.91 224.81,316.30 224.81,316.30 C224.74,316.28 224.42,316.39 224.10,316.59 C224.00,316.66 223.81,316.79 223.54,316.99" fill="none" stroke="rgb(5, 45, 161)" stroke-width="6.00" stroke-opacity="1.00" stroke-linejoin="round"/>
<path d="M183.75,295.40 C184.03,294.79 186.39,293.62 190.45,292.53 C193.91,291.61 200.79,290.88 204.16,291.04 C206.46,291.16 215.05,292.66 216.46,293.11 C218.50,293.77 222.28,296.03 223.41,297.36 C224.09,298.17 225.63,301.81 225.21,302.15 C225.17,302.17 225.15,302.22 225.16,302.29" fill="none" stroke="rgb(0, 0, 0)" stroke-width="6.00" stroke-opacity="1.00" stroke-linejoin="round"/>
<path d="M225.64,300.74 C224.97,301.25 224.02,303.37 224.04,306.01 C224.09,308.50 225.38,312.03 226.71,313.28 C227.98,314.44 230.96,315.67 232.32,315.64 C233.40,315.55 237.61,311.25 238.41,309.65 C239.09,308.17 239.37,304.80 238.86,303.84 C238.40,303.02 235.50,301.10 234.41,300.95 C231.84,300.62 226.29,301.49 224.78,301.72 C224.41,301.77 223.98,301.83 223.48,301.89" fill="none" stroke="rgb(0, 0, 0)" stroke-width="6.00" stroke-opacity="1.00" stroke-linejoin="round"/>
<path d="M184.03,293.74 C184.05,293.78 184.07,293.84 184.10,293.90 C184.88,295.71 186.98,298.95 190.49,301.57 C192.24,302.85 197.26,305.67 200.96,306.76 C204.19,307.70 218.88,308.96 220.40,308.35 C221.64,307.78 222.68,306.51 223.28,305.59 C223.29,305.58 223.30,305.52 223.28,305.53" fill="none" stroke="rgb(0, 0, 0)" stroke-width="6.00" stroke-opacity="1.00" stroke-linejoin="round"/>
<path d="M222.99,307.02 C222.93,307.04 222.89,307.04 222.86,307.04 C221.78,307.19 215.74,309.63 213.02,311.14 C211.27,312.13 206.96,315.07 205.24,316.80 C201.20,320.92 200.30,328.53 200.43,329.00 C200.74,329.03 216.54,326.01 220.72,323.95 C225.18,321.70 228.17,317.08 228.16,316.34 C228.16,316.34 227.65,316.11 227.65,316.11" fill="none" stroke="rgb(0, 0, 0)" stroke-width="6.00" stroke-opacity="1.00" stroke-linejoin="round"/>
<path d="M223.62,312.34 C222.93,312.79 217.82,316.80 215.36,318.64 C215.09,318.85 214.78,319.12 214.44,319.44" fill="none" stroke="rgb(0, 0, 0)" stroke-width="6.00" stroke-opacity="1.00" stroke-linejoin="round"/>
<path d="M235.13,314.93 C235.47,316.06 235.99,317.51 236.50,318.54 C237.75,321.03 241.41,324.26 243.54,325.62 C246.81,327.62 252.71,331.29 255.12,331.87 C257.12,332.32 260.48,332.47 261.32,331.63 C261.93,330.97 262.64,327.57 262.37,326.91 C257.99,316.76 245.34,308.32 244.51,308.13 C243.93,308.01 243.13,308.29 242.55,308.73 C242.45,308.81 242.33,308.92 242.20,309.06" fill="none" stroke="rgb(0, 0, 0)" stroke-width="6.00" stroke-opacity="1.00" stroke-linejoin="round"/>
<path d="M238.38,311.86 C240.44,313.29 241.85,314.31 243.49,315.56 C245.17,316.84 247.24,318.25 248.81,319.19 C249.09,319.35 249.24,319.42 249.25,319.39" fill="none" stroke="rgb(0, 0, 0)" stroke-width="6.00" stroke-opacity="1.00" stroke-linejoin="round"/>
<path d="M241.62,303.25 C241.62,303.25 240.63,303.84 240.63,303.84 C245.16,301.16 254.23,297.55 259.68,296.24 C264.83,295.02 276.90,294.03 282.46,294.13 C286.28,294.22 292.26,295.11 294.79,295.75 C296.94,296.33 299.97,298.21 300.40,299.19 C300.25,299.76 298.59,301.79 296.05,304.74 C293.84,307.28 290.04,310.43 286.45,312.14 C283.44,313.54 277.39,314.58 273.58,314.45 C270.20,314.30 265.21,313.75 261.78,313.09 C258.61,312.46 250.63,309.26 250.09,309.09" fill="none" stroke="rgb(0, 0, 0)" stroke-width="6.00" stroke-opacity="1.00" stroke-linejoin="round"/>
<path d="M201.46,308.14 C201.46,308.14 200.57,309.68 200.57,309.68" fill="none" stroke="rgb(0, 0, 0)" stroke-width="6.00" stroke-opacity="1.00" stroke-linejoin="round"/>
<path d="M317.11,300.67 C317.55,305.18 317.53,317.75 317.32,325.23 C316.93,334.35 316.00,346.44 314.72,353.03 C313.37,359.81 309.45,372.27 306.68,380.00 C303.30,388.83 299.74,395.97 298.46,397.31 C298.29,397.49 297.98,397.77 297.53,398.14" fill="none" stroke="rgb(0, 0, 0)" stroke-width="6.00" stroke-opacity="1.00" stroke-linejoin="round"/>
<path d="M202.70,308.47 C201.96,308.72 200.12,311.17 199.04,314.18 C197.55,318.47 195.60,328.44 195.29,333.94 C195.00,339.42 195.92,351.44 197.44,358.96 C198.78,365.56 202.27,377.57 204.39,383.17 C206.65,389.07 212.32,398.99 213.83,401.59 C214.29,402.36 214.75,403.12 215.22,403.89" fill="none" stroke="rgb(0, 0, 0)" stroke-width="6.00" stroke-opacity="1.00" stroke-linejoin="round"/>
<path d="M203.78,311.69 C203.78,311.69 208.00,311.28 208.00,311.28 C207.54,311.58 206.84,312.06 206.24,312.53 C205.66,313.00 205.08,313.46 204.49,313.93" fill="none" stroke="rgb(178, 107, 0)" stroke-width="4.41" stroke-opacity="1.00" stroke-linejoin="round"/>
<path d="M204.83,311.83 C203.70,313.67 202.14,316.59 201.56,317.67 C200.93,318.83 199.47,321.39 199.38,321.53" fill="none" stroke="rgb(178, 107, 0)" stroke-width="4.41" stroke-opacity="1.00" stroke-linejoin="round"/>
<path d="M203.42,311.13 C203.09,311.86 202.77,312.60 202.44,313.33 C202.03,314.27 200.71,317.49 200.09,319.02 C199.64,320.15 198.69,322.67 198.34,323.59" fill="none" stroke="rgb(178, 107, 0)" stroke-width="4.41" stroke-opacity="1.00" stroke-linejoin="round"/>
<path d="M199.15,320.86 C198.85,321.33 198.67,323.77 198.63,324.53 C198.61,325.11 198.58,325.70 198.55,326.29 C198.54,326.58 198.53,326.87 198.52,327.16" fill="none" stroke="rgb(178, 107, 0)" stroke-width="4.41" stroke-opacity="1.00" stroke-linejoin="round"/>
<path d="M198.27,329.69 C198.27,329.69 199.33,334.12 199.33,334.12 C199.33,334.12 203.88,333.96 203.88,333.96 C202.72,333.13 200.29,332.73 200.60,332.44 C201.04,332.21 204.54,332.24 209.74,331.24 C212.95,330.63 215.16,330.02 221.83,328.03 C223.85,327.39 226.15,325.83 227.25,324.83 C227.27,324.81 227.30,324.73 227.27,324.74" fill="none" stroke="rgb(178, 107, 0)" stroke-width="4.41" stroke-opacity="1.00" stroke-linejoin="round"/>
<path d="M231.10,320.33 C229.57,324.42 227.43,328.05 226.13,329.47 C224.46,331.25 221.19,332.86 220.65,332.83 C220.65,332.83 228.41,326.65 228.41,326.65 C224.08,329.73 214.31,334.79 209.05,335.35 C207.01,335.56 203.70,334.62 202.23,335.49 C201.55,335.97 201.39,339.24 201.86,343.26 C203.25,355.15 204.74,363.25 205.03,364.27 C205.03,364.27 202.71,340.38 202.71,340.38 C202.71,340.35 202.96,354.84 203.98,360.39 C204.06,360.80 205.62,367.51 206.08,368.05 C206.17,368.14 209.63,368.03 210.30,367.45 C211.31,366.51 212.08,361.19 212.31,357.19 C212.69,349.85 211.64,339.64 210.46,338.61 C209.58,339.19 208.56,344.93 208.37,348.90 C208.19,353.03 208.71,360.69 209.31,363.09 C210.04,365.90 211.02,367.06 211.61,367.08 C212.33,366.57 213.10,363.47 213.47,360.29 C215.73,339.42 215.25,336.38 215.05,336.33 C213.61,337.71 212.04,343.37 211.67,346.05 C211.08,350.55 211.22,362.10 212.93,365.64 C213.29,366.36 213.83,366.84 214.43,367.12 C215.65,367.05 217.34,364.44 218.24,360.36 C220.08,351.62 220.76,335.04 220.36,334.15 C219.77,334.25 219.31,334.78 218.99,336.16 C217.79,341.40 217.67,355.85 218.75,360.67 C219.57,364.29 220.38,365.15 220.83,365.49 C222.23,364.21 223.09,359.07 223.46,355.94 C224.22,349.56 226.50,333.80 226.72,330.31 C225.27,331.17 223.97,345.68 224.37,351.36 C224.59,354.21 225.59,358.55 226.23,359.11 C227.19,358.60 227.48,355.47 227.74,349.91 C228.58,328.51 230.05,322.57 230.36,323.47 C230.36,323.47 240.35,334.90 240.35,334.90 C240.35,334.90 233.75,324.34 233.75,324.34 C235.88,327.80 237.77,330.60 239.64,332.47 C243.30,336.07 249.02,338.47 252.78,339.90 C252.78,339.90 238.71,330.50 238.71,330.50 C243.60,333.95 246.85,336.07 249.95,337.52 C252.38,338.64 257.25,339.92 258.93,339.98 C260.61,340.02 265.12,339.30 268.83,338.10 C260.86,338.77 251.93,338.49 245.71,337.12 C243.87,336.76 241.77,337.72 240.32,339.24 C236.06,343.75 229.75,353.01 228.29,356.74 C227.80,358.06 227.72,359.57 228.18,360.18 C230.41,362.93 232.77,361.92 233.36,361.48 C232.47,361.32 226.28,366.35 224.37,367.73 C223.65,368.25 218.75,369.50 218.06,369.54 C218.09,369.54 221.48,369.31 223.55,368.63 C226.18,367.75 229.52,365.43 229.99,364.04 C232.74,355.29 235.58,333.33 235.59,333.33 C235.59,333.33 239.79,362.37 239.79,362.37 C239.79,362.37 243.65,362.71 243.65,362.71 C243.65,362.71 245.21,343.64 245.21,343.64 C244.54,346.12 244.26,352.26 244.60,356.05 C244.92,359.44 246.33,364.36 247.14,365.30 C247.82,366.01 249.56,366.04 250.18,364.84 C251.67,361.77 251.63,345.56 250.57,341.99 C249.80,342.13 249.26,342.66 248.82,344.00 C247.97,346.60 247.25,352.46 247.22,354.62 C247.19,363.62 249.21,366.51 249.86,367.06 C251.23,367.34 254.09,365.23 255.60,362.44 C260.96,352.38 261.84,338.90 261.36,337.90 C259.65,338.23 258.36,338.93 257.29,340.44 C255.50,342.98 253.50,347.65 252.92,349.51 C252.35,351.36 251.14,356.95 251.03,360.09 C250.93,363.65 251.99,365.22 252.80,365.77 C254.78,365.77 258.61,362.92 261.34,359.19 C267.89,350.12 270.42,339.65 270.05,338.57 C268.23,338.39 266.80,338.73 265.52,339.95 C263.37,342.03 260.80,346.25 260.03,347.94 C259.24,349.68 257.74,354.20 257.22,357.69 C257.01,359.25 257.55,363.27 258.75,363.98 C259.47,364.37 261.43,364.25 262.53,363.74 C264.89,362.57 268.95,357.42 270.42,354.77 C273.13,349.78 275.71,340.99 275.30,338.50 C273.99,338.31 272.88,338.65 271.80,339.91 C269.91,342.14 267.81,346.45 267.18,348.28 C266.55,350.12 265.37,355.02 265.07,358.74 C264.95,360.42 265.74,364.65 266.87,365.55 C267.51,366.02 269.14,366.16 270.06,365.83 C271.99,365.05 275.88,360.41 277.96,356.42 C279.83,352.78 282.89,342.55 282.13,340.94 C281.05,340.88 280.24,341.25 279.55,342.42 C278.20,344.72 276.71,350.62 276.48,352.74 C275.70,360.55 277.29,363.12 277.78,363.60 C279.29,363.35 280.24,362.81 281.06,361.48 C282.67,358.82 284.58,353.13 285.21,349.29 C285.81,345.45 285.72,341.59 285.17,340.79 C285.17,340.79 285.26,353.46 285.26,353.46 C285.26,353.46 287.71,342.07 287.71,342.07 C289.31,346.06 291.11,348.53 293.11,349.33 C294.14,349.71 300.84,348.42 303.39,348.42 C307.14,348.43 307.99,348.29 309.50,347.76 C309.50,348.80 308.19,356.05 307.55,357.41 C306.59,359.35 303.21,360.78 299.74,361.56 C296.84,362.15 273.27,364.82 270.40,364.98 C263.07,365.36 243.73,364.09 242.16,364.53 C242.22,365.38 244.77,368.11 246.41,368.87 C247.81,369.50 252.68,370.16 254.97,370.35 C259.02,370.67 272.35,368.28 274.91,367.63 C278.93,366.59 283.93,364.77 285.29,363.56 C286.21,362.71 287.15,360.86 287.42,359.40 C287.46,359.18 287.92,355.24 288.18,354.52 C288.70,353.08 290.93,351.04 291.47,351.04 C292.03,351.64 291.67,354.10 289.58,357.78 C287.20,361.97 286.21,364.98 286.52,366.30 C286.59,366.55 287.89,366.93 289.82,365.23 C290.21,364.88 300.45,353.61 301.75,352.33 C298.22,357.17 295.61,360.41 293.94,361.80 C289.19,365.66 285.59,366.14 285.61,366.14 C285.61,366.14 306.95,362.10 306.95,362.10 C306.95,362.10 307.71,362.98 307.71,362.98 C306.08,364.08 302.60,365.16 298.16,366.13 C289.85,367.90 285.62,367.41 284.97,367.20 C284.96,367.19 288.03,368.00 291.73,367.97 C292.19,367.96 302.48,366.24 304.48,365.95 C304.48,365.95 278.12,368.71 278.12,368.71" fill="none" stroke="rgb(178, 107, 0)" stroke-width="9.65" stroke-opacity="1.00" stroke-linejoin="round"/>
<path d="M258.55,315.66 C258.56,315.67 258.60,315.70 258.68,315.75 C259.40,316.27 260.87,317.45 261.78,318.30 C263.06,319.50 266.14,323.37 267.40,325.43 C268.41,327.11 270.77,332.12 271.08,333.35 C271.13,333.58 271.21,334.03 271.32,334.70" fill="none" stroke="rgb(178, 107, 0)" stroke-width="6.48" stroke-opacity="1.00" stroke-linejoin="round"/>
<path d="M266.98,325.75 C267.32,326.95 267.72,328.79 267.83,329.89 C268.07,332.58 266.97,336.17 265.92,337.49 C268.52,334.26 268.83,331.51 268.58,330.92 C268.58,330.92 265.13,336.08 265.13,336.08 C265.13,336.08 267.54,330.83 267.54,330.83 C267.54,330.83 264.43,335.38 264.43,335.38 C264.95,334.71 265.30,334.26 265.45,334.05 C265.61,333.83 265.80,333.54 266.02,333.17" fill="none" stroke="rgb(178, 107, 0)" stroke-width="6.48" stroke-opacity="1.00" stroke-linejoin="round"/>
<path d="M263.72,318.32 C267.33,319.49 271.72,320.61 274.42,320.52 C276.54,320.42 280.02,319.70 282.87,318.82 C284.64,318.28 286.13,317.60 287.64,316.65 C287.90,316.49 288.12,316.33 288.31,316.16" fill="none" stroke="rgb(178, 107, 0)" stroke-width="6.48" stroke-opacity="1.00" stroke-linejoin="round"/>
<path d="M293.29,311.72 C291.76,313.48 288.86,315.74 286.36,317.43 C283.69,319.20 279.89,320.06 275.06,320.22 C272.23,320.27 269.93,319.99 266.78,319.37 C266.78,319.37 280.92,319.51 280.92,319.51 C278.77,320.00 274.38,321.96 272.50,323.37 C270.80,324.69 268.47,327.75 267.87,329.20 C267.43,330.31 267.43,332.08 267.76,332.72 C268.12,333.35 269.27,333.47 270.08,332.67 C272.13,330.56 276.15,321.30 276.02,321.39 C275.05,323.38 273.38,329.32 273.17,332.63 C272.98,335.95 273.98,337.05 274.25,337.15 C274.25,337.15 279.95,322.31 279.95,322.31 C277.90,327.63 275.85,339.40 276.61,339.90 C277.66,339.35 279.17,335.56 281.58,329.10 C283.61,323.81 284.42,322.02 285.50,319.78 C285.56,319.91 281.79,336.82 282.36,339.98 C282.39,340.15 282.46,340.23 282.56,340.22 C282.56,340.22 288.06,320.46 288.06,320.46 C288.02,320.57 285.86,324.06 284.94,328.11 C283.94,332.69 284.02,341.45 284.26,343.98 C283.31,337.62 282.73,334.33 281.80,332.45 C280.49,329.89 277.17,326.17 275.02,325.15 C271.68,323.62 267.96,322.16 267.03,321.87 C267.42,322.42 269.18,323.22 270.46,323.27 C270.60,323.27 270.95,323.27 271.50,323.28" fill="none" stroke="rgb(178, 107, 0)" stroke-width="6.48" stroke-opacity="1.00" stroke-linejoin="round"/>
<path d="M305.22,299.95 C304.72,299.73 299.45,304.74 298.60,305.70 C298.44,305.88 298.24,306.12 298.01,306.44" fill="none" stroke="rgb(178, 107, 0)" stroke-width="6.48" stroke-opacity="1.00" stroke-linejoin="round"/>
<path d="M302.50,300.66 C302.32,301.24 302.00,302.15 301.75,302.69 C300.68,304.96 291.09,313.77 290.43,315.07 C290.43,315.07 290.79,315.24 290.79,315.24" fill="none" stroke="rgb(178, 107, 0)" stroke-width="6.48" stroke-opacity="1.00" stroke-linejoin="round"/>
<path d="M304.07,300.35 C305.02,299.96 309.65,299.65 310.45,299.50 C310.58,299.48 310.63,299.45 310.61,299.43" fill="none" stroke="rgb(178, 107, 0)" stroke-width="6.48" stroke-opacity="1.00" stroke-linejoin="round"/>
<path d="M232.33,320.47 C231.65,324.52 232.65,340.85 233.24,349.22 C233.74,355.77 235.76,367.09 236.44,369.47 C236.44,369.47 236.44,369.12 236.44,369.12" fill="none" stroke="rgb(0, 0, 0)" stroke-width="6.00" stroke-opacity="1.00" stroke-linejoin="round"/>
<path d="M200.06,372.38 C203.92,373.08 207.52,373.54 210.85,373.68 C214.24,373.80 219.62,373.68 221.93,373.46 C226.38,373.01 232.68,370.94 233.95,369.83 C235.08,368.82 236.41,367.03 236.76,366.23 C236.76,366.23 236.36,366.12 236.36,366.12" fill="none" stroke="rgb(0, 0, 0)" stroke-width="6.00" stroke-opacity="1.00" stroke-linejoin="round"/>
<path d="M237.77,367.13 C238.43,367.95 239.65,369.10 240.74,369.84 C242.77,371.17 248.98,373.45 253.29,373.91 C255.56,374.13 273.39,373.35 281.24,372.99 C289.81,372.49 298.58,370.38 300.36,370.33 C302.59,370.24 306.64,370.07 308.69,370.54 C309.46,370.72 309.91,370.79 309.94,370.75" fill="none" stroke="rgb(0, 0, 0)" stroke-width="6.00" stroke-opacity="1.00" stroke-linejoin="round"/>
<path d="M247.44,344.45 C250.87,343.93 257.58,343.39 261.53,343.07 C273.97,342.14 280.17,342.28 281.46,343.36 C281.80,345.03 279.94,349.04 278.85,349.66 C277.52,350.34 258.96,349.28 254.46,349.46 C250.37,349.63 249.35,349.44 248.77,348.92 C248.56,348.12 248.65,347.14 249.09,345.23 C249.10,345.19 249.11,345.07 249.10,345.11" fill="none" stroke="rgb(0, 0, 0)" stroke-width="6.00" stroke-opacity="1.00" stroke-linejoin="round"/>
<path d="M249.43,349.53 C249.62,352.57 250.18,357.06 251.44,360.74 C251.85,361.83 255.78,362.47 261.58,362.45 C272.05,362.29 276.98,360.55 276.82,360.19 C275.17,357.60 276.14,352.66 276.20,352.30 C276.21,352.21 276.20,352.14 276.16,352.10 C276.16,352.10 275.98,352.19 275.98,352.19" fill="none" stroke="rgb(0, 0, 0)" stroke-width="6.00" stroke-opacity="1.00" stroke-linejoin="round"/>
<path d="M201.65,347.97 C201.65,347.97 222.00,343.78 222.00,343.78 C223.32,345.76 222.15,353.63 221.25,353.93 C220.30,354.17 204.03,355.99 201.68,355.24 C201.06,355.01 200.02,353.08 199.85,352.02 C199.81,351.73 199.81,351.28 199.85,350.67" fill="none" stroke="rgb(0, 0, 0)" stroke-width="6.00" stroke-opacity="1.00" stroke-linejoin="round"/>
<path d="M202.32,356.39 C202.32,356.39 202.32,356.40 202.32,356.40 C202.38,359.18 204.23,365.40 205.17,366.38 C205.71,366.89 207.17,367.25 208.17,367.15 C216.26,366.21 219.54,365.09 220.17,364.61 C219.61,361.52 219.79,358.25 219.92,357.38 C219.96,357.18 220.01,356.60 220.01,356.55" fill="none" stroke="rgb(0, 0, 0)" stroke-width="6.00" stroke-opacity="1.00" stroke-linejoin="round"/>
<path d="M316.22,300.35 C316.25,300.35 311.79,301.14 308.87,302.24 C305.82,303.41 301.64,305.88 300.20,307.05 C298.23,308.69 294.34,313.46 292.85,316.18 C291.53,318.65 289.66,323.67 288.84,326.54 C288.11,329.27 288.10,333.73 289.21,336.77 C290.14,339.16 294.13,342.49 296.64,343.62 C297.13,343.83 297.74,343.92 297.95,343.91" fill="none" stroke="rgb(0, 0, 0)" stroke-width="6.00" stroke-opacity="1.00" stroke-linejoin="round"/>
<path d="M302.27,297.16 C303.99,296.94 305.25,296.86 307.16,296.90 C309.03,296.94 310.38,297.09 311.38,297.35 C311.56,297.40 311.77,297.48 312.02,297.58" fill="none" stroke="rgb(0, 0, 0)" stroke-width="6.00" stroke-opacity="1.00" stroke-linejoin="round"/>
<path d="M295.99,343.91 C295.95,343.89 296.04,343.97 296.08,343.99 C297.12,344.54 297.88,344.89 298.36,345.03 C298.79,345.15 299.45,345.21 300.32,345.19 C300.46,345.19 300.62,345.18 300.81,345.16" fill="none" stroke="rgb(0, 0, 0)" stroke-width="6.00" stroke-opacity="1.00" stroke-linejoin="round"/>
<path d="M298.78,343.86 C302.85,345.46 308.03,346.01 310.66,345.14 C311.71,344.76 313.44,343.55 313.91,342.77 C314.47,341.83 315.32,339.84 315.29,339.73" fill="none" stroke="rgb(0, 0, 0)" stroke-width="6.00" stroke-opacity="1.00" stroke-linejoin="round"/>
</g>
</svg>
