<?xml version="1.0" encoding="UTF-8" standalone="no"?>
<!DOCTYPE svg PUBLIC "-//W3C//DTD SVG 1.1//EN" "http://www.w3.org/Graphics/SVG/1.1/DTD/svg11.dtd">
<svg width="102.86" height="102.86" viewBox="0.00 0.00 500.00 500.00" xmlns="http://www.w3.org/2000/svg" xmlns:xlink="http://www.w3.org/1999/xlink">
<g stroke-linecap="round" id="레이어_8">
<path d="M300.61,323.74 C299.60,324.47 307.48,341.17 310.62,345.98 C312.78,349.25 317.15,353.62 318.89,354.44 C320.49,355.15 322.35,354.73 322.82,353.29 C323.37,351.42 322.47,346.24 321.01,342.52 C319.28,338.21 310.66,320.51 309.66,319.32 C308.06,317.45 307.20,317.35 306.73,317.40 C304.93,321.11 312.39,340.35 314.62,344.08 C317.75,349.28 320.00,349.39 320.51,349.21 C321.17,348.20 320.71,344.02 319.41,340.07 C317.84,335.36 310.97,320.29 309.08,319.43 C308.44,320.86 310.00,327.14 311.46,330.47 C313.02,333.95 316.74,339.25 318.38,340.70 C319.76,341.88 320.75,341.86 321.37,341.63 C322.35,340.51 322.64,336.42 321.98,332.70 C321.10,327.86 316.82,312.07 315.81,310.29 C316.81,310.91 319.15,313.44 320.34,315.61 C321.10,317.00 328.81,333.28 330.45,338.51 C331.12,340.65 331.79,345.25 331.56,346.62 C330.84,350.45 325.36,355.66 324.78,356.07 C324.83,356.05 328.01,354.08 329.20,352.64 C330.53,350.98 332.71,346.84 332.90,345.17 C333.03,343.94 332.94,341.07 332.84,340.09 C334.51,343.02 335.03,344.78 334.93,345.33 C334.92,345.35 334.89,345.46 334.83,345.66" fill="none" stroke="rgb(255, 255, 255)" stroke-width="12.00" stroke-opacity="1.00" stroke-linejoin="round"/>
<path d="M296.53,331.34 C296.61,331.67 296.70,332.00 296.81,332.32 C298.26,336.63 305.44,350.56 309.69,355.66 C311.76,358.11 316.12,361.13 318.49,361.78 C320.88,362.39 325.55,361.87 328.02,360.79 C330.55,359.63 335.70,356.12 337.68,352.88 C338.70,351.15 339.45,346.34 339.07,343.65 C338.89,342.52 329.74,321.24 329.49,320.75 C328.17,318.13 322.38,308.87 321.58,307.36 C321.39,307.00 321.05,306.35 320.58,305.40" fill="none" stroke="rgb(0, 0, 0)" stroke-width="6.00" stroke-opacity="1.00" stroke-linejoin="round"/>
<path d="M-235.93,-193.12" fill="none" stroke="rgb(255, 255, 255)" stroke-width="12.00" stroke-opacity="1.00" stroke-linejoin="round"/>
<path d="M310.04,350.38 C313.80,346.44 322.53,339.93 328.28,337.12 C331.33,335.66 335.19,334.64 336.94,335.09 C336.94,335.09 336.75,336.67 336.75,336.67" fill="none" stroke="rgb(0, 0, 0)" stroke-width="5.20" stroke-opacity="1.00" stroke-linejoin="round"/>
<path d="M305.08,347.01 C305.08,346.97 305.08,346.92 305.09,346.85 C305.41,345.37 307.87,342.24 311.49,339.28 C322.49,330.40 331.21,328.66 332.49,328.76 C332.66,328.89 332.76,329.00 332.79,329.07 C332.83,329.14 332.85,329.27 332.85,329.46" fill="none" stroke="rgb(0, 0, 0)" stroke-width="5.20" stroke-opacity="1.00" stroke-linejoin="round"/>
</g>
</svg>
