<?xml version="1.0" encoding="UTF-8" standalone="no"?>
<!DOCTYPE svg PUBLIC "-//W3C//DTD SVG 1.1//EN" "http://www.w3.org/Graphics/SVG/1.1/DTD/svg11.dtd">
<svg width="102.86" height="102.86" viewBox="0.00 0.00 500.00 500.00" xmlns="http://www.w3.org/2000/svg" xmlns:xlink="http://www.w3.org/1999/xlink">
<g stroke-linecap="round" id="레이어_1">
<path d="M218.36,309.84 C221.29,309.72 238.21,308.48 244.15,308.08 C250.25,307.63 263.61,307.76 271.45,307.88 C279.55,308.07 299.39,308.74 302.15,309.91 C303.34,310.45 302.64,324.53 301.13,329.69 C300.49,331.82 298.45,336.00 296.74,338.21 C294.98,340.43 292.39,342.73 289.72,344.45 C287.30,345.99 283.21,347.35 280.64,347.47 C277.99,347.55 271.78,346.01 268.87,344.66 C266.56,343.57 258.17,338.02 256.73,337.21 C253.78,335.58 247.55,332.95 245.39,332.33 C236.58,329.95 223.50,327.35 222.57,327.08 C220.49,326.48 216.26,323.09 216.17,323.05 C215.98,322.96 214.29,324.28 213.91,324.35 C213.91,324.35 214.10,321.61 214.10,321.61 C214.04,323.85 212.26,340.16 213.13,344.18 C214.20,348.87 216.84,354.95 218.08,356.23 C219.54,357.57 222.93,357.98 225.28,357.38 C227.79,356.71 232.22,354.86 235.80,352.80 C238.75,351.08 253.82,341.46 258.37,339.21 C264.38,336.26 276.81,331.47 281.71,331.13 C284.52,330.97 290.11,332.18 292.32,333.74 C294.63,335.44 297.81,340.08 298.71,343.18 C299.43,345.82 299.78,350.86 299.44,353.53 C299.09,356.08 297.59,360.74 296.31,362.62 C295.53,363.71 293.68,365.42 292.45,366.12 C290.30,367.31 284.86,367.84 280.75,368.04 C275.49,368.26 241.07,360.64 228.38,357.70 C219.85,355.90 216.35,355.94 215.49,356.15 C214.56,358.25 214.36,365.05 215.55,368.13 C219.01,376.82 221.33,385.38 223.27,386.77 C224.18,387.38 228.84,389.18 231.33,389.10 C232.95,389.04 248.94,386.76 257.85,386.18 C262.98,385.79 282.62,382.59 283.76,382.31 C285.25,381.93 288.57,377.76 289.01,377.19 C289.85,376.08 291.45,373.10 292.64,371.21 C289.80,377.60 287.56,383.37 286.67,384.14 C285.51,385.07 273.66,385.15 265.39,384.60 C262.71,384.43 255.73,383.67 255.10,383.66 C252.50,383.62 235.92,385.23 229.86,385.10 C228.17,385.06 225.93,385.00 225.36,385.03 C227.03,386.32 230.56,387.55 233.19,387.98 C241.22,389.21 262.18,387.17 269.27,386.44 C273.57,386.00 281.00,385.55 283.83,384.16 C286.69,382.69 287.81,380.97 288.40,379.24 C288.44,379.12 288.51,378.88 288.61,378.54" fill="none" stroke="rgb(255, 255, 255)" stroke-width="32.41" stroke-opacity="1.00" stroke-linejoin="round"/>
<path d="M247.08,304.09 C247.08,304.09 246.60,304.23 246.60,304.23 C248.52,302.64 275.74,295.59 281.58,295.68 C282.04,295.69 282.34,295.80 282.40,295.88 C282.12,295.95 278.54,297.23 274.05,297.99 C268.10,298.99 256.62,301.06 253.49,301.76 C250.83,302.37 244.23,305.08 242.71,305.42 C243.64,305.52 251.53,304.81 261.20,304.59 C262.72,304.57 272.34,304.70 273.04,304.64 C268.22,303.05 248.66,304.94 247.74,305.83 C248.10,307.47 270.77,308.57 273.69,308.72 C258.26,306.42 250.24,307.01 249.87,307.12 C249.75,308.19 260.41,310.12 267.76,310.79 C273.88,311.34 282.80,311.21 283.29,311.03 C280.65,309.97 267.59,309.81 265.18,310.63 C268.74,310.83 278.58,309.26 284.43,307.71 C292.05,305.68 298.55,302.52 299.09,301.85 C298.66,300.98 298.06,300.50 296.84,300.25 C292.73,299.45 280.20,300.74 274.38,302.26 C274.96,303.18 286.79,300.86 288.54,299.78 C288.61,299.73 288.75,299.63 288.95,299.46 C288.56,298.61 285.09,298.00 282.57,298.05 C279.75,298.13 274.09,299.27 271.99,300.20 C269.98,301.11 269.00,302.24 268.69,302.80 C269.42,303.88 270.22,304.45 271.57,304.61 C274.14,304.90 279.52,303.97 283.11,302.86 C289.58,300.82 291.56,298.95 291.89,298.49 C291.19,297.62 290.36,297.13 288.95,296.98 C286.15,296.69 280.26,297.27 276.93,298.15 C270.10,299.97 265.10,303.31 264.81,304.19 C265.26,305.09 268.44,306.32 271.68,306.48 C275.69,306.62 289.41,303.69 290.74,302.73 C290.84,302.65 290.97,302.50 291.13,302.29 C289.58,301.34 284.90,301.49 282.03,302.21 C275.49,303.88 272.15,306.48 271.68,306.98 C272.18,307.77 272.89,308.12 274.24,308.05 C278.62,307.80 291.51,303.38 292.41,302.26 C292.46,302.19 292.52,302.05 292.58,301.86 C292.58,301.86 287.60,301.05 287.60,301.05 C287.60,301.05 290.80,300.39 290.80,300.39 C290.17,299.35 281.99,297.90 275.77,298.21 C271.13,298.45 260.61,300.19 255.06,301.73 C256.04,302.42 293.04,298.33 294.70,299.17 C294.82,299.24 295.02,299.35 295.29,299.49 C295.20,299.48 287.17,298.42 285.85,298.67 C285.29,298.78 284.20,299.16 283.90,299.29" fill="none" stroke="rgb(5, 45, 161)" stroke-width="6.00" stroke-opacity="1.00" stroke-linejoin="round"/>
<path d="M241.64,312.51 C241.64,312.51 241.27,312.00 241.27,312.00 C240.64,312.11 239.94,313.51 239.74,314.71 C239.50,316.29 240.04,318.56 240.97,319.14 C241.94,319.70 244.26,319.65 244.98,319.16 C245.68,318.65 246.42,316.46 246.11,315.21 C245.80,314.07 244.23,312.25 243.34,311.95 C242.40,311.65 240.58,311.88 240.19,312.47 C239.69,313.31 239.94,316.12 240.78,317.39 C241.56,318.52 243.73,319.70 244.74,319.75 C245.55,319.78 246.79,318.98 247.06,318.13 C247.37,317.07 246.84,314.33 246.17,313.20 C245.65,312.34 244.32,311.38 243.74,311.36 C243.02,311.39 242.02,313.59 242.09,315.36 C242.16,316.76 242.96,319.30 243.61,320.30 C244.42,321.51 246.64,322.60 247.62,322.49 C248.46,322.36 249.63,320.63 249.82,319.16 C249.98,317.79 249.32,315.43 248.86,314.80 C248.43,314.25 247.24,314.17 246.49,315.04 C245.55,316.18 244.70,319.37 244.95,320.95 C245.23,322.46 246.79,324.12 248.17,324.18 C249.62,324.18 252.44,322.46 253.42,321.13 C254.22,320.00 254.38,318.16 253.81,317.58 C253.09,316.90 250.71,316.49 249.84,316.97 C249.04,317.45 247.97,320.14 248.06,321.61 C248.17,323.01 249.67,325.56 250.64,326.23 C251.56,326.83 253.44,326.87 254.09,326.43 C254.79,325.91 255.45,323.99 255.20,322.66 C254.73,320.40 253.50,320.04 253.15,320.02 C252.50,320.33 251.95,322.37 252.20,324.07 C252.45,325.61 253.72,327.94 254.37,328.35 C255.06,328.74 257.03,328.36 257.70,327.56 C258.35,326.76 258.76,324.70 258.49,324.09 C258.23,323.54 257.24,323.01 256.80,323.26 C256.34,323.56 255.97,325.01 256.12,325.92 C256.62,328.45 258.23,327.89 258.56,327.66 C258.49,327.56 258.42,327.48 258.35,327.43 C258.28,327.38 258.12,327.28 257.86,327.13" fill="none" stroke="rgb(5, 45, 161)" stroke-width="6.00" stroke-opacity="1.00" stroke-linejoin="round"/>
<path d="M234.58,305.36 C233.93,304.63 232.70,304.18 231.64,304.16 C230.34,304.15 228.39,304.87 228.05,305.64 C227.64,306.69 228.37,309.59 229.53,310.70 C230.67,311.72 233.46,312.32 234.71,311.94 C235.74,311.59 236.78,310.07 236.66,308.92 C236.49,307.61 234.68,305.50 233.50,305.15 C232.44,304.86 230.25,305.46 229.71,306.12 C229.14,306.84 228.90,309.06 229.46,309.68 C230.11,310.33 232.87,310.80 233.99,310.47 C234.84,310.20 235.94,308.95 236.11,308.23 C236.26,307.50 235.61,306.43 235.05,306.32 C233.71,306.11 233.77,309.46 234.80,309.69 C234.80,309.69 233.98,308.00 233.98,308.00 C233.27,308.25 229.54,305.24 227.84,303.75 C224.38,300.72 214.65,296.56 210.30,294.68 C207.66,293.65 192.81,293.37 190.11,294.44 C189.07,294.88 188.77,295.45 188.71,295.81 C188.91,296.52 191.50,297.60 195.78,297.82 C197.75,297.90 205.14,297.31 206.22,297.22 C206.22,297.22 190.88,296.96 190.88,296.96 C192.36,298.82 211.54,299.87 212.76,300.00 C212.00,300.03 200.70,299.80 196.87,300.91 C196.04,301.15 195.23,301.50 195.16,301.57 C195.83,303.21 214.15,302.02 217.49,301.88 C215.94,301.82 200.58,300.73 196.29,301.61 C196.15,301.64 196.03,301.67 195.93,301.70 C196.18,302.13 200.61,303.50 203.42,304.04 C205.49,304.43 216.04,305.68 220.73,306.40 C220.69,306.40 214.12,304.76 212.48,304.63 C210.44,304.47 209.02,304.50 207.73,304.71 C207.73,304.71 221.29,304.58 221.29,304.58 C220.83,302.87 214.17,300.16 206.67,297.74 C206.67,297.74 220.60,300.77 220.60,300.77 C220.60,300.77 207.60,297.16 207.60,297.16 C208.31,297.38 222.97,302.66 224.85,303.67 C227.00,304.85 227.85,306.47 227.91,307.08 C227.94,307.81 226.95,309.30 225.41,310.23 C224.01,311.07 208.55,318.63 204.84,321.70 C204.39,322.08 204.13,322.43 204.15,322.48 C204.15,322.48 221.05,311.12 221.05,311.12 C213.04,315.24 203.39,324.24 202.85,324.99 C202.96,325.40 218.35,314.10 219.40,313.21 C219.61,313.03 219.85,312.78 220.14,312.48 C211.43,316.38 204.24,326.08 204.16,326.70 C205.67,327.81 222.21,316.50 224.58,314.64 C224.58,314.64 211.88,324.30 211.88,324.30 C211.44,326.79 225.70,314.86 225.79,314.73 C225.79,314.73 216.05,322.91 216.05,322.91 C216.05,322.91 224.81,316.30 224.81,316.30 C224.74,316.28 224.42,316.39 224.10,316.59 C224.00,316.66 223.81,316.79 223.54,316.99" fill="none" stroke="rgb(5, 45, 161)" stroke-width="6.00" stroke-opacity="1.00" stroke-linejoin="round"/>
<path d="M183.75,295.40 C184.03,294.79 186.39,293.62 190.45,292.53 C193.91,291.61 200.79,290.88 204.16,291.04 C206.46,291.16 215.05,292.66 216.46,293.11 C218.50,293.77 222.28,296.03 223.41,297.36 C224.09,298.17 225.63,301.81 225.21,302.15 C225.17,302.17 225.15,302.22 225.16,302.29" fill="none" stroke="rgb(0, 0, 0)" stroke-width="6.00" stroke-opacity="1.00" stroke-linejoin="round"/>
<path d="M225.64,300.74 C224.97,301.25 224.02,303.37 224.04,306.01 C224.09,308.50 225.38,312.03 226.71,313.28 C227.98,314.44 230.96,315.67 232.32,315.64 C233.40,315.55 237.61,311.25 238.41,309.65 C239.09,308.17 239.37,304.80 238.86,303.84 C238.40,303.02 235.50,301.10 234.41,300.95 C231.84,300.62 226.29,301.49 224.78,301.72 C224.41,301.77 223.98,301.83 223.48,301.89" fill="none" stroke="rgb(0, 0, 0)" stroke-width="6.00" stroke-opacity="1.00" stroke-linejoin="round"/>
<path d="M184.03,293.74 C184.05,293.78 184.07,293.84 184.10,293.90 C184.88,295.71 186.98,298.95 190.49,301.57 C192.24,302.85 197.26,305.67 200.96,306.76 C204.19,307.70 218.88,308.96 220.40,308.35 C221.64,307.78 222.68,306.51 223.28,305.59 C223.29,305.58 223.30,305.52 223.28,305.53" fill="none" stroke="rgb(0, 0, 0)" stroke-width="6.00" stroke-opacity="1.00" stroke-linejoin="round"/>
<path d="M222.99,307.02 C222.93,307.04 222.89,307.04 222.86,307.04 C221.78,307.19 215.74,309.63 213.02,311.14 C211.27,312.13 206.96,315.07 205.24,316.80 C201.20,320.92 200.30,328.53 200.43,329.00 C200.74,329.03 216.54,326.01 220.72,323.95 C225.18,321.70 228.17,317.08 228.16,316.34 C228.16,316.34 227.65,316.11 227.65,316.11" fill="none" stroke="rgb(0, 0, 0)" stroke-width="6.00" stroke-opacity="1.00" stroke-linejoin="round"/>
<path d="M223.62,312.34 C222.93,312.79 217.82,316.80 215.36,318.64 C215.09,318.85 214.78,319.12 214.44,319.44" fill="none" stroke="rgb(0, 0, 0)" stroke-width="6.00" stroke-opacity="1.00" stroke-linejoin="round"/>
<path d="M235.13,314.93 C235.47,316.06 235.99,317.51 236.50,318.54 C237.75,321.03 241.41,324.26 243.54,325.62 C246.81,327.62 252.71,331.29 255.12,331.87 C257.12,332.32 260.48,332.47 261.32,331.63 C261.93,330.97 262.64,327.57 262.37,326.91 C257.99,316.76 245.34,308.32 244.51,308.13 C243.93,308.01 243.13,308.29 242.55,308.73 C242.45,308.81 242.33,308.92 242.20,309.06" fill="none" stroke="rgb(0, 0, 0)" stroke-width="6.00" stroke-opacity="1.00" stroke-linejoin="round"/>
<path d="M238.38,311.86 C240.44,313.29 241.85,314.31 243.49,315.56 C245.17,316.84 247.24,318.25 248.81,319.19 C249.09,319.35 249.24,319.42 249.25,319.39" fill="none" stroke="rgb(0, 0, 0)" stroke-width="6.00" stroke-opacity="1.00" stroke-linejoin="round"/>
<path d="M241.62,303.25 C241.62,303.25 240.63,303.84 240.63,303.84 C245.16,301.16 254.23,297.55 259.68,296.24 C264.83,295.02 276.90,294.03 282.46,294.13 C286.28,294.22 292.26,295.11 294.79,295.75 C296.94,296.33 299.97,298.21 300.40,299.19 C300.25,299.76 298.59,301.79 296.05,304.74 C293.84,307.28 290.04,310.43 286.45,312.14 C283.44,313.54 277.39,314.58 273.58,314.45 C270.20,314.30 265.21,313.75 261.78,313.09 C258.61,312.46 250.63,309.26 250.09,309.09" fill="none" stroke="rgb(0, 0, 0)" stroke-width="6.00" stroke-opacity="1.00" stroke-linejoin="round"/>
<path d="M201.46,308.14 C201.46,308.14 200.57,309.68 200.57,309.68" fill="none" stroke="rgb(0, 0, 0)" stroke-width="6.00" stroke-opacity="1.00" stroke-linejoin="round"/>
<path d="M317.11,300.67 C317.55,305.18 317.53,317.75 317.32,325.23 C316.93,334.35 316.00,346.44 314.72,353.03 C313.37,359.81 309.45,372.27 306.68,380.00 C303.30,388.83 299.74,395.97 298.46,397.31 C298.29,397.49 297.98,397.77 297.53,398.14" fill="none" stroke="rgb(0, 0, 0)" stroke-width="6.00" stroke-opacity="1.00" stroke-linejoin="round"/>
<path d="M202.70,308.47 C201.96,308.72 200.12,311.17 199.04,314.18 C197.55,318.47 195.60,328.44 195.29,333.94 C195.00,339.42 195.92,351.44 197.44,358.96 C198.78,365.56 202.27,377.57 204.39,383.17 C206.65,389.07 212.32,398.99 213.83,401.59 C214.29,402.36 214.75,403.12 215.22,403.89" fill="none" stroke="rgb(0, 0, 0)" stroke-width="6.00" stroke-opacity="1.00" stroke-linejoin="round"/>
<path d="M243.02,334.67 C243.02,334.67 243.07,333.69 243.07,333.69 C241.69,333.72 238.33,335.81 236.65,337.58 C235.51,338.79 233.70,341.00 233.62,341.19 C233.62,341.19 237.24,357.59 237.24,357.59 C237.24,357.59 232.57,339.73 232.57,339.73 C232.80,350.07 237.87,363.95 238.19,364.10 C239.28,364.30 244.04,362.94 244.86,361.09 C246.88,356.25 244.79,337.97 244.82,337.75 C244.82,337.75 261.35,343.33 261.35,343.33 C261.35,343.33 250.77,339.93 250.77,339.93 C250.73,339.92 255.11,341.88 257.62,342.34 C259.43,342.65 267.08,342.90 269.06,342.73 C270.98,342.56 275.30,341.69 275.50,341.45" fill="none" stroke="rgb(3, 21, 72)" stroke-width="13.42" stroke-opacity="1.00" stroke-linejoin="round"/>
<path d="M258.45,336.87 C258.44,336.88 259.29,336.38 259.79,336.21 C260.86,335.85 264.33,335.36 266.11,335.13 C267.30,334.95 269.15,333.87 269.55,333.18 C269.89,332.50 267.76,327.39 267.20,326.09 C266.58,324.67 264.09,319.19 262.24,317.73 C261.95,317.51 261.19,317.03 260.88,316.71 C263.42,319.01 265.35,321.58 267.14,325.42 C267.47,326.15 268.65,328.43 268.70,328.56 C268.73,328.63 268.74,328.73 268.74,328.86" fill="none" stroke="rgb(3, 21, 72)" stroke-width="4.64" stroke-opacity="1.00" stroke-linejoin="round"/>
<path d="M268.48,323.10 C269.07,323.69 270.07,326.56 269.75,330.46 C269.50,333.07 266.66,337.46 265.60,339.08 C269.02,335.48 269.63,331.45 269.66,330.01 C269.66,330.01 269.03,328.33 269.03,328.33 C268.12,332.46 266.38,337.23 265.53,338.76 C264.46,340.66 261.53,343.66 259.02,344.83 C256.03,346.24 254.32,348.70 254.38,349.52 C254.38,349.52 270.76,345.57 270.76,345.57 C269.82,346.03 263.35,347.79 260.81,348.46 C253.73,350.55 249.99,353.42 249.12,354.24 C250.14,354.82 254.42,354.43 256.62,354.01 C259.54,353.44 270.64,350.63 270.55,350.71 C270.55,350.71 242.50,362.68 242.50,362.68 C242.50,362.68 255.35,362.79 255.35,362.79 C255.35,362.79 236.14,365.18 236.14,365.18 C238.74,366.33 250.22,365.76 256.39,364.99 C261.13,364.38 266.99,363.00 270.92,362.41 C270.92,362.41 251.70,365.38 251.70,365.38 C255.39,365.85 291.45,360.31 300.41,356.66 C301.96,356.00 303.59,355.02 303.62,354.57 C303.61,353.67 296.90,340.80 295.11,340.23 C294.88,340.39 291.34,346.90 288.86,350.32 C288.12,351.32 283.62,355.11 281.81,355.50 C279.22,356.00 266.07,356.31 262.14,357.45 C262.14,357.45 295.36,352.66 295.36,352.66 C295.51,352.26 295.56,351.65 295.52,350.44 C295.48,349.88 294.83,348.96 293.64,347.65 C292.66,346.60 291.31,345.17 290.94,344.76 C290.94,344.76 290.94,344.52 290.94,344.52" fill="none" stroke="rgb(3, 21, 72)" stroke-width="9.02" stroke-opacity="1.00" stroke-linejoin="round"/>
<path d="M297.35,339.54 C297.29,340.20 304.61,342.52 305.26,342.66 C307.76,343.16 311.19,342.54 311.58,342.46 C311.58,342.45 311.21,344.89 308.63,346.72 C307.97,347.18 301.86,351.50 301.95,351.99 C301.95,351.99 311.61,347.95 311.61,347.95 C309.25,349.78 308.73,350.16 307.90,350.43 C306.63,350.82 302.63,352.00 301.20,352.00 C298.52,351.98 293.62,349.70 292.26,348.32 C291.30,347.27 289.91,342.47 289.75,342.18 C287.57,346.45 285.00,349.92 283.40,350.90 C282.17,351.60 273.93,351.71 273.07,351.40 C273.07,351.40 286.20,341.84 286.20,341.84 C284.45,344.30 280.77,347.89 277.25,349.95 C274.73,351.40 269.86,353.48 266.41,354.64 C263.24,355.73 259.56,357.96 258.19,358.03 C258.02,358.04 257.69,358.03 257.20,358.02 C255.62,355.94 255.40,348.96 255.36,347.91 C259.95,350.16 263.84,351.30 266.58,351.46 C267.53,351.51 268.79,351.57 269.14,351.56 C269.14,351.56 234.95,364.11 234.95,364.11 C236.30,365.33 238.94,366.41 241.42,366.27 C243.66,366.11 248.63,365.25 249.86,365.04 C249.86,365.04 235.75,365.51 235.75,365.51 C236.72,366.19 240.44,366.66 245.48,366.18 C248.99,365.82 253.74,364.96 255.35,364.74 C255.76,364.68 256.35,364.61 257.12,364.53" fill="none" stroke="rgb(3, 21, 72)" stroke-width="9.02" stroke-opacity="1.00" stroke-linejoin="round"/>
<path d="M200.39,333.53 C200.39,333.53 199.60,333.40 199.60,333.40 C203.21,333.92 206.81,333.78 208.76,333.50 C211.69,333.07 217.70,331.02 217.85,331.09 C217.85,331.09 224.80,340.65 224.80,340.65 C222.77,337.90 219.27,334.79 218.68,333.21 C218.58,332.95 218.37,332.30 218.03,331.27 C218.03,331.27 219.18,330.40 219.18,330.40 C219.05,330.37 215.86,332.01 211.68,333.48 C207.78,334.80 202.73,336.07 202.21,336.25 C201.34,336.57 200.25,338.99 200.01,341.64 C199.62,346.50 202.47,359.64 204.18,364.31 C204.18,364.31 201.40,339.23 201.40,339.23 C201.40,339.23 206.07,365.07 206.07,365.07 C206.07,365.07 206.86,335.86 206.86,335.86 C206.86,335.86 210.47,364.08 210.47,364.08 C210.47,364.08 210.52,337.75 210.52,337.75 C210.52,337.75 215.57,360.95 215.57,360.95 C215.57,360.95 214.84,335.34 214.84,335.34 C214.84,335.34 220.01,358.90 220.01,358.90 C220.01,358.90 217.07,335.83 217.07,335.83 C217.07,335.83 223.90,362.74 223.90,362.74 C224.02,361.87 225.59,357.51 225.60,356.42 C225.57,353.44 223.51,343.99 223.24,342.79 C223.24,342.79 226.71,361.84 226.71,361.84 C224.21,362.96 214.68,362.42 212.06,361.98 C212.06,361.98 230.57,363.35 230.57,363.35 C225.06,361.56 218.78,361.79 215.08,362.23 C218.03,363.79 224.88,364.30 228.21,364.37 C228.21,364.37 212.00,363.99 212.00,363.99 C218.91,365.96 232.33,365.88 232.51,365.71 C232.56,365.66 232.79,365.38 233.22,364.87" fill="none" stroke="rgb(3, 21, 72)" stroke-width="9.02" stroke-opacity="1.00" stroke-linejoin="round"/>
<path d="M233.96,366.20 C233.96,366.20 233.24,366.29 233.24,366.29 C235.36,365.46 236.60,364.26 236.51,362.87 C236.39,361.47 235.16,356.49 234.08,353.25 C232.41,348.46 230.80,344.36 229.38,343.04 C227.93,341.71 220.69,332.25 220.42,331.77 C219.62,330.46 219.09,330.02 218.16,330.16 C211.01,331.37 201.09,331.83 200.27,332.14 C199.89,332.29 199.16,332.67 199.05,332.74" fill="none" stroke="rgb(3, 21, 72)" stroke-width="9.02" stroke-opacity="1.00" stroke-linejoin="round"/>
<path d="M206.69,310.42 C202.28,313.84 200.82,315.16 200.29,315.98 C199.99,316.46 199.66,317.42 199.66,317.53" fill="none" stroke="rgb(3, 21, 72)" stroke-width="5.74" stroke-opacity="1.00" stroke-linejoin="round"/>
<path d="M209.42,309.52 C208.55,309.64 204.50,313.53 203.03,314.94 C200.07,317.90 197.56,322.66 197.32,325.89 C197.28,326.61 197.41,329.58 197.46,330.73 C197.49,331.20 197.51,331.68 197.54,332.16" fill="none" stroke="rgb(3, 21, 72)" stroke-width="5.74" stroke-opacity="1.00" stroke-linejoin="round"/>
<path d="M200.26,329.36 C200.24,329.38 200.23,329.44 200.21,329.54 C200.13,330.18 200.00,332.24 199.98,333.66 C199.97,334.47 200.08,337.26 200.15,338.18 C200.31,340.36 200.67,343.31 200.77,344.04" fill="none" stroke="rgb(3, 21, 72)" stroke-width="5.74" stroke-opacity="1.00" stroke-linejoin="round"/>
<path d="M257.61,314.73 C257.61,314.73 256.90,314.71 256.90,314.71 C257.48,315.49 262.65,319.88 264.24,322.67 C266.78,327.26 266.44,334.42 265.83,335.41 C265.13,336.45 260.42,337.28 258.03,336.79 C257.68,336.71 249.01,334.32 246.29,332.98 C242.33,330.98 240.92,328.81 240.87,328.74 C243.71,330.79 246.24,332.42 248.31,333.23 C251.90,334.58 255.30,335.17 258.19,335.07 C260.38,334.95 265.54,333.33 265.97,332.77 C266.60,331.74 266.83,327.72 266.09,323.69 C265.35,320.12 264.14,317.46 263.54,316.84 C266.28,318.29 271.33,319.59 273.90,319.57 C275.36,319.54 282.06,317.90 282.51,317.76 C285.74,316.79 290.50,314.43 293.82,312.29 C296.71,310.38 298.69,308.56 301.01,305.22 C302.41,303.20 304.64,300.33 304.60,299.03 C304.59,298.99 304.59,298.97 304.60,298.98 C304.60,298.98 312.47,299.74 312.47,299.74 C308.73,300.34 305.22,302.40 300.65,305.45 C300.65,305.45 308.43,300.47 308.43,300.47 C302.55,304.99 296.39,309.47 291.00,314.03 C288.75,315.85 283.81,318.22 280.98,318.75 C280.21,318.89 272.27,319.67 269.53,320.08 C269.53,320.08 259.48,316.39 259.48,316.39 C271.53,318.34 284.52,316.78 285.81,316.62 C283.61,317.43 269.36,326.16 268.24,328.06 C268.16,328.21 268.12,328.40 268.12,328.65 C269.91,328.57 278.22,320.90 279.58,318.96 C277.55,321.10 272.28,333.83 272.34,336.58 C272.35,336.80 272.44,337.02 272.61,337.23 C272.61,337.23 277.74,322.74 277.74,322.74 C277.74,322.74 271.73,341.22 271.73,341.22 C272.34,341.37 273.83,338.34 274.64,336.16 C277.56,328.24 278.45,323.92 278.91,321.43 C278.91,321.43 275.03,341.82 275.03,341.82 C275.03,341.82 280.93,318.68 280.93,318.68 C280.93,318.68 277.98,340.11 277.98,340.11 C277.98,340.11 285.99,315.28 285.99,315.28 C285.99,315.28 281.31,335.85 281.31,335.85 C281.31,335.85 289.01,313.99 289.01,313.99 C289.01,313.99 283.38,330.72 283.38,330.72 C283.38,330.72 291.85,313.63 291.85,313.63 C283.56,328.72 281.66,338.16 281.60,339.21 C282.87,338.80 286.03,328.87 288.32,320.87 C288.32,320.87 280.33,345.10 280.33,345.10 C286.10,336.48 287.50,325.41 287.40,325.14 C287.40,325.14 284.11,342.89 284.11,342.89 C284.11,342.89 286.63,328.02 286.63,328.02 C286.63,328.02 287.75,341.06 287.75,341.06 C287.75,341.06 287.91,326.94 287.91,326.94 C287.91,326.94 290.63,343.72 290.63,343.72 C290.63,343.72 290.40,342.68 290.40,342.68" fill="none" stroke="rgb(3, 21, 72)" stroke-width="5.74" stroke-opacity="1.00" stroke-linejoin="round"/>
<path d="M291.89,317.05 C291.11,317.50 289.14,320.53 288.06,323.65 C287.12,326.44 286.64,331.63 286.58,333.71 C286.54,336.14 287.46,340.55 288.63,342.08 C289.62,343.30 292.64,344.51 293.62,344.73 C293.62,344.73 287.48,337.06 287.48,337.06 C287.48,337.06 295.36,342.51 295.36,342.51 C293.14,342.53 289.70,341.04 289.22,340.87 C286.12,339.74 283.63,338.46 281.92,336.82 C280.24,335.16 277.60,331.14 276.56,328.06 C276.21,327.03 276.32,322.70 276.23,321.66 C274.99,320.55 272.30,320.98 270.43,321.93 C270.01,322.76 269.47,328.23 269.24,329.62 C268.62,333.15 267.62,335.36 266.67,336.97 C265.84,335.51 265.62,329.93 265.49,326.49 C265.43,324.60 265.32,321.47 265.28,320.23 C267.14,326.89 267.87,330.71 267.45,333.27 C267.27,334.29 266.57,336.23 266.18,337.09 C266.11,337.22 266.03,337.37 265.93,337.55" fill="none" stroke="rgb(3, 21, 72)" stroke-width="7.81" stroke-opacity="1.00" stroke-linejoin="round"/>
<path d="M274.79,320.34 C274.62,320.07 274.28,319.59 273.83,319.52 C271.59,319.16 265.78,318.93 264.29,319.47 C262.85,320.05 261.06,321.70 260.52,322.39 C260.37,322.58 260.14,322.92 259.82,323.41" fill="none" stroke="rgb(255, 255, 255)" stroke-width="5.20" stroke-opacity="1.00" stroke-linejoin="round"/>
<path d="M255.92,332.26 C255.79,333.30 256.36,335.86 257.41,336.93 C258.44,337.92 261.73,337.84 264.63,337.28 C268.43,336.55 272.07,336.11 273.20,336.48 C274.04,336.80 275.04,338.61 275.20,339.94 C275.34,341.31 274.90,344.00 274.33,345.21 C273.64,346.54 270.30,348.93 268.25,349.65 C266.02,350.40 261.28,351.22 259.18,351.27 C256.83,351.29 253.51,350.18 252.28,349.07 C251.12,347.96 250.78,346.31 250.88,345.65 C250.91,345.49 250.99,345.23 251.13,344.88" fill="none" stroke="rgb(255, 255, 255)" stroke-width="5.20" stroke-opacity="1.00" stroke-linejoin="round"/>
<path d="M274.06,321.80 C274.06,321.80 274.26,321.56 274.26,321.56 C272.24,321.19 267.16,321.41 265.13,322.16 C263.23,322.90 262.64,324.81 262.59,325.02 C262.57,325.12 262.56,325.30 262.55,325.55" fill="none" stroke="rgb(255, 255, 255)" stroke-width="5.20" stroke-opacity="1.00" stroke-linejoin="round"/>
<path d="M260.43,331.99 C260.09,332.18 259.54,333.00 259.33,333.79 C259.27,334.03 259.23,334.41 259.21,334.93 C259.68,335.42 262.07,335.56 265.98,334.44 C267.38,334.03 271.02,333.87 272.14,334.28 C273.99,335.01 274.79,335.88 275.26,336.67 C275.26,336.67 275.10,337.47 275.10,337.47" fill="none" stroke="rgb(255, 255, 255)" stroke-width="5.20" stroke-opacity="1.00" stroke-linejoin="round"/>
<path d="M258.63,333.14 C258.38,333.18 258.13,334.57 258.61,335.46 C258.73,335.69 259.16,336.30 259.23,336.39" fill="none" stroke="rgb(255, 255, 255)" stroke-width="5.20" stroke-opacity="1.00" stroke-linejoin="round"/>
<path d="M252.44,343.78 C252.09,345.30 252.86,346.70 254.11,347.70 C255.63,348.84 260.68,349.94 263.61,349.48 C264.73,349.28 266.75,348.53 267.95,347.86 C270.17,346.56 271.92,344.95 272.68,343.34 C273.02,342.60 273.29,341.80 273.49,340.92 C273.53,340.68 273.53,340.46 273.49,340.24 C273.47,340.20 273.47,340.17 273.47,340.13" fill="none" stroke="rgb(255, 255, 255)" stroke-width="5.20" stroke-opacity="1.00" stroke-linejoin="round"/>
<path d="M221.76,326.15 C221.76,326.15 229.01,336.88 229.01,336.88" fill="none" stroke="rgb(0, 0, 0)" stroke-width="5.00" stroke-opacity="1.00" stroke-linejoin="round"/>
<path d="M239.68,327.62 C239.68,327.62 239.32,327.48 239.32,327.48 C237.57,328.44 228.42,335.39 226.93,336.91 C226.21,337.67 226.57,343.32 226.77,345.69 C227.76,355.67 232.21,370.35 233.07,370.77 C235.41,371.66 247.08,371.47 253.21,370.79 C263.21,369.65 294.18,362.63 301.10,359.55 C303.56,358.43 304.66,357.35 304.77,357.05 C304.79,357.00 304.80,356.91 304.82,356.76" fill="none" stroke="rgb(0, 0, 0)" stroke-width="5.00" stroke-opacity="1.00" stroke-linejoin="round"/>
<path d="M202.90,366.68 C202.89,366.65 204.64,368.18 208.88,368.58 C218.67,369.56 227.01,369.96 231.59,370.00 C231.84,370.00 232.12,369.99 232.42,369.98" fill="none" stroke="rgb(0, 0, 0)" stroke-width="5.00" stroke-opacity="1.00" stroke-linejoin="round"/>
<path d="M232.31,372.02 C232.31,372.00 232.31,372.05 232.31,372.07 C232.22,374.41 233.94,378.34 234.72,379.60 C237.92,380.34 250.49,379.18 257.30,378.51 C270.61,376.81 291.19,372.66 298.66,371.15 C303.70,370.04 308.05,368.30 309.42,367.10 C309.46,367.07 311.27,365.17 312.02,364.45 C312.02,364.45 312.01,364.28 312.01,364.28" fill="none" stroke="rgb(0, 0, 0)" stroke-width="5.00" stroke-opacity="1.00" stroke-linejoin="round"/>
<path d="M202.26,375.67 C202.57,376.60 204.91,378.16 207.93,379.08 C214.23,380.93 222.02,381.58 228.11,380.98 C231.34,380.65 234.84,379.90 235.30,379.74 C235.46,379.68 235.63,379.58 235.82,379.43" fill="none" stroke="rgb(0, 0, 0)" stroke-width="5.00" stroke-opacity="1.00" stroke-linejoin="round"/>
<path d="M317.98,303.68 C317.51,302.82 316.02,302.16 314.20,302.19 C312.61,302.23 305.82,305.43 302.89,307.64 C299.70,310.10 294.75,316.12 293.09,319.90 C291.48,323.70 290.80,330.87 291.77,333.64 C292.70,336.14 294.69,337.51 295.96,338.21 C296.18,338.32 296.50,338.51 296.92,338.77" fill="none" stroke="rgb(0, 0, 0)" stroke-width="5.00" stroke-opacity="1.00" stroke-linejoin="round"/>
</g>
</svg>
