<?xml version="1.0" encoding="UTF-8" standalone="no"?>
<!DOCTYPE svg PUBLIC "-//W3C//DTD SVG 1.1//EN" "http://www.w3.org/Graphics/SVG/1.1/DTD/svg11.dtd">
<svg width="102.86" height="102.86" viewBox="0.00 0.00 500.00 500.00" xmlns="http://www.w3.org/2000/svg" xmlns:xlink="http://www.w3.org/1999/xlink">
<g stroke-linecap="round" id="레이어_9">
<path d="M132.32,217.80 C132.49,217.93 145.20,220.80 151.46,222.26 C157.49,223.56 169.56,224.55 176.19,225.03 C194.14,226.14 220.91,226.33 236.13,226.25 C245.84,226.26 325.14,219.14 354.21,216.71 C361.90,216.15 376.77,215.43 383.84,215.17 C385.47,215.12 402.67,216.32 403.05,217.13 C405.15,222.14 405.75,235.87 406.09,242.75 C406.27,248.59 402.62,278.35 399.67,297.60 C397.63,309.89 390.85,337.70 387.51,351.93 C387.14,353.55 386.45,356.52 386.14,357.88 C385.57,360.25 384.73,363.76 384.46,364.89" fill="none" stroke="rgb(204, 170, 254)" stroke-width="26.21" stroke-opacity="1.00" stroke-linejoin="round"/>
<path d="M395.80,247.81 C396.27,255.35 397.19,268.66 397.44,275.21 C397.76,285.35 397.77,289.26 396.67,301.53 C395.77,310.58 394.39,324.28 393.92,328.93 C395.07,323.11 397.86,306.52 398.33,300.88 C398.74,295.83 399.23,275.32 399.52,272.91 C399.91,269.73 400.01,267.87 399.99,265.21 C400.76,269.39 401.78,281.27 401.35,287.40 C400.73,295.55 399.43,311.46 398.76,319.23 C398.04,326.15 396.28,335.26 393.82,346.00 C391.68,354.89 388.75,364.04 386.52,370.18 C386.35,369.25 392.00,354.15 393.51,349.69 C395.65,343.07 397.49,329.11 398.47,321.42 C398.73,319.17 398.97,317.56 399.44,314.67 C400.07,315.97 399.82,329.46 398.87,335.91 C397.99,341.81 395.26,353.92 393.26,360.05 C390.42,368.44 380.00,390.76 377.93,394.21 C375.17,398.62 372.49,401.69 369.50,403.47 C366.56,405.17 360.93,407.65 359.22,408.55 C362.95,404.98 369.26,395.99 371.91,390.64 C375.58,383.19 384.18,370.04 385.34,368.10 C386.74,365.76 389.88,359.06 391.15,357.09 C391.84,356.04 392.86,354.76 394.31,353.04 C394.31,353.04 378.58,388.53 378.58,388.53 C378.60,388.49 390.04,370.77 392.34,364.88 C394.68,358.74 395.14,357.68 396.21,355.48 C396.21,355.48 386.60,378.71 386.60,378.71 C386.60,378.71 386.49,376.37 386.49,376.37 C370.41,389.16 357.10,401.29 353.26,403.78 C351.31,405.03 345.21,407.75 340.08,409.75 C336.15,411.25 333.43,411.97 329.88,412.48 C316.39,414.22 297.45,416.67 296.16,416.77 C293.75,416.97 290.82,417.06 289.32,417.03" fill="none" stroke="rgb(204, 170, 254)" stroke-width="38.21" stroke-opacity="1.00" stroke-linejoin="round"/>
<path d="M139.22,227.72 C139.17,227.99 139.16,232.72 138.56,235.52 C137.89,238.62 137.38,241.81 137.26,242.57 C137.26,242.57 137.57,230.23 137.57,230.23 C137.57,231.40 134.70,250.47 134.44,257.42 C134.19,271.88 133.78,306.44 134.21,318.51 C134.65,325.70 135.71,345.61 135.88,347.57 C136.52,354.98 139.19,366.96 141.27,370.56 C141.95,371.72 147.19,378.96 147.58,379.42 C148.08,380.00 160.25,391.90 165.19,395.56 C167.21,397.05 169.05,398.20 170.14,398.71 C170.06,398.79 164.73,396.77 162.87,395.92 C159.99,394.58 155.74,390.91 152.18,387.20 C148.53,383.29 147.86,382.65 146.70,381.66 C148.97,384.39 167.51,398.91 169.66,400.38 C171.43,401.58 177.17,404.10 180.67,405.27 C185.49,406.86 194.53,409.21 195.15,409.79 C191.67,409.30 183.19,408.08 180.04,407.38 C175.18,406.29 168.02,402.18 167.19,401.69 C170.27,403.88 180.03,407.39 187.84,408.97 C199.17,411.24 224.22,413.08 228.86,413.80 C225.96,414.17 218.21,413.81 215.04,413.87 C210.28,414.00 203.93,414.51 201.67,414.47 C200.11,414.44 192.05,413.63 192.05,413.63 C195.34,415.18 208.91,416.66 215.54,417.06 C216.39,417.12 234.29,418.82 241.53,418.93 C248.27,419.00 268.42,415.95 279.06,415.17 C283.04,414.89 288.30,413.44 289.75,413.00 C287.57,414.44 284.06,415.14 278.89,415.12 C278.48,415.11 278.05,415.11 277.62,415.12 C280.72,417.86 287.64,416.92 288.82,416.65 C281.42,416.66 266.90,420.12 262.27,420.13 C261.75,420.13 260.65,420.09 258.99,420.02 C266.01,419.28 279.24,417.77 284.41,416.30 C289.38,414.87 295.83,411.76 296.45,411.42 C296.80,411.22 297.60,410.75 298.83,410.01" fill="none" stroke="rgb(204, 170, 254)" stroke-width="38.21" stroke-opacity="1.00" stroke-linejoin="round"/>
<path d="M372.35,355.03 C369.64,358.61 361.13,366.72 354.00,372.09 C342.23,380.66 314.67,401.34 309.23,406.78 C310.93,406.97 316.01,404.29 318.98,402.53 C332.29,394.47 351.28,380.39 364.06,370.20 C369.70,365.74 381.46,356.40 387.57,351.51 C390.84,348.83 394.19,345.27 395.30,343.44 C396.10,342.06 396.62,340.48 396.78,338.98 C396.91,337.21 395.48,333.09 392.97,327.64 C390.43,322.27 388.23,317.28 387.36,315.86 C385.52,316.82 382.75,321.37 381.21,323.92 C371.40,340.07 356.92,361.85 346.29,374.63 C341.68,380.15 339.64,381.22 339.09,381.11 C339.14,378.70 346.30,364.01 349.23,358.02 C356.15,343.49 367.16,320.05 368.42,316.42 C369.57,313.04 369.47,308.51 368.31,307.16 C368.18,307.01 367.87,306.72 367.39,306.27" fill="none" stroke="rgb(204, 170, 254)" stroke-width="38.21" stroke-opacity="1.00" stroke-linejoin="round"/>
<path d="M382.72,242.32 C382.70,242.00 382.68,241.75 382.64,241.55 C382.44,240.63 381.84,239.42 381.21,238.87 C379.04,237.11 366.47,237.96 355.53,239.08 C343.41,240.12 309.49,241.27 294.14,241.68 C279.00,241.97 248.54,242.44 233.70,242.32 C218.21,241.81 187.91,241.05 172.99,240.57 C165.75,240.36 159.55,241.27 158.38,242.04 C156.84,243.12 155.22,247.74 154.88,250.22 C154.14,256.04 154.45,271.58 154.65,279.60 C154.91,287.89 155.64,307.00 155.95,310.91 C156.53,317.10 158.47,332.71 159.67,338.75 C161.47,347.44 163.95,357.11 166.38,363.30 C167.91,367.16 170.70,372.53 172.73,375.35 C174.53,377.81 177.94,380.73 179.29,381.29 C181.12,382.00 183.87,381.75 185.67,380.70 C187.07,379.85 190.23,375.48 191.89,371.97 C193.83,367.79 197.56,353.37 198.57,348.18 C200.23,338.91 204.26,308.13 205.50,294.70 C206.01,286.97 206.38,273.58 205.92,268.60 C205.29,263.13 204.27,258.52 202.48,257.11 C200.71,257.45 199.61,257.89 198.64,258.83 C194.45,262.95 188.27,275.49 186.24,281.56 C184.27,287.53 181.13,301.67 180.14,309.15 C179.57,313.52 178.54,328.06 178.46,332.22 C178.41,339.82 179.26,353.16 180.38,359.43 C180.85,361.99 182.41,368.41 183.19,370.48 C184.73,374.48 187.86,380.00 190.25,381.94 C191.44,382.86 194.01,383.97 195.41,384.17 C198.37,384.51 204.14,382.43 206.48,380.95 C211.71,377.49 221.66,366.67 226.10,360.39 C231.91,352.12 247.12,324.41 253.69,311.45 C256.72,305.25 262.60,292.97 265.46,286.90 C267.95,281.42 273.12,267.45 273.69,264.02 C273.96,262.36 273.63,261.29 272.53,259.82 C270.04,259.72 268.50,259.97 266.62,260.91 C263.75,262.36 259.72,265.70 257.72,267.82 C254.32,271.48 247.51,282.14 244.07,289.28 C239.83,298.13 231.76,322.40 229.41,334.30 C228.30,340.18 226.58,353.11 226.49,359.98 C226.46,363.49 226.90,369.69 227.36,372.39 C227.74,374.59 229.37,380.20 230.92,382.85 C231.79,384.30 234.08,386.60 235.35,387.36 C236.64,388.07 239.47,388.71 241.02,388.65 C244.00,388.46 248.65,386.25 251.84,384.28 C254.50,382.57 265.43,372.27 270.36,366.44 C277.74,357.67 297.28,329.55 305.73,316.42 C309.60,310.15 316.99,297.99 320.91,291.17 C325.47,282.97 329.84,273.80 332.33,266.91 C332.93,265.15 333.15,263.37 333.16,260.72 C331.67,259.84 330.53,259.70 328.97,260.44 C324.19,262.73 314.10,271.73 309.47,277.30 C305.68,281.88 299.08,291.58 296.11,296.71 C293.14,301.95 287.60,313.08 285.19,318.89 C282.78,324.73 278.98,336.12 277.48,341.68 C275.59,348.92 273.55,362.90 273.74,369.23 C273.91,373.76 275.88,380.16 277.66,381.28 C278.04,381.49 281.67,382.17 282.15,382.13 C284.24,381.87 290.30,377.96 293.73,374.89 C297.27,371.67 305.24,362.56 312.16,353.73 C320.79,341.98 337.87,317.01 347.27,302.89 C351.44,296.50 358.11,286.19 361.55,280.22 C366.73,271.02 366.81,269.23 366.60,267.71 C364.67,267.99 363.29,268.48 361.64,269.62 C356.63,273.12 347.13,283.21 343.92,287.58 C338.51,294.98 331.85,306.00 328.42,312.95 C321.91,326.23 316.41,344.94 315.53,351.47 C315.27,353.39 315.38,355.02 315.83,357.64 C317.26,358.29 318.21,358.38 319.25,357.73 C323.47,355.02 332.77,343.67 335.60,339.55 C339.25,334.21 359.62,301.07 367.68,287.49 C370.59,282.42 374.71,273.51 374.67,271.59 C372.91,271.36 369.30,273.23 366.92,274.91 C361.87,278.50 353.91,286.99 348.82,293.80 C347.06,296.20 344.48,299.75 343.67,300.90" fill="none" stroke="rgb(204, 170, 254)" stroke-width="53.67" stroke-opacity="1.00" stroke-linejoin="round"/>
<path d="M338.36,426.84 C351.47,426.02 361.70,422.01 362.74,421.40 C362.74,421.40 362.05,421.26 362.05,421.26" fill="none" stroke="rgb(204, 170, 254)" stroke-width="6.77" stroke-opacity="1.00" stroke-linejoin="round"/>
<path d="M343.78,427.46 C349.00,426.43 363.04,421.83 365.46,420.96 C367.10,420.37 368.98,419.65 369.75,419.32" fill="none" stroke="rgb(204, 170, 254)" stroke-width="6.77" stroke-opacity="1.00" stroke-linejoin="round"/>
<path d="M120.94,211.73 C119.79,215.21 115.92,254.51 115.08,267.87 C114.55,280.21 114.70,312.56 114.84,326.07 C114.85,334.75 115.33,345.46 116.19,351.62 C117.33,359.62 119.74,369.59 122.14,374.78 C124.23,379.26 131.99,392.37 136.28,398.18 C139.88,403.04 151.58,414.36 156.86,417.97 C163.26,422.29 174.11,426.82 180.42,429.08 C186.83,431.34 194.52,432.87 204.55,434.44 C214.00,435.79 223.20,437.63 228.23,438.20 C230.76,438.48 248.74,438.50 256.64,438.44 C267.38,438.11 307.43,435.69 314.68,434.76 C329.20,432.94 337.64,431.48 342.69,430.99 C346.87,430.57 360.47,426.96 365.32,424.84" fill="none" stroke="rgb(0, 0, 0)" stroke-width="5.00" stroke-opacity="1.00" stroke-linejoin="round"/>
<path d="M415.41,213.85 C415.41,213.86 415.41,213.89 415.41,213.90 C416.22,218.03 416.85,222.67 417.29,228.12 C418.93,248.19 419.18,262.15 420.27,285.59 C420.38,293.82 420.14,307.77 419.98,314.10 C419.52,321.67 418.29,336.26 417.61,343.90 C417.24,347.93 414.93,360.46 412.46,368.60 C409.16,379.00 406.49,385.60 401.82,393.80 C399.78,397.33 398.19,399.39 395.12,402.57 C388.68,409.09 378.24,417.56 373.76,419.65 C373.28,419.87 372.14,420.34 370.36,421.05" fill="none" stroke="rgb(0, 0, 0)" stroke-width="5.00" stroke-opacity="1.00" stroke-linejoin="round"/>
<path d="M366.80,425.35 C366.80,425.35 366.57,425.34 366.57,425.34 C368.04,424.09 371.68,421.80 372.94,421.01 C373.82,420.45 374.71,419.90 375.59,419.35" fill="none" stroke="rgb(0, 0, 0)" stroke-width="5.00" stroke-opacity="1.00" stroke-linejoin="round"/>
<path d="M411.25,283.87 C411.26,283.84 410.13,297.67 408.68,308.30 C407.83,315.47 406.28,327.93 404.48,335.64 C399.93,354.51 395.95,362.54 395.27,363.33 C395.27,362.47 399.41,354.76 400.57,351.91 C402.66,346.72 405.30,336.09 406.27,333.96 C406.59,337.19 406.01,343.68 405.73,345.24 C404.96,349.34 403.05,354.57 401.82,356.91 C400.30,359.70 396.64,362.75 394.03,364.41 C390.02,366.92 375.62,372.03 369.26,373.64 C363.27,375.12 353.39,377.32 343.87,378.57 C336.01,379.49 320.05,381.18 311.94,381.95 C304.65,382.51 290.72,383.20 283.57,383.32 C282.63,383.32 281.70,383.33 280.77,383.33" fill="none" stroke="rgb(255, 255, 255)" stroke-width="21.13" stroke-opacity="1.00" stroke-linejoin="round"/>
<path d="M128.51,366.69 C128.90,368.40 131.80,371.55 134.84,373.44 C137.65,375.16 152.61,379.89 157.80,380.94 C170.37,383.28 189.87,387.10 210.26,390.47 C220.49,392.02 230.62,392.83 236.79,393.30 C243.66,393.73 258.22,393.68 265.76,393.47 C290.09,392.49 329.18,386.25 352.13,381.96 C371.35,378.08 383.27,372.30 384.46,371.70 C384.78,371.54 385.15,371.34 385.56,371.12" fill="none" stroke="rgb(255, 255, 255)" stroke-width="21.13" stroke-opacity="1.00" stroke-linejoin="round"/>
<path d="M392.81,367.43 C391.49,367.84 388.71,368.73 388.04,368.93 C382.44,370.56 373.48,371.95 362.31,373.07 C346.04,374.49 316.84,376.28 300.01,376.39 C285.67,376.30 254.95,375.76 238.43,375.00 C224.57,374.12 193.18,372.00 185.76,370.60 C182.63,370.00 165.58,365.57 162.92,364.59 C162.62,364.48 162.14,364.27 161.47,363.98" fill="none" stroke="rgb(255, 255, 255)" stroke-width="21.13" stroke-opacity="1.00" stroke-linejoin="round"/>
<path d="M137.46,267.31 C137.46,267.31 135.86,268.10 135.86,268.10 C135.86,268.10 134.70,275.03 134.70,275.03 C134.70,275.03 133.87,272.31 133.87,272.31 C134.52,275.67 133.53,291.02 133.70,298.14 C134.21,311.31 137.01,338.48 139.12,351.41 C140.29,358.03 140.77,359.82 141.55,362.16 C142.68,360.91 143.26,357.60 143.38,354.00 C143.72,341.64 145.76,316.55 145.43,294.77 C145.29,289.06 144.93,285.16 144.60,281.82 C144.47,279.53 144.66,276.99 145.21,276.42 C147.05,274.71 151.81,273.15 155.17,273.10 C166.69,272.95 190.06,273.34 217.14,274.90 C225.80,275.38 242.46,276.20 250.46,276.54 C255.95,276.69 270.93,276.13 276.94,275.75 C284.08,275.20 332.86,267.87 336.87,267.68 C339.47,267.57 346.50,267.40 349.40,267.85 C347.18,269.03 310.38,280.87 296.99,284.82 C282.92,288.68 253.75,296.04 239.28,299.61 C225.38,302.81 168.67,312.74 166.20,313.38 C169.04,314.88 197.86,315.00 219.42,314.31 C253.64,313.12 294.31,311.69 297.28,311.36 C297.43,310.79 281.26,308.22 273.70,307.57 C266.97,307.12 252.75,306.31 244.81,306.10 C236.67,306.08 220.76,306.15 213.38,306.72 C202.45,307.77 187.87,310.12 183.93,310.98 C170.66,313.90 156.84,318.88 153.20,320.73 C157.60,320.64 174.26,315.56 181.76,312.70 C200.30,305.60 202.92,301.79 203.14,300.86 C202.59,299.36 198.63,298.15 195.87,297.90 C191.70,297.58 180.17,298.91 173.73,301.34 C170.84,302.45 167.76,304.78 167.16,306.43 C166.86,307.41 166.99,309.65 167.58,310.76 C168.90,313.17 173.74,317.18 176.03,318.58 C181.50,321.87 192.63,325.60 200.59,327.54 C206.35,328.80 222.44,330.67 226.97,330.99 C232.77,331.38 246.80,331.42 254.57,330.87 C257.85,330.62 264.12,329.75 264.40,329.00 C261.38,328.46 245.33,328.19 239.04,328.51 C232.62,328.90 218.86,330.18 211.36,331.10 C203.80,332.18 186.19,335.27 182.53,336.09 C178.62,336.97 161.55,341.78 157.75,344.16 C157.75,344.16 157.59,345.20 157.59,345.20 C160.95,347.09 172.14,348.20 180.08,348.47 C194.64,348.62 226.03,348.89 242.87,349.01 C253.57,349.05 277.51,347.87 297.53,345.26 C308.93,343.53 340.69,336.95 342.95,335.96 C340.62,335.01 334.10,335.00 330.30,335.25 C321.43,335.89 307.41,338.17 300.03,339.60 C293.15,341.06 277.21,345.38 273.00,346.79 C265.48,349.31 254.06,354.43 253.74,355.48 C256.45,355.86 267.27,352.71 276.27,349.41 C290.13,343.88 314.88,331.94 324.16,326.25 C331.22,321.81 340.65,314.92 346.27,309.93 C348.99,307.50 353.15,302.67 353.96,301.28 C355.09,299.32 355.29,297.62 354.70,296.19 C352.65,294.94 351.28,294.30 349.86,294.09 C347.22,293.71 339.83,294.09 337.86,294.46 C332.43,295.56 320.28,300.82 314.47,304.46 C308.22,308.41 295.98,318.83 291.38,324.39 C288.99,327.29 285.42,332.08 284.40,334.01 C281.87,338.97 280.04,343.53 279.68,346.85 C279.40,349.85 280.78,354.14 282.41,355.45 C284.35,356.90 288.98,357.35 292.23,356.66 C297.28,355.53 309.17,349.88 315.64,345.83 C324.72,340.11 346.86,322.52 356.53,313.81 C362.05,308.67 367.34,302.98 368.28,301.68 C369.63,299.82 369.97,298.53 369.50,297.68 C366.71,297.47 361.73,299.22 358.83,300.84 C353.05,304.09 342.64,313.57 338.18,319.25 C334.09,324.49 327.39,335.34 324.76,341.02 C323.00,344.84 321.23,349.98 320.06,354.52 C319.24,357.82 319.03,363.11 319.87,365.77 C320.41,367.30 322.34,368.84 324.46,369.43 C325.98,369.82 332.33,367.84 336.09,365.70 C340.58,363.10 351.41,353.93 358.33,346.94 C360.70,344.51 373.12,330.64 376.98,325.94 C383.43,317.92 386.68,312.31 386.39,310.97 C384.91,310.40 379.81,313.54 377.12,316.22 C372.78,320.64 366.00,332.39 363.72,338.40 C362.82,340.79 361.12,346.48 360.40,350.29 C359.87,353.11 359.63,357.67 360.46,360.43 C361.46,361.21 362.89,361.26 364.68,360.44 C366.15,359.74 370.31,356.10 372.31,353.60 C375.17,349.96 380.73,339.87 384.22,332.62 C391.84,315.63 392.08,311.66 391.82,311.13 C390.75,311.05 388.52,313.57 386.61,316.43 C384.76,319.32 379.30,333.93 378.84,337.66 C378.79,338.08 378.74,338.86 378.69,340.02" fill="none" stroke="rgb(255, 255, 255)" stroke-width="39.31" stroke-opacity="1.00" stroke-linejoin="round"/>
<path d="M401.84,251.15 C401.84,251.15 401.66,250.39 401.66,250.39 C401.66,250.39 412.87,242.95 412.87,242.95 C413.06,245.56 412.04,265.07 412.30,270.57 C412.46,273.83 413.20,277.47 413.54,278.74 C413.54,278.74 410.44,257.43 410.44,257.43 C410.44,257.43 407.52,274.38 407.52,274.38 C407.52,274.38 407.36,254.40 407.36,254.40 C407.36,254.40 407.17,268.67 407.17,268.67 C407.17,268.67 415.37,253.29 415.37,253.29 C416.06,255.34 414.85,271.78 414.25,279.96 C413.76,288.66 414.57,296.75 414.40,302.31 C414.40,302.63 414.41,302.93 414.45,303.22" fill="none" stroke="rgb(255, 255, 255)" stroke-width="10.35" stroke-opacity="1.00" stroke-linejoin="round"/>
<path d="M401.46,254.79 C399.32,254.21 396.07,254.59 389.43,255.76 C381.33,257.30 362.31,260.83 358.34,261.20 C355.64,261.44 347.57,261.69 345.48,261.36 C345.48,261.36 401.38,258.40 401.38,258.40 C398.77,260.98 392.07,264.87 388.63,266.71 C368.16,277.18 365.84,279.57 365.33,280.47 C365.33,280.47 365.67,281.52 365.67,281.52 C368.07,282.29 372.27,282.13 375.25,281.70 C382.80,280.60 404.18,274.19 407.25,273.22 C390.15,280.10 377.21,286.49 374.41,288.97 C373.35,289.92 372.82,291.06 372.77,292.14 C373.85,293.80 378.61,294.74 381.47,294.64 C385.80,294.44 397.28,290.81 400.72,288.38 C401.92,287.53 402.99,286.26 402.95,285.97 C400.81,286.05 395.86,289.38 393.58,291.36 C391.22,293.48 387.26,298.25 386.13,300.45 C385.21,302.28 384.62,305.02 384.89,306.04 C384.95,306.26 385.12,306.50 385.40,306.77" fill="none" stroke="rgb(255, 255, 255)" stroke-width="24.05" stroke-opacity="1.00" stroke-linejoin="round"/>
<path d="M129.12,253.29 C129.12,253.29 124.47,251.66 124.47,251.66 C129.80,252.91 137.75,253.44 147.57,253.70 C190.02,254.47 241.88,253.82 271.65,253.71 C286.84,253.48 318.57,252.07 334.08,251.22 C356.53,249.54 363.65,247.49 365.95,246.79 C365.95,246.79 365.33,246.72 365.33,246.72" fill="none" stroke="rgb(0, 0, 0)" stroke-width="6.00" stroke-opacity="1.00" stroke-linejoin="round"/>
<path d="M132.76,384.38 C132.76,384.38 132.76,384.50 132.76,384.50 C135.09,386.10 140.07,388.27 145.41,390.14 C156.28,393.71 166.00,396.34 173.77,397.58 C184.53,399.16 216.32,401.75 231.04,402.57 C245.80,403.22 275.87,403.87 291.08,403.29 C304.54,402.50 336.71,398.34 348.23,395.82 C366.92,391.39 379.36,386.79 380.57,386.10 C381.80,385.39 383.62,384.06 383.63,383.94" fill="none" stroke="rgb(0, 0, 0)" stroke-width="6.00" stroke-opacity="1.00" stroke-linejoin="round"/>
<path d="M148.20,259.74 C148.41,258.00 148.65,254.21 148.62,253.80 C148.60,253.54 148.50,253.18 148.34,252.73 C148.34,252.73 147.77,252.73 147.77,252.73 C146.66,255.61 145.09,269.55 144.47,278.41 C143.56,297.59 143.67,325.87 144.26,338.17 C145.32,353.59 147.86,385.48 148.82,388.74 C148.94,389.13 149.14,389.50 149.43,389.85 C149.43,389.85 149.69,389.76 149.69,389.76" fill="none" stroke="rgb(0, 0, 0)" stroke-width="5.00" stroke-opacity="1.00" stroke-linejoin="round"/>
<path d="M175.30,253.85 C175.32,253.78 175.29,253.99 175.28,254.06 C174.73,259.17 174.27,270.37 174.39,294.45 C174.60,306.51 176.10,336.42 176.96,351.86 C178.14,367.89 181.04,395.56 182.25,398.55 C182.40,398.90 182.62,399.22 182.92,399.49" fill="none" stroke="rgb(0, 0, 0)" stroke-width="5.00" stroke-opacity="1.00" stroke-linejoin="round"/>
<path d="M205.88,256.22 C205.67,260.93 205.71,296.84 205.82,310.48 C206.23,324.39 207.60,354.32 208.56,370.34 C209.14,378.12 210.54,394.61 211.47,400.95 C211.69,402.49 212.06,403.99 212.47,404.95 C212.57,405.16 212.68,405.32 212.81,405.42" fill="none" stroke="rgb(0, 0, 0)" stroke-width="5.00" stroke-opacity="1.00" stroke-linejoin="round"/>
<path d="M240.38,256.51 C240.04,270.50 239.36,298.31 239.32,316.59 C240.21,350.87 241.44,395.50 241.58,396.43 C241.63,396.76 241.74,396.94 241.90,396.97 C241.90,396.97 242.03,396.81 242.03,396.81" fill="none" stroke="rgb(0, 0, 0)" stroke-width="5.00" stroke-opacity="1.00" stroke-linejoin="round"/>
<path d="M272.29,258.18 C272.46,263.39 272.89,277.13 273.15,285.66 C274.62,321.26 276.80,363.60 276.91,381.33 C276.82,387.99 276.25,397.17 276.16,398.56 C276.14,398.89 276.09,399.40 276.03,400.08" fill="none" stroke="rgb(0, 0, 0)" stroke-width="5.00" stroke-opacity="1.00" stroke-linejoin="round"/>
<path d="M309.20,253.32 C309.20,253.34 309.23,253.39 309.23,253.41 C309.70,266.18 310.44,296.53 310.72,314.10 C310.70,331.24 310.54,368.72 309.86,376.45 C309.09,385.07 307.89,392.81 307.38,394.56 C307.32,394.77 307.18,395.24 306.94,395.98" fill="none" stroke="rgb(0, 0, 0)" stroke-width="5.00" stroke-opacity="1.00" stroke-linejoin="round"/>
<path d="M335.26,256.00 C335.26,255.97 335.29,256.04 335.29,256.07 C335.38,256.60 335.60,258.69 335.72,259.86 C337.45,278.12 338.27,303.41 338.33,317.94 C337.77,346.90 336.03,385.56 335.49,395.27 C335.47,395.58 335.46,396.14 335.44,396.97" fill="none" stroke="rgb(0, 0, 0)" stroke-width="5.00" stroke-opacity="1.00" stroke-linejoin="round"/>
<path d="M362.54,249.71 C363.38,256.14 365.36,272.29 365.62,276.10 C366.23,287.04 366.74,321.12 366.73,335.50 C366.51,349.70 364.97,369.70 362.58,386.21 C362.42,387.20 362.26,388.19 362.11,389.18" fill="none" stroke="rgb(0, 0, 0)" stroke-width="5.00" stroke-opacity="1.00" stroke-linejoin="round"/>
<path d="M393.49,250.52 C394.17,252.92 394.87,264.49 394.99,273.36 C394.87,293.43 393.71,317.30 392.73,330.70 C390.24,354.92 387.24,373.22 384.94,379.76 C384.80,380.16 384.64,380.48 384.46,380.71" fill="none" stroke="rgb(0, 0, 0)" stroke-width="5.00" stroke-opacity="1.00" stroke-linejoin="round"/>
<path d="M404.15,243.72 C404.15,243.72 403.44,242.80 403.44,242.80 C412.66,238.40 416.98,236.10 417.59,235.82 C417.76,235.75 417.94,235.70 418.14,235.68" fill="none" stroke="rgb(0, 0, 0)" stroke-width="5.00" stroke-opacity="1.00" stroke-linejoin="round"/>
<path d="M389.64,380.82 C392.75,380.60 402.84,373.86 406.78,370.29 C407.80,369.34 409.91,366.87 410.78,365.53 C411.06,365.10 411.32,364.56 411.55,363.91" fill="none" stroke="rgb(0, 0, 0)" stroke-width="5.00" stroke-opacity="1.00" stroke-linejoin="round"/>
<path d="M418.29,246.47 C418.23,247.32 418.09,249.69 418.01,251.21 C417.26,263.77 414.07,294.60 412.30,309.38 C410.04,327.09 406.42,355.23 405.89,358.52 C405.27,362.21 403.87,367.89 403.26,369.34 C403.15,369.59 402.95,369.98 402.65,370.49" fill="none" stroke="rgb(0, 0, 0)" stroke-width="5.00" stroke-opacity="1.00" stroke-linejoin="round"/>
<path d="M691.44,583.05" fill="none" stroke="rgb(174, 93, 0)" stroke-width="12.73" stroke-opacity="1.00" stroke-linejoin="round"/>
<path d="M215.00,300.35 C215.88,303.58 217.63,322.50 217.57,329.98 C217.38,339.68 217.22,346.83 217.22,346.79 C215.15,340.04 214.38,317.73 214.67,314.47 C215.96,313.54 215.85,346.56 215.85,346.89 C216.99,348.11 223.45,350.65 224.60,351.31 C231.15,355.06 246.35,366.93 247.41,367.77 C255.91,361.05 264.17,352.18 266.67,350.07 C267.93,349.02 274.58,343.98 275.82,342.71 C275.78,343.81 273.82,347.91 271.63,350.37 C269.85,352.34 266.12,355.74 264.73,356.71 C264.71,356.72 271.53,352.06 272.05,351.67 C273.95,350.22 274.42,349.47 274.91,347.22 C275.07,346.40 275.99,343.50 276.17,341.94 C277.94,326.32 276.56,313.17 276.08,307.31 C275.59,303.49 275.80,299.51 276.97,296.34 C276.97,296.34 278.94,296.53 278.94,296.53 C278.71,297.47 276.58,297.94 271.32,298.67 C268.99,298.99 265.85,299.49 263.72,299.88 C260.92,300.39 258.68,300.74 256.74,301.05" fill="none" stroke="rgb(0, 9, 255)" stroke-width="14.09" stroke-opacity="1.00" stroke-linejoin="round"/>
<path d="M214.59,299.86 C215.28,300.06 229.72,299.42 235.52,299.35 C237.81,299.37 262.86,300.00 271.88,300.68 C267.76,300.19 233.26,303.81 227.67,303.95 C224.35,304.02 221.67,304.23 220.88,304.90 C220.88,304.90 266.59,302.63 266.59,302.63 C264.95,303.45 241.86,309.55 238.07,310.76 C234.66,311.86 221.88,317.49 220.64,318.83 C221.40,319.38 226.75,319.09 230.87,318.09 C232.92,317.57 241.85,314.48 244.73,313.19 C252.51,309.65 253.77,306.96 253.56,306.55 C252.67,305.73 249.13,306.45 246.63,307.82 C242.02,310.41 232.94,318.30 228.90,323.09 C224.16,328.74 223.21,331.91 223.29,333.08 C224.06,334.01 225.64,334.58 227.78,334.54 C229.47,334.49 234.86,332.86 237.56,331.53 C242.55,329.03 251.44,321.51 253.74,318.00 C256.02,314.44 256.04,312.50 255.74,311.49 C254.40,310.30 249.95,311.20 247.21,312.59 C244.67,313.93 239.51,317.81 237.08,320.25 C234.74,322.63 230.57,328.11 228.94,330.91 C227.38,333.62 225.29,338.84 225.01,340.52 C224.74,342.45 225.09,344.75 226.02,345.26 C227.77,346.15 233.30,345.14 235.55,344.26 C238.25,343.16 243.85,339.73 246.73,337.46 C252.47,332.86 261.44,322.43 264.19,317.60 C265.49,315.27 266.36,312.14 265.55,311.04 C264.07,310.52 259.76,312.85 257.08,315.11 C251.88,319.57 242.09,332.34 238.95,338.60 C237.48,341.58 235.71,346.83 236.15,348.82 C237.04,349.61 238.68,349.86 240.82,349.35 C242.59,348.92 248.20,345.89 251.02,343.73 C253.81,341.56 259.28,336.12 261.75,333.09 C264.15,330.10 267.93,324.24 269.29,321.45 C272.77,314.11 271.59,311.48 270.90,310.86 C268.94,310.69 264.39,313.88 262.01,316.45 C257.76,321.14 250.85,334.13 248.30,341.20 C245.36,349.44 245.77,351.96 246.14,352.70 C247.28,353.35 250.70,351.98 252.98,350.47 C257.50,347.42 265.99,338.78 268.43,335.06 C270.80,331.40 271.33,329.76 271.38,328.50 C270.64,328.15 267.20,330.13 264.27,332.60 C259.29,336.84 248.69,347.62 244.46,353.23 C242.54,355.83 242.30,356.98 242.34,357.85 C243.97,357.73 247.54,355.01 248.91,353.72 C249.36,353.30 250.23,352.43 251.52,351.13" fill="none" stroke="rgb(0, 9, 255)" stroke-width="14.09" stroke-opacity="1.00" stroke-linejoin="round"/>
<path d="M277.11,300.68 C277.05,305.80 274.87,313.56 274.36,315.28 C273.99,316.53 273.61,317.77 273.24,319.02" fill="none" stroke="rgb(0, 9, 255)" stroke-width="14.09" stroke-opacity="1.00" stroke-linejoin="round"/>
<path d="M253.62,296.72 C252.80,296.71 250.67,296.68 249.37,296.65 C247.77,296.60 244.95,296.51 243.73,296.47 C270.09,295.86 275.71,296.23 276.39,296.44 C276.55,296.49 276.82,296.62 277.19,296.82" fill="none" stroke="rgb(0, 9, 255)" stroke-width="14.09" stroke-opacity="1.00" stroke-linejoin="round"/>
<path d="M212.06,297.67 C213.52,298.37 214.47,298.84 214.92,299.07 C215.36,299.31 215.93,299.63 216.62,300.05" fill="none" stroke="rgb(0, 9, 255)" stroke-width="14.09" stroke-opacity="1.00" stroke-linejoin="round"/>
<path d="M239.16,310.38 C239.18,310.39 239.13,310.34 239.11,310.33 C238.31,309.94 236.23,309.23 234.71,308.92 C231.27,308.24 226.50,308.47 225.34,309.29 C224.27,310.13 223.70,313.05 224.36,314.83 C224.57,315.37 228.69,323.05 229.27,324.41 C229.62,325.27 230.72,328.80 230.82,329.69 C231.16,333.05 228.93,336.87 227.64,337.56 C226.76,337.98 223.10,338.16 221.02,336.85 C218.33,335.11 217.22,331.66 217.68,330.98 C217.84,330.75 218.31,330.33 219.09,329.71" fill="none" stroke="rgb(0, 0, 0)" stroke-width="6.00" stroke-opacity="1.00" stroke-linejoin="round"/>
<path d="M248.00,312.88 C247.92,312.85 247.79,312.90 247.62,313.01 C245.85,314.28 244.08,318.19 243.69,321.60 C243.30,325.31 244.28,330.93 245.36,332.26 C246.39,333.43 249.47,333.66 251.01,332.35 C252.74,330.79 255.94,324.32 256.45,321.03 C256.87,318.07 255.58,314.38 254.06,313.44 C252.53,312.56 249.75,312.44 249.09,312.66 C248.81,312.75 248.25,313.01 247.38,313.44" fill="none" stroke="rgb(0, 0, 0)" stroke-width="6.00" stroke-opacity="1.00" stroke-linejoin="round"/>
<path d="M264.60,308.11 C264.59,308.08 264.54,308.15 264.53,308.18 C264.04,311.30 265.25,331.27 265.93,332.64 C266.02,332.82 266.26,333.18 266.65,333.71 C267.34,333.81 275.37,331.08 276.72,330.80 C277.07,330.73 277.66,330.64 278.49,330.51" fill="none" stroke="rgb(0, 0, 0)" stroke-width="6.00" stroke-opacity="1.00" stroke-linejoin="round"/>
<path d="M202.77,285.50 C202.77,285.57 204.75,285.35 205.54,285.27 C205.84,285.24 206.07,285.23 206.24,285.24" fill="none" stroke="rgb(255, 34, 0)" stroke-width="6.00" stroke-opacity="1.00" stroke-linejoin="round"/>
<path d="M200.63,285.65 C204.94,284.90 221.02,283.64 228.73,283.09 C252.99,281.69 266.41,281.84 271.56,281.89 C271.72,281.89 271.86,281.90 272.00,281.93" fill="none" stroke="rgb(255, 34, 0)" stroke-width="15.22" stroke-opacity="1.00" stroke-linejoin="round"/>
<path d="M200.76,284.28 C200.85,286.31 201.07,291.76 201.05,294.88 C201.02,298.15 199.96,336.66 199.41,340.24 C199.41,340.24 200.00,339.86 200.00,339.86" fill="none" stroke="rgb(255, 34, 0)" stroke-width="15.22" stroke-opacity="1.00" stroke-linejoin="round"/>
<path d="M209.50,291.56 C209.50,291.56 209.38,291.62 209.38,291.62 C209.38,291.62 284.74,290.56 284.74,290.56 C285.37,296.13 283.63,345.36 282.99,350.12 C282.91,350.69 282.78,351.48 282.61,352.51 C282.61,352.51 281.48,351.20 281.48,351.20" fill="none" stroke="rgb(0, 0, 0)" stroke-width="5.00" stroke-opacity="1.00" stroke-linejoin="round"/>
<path d="M207.55,294.12 C207.73,297.01 208.09,302.81 208.15,307.63 C208.13,323.85 208.12,347.72 208.41,351.21 C211.52,352.38 231.86,364.48 234.27,366.15 C235.45,366.98 244.59,375.13 246.63,376.26 C253.15,370.84 278.38,355.01 279.02,353.61 C279.09,353.45 279.18,353.08 279.29,352.51" fill="none" stroke="rgb(0, 0, 0)" stroke-width="5.00" stroke-opacity="1.00" stroke-linejoin="round"/>
</g>
</svg>
