<?xml version="1.0" encoding="UTF-8" standalone="no"?>
<!DOCTYPE svg PUBLIC "-//W3C//DTD SVG 1.1//EN" "http://www.w3.org/Graphics/SVG/1.1/DTD/svg11.dtd">
<svg width="102.86" height="102.86" viewBox="0.00 0.00 500.00 500.00" xmlns="http://www.w3.org/2000/svg" xmlns:xlink="http://www.w3.org/1999/xlink">
<g stroke-linecap="round" id="레이어_12">
<path d="M332.50,297.95 C331.59,297.90 328.92,302.98 327.77,305.81 C326.44,309.12 324.33,315.82 323.91,318.12 C323.52,320.38 323.62,326.41 324.77,328.81 C325.05,329.35 326.04,329.90 326.42,329.92 C327.79,329.85 331.48,326.17 333.18,323.63 C334.59,321.48 336.90,317.08 337.54,315.51 C338.19,313.87 340.19,305.72 339.57,303.30 C339.21,301.97 337.97,301.00 336.82,300.68 C335.51,301.70 334.72,302.65 334.13,304.22 C332.06,309.75 329.08,325.72 329.85,328.40 C330.28,329.80 331.38,331.30 332.02,331.30 C333.54,331.15 336.22,327.03 337.13,324.22 C337.87,321.83 338.70,317.14 338.83,315.22 C339.34,306.95 337.52,302.69 336.93,302.10 C335.06,305.88 331.97,321.32 331.71,328.16 C331.64,330.39 332.40,333.44 333.35,335.04 C333.76,335.67 335.51,335.91 336.01,335.69 C337.60,334.83 339.75,329.63 340.81,325.70 C341.44,323.15 341.90,318.93 342.15,314.40 C342.35,310.65 341.50,307.49 340.93,306.73 C339.29,309.13 337.84,312.65 336.60,317.59 C335.02,324.12 334.20,335.13 334.61,336.57 C335.08,338.09 336.40,339.69 337.13,339.68 C338.77,339.50 341.02,335.87 341.77,333.19 C342.28,331.30 343.12,326.26 343.15,323.09 C343.15,320.20 342.06,314.43 340.89,312.73 C339.27,313.68 337.10,319.02 336.00,322.81 C335.37,325.00 334.22,331.70 334.08,334.01 C333.82,338.40 334.16,344.88 335.04,346.29 C335.47,346.90 336.83,347.36 337.63,347.11 C339.53,346.45 343.00,341.37 344.05,338.72 C344.79,336.80 346.28,330.94 346.51,327.92 C346.67,325.81 346.70,317.67 346.27,314.99 C345.91,312.90 344.38,310.24 344.09,310.07 C343.42,310.15 341.76,314.25 340.92,317.46 C338.89,325.14 337.27,339.36 338.46,342.59 C338.81,343.47 339.98,344.68 340.66,344.87 C341.47,345.02 343.15,344.11 343.90,342.92 C345.37,340.53 346.96,334.17 347.34,331.54 C348.06,326.35 348.12,311.98 346.98,310.88 C344.67,315.74 341.04,328.36 339.68,335.87 C338.29,343.76 338.48,351.73 339.32,352.82 C339.74,353.28 340.93,353.48 341.57,353.10 C343.23,352.02 346.30,345.80 348.14,340.74 C354.44,323.06 351.30,316.08 350.90,315.90 C348.61,320.21 346.14,338.00 346.37,342.35 C346.50,344.54 347.01,345.77 347.78,346.15 C349.36,344.77 351.04,339.67 351.71,336.75 C353.47,328.58 353.68,324.03 353.66,319.64 C353.69,319.76 355.04,323.14 355.46,325.80 C356.32,331.33 354.81,342.17 354.33,342.86 C354.33,342.86 358.28,323.40 358.28,323.40 C359.22,324.48 359.43,327.99 359.22,331.20 C358.86,336.06 358.34,339.99 357.80,341.13 C356.39,343.98 351.71,348.23 350.13,348.92 C349.26,349.28 345.10,350.08 343.97,350.52 C347.77,350.13 352.67,347.31 354.65,345.64 C356.80,343.76 359.60,339.41 360.03,335.51 C360.15,334.27 360.16,331.54 360.03,330.82 C359.74,329.47 355.69,327.43 350.31,325.12 C346.41,323.44 344.07,322.11 341.16,320.00 C338.82,318.28 336.17,315.55 333.82,312.74 C333.82,312.74 327.22,326.69 327.22,326.69 C327.20,326.74 327.67,321.74 328.57,319.69 C330.30,315.85 336.83,307.47 337.99,306.35 C338.40,308.62 337.61,323.37 337.24,329.14 C337.09,332.74 338.34,336.97 339.62,337.41 C340.35,337.04 341.36,332.44 341.20,329.56 C340.96,325.67 339.43,323.43 338.70,322.92 C337.31,323.42 336.09,327.66 335.13,333.50 C335.08,333.82 335.05,334.09 335.04,334.31 C335.04,334.31 329.01,327.91 329.01,327.91 C329.01,327.91 333.68,339.94 333.68,339.94 C333.68,339.94 333.68,340.24 333.68,340.24" fill="none" stroke="rgb(148, 201, 254)" stroke-width="8.00" stroke-opacity="1.00" stroke-linejoin="round"/>
<path d="M334.71,295.15 C335.73,295.78 336.44,296.36 338.14,298.02 C344.55,304.18 360.06,319.24 362.04,321.46 C364.11,323.82 366.15,328.24 365.77,330.62 C365.30,333.77 363.86,339.81 363.18,341.52 C362.75,342.57 360.52,346.94 357.88,349.80 C355.73,352.08 344.63,357.00 343.09,357.30 C341.19,357.60 339.87,357.26 338.96,356.04 C338.13,354.90 337.00,353.32 336.95,353.25" fill="none" stroke="rgb(0, 0, 0)" stroke-width="8.00" stroke-opacity="1.00" stroke-linejoin="round"/>
<path d="M319.65,325.79 C320.60,327.76 322.33,330.90 335.53,351.58 C336.52,353.11 337.14,354.04 337.41,354.38 C337.60,354.63 337.74,354.69 337.82,354.58" fill="none" stroke="rgb(0, 0, 0)" stroke-width="8.00" stroke-opacity="1.00" stroke-linejoin="round"/>
<path d="M330.91,340.44 C330.84,339.79 332.09,337.06 332.76,336.17 C333.36,335.38 335.92,332.38 336.88,331.31 C340.39,327.47 349.25,319.55 351.41,318.15 C352.18,317.66 352.97,317.24 353.77,316.90 C353.97,316.82 354.06,316.82 354.03,316.91" fill="none" stroke="rgb(0, 0, 0)" stroke-width="8.00" stroke-opacity="1.00" stroke-linejoin="round"/>
<path d="M330.98,300.16 C329.24,301.65 326.62,307.14 324.59,311.16 C323.87,312.64 322.96,315.55 322.59,317.53 C322.29,319.29 322.48,321.50 323.04,323.06 C324.52,326.99 326.28,329.80 327.01,330.67 C328.12,330.62 335.72,322.05 341.50,316.18 C343.95,313.70 346.51,311.80 346.49,311.82 C346.49,311.82 331.34,323.02 331.34,323.02 C331.34,323.02 334.34,302.39 334.34,302.39 C334.34,302.39 326.93,323.65 326.93,323.65 C326.93,323.65 327.67,305.22 327.67,305.22 C330.60,313.06 333.10,317.05 334.41,317.96 C334.41,317.96 331.84,300.69 331.84,300.69 C331.84,300.69 340.51,313.15 340.51,313.15 C340.51,313.15 338.54,307.21 338.54,307.21 C339.48,308.13 344.94,314.29 345.05,314.46 C345.29,314.86 345.52,315.54 345.74,316.51 C345.78,316.70 345.80,316.88 345.82,317.05" fill="none" stroke="rgb(255, 255, 255)" stroke-width="8.00" stroke-opacity="1.00" stroke-linejoin="round"/>
<path d="M322.83,310.88 C322.83,310.84 322.89,310.91 323.01,311.08 C323.95,312.36 327.54,317.84 329.41,320.67 C330.64,322.53 334.74,328.38 335.24,329.13 C335.40,329.37 335.59,329.70 335.81,330.11" fill="none" stroke="rgb(0, 0, 0)" stroke-width="8.00" stroke-opacity="1.00" stroke-linejoin="round"/>
<path d="M330.71,302.81 C330.66,302.76 330.76,302.94 330.79,303.00 C332.19,305.50 342.32,317.75 343.87,321.00 C344.07,321.42 344.29,322.03 344.55,322.83" fill="none" stroke="rgb(0, 0, 0)" stroke-width="8.00" stroke-opacity="1.00" stroke-linejoin="round"/>
</g>
</svg>
