<?xml version="1.0" encoding="UTF-8" standalone="no"?>
<!DOCTYPE svg PUBLIC "-//W3C//DTD SVG 1.1//EN" "http://www.w3.org/Graphics/SVG/1.1/DTD/svg11.dtd">
<svg width="102.86" height="102.86" viewBox="0.00 0.00 500.00 500.00" xmlns="http://www.w3.org/2000/svg" xmlns:xlink="http://www.w3.org/1999/xlink">
<g stroke-linecap="round" id="레이어_9">
<path d="M132.32,217.80 C132.49,217.93 145.20,220.80 151.46,222.26 C157.49,223.56 169.56,224.55 176.19,225.03 C194.14,226.14 220.91,226.33 236.13,226.25 C245.84,226.26 325.14,219.14 354.21,216.71 C361.90,216.15 376.77,215.43 383.84,215.17 C385.47,215.12 402.67,216.32 403.05,217.13 C405.15,222.14 405.75,235.87 406.09,242.75 C406.27,248.59 402.62,278.35 399.67,297.60 C397.63,309.89 390.85,337.70 387.51,351.93 C387.14,353.55 386.45,356.52 386.14,357.88 C385.57,360.25 384.73,363.76 384.46,364.89" fill="none" stroke="rgb(204, 170, 254)" stroke-width="26.21" stroke-opacity="1.00" stroke-linejoin="round"/>
<path d="M395.80,247.81 C396.27,255.35 397.19,268.66 397.44,275.21 C397.76,285.35 397.77,289.26 396.67,301.53 C395.77,310.58 394.39,324.28 393.92,328.93 C395.07,323.11 397.86,306.52 398.33,300.88 C398.74,295.83 399.23,275.32 399.52,272.91 C399.91,269.73 400.01,267.87 399.99,265.21 C400.76,269.39 401.78,281.27 401.35,287.40 C400.73,295.55 399.43,311.46 398.76,319.23 C398.04,326.15 396.28,335.26 393.82,346.00 C391.68,354.89 388.75,364.04 386.52,370.18 C386.35,369.25 392.00,354.15 393.51,349.69 C395.65,343.07 397.49,329.11 398.47,321.42 C398.73,319.17 398.97,317.56 399.44,314.67 C400.07,315.97 399.82,329.46 398.87,335.91 C397.99,341.81 395.26,353.92 393.26,360.05 C390.42,368.44 380.00,390.76 377.93,394.21 C375.17,398.62 372.49,401.69 369.50,403.47 C366.56,405.17 360.93,407.65 359.22,408.55 C362.95,404.98 369.26,395.99 371.91,390.64 C375.58,383.19 384.18,370.04 385.34,368.10 C386.74,365.76 389.88,359.06 391.15,357.09 C391.84,356.04 392.86,354.76 394.31,353.04 C394.31,353.04 378.58,388.53 378.58,388.53 C378.60,388.49 390.04,370.77 392.34,364.88 C394.68,358.74 395.14,357.68 396.21,355.48 C396.21,355.48 386.60,378.71 386.60,378.71 C386.60,378.71 386.49,376.37 386.49,376.37 C370.41,389.16 357.10,401.29 353.26,403.78 C351.31,405.03 345.21,407.75 340.08,409.75 C336.15,411.25 333.43,411.97 329.88,412.48 C316.39,414.22 297.45,416.67 296.16,416.77 C293.75,416.97 290.82,417.06 289.32,417.03" fill="none" stroke="rgb(204, 170, 254)" stroke-width="38.21" stroke-opacity="1.00" stroke-linejoin="round"/>
<path d="M139.22,227.72 C139.17,227.99 139.16,232.72 138.56,235.52 C137.89,238.62 137.38,241.81 137.26,242.57 C137.26,242.57 137.57,230.23 137.57,230.23 C137.57,231.40 134.70,250.47 134.44,257.42 C134.19,271.88 133.78,306.44 134.21,318.51 C134.65,325.70 135.71,345.61 135.88,347.57 C136.52,354.98 139.19,366.96 141.27,370.56 C141.95,371.72 147.19,378.96 147.58,379.42 C148.08,380.00 160.25,391.90 165.19,395.56 C167.21,397.05 169.05,398.20 170.14,398.71 C170.06,398.79 164.73,396.77 162.87,395.92 C159.99,394.58 155.74,390.91 152.18,387.20 C148.53,383.29 147.86,382.65 146.70,381.66 C148.97,384.39 167.51,398.91 169.66,400.38 C171.43,401.58 177.17,404.10 180.67,405.27 C185.49,406.86 194.53,409.21 195.15,409.79 C191.67,409.30 183.19,408.08 180.04,407.38 C175.18,406.29 168.02,402.18 167.19,401.69 C170.27,403.88 180.03,407.39 187.84,408.97 C199.17,411.24 224.22,413.08 228.86,413.80 C225.96,414.17 218.21,413.81 215.04,413.87 C210.28,414.00 203.93,414.51 201.67,414.47 C200.11,414.44 192.05,413.63 192.05,413.63 C195.34,415.18 208.91,416.66 215.54,417.06 C216.39,417.12 234.29,418.82 241.53,418.93 C248.27,419.00 268.42,415.95 279.06,415.17 C283.04,414.89 288.30,413.44 289.75,413.00 C287.57,414.44 284.06,415.14 278.89,415.12 C278.48,415.11 278.05,415.11 277.62,415.12 C280.72,417.86 287.64,416.92 288.82,416.65 C281.42,416.66 266.90,420.12 262.27,420.13 C261.75,420.13 260.65,420.09 258.99,420.02 C266.01,419.28 279.24,417.77 284.41,416.30 C289.38,414.87 295.83,411.76 296.45,411.42 C296.80,411.22 297.60,410.75 298.83,410.01" fill="none" stroke="rgb(204, 170, 254)" stroke-width="38.21" stroke-opacity="1.00" stroke-linejoin="round"/>
<path d="M372.35,355.03 C369.64,358.61 361.13,366.72 354.00,372.09 C342.23,380.66 314.67,401.34 309.23,406.78 C310.93,406.97 316.01,404.29 318.98,402.53 C332.29,394.47 351.28,380.39 364.06,370.20 C369.70,365.74 381.46,356.40 387.57,351.51 C390.84,348.83 394.19,345.27 395.30,343.44 C396.10,342.06 396.62,340.48 396.78,338.98 C396.91,337.21 395.48,333.09 392.97,327.64 C390.43,322.27 388.23,317.28 387.36,315.86 C385.52,316.82 382.75,321.37 381.21,323.92 C371.40,340.07 356.92,361.85 346.29,374.63 C341.68,380.15 339.64,381.22 339.09,381.11 C339.14,378.70 346.30,364.01 349.23,358.02 C356.15,343.49 367.16,320.05 368.42,316.42 C369.57,313.04 369.47,308.51 368.31,307.16 C368.18,307.01 367.87,306.72 367.39,306.27" fill="none" stroke="rgb(204, 170, 254)" stroke-width="38.21" stroke-opacity="1.00" stroke-linejoin="round"/>
<path d="M382.72,242.32 C382.70,242.00 382.68,241.75 382.64,241.55 C382.44,240.63 381.84,239.42 381.21,238.87 C379.04,237.11 366.47,237.96 355.53,239.08 C343.41,240.12 309.49,241.27 294.14,241.68 C279.00,241.97 248.54,242.44 233.70,242.32 C218.21,241.81 187.91,241.05 172.99,240.57 C165.75,240.36 159.55,241.27 158.38,242.04 C156.84,243.12 155.22,247.74 154.88,250.22 C154.14,256.04 154.45,271.58 154.65,279.60 C154.91,287.89 155.64,307.00 155.95,310.91 C156.53,317.10 158.47,332.71 159.67,338.75 C161.47,347.44 163.95,357.11 166.38,363.30 C167.91,367.16 170.70,372.53 172.73,375.35 C174.53,377.81 177.94,380.73 179.29,381.29 C181.12,382.00 183.87,381.75 185.67,380.70 C187.07,379.85 190.23,375.48 191.89,371.97 C193.83,367.79 197.56,353.37 198.57,348.18 C200.23,338.91 204.26,308.13 205.50,294.70 C206.01,286.97 206.38,273.58 205.92,268.60 C205.29,263.13 204.27,258.52 202.48,257.11 C200.71,257.45 199.61,257.89 198.64,258.83 C194.45,262.95 188.27,275.49 186.24,281.56 C184.27,287.53 181.13,301.67 180.14,309.15 C179.57,313.52 178.54,328.06 178.46,332.22 C178.41,339.82 179.26,353.16 180.38,359.43 C180.85,361.99 182.41,368.41 183.19,370.48 C184.73,374.48 187.86,380.00 190.25,381.94 C191.44,382.86 194.01,383.97 195.41,384.17 C198.37,384.51 204.14,382.43 206.48,380.95 C211.71,377.49 221.66,366.67 226.10,360.39 C231.91,352.12 247.12,324.41 253.69,311.45 C256.72,305.25 262.60,292.97 265.46,286.90 C267.95,281.42 273.12,267.45 273.69,264.02 C273.96,262.36 273.63,261.29 272.53,259.82 C270.04,259.72 268.50,259.97 266.62,260.91 C263.75,262.36 259.72,265.70 257.72,267.82 C254.32,271.48 247.51,282.14 244.07,289.28 C239.83,298.13 231.76,322.40 229.41,334.30 C228.30,340.18 226.58,353.11 226.49,359.98 C226.46,363.49 226.90,369.69 227.36,372.39 C227.74,374.59 229.37,380.20 230.92,382.85 C231.79,384.30 234.08,386.60 235.35,387.36 C236.64,388.07 239.47,388.71 241.02,388.65 C244.00,388.46 248.65,386.25 251.84,384.28 C254.50,382.57 265.43,372.27 270.36,366.44 C277.74,357.67 297.28,329.55 305.73,316.42 C309.60,310.15 316.99,297.99 320.91,291.17 C325.47,282.97 329.84,273.80 332.33,266.91 C332.93,265.15 333.15,263.37 333.16,260.72 C331.67,259.84 330.53,259.70 328.97,260.44 C324.19,262.73 314.10,271.73 309.47,277.30 C305.68,281.88 299.08,291.58 296.11,296.71 C293.14,301.95 287.60,313.08 285.19,318.89 C282.78,324.73 278.98,336.12 277.48,341.68 C275.59,348.92 273.55,362.90 273.74,369.23 C273.91,373.76 275.88,380.16 277.66,381.28 C278.04,381.49 281.67,382.17 282.15,382.13 C284.24,381.87 290.30,377.96 293.73,374.89 C297.27,371.67 305.24,362.56 312.16,353.73 C320.79,341.98 337.87,317.01 347.27,302.89 C351.44,296.50 358.11,286.19 361.55,280.22 C366.73,271.02 366.81,269.23 366.60,267.71 C364.67,267.99 363.29,268.48 361.64,269.62 C356.63,273.12 347.13,283.21 343.92,287.58 C338.51,294.98 331.85,306.00 328.42,312.95 C321.91,326.23 316.41,344.94 315.53,351.47 C315.27,353.39 315.38,355.02 315.83,357.64 C317.26,358.29 318.21,358.38 319.25,357.73 C323.47,355.02 332.77,343.67 335.60,339.55 C339.25,334.21 359.62,301.07 367.68,287.49 C370.59,282.42 374.71,273.51 374.67,271.59 C372.91,271.36 369.30,273.23 366.92,274.91 C361.87,278.50 353.91,286.99 348.82,293.80 C347.06,296.20 344.48,299.75 343.67,300.90" fill="none" stroke="rgb(204, 170, 254)" stroke-width="53.67" stroke-opacity="1.00" stroke-linejoin="round"/>
<path d="M338.36,426.84 C351.47,426.02 361.70,422.01 362.74,421.40 C362.74,421.40 362.05,421.26 362.05,421.26" fill="none" stroke="rgb(204, 170, 254)" stroke-width="6.77" stroke-opacity="1.00" stroke-linejoin="round"/>
<path d="M343.78,427.46 C349.00,426.43 363.04,421.83 365.46,420.96 C367.10,420.37 368.98,419.65 369.75,419.32" fill="none" stroke="rgb(204, 170, 254)" stroke-width="6.77" stroke-opacity="1.00" stroke-linejoin="round"/>
<path d="M120.94,211.73 C119.79,215.21 115.92,254.51 115.08,267.87 C114.55,280.21 114.70,312.56 114.84,326.07 C114.85,334.75 115.33,345.46 116.19,351.62 C117.33,359.62 119.74,369.59 122.14,374.78 C124.23,379.26 131.99,392.37 136.28,398.18 C139.88,403.04 151.58,414.36 156.86,417.97 C163.26,422.29 174.11,426.82 180.42,429.08 C186.83,431.34 194.52,432.87 204.55,434.44 C214.00,435.79 223.20,437.63 228.23,438.20 C230.76,438.48 248.74,438.50 256.64,438.44 C267.38,438.11 307.43,435.69 314.68,434.76 C329.20,432.94 337.64,431.48 342.69,430.99 C346.87,430.57 360.47,426.96 365.32,424.84" fill="none" stroke="rgb(0, 0, 0)" stroke-width="5.00" stroke-opacity="1.00" stroke-linejoin="round"/>
<path d="M415.41,213.85 C415.41,213.86 415.41,213.89 415.41,213.90 C416.22,218.03 416.85,222.67 417.29,228.12 C418.93,248.19 419.18,262.15 420.27,285.59 C420.38,293.82 420.14,307.77 419.98,314.10 C419.52,321.67 418.29,336.26 417.61,343.90 C417.24,347.93 414.93,360.46 412.46,368.60 C409.16,379.00 406.49,385.60 401.82,393.80 C399.78,397.33 398.19,399.39 395.12,402.57 C388.68,409.09 378.24,417.56 373.76,419.65 C373.28,419.87 372.14,420.34 370.36,421.05" fill="none" stroke="rgb(0, 0, 0)" stroke-width="5.00" stroke-opacity="1.00" stroke-linejoin="round"/>
<path d="M366.80,425.35 C366.80,425.35 366.57,425.34 366.57,425.34 C368.04,424.09 371.68,421.80 372.94,421.01 C373.82,420.45 374.71,419.90 375.59,419.35" fill="none" stroke="rgb(0, 0, 0)" stroke-width="5.00" stroke-opacity="1.00" stroke-linejoin="round"/>
<path d="M143.74,258.41 C143.74,258.41 143.12,257.72 143.12,257.72 C139.53,265.14 130.86,293.64 128.29,302.33 C129.07,297.73 133.96,282.09 136.34,274.56 C139.33,264.74 140.41,256.99 140.22,255.56 C140.14,254.98 139.31,252.98 139.39,253.02 C140.73,256.51 144.16,260.87 146.45,262.39 C149.02,264.06 163.77,268.85 174.18,271.51 C198.17,277.43 203.75,279.59 206.44,280.72" fill="none" stroke="rgb(174, 93, 0)" stroke-width="14.71" stroke-opacity="1.00" stroke-linejoin="round"/>
<path d="M156.90,276.06 C156.94,276.06 156.82,276.03 156.78,276.03 C153.93,276.00 152.11,276.33 151.32,277.50 C149.62,280.07 147.24,288.16 146.63,290.83 C145.71,294.95 144.88,300.84 144.78,304.58 C144.72,308.34 145.68,312.33 146.57,312.78 C147.31,312.81 147.76,312.77 148.21,312.18 C150.26,309.49 151.98,304.17 152.45,301.65 C152.99,298.55 152.30,293.72 150.81,291.94 C150.15,291.23 148.03,290.64 146.79,290.83 C145.40,291.09 135.62,300.48 131.97,305.45 C131.97,305.45 131.37,298.18 131.37,298.18 C131.23,301.54 130.05,307.01 129.94,308.02 C129.41,313.11 129.91,329.97 131.57,335.44 C132.26,337.61 133.31,339.80 134.22,340.84 C136.07,342.91 138.86,344.64 140.31,345.48 C140.31,345.48 133.00,338.96 133.00,338.96 C133.15,341.44 133.51,343.32 134.21,344.40 C134.88,345.43 136.10,346.27 137.49,346.89 C137.49,346.89 132.32,344.67 132.32,344.67 C132.32,344.67 131.76,347.65 131.76,347.65 C131.76,347.65 129.54,345.84 129.54,345.84 C132.75,345.92 142.43,346.10 142.96,346.03 C144.89,345.76 147.43,344.82 148.29,344.02 C150.11,342.23 152.24,338.18 154.02,334.08 C157.45,325.84 166.48,293.20 166.75,291.81 C163.89,298.77 159.88,311.47 158.25,318.87 C156.66,326.17 154.12,341.36 154.35,346.52 C154.51,349.53 155.53,350.90 156.29,351.36 C157.76,351.41 160.38,348.00 161.74,345.16 C164.12,340.11 166.95,331.36 169.99,320.58 C175.72,299.00 177.67,289.76 177.84,285.62 C175.75,289.46 172.73,301.81 171.47,309.04 C170.37,315.36 168.88,332.75 169.57,337.53 C170.28,337.49 170.80,336.74 171.45,334.37 C172.72,329.75 176.56,311.55 177.42,305.50 C178.00,301.37 178.10,294.62 177.83,292.42 C177.53,290.25 176.70,287.41 175.99,286.42 C174.97,285.05 170.06,281.96 167.61,280.81 C161.73,278.01 155.06,271.76 154.15,270.90 C172.50,277.99 190.59,285.96 202.03,288.51 C203.81,288.89 204.82,288.17 205.77,286.11 C205.91,285.80 206.00,285.62 206.05,285.55 C206.62,290.69 206.03,307.12 206.04,310.23 C206.08,316.24 207.12,326.96 208.24,332.44 C209.40,316.37 207.85,304.37 207.41,300.62 C208.93,307.56 209.18,315.38 209.33,328.48 C209.45,334.02 209.60,337.43 209.87,341.78 C209.87,341.78 210.36,308.74 210.36,308.74 C209.90,315.68 208.04,327.01 205.60,333.11 C204.22,336.50 200.82,342.65 199.08,344.28 C197.14,346.05 192.85,347.68 190.97,347.13 C188.38,346.29 184.67,340.04 183.99,338.86 C183.99,338.86 182.41,338.51 182.41,338.51 C179.60,340.45 176.14,343.83 174.20,345.28 C172.13,346.81 167.10,349.52 165.03,350.30 C157.98,352.87 151.03,352.29 146.70,351.79 C146.50,352.63 148.60,356.74 150.48,358.13 C152.31,359.41 157.24,360.67 160.28,360.82 C163.12,360.93 167.81,360.44 169.02,359.99 C169.02,359.44 164.50,356.73 161.49,355.59 C158.21,354.39 154.54,354.08 153.67,354.28 C155.09,356.09 160.52,357.99 163.27,358.17 C165.94,358.30 170.34,357.64 172.63,356.75 C174.73,355.90 178.93,353.33 180.79,351.82 C182.69,350.25 185.77,346.72 187.01,344.62 C188.20,342.56 190.08,337.45 190.55,335.45 C191.00,333.48 191.76,325.70 190.77,322.71 C190.52,321.96 189.98,321.58 189.27,321.22 C188.15,321.51 185.76,325.04 184.70,327.58 C184.25,328.68 181.48,336.74 180.97,338.99 C180.55,340.90 179.71,350.64 180.28,353.50 C180.60,354.93 181.83,356.98 182.73,357.59 C184.65,358.78 190.02,357.79 192.70,356.54 C195.02,355.42 198.88,352.79 201.47,350.65 C204.19,348.36 213.81,336.53 215.42,332.65 C213.99,332.68 210.13,336.58 207.90,339.62 C204.66,344.09 201.74,348.61 200.12,351.70 C198.90,354.08 197.59,358.56 198.48,359.47 C199.77,360.63 206.05,360.39 209.36,359.46 C211.24,358.92 212.80,358.14 215.39,356.53 C214.85,355.56 199.06,356.63 192.03,358.43 C184.83,360.31 180.78,362.23 179.44,362.96 C181.22,364.27 182.75,364.99 185.19,365.50 C188.91,366.28 193.38,366.60 194.56,366.57 C199.26,366.40 210.23,362.75 216.84,359.14 C221.84,356.38 228.69,349.67 233.92,343.37 C238.76,337.36 248.37,324.93 248.28,324.24 C248.28,324.24 238.55,327.57 238.55,327.57 C238.55,327.57 251.02,312.43 251.02,312.43 C251.02,312.43 239.84,321.12 239.84,321.12 C242.20,319.28 246.08,315.67 249.21,312.31 C254.19,306.89 257.84,298.00 260.57,294.83 C265.33,294.89 279.82,292.27 287.51,290.60 C295.23,288.79 304.18,285.43 314.36,281.15" fill="none" stroke="rgb(174, 93, 0)" stroke-width="31.05" stroke-opacity="1.00" stroke-linejoin="round"/>
<path d="M323.37,277.73 C323.37,277.73 323.44,277.66 323.44,277.66" fill="none" stroke="rgb(174, 93, 0)" stroke-width="18.69" stroke-opacity="1.00" stroke-linejoin="round"/>
<path d="M322.86,283.17 C317.78,288.70 310.47,298.20 307.90,303.27 C306.79,305.49 304.81,311.52 304.92,312.42 C305.11,313.63 306.37,314.70 307.96,315.24 C310.99,316.13 314.64,315.64 316.78,314.33 C318.82,313.01 321.53,309.00 323.15,305.79 C324.65,302.67 327.68,291.19 328.49,285.51 C328.27,286.07 323.59,301.68 321.48,308.74 C319.29,316.34 318.05,324.91 318.73,329.17 C319.12,331.46 320.83,336.40 322.79,338.94 C321.58,336.92 314.27,323.28 310.76,316.74 C308.61,312.94 305.75,308.58 303.56,307.12 C300.91,305.40 295.43,304.04 293.40,303.98 C291.01,303.93 286.16,304.95 283.57,306.00 C278.69,308.02 267.79,315.80 262.98,320.33 C259.90,323.26 259.18,324.72 258.94,325.79 C259.38,326.62 260.74,327.14 262.94,327.17 C267.07,327.21 281.33,323.07 288.31,319.79 C291.42,318.32 297.36,315.02 299.13,313.84 C303.22,311.06 304.14,309.44 304.34,308.41 C303.53,306.92 298.23,306.34 294.56,306.70 C288.77,307.33 276.71,311.18 271.45,313.73 C269.37,314.75 263.95,317.83 261.16,319.82 C258.74,321.55 253.38,326.60 252.10,329.13 C251.38,330.62 252.09,332.78 253.36,333.96 C254.56,334.98 260.34,336.66 263.69,336.78 C269.84,336.98 279.25,335.06 290.10,332.10 C299.93,329.33 310.32,325.25 310.74,324.35 C309.80,323.36 303.41,322.94 298.83,323.20 C293.46,323.55 280.73,325.93 274.41,327.76 C260.85,331.74 250.39,338.68 248.53,340.40 C247.60,341.25 247.05,342.33 246.39,344.26 C247.35,345.98 248.14,346.89 249.33,347.41 C251.73,348.40 257.59,349.33 260.62,349.29 C266.73,349.18 274.64,347.97 286.29,345.71 C294.25,344.09 311.95,340.11 316.70,338.76 C314.07,338.05 308.35,338.35 305.69,338.55 C299.65,339.07 287.29,340.78 278.56,342.36 C271.30,343.79 258.13,347.44 253.82,349.20 C250.93,350.41 249.77,351.34 248.58,352.55 C248.58,352.55 248.95,354.06 248.95,354.06 C252.21,355.94 256.93,356.87 259.52,357.07 C268.72,357.75 297.84,354.79 306.39,353.86 C301.63,353.84 250.36,356.67 247.96,357.15 C247.63,357.22 247.04,357.38 246.20,357.62 C248.59,359.44 261.43,363.10 267.66,364.13 C271.30,364.71 284.78,366.01 294.50,365.79 C298.19,365.66 301.33,365.10 302.26,364.85 C302.07,364.23 301.30,363.81 299.21,363.54 C294.58,362.97 256.52,360.55 250.88,359.39 C261.43,362.18 269.33,363.87 277.54,364.83 C284.48,365.51 301.19,366.65 304.71,366.74 C310.07,366.88 325.84,366.10 331.36,365.41 C337.24,364.65 353.07,361.27 355.22,360.49 C344.21,361.23 334.47,361.49 328.74,360.92 C325.74,360.61 319.61,359.31 317.94,358.69 C314.76,357.48 311.65,355.10 311.11,353.32 C310.61,351.44 312.48,347.10 314.93,344.19 C317.45,341.24 326.06,332.42 327.26,330.18 C327.82,329.08 328.19,326.55 328.10,324.43 C328.07,323.68 327.31,317.35 327.51,316.06 C328.28,320.09 329.28,342.45 329.65,344.94 C330.02,347.29 331.63,349.62 332.05,349.62 C332.97,349.80 334.98,343.81 335.54,338.52 C335.92,334.64 335.73,328.44 335.28,326.91 C334.73,325.10 333.75,322.97 332.74,321.24 C333.75,332.71 332.96,350.93 333.63,351.47 C334.47,352.02 336.94,351.22 339.26,349.44 C340.01,348.86 347.11,342.63 349.21,341.21 C352.01,339.35 358.11,336.72 360.12,335.98 C357.24,335.13 347.48,329.20 338.63,324.33 C336.97,323.35 333.52,321.31 332.88,320.73 C330.40,318.42 328.25,313.07 328.21,313.09 C329.46,317.94 330.65,321.73 331.90,324.26 C333.43,327.21 336.73,331.25 338.71,332.76 C341.10,334.49 347.17,336.02 350.66,336.27 C364.62,337.22 381.11,334.19 383.79,333.34 C377.25,334.77 363.97,336.50 356.66,337.40 C353.24,337.75 350.89,337.58 350.13,337.24 C351.99,334.96 361.56,332.88 373.67,331.12 C387.07,329.25 388.05,329.14 389.40,329.02 C389.48,328.98 382.19,329.12 380.00,329.35 C373.57,330.08 363.37,333.84 355.75,337.79 C352.25,339.62 345.86,343.83 343.09,345.96 C340.64,347.87 339.90,349.00 339.26,350.25 C341.65,350.97 347.76,350.23 352.37,349.55 C370.52,346.72 386.39,346.11 386.23,346.48 C385.28,347.34 369.61,352.87 362.38,355.43 C343.38,362.54 338.56,365.85 338.17,366.31 C338.72,367.02 355.51,363.88 363.17,362.40 C368.74,361.32 386.45,358.72 389.42,358.47 C389.42,358.47 344.80,367.09 344.80,367.09 C346.41,367.20 362.15,366.75 371.29,365.96 C382.38,364.81 391.08,363.60 393.83,362.87 C393.83,362.87 394.39,361.40 394.39,361.40" fill="none" stroke="rgb(174, 93, 0)" stroke-width="18.69" stroke-opacity="1.00" stroke-linejoin="round"/>
<path d="M401.80,242.01 C404.90,242.73 407.60,243.56 409.78,244.53 C410.61,244.90 411.44,245.27 412.28,245.65" fill="none" stroke="rgb(174, 93, 0)" stroke-width="18.69" stroke-opacity="1.00" stroke-linejoin="round"/>
<path d="M412.91,242.68 C412.77,244.32 413.03,247.80 413.66,252.50 C414.51,259.12 415.50,266.85 415.63,267.95 C415.69,268.43 415.74,268.91 415.80,269.39" fill="none" stroke="rgb(174, 93, 0)" stroke-width="9.41" stroke-opacity="1.00" stroke-linejoin="round"/>
<path d="M415.23,236.74 C415.58,240.41 415.86,244.35 415.75,246.49 C415.69,247.51 415.37,250.77 415.23,251.62 C415.15,252.06 414.97,252.94 414.68,254.27" fill="none" stroke="rgb(174, 93, 0)" stroke-width="9.41" stroke-opacity="1.00" stroke-linejoin="round"/>
<path d="M416.48,257.84 C416.85,265.25 416.30,276.51 414.94,284.32 C413.71,291.19 408.42,308.87 407.36,311.99 C405.05,318.71 398.83,331.01 395.72,335.36 C392.45,339.88 385.77,345.58 384.20,346.64 C383.21,347.30 382.04,347.99 381.98,347.97" fill="none" stroke="rgb(174, 93, 0)" stroke-width="9.41" stroke-opacity="1.00" stroke-linejoin="round"/>
<path d="M407.59,304.63 C407.63,305.82 405.98,310.86 404.04,313.05 C401.89,315.39 398.78,317.79 394.92,320.14 C389.48,323.40 385.72,325.52 384.08,326.29 C385.99,325.76 390.35,323.57 395.80,320.40 C401.20,317.12 405.69,313.87 407.13,312.15 C407.13,312.15 396.99,322.56 396.99,322.56 C401.55,318.68 409.52,309.82 411.74,305.03 C412.95,302.32 413.81,298.35 414.02,296.58 C413.83,300.79 412.53,306.28 411.34,310.22 C408.00,320.80 403.93,331.63 401.28,337.54 C400.13,340.08 397.37,345.25 395.69,346.95 C394.00,344.76 392.91,339.60 392.30,336.72 C391.79,334.29 391.43,332.60 391.48,332.26 C391.65,331.34 396.53,326.94 397.87,325.43 C399.61,323.40 401.00,320.54 401.61,318.79 C401.74,318.42 401.93,317.71 402.20,316.67 C402.25,316.47 402.29,316.33 402.32,316.24" fill="none" stroke="rgb(174, 93, 0)" stroke-width="9.41" stroke-opacity="1.00" stroke-linejoin="round"/>
<path d="M410.98,306.68 C409.28,310.71 407.72,313.86 406.14,315.86 C398.80,324.88 383.25,334.89 381.46,336.01 C387.03,333.16 398.61,325.19 402.28,321.02 C404.70,318.21 406.92,314.10 408.14,310.61 C409.76,305.82 411.25,300.94 412.23,297.69 C411.87,301.90 410.18,311.98 407.84,322.84 C401.81,348.83 400.47,352.63 400.17,353.08 C400.02,353.31 399.66,353.73 399.08,354.34" fill="none" stroke="rgb(174, 93, 0)" stroke-width="18.22" stroke-opacity="1.00" stroke-linejoin="round"/>
<path d="M410.59,311.66 C410.72,317.93 409.53,329.68 407.83,335.70 C407.06,338.38 401.92,353.57 401.55,354.17 C400.66,355.55 399.33,356.14 396.32,356.66 C395.84,356.73 395.28,356.87 394.64,357.06 C395.47,357.03 398.99,354.50 400.41,352.56 C401.79,350.62 403.54,345.78 404.41,342.08 C405.03,339.40 406.42,330.59 406.74,329.03 C406.99,327.86 407.42,326.88 408.23,325.46 C408.23,325.46 409.12,325.95 409.12,325.95 C409.97,330.21 410.34,336.23 410.31,338.86 C410.26,341.94 409.66,346.39 408.49,350.51 C407.49,353.93 405.41,358.98 403.86,359.87 C403.43,360.11 402.71,360.23 401.71,360.21 C401.50,360.21 401.18,360.18 400.74,360.12" fill="none" stroke="rgb(174, 93, 0)" stroke-width="18.22" stroke-opacity="1.00" stroke-linejoin="round"/>
<path d="M237.07,357.65 C239.21,358.69 243.13,360.24 247.36,361.06 C248.65,361.30 258.86,362.76 259.89,362.96 C261.72,363.32 263.62,363.82 264.43,364.13" fill="none" stroke="rgb(174, 93, 0)" stroke-width="18.22" stroke-opacity="1.00" stroke-linejoin="round"/>
<path d="M264.51,361.83 C268.52,361.91 286.54,363.61 294.34,364.33 C309.00,365.37 335.76,364.66 349.20,363.01 C354.48,362.32 369.02,360.01 372.28,359.64 C369.83,361.20 368.29,361.96 366.67,362.33 C366.05,362.48 365.43,362.62 364.82,362.76" fill="none" stroke="rgb(174, 93, 0)" stroke-width="18.22" stroke-opacity="1.00" stroke-linejoin="round"/>
<path d="M324.50,368.41 C323.26,368.53 319.84,368.88 319.17,368.99 C318.74,369.06 318.04,369.21 317.07,369.45 C332.68,371.49 346.44,370.61 347.43,370.40 C348.67,370.12 349.91,369.84 351.14,369.56" fill="none" stroke="rgb(174, 93, 0)" stroke-width="18.22" stroke-opacity="1.00" stroke-linejoin="round"/>
<path d="M171.03,369.45 C171.03,369.45 167.97,369.89 167.97,369.89 C169.66,371.00 171.14,371.57 173.42,371.79 C181.10,372.52 187.81,371.15 189.29,370.81 C186.64,369.64 172.50,369.38 169.67,369.73 C173.43,370.11 180.39,369.49 184.26,368.77 C186.16,368.40 189.30,367.79 190.53,367.55" fill="none" stroke="rgb(174, 93, 0)" stroke-width="18.22" stroke-opacity="1.00" stroke-linejoin="round"/>
<path d="M328.56,273.99 C328.51,274.03 328.66,273.88 328.72,273.84 C331.67,271.36 335.69,268.55 336.57,267.56 C334.86,270.63 326.29,281.00 324.22,283.49 C322.75,285.29 321.33,287.08 320.76,287.85" fill="none" stroke="rgb(174, 93, 0)" stroke-width="12.73" stroke-opacity="1.00" stroke-linejoin="round"/>
<path d="M342.67,264.29 C341.02,266.43 337.14,270.98 333.65,274.92 C326.47,282.91 323.23,286.32 322.42,287.13" fill="none" stroke="rgb(174, 93, 0)" stroke-width="12.73" stroke-opacity="1.00" stroke-linejoin="round"/>
<path d="M119.34,238.93 C119.34,238.93 119.10,238.91 119.10,238.91 C119.21,238.94 133.51,245.32 139.40,247.96 C146.45,251.03 160.09,256.66 167.18,259.37 C180.13,263.94 209.96,271.75 223.87,275.20" fill="none" stroke="rgb(0, 0, 0)" stroke-width="6.00" stroke-opacity="1.00" stroke-linejoin="round"/>
<path d="M279.58,272.83 C286.83,272.09 301.39,270.47 307.31,269.26 C313.94,267.88 360.46,254.52 370.25,251.18 C383.39,246.58 397.91,238.56 404.75,235.07 C404.75,235.07 404.31,235.17 404.31,235.17" fill="none" stroke="rgb(0, 0, 0)" stroke-width="6.00" stroke-opacity="1.00" stroke-linejoin="round"/>
<path d="M355.26,258.53 C355.29,258.51 355.18,258.50 355.14,258.51 C354.01,258.89 352.02,259.76 351.18,260.40 C348.91,262.16 343.88,268.82 342.41,271.12 C340.46,274.19 336.91,281.77 335.92,284.46 C334.72,287.77 333.37,294.23 333.25,297.17 C333.16,299.95 333.95,305.20 334.62,306.93 C336.06,310.53 340.12,314.66 342.55,316.33 C344.92,317.93 350.22,320.43 352.80,321.11 C354.85,321.63 360.66,322.27 363.67,322.05 C366.42,321.83 374.84,320.54 378.23,319.60 C381.84,318.57 388.25,315.97 390.93,314.22 C395.54,311.17 403.55,301.75 406.47,296.43 C408.57,292.58 410.53,287.61 411.40,284.16 C411.99,281.76 412.37,276.88 412.58,270.72 C412.69,266.55 412.18,263.51 410.98,259.90 C410.45,258.39 409.89,256.95 409.10,255.11 C408.47,253.68 406.93,251.32 405.69,249.88 C405.39,249.54 405.08,249.27 404.74,249.06" fill="none" stroke="rgb(0, 0, 0)" stroke-width="6.00" stroke-opacity="1.00" stroke-linejoin="round"/>
<path d="M405.64,236.22 C410.67,234.49 414.67,233.38 416.68,233.26 C417.97,233.20 418.83,233.19 419.26,233.24 C419.54,233.28 419.75,233.39 419.89,233.59" fill="none" stroke="rgb(0, 0, 0)" stroke-width="6.00" stroke-opacity="1.00" stroke-linejoin="round"/>
<path d="M212.12,377.30 C205.62,378.05 192.00,379.50 185.98,379.68 C179.12,379.87 165.54,378.94 159.17,377.39 C155.49,376.47 150.67,374.75 147.02,373.06 C141.77,370.55 125.21,358.66 123.89,358.20 C123.89,358.20 123.32,358.53 123.32,358.53" fill="none" stroke="rgb(0, 0, 0)" stroke-width="6.00" stroke-opacity="1.00" stroke-linejoin="round"/>
<path d="M285.10,334.97 C287.36,333.86 291.56,332.94 297.10,332.15 C305.55,331.08 323.32,328.87 325.25,328.71 C325.67,329.01 324.32,336.20 324.06,338.59 C323.86,340.46 322.61,346.04 320.87,347.89 C319.69,349.11 316.95,350.24 315.36,350.40 C311.73,350.62 307.76,349.88 303.90,348.45 C294.06,344.69 285.82,340.95 285.01,339.70 C285.01,339.70 288.34,337.08 288.34,337.08" fill="none" stroke="rgb(0, 0, 0)" stroke-width="6.00" stroke-opacity="1.00" stroke-linejoin="round"/>
<path d="M286.77,345.61 C286.78,345.60 286.78,345.62 286.77,345.63 C286.38,348.04 287.95,361.21 288.63,363.53 C289.08,364.92 290.36,366.17 291.49,366.30 C293.22,366.43 315.74,363.03 317.65,362.20 C318.13,361.28 317.93,350.52 317.92,350.33 C317.91,350.19 317.88,350.06 317.84,349.93" fill="none" stroke="rgb(0, 0, 0)" stroke-width="6.00" stroke-opacity="1.00" stroke-linejoin="round"/>
<path d="M150.04,326.29 C150.04,326.28 149.83,331.34 149.69,334.52 C149.59,336.71 149.48,338.77 149.55,339.14 C149.87,340.45 153.44,340.71 159.66,340.60 C164.30,340.50 172.89,340.29 176.84,340.18 C181.24,340.08 182.87,339.56 183.33,339.02 C183.52,337.70 181.77,329.90 181.74,329.73 C181.47,328.15 180.88,327.24 179.81,326.86 C178.12,326.32 154.84,328.03 150.71,328.65 C149.82,328.79 145.51,329.60 145.22,329.66 C144.93,329.73 144.47,329.85 143.82,330.04" fill="none" stroke="rgb(0, 0, 0)" stroke-width="6.00" stroke-opacity="1.00" stroke-linejoin="round"/>
<path d="M149.50,340.40 C149.50,340.40 149.32,340.40 149.32,340.40 C148.52,343.07 148.29,344.63 148.55,346.65 C148.93,349.96 149.60,356.02 149.88,358.78 C151.09,359.41 157.31,359.13 160.94,358.98 C164.89,358.81 174.46,358.45 176.97,358.43 C182.05,358.39 182.53,358.25 183.79,357.56 C184.59,352.64 183.43,342.70 183.27,342.05 C183.19,341.76 183.01,341.32 182.74,340.74" fill="none" stroke="rgb(0, 0, 0)" stroke-width="6.00" stroke-opacity="1.00" stroke-linejoin="round"/>
<path d="M284.20,284.84 C284.20,284.84 284.14,284.96 284.14,284.96 C282.61,290.29 284.22,295.01 284.66,295.79 C286.88,296.26 307.12,293.95 309.60,293.32 C311.43,292.82 312.82,291.45 313.68,289.35 C314.60,286.95 314.46,282.00 313.11,281.09 C311.84,280.33 308.43,280.84 302.75,282.13 C299.25,282.90 292.71,284.32 289.52,284.88 C286.40,285.47 281.97,286.31 280.68,286.57" fill="none" stroke="rgb(0, 0, 0)" stroke-width="6.00" stroke-opacity="1.00" stroke-linejoin="round"/>
<path d="M278.26,296.85 C278.26,296.87 278.26,296.95 278.26,296.97 C278.56,300.55 279.48,311.20 279.54,311.57 C279.75,312.83 280.72,313.82 281.90,314.11 C285.75,314.90 308.68,313.23 309.52,313.05 C309.85,312.98 310.36,312.79 311.06,312.49 C311.38,310.79 310.68,296.36 310.61,296.05 C310.57,295.83 310.45,295.72 310.26,295.72" fill="none" stroke="rgb(0, 0, 0)" stroke-width="6.00" stroke-opacity="1.00" stroke-linejoin="round"/>
<path d="M146.92,275.25 C146.92,275.25 148.43,287.29 148.43,287.29 C151.12,288.70 186.36,289.76 193.91,290.47 C194.21,289.74 187.93,277.95 186.38,276.85 C185.19,276.04 163.47,276.44 158.95,277.55 C157.52,277.91 153.72,279.01 152.81,279.47 C152.28,279.75 151.16,280.43 149.46,281.51" fill="none" stroke="rgb(0, 0, 0)" stroke-width="6.00" stroke-opacity="1.00" stroke-linejoin="round"/>
<path d="M153.88,290.15 C153.76,290.13 153.73,290.07 153.64,290.07 C152.72,290.11 151.48,291.18 150.74,292.72 C150.19,293.91 151.84,308.94 152.61,310.39 C153.10,311.24 155.08,311.29 157.98,310.89 C171.48,308.78 189.46,308.39 189.93,308.36 C192.20,308.21 193.71,307.78 193.78,306.90 C193.80,306.54 193.48,297.85 193.46,296.56 C193.45,296.11 193.45,295.48 193.46,294.69" fill="none" stroke="rgb(0, 0, 0)" stroke-width="6.00" stroke-opacity="1.00" stroke-linejoin="round"/>
<path d="M220.89,273.79 C220.89,273.79 220.77,273.83 220.77,273.83 C220.21,275.43 220.36,279.02 221.08,282.26 C225.92,303.70 228.86,310.51 229.37,311.65 C231.10,309.78 238.98,295.25 241.94,291.09 C246.65,284.58 248.43,281.09 249.41,279.02 C257.66,278.77 267.53,277.48 273.73,275.86 C277.37,274.87 284.21,273.05 285.36,272.94 C285.62,272.91 286.08,272.90 286.77,272.91" fill="none" stroke="rgb(0, 0, 0)" stroke-width="6.00" stroke-opacity="1.00" stroke-linejoin="round"/>
<path d="M227.58,317.00 C227.58,317.01 227.62,317.04 227.62,317.05 C227.97,323.80 228.74,340.92 228.48,345.65 C228.05,352.78 227.24,366.89 227.82,368.44 C229.43,368.23 234.31,367.66 235.85,367.86 C237.05,368.03 245.23,369.87 248.48,370.62" fill="none" stroke="rgb(0, 0, 0)" stroke-width="6.00" stroke-opacity="1.00" stroke-linejoin="round"/>
<path d="M227.08,367.73 C224.23,368.75 222.77,369.32 220.85,370.23 C213.69,373.55 204.66,377.70 204.01,377.94 C203.79,378.02 203.57,378.07 203.35,378.10" fill="none" stroke="rgb(0, 0, 0)" stroke-width="6.00" stroke-opacity="1.00" stroke-linejoin="round"/>
<path d="M246.25,369.43 C247.42,369.93 253.80,371.60 255.85,372.09 C261.27,373.36 279.33,376.11 285.43,376.71 C289.83,377.13 307.18,377.86 313.74,377.88 C327.62,377.61 357.35,375.91 371.71,374.37 C385.84,372.58 409.03,368.08 411.81,367.40" fill="none" stroke="rgb(0, 0, 0)" stroke-width="6.00" stroke-opacity="1.00" stroke-linejoin="round"/>
<path d="M131.66,245.10 C131.80,250.85 131.80,256.22 131.47,259.41 C130.75,265.93 125.96,278.92 123.28,284.46 C121.49,288.13 118.55,292.51 117.30,293.52 C115.74,294.75 113.40,295.90 112.58,295.86 C112.41,295.85 112.23,295.76 112.05,295.59" fill="none" stroke="rgb(0, 0, 0)" stroke-width="6.00" stroke-opacity="1.00" stroke-linejoin="round"/>
</g>
</svg>
