<?xml version="1.0" encoding="UTF-8" standalone="no"?>
<!DOCTYPE svg PUBLIC "-//W3C//DTD SVG 1.1//EN" "http://www.w3.org/Graphics/SVG/1.1/DTD/svg11.dtd">
<svg width="102.86" height="102.86" viewBox="0.00 0.00 500.00 500.00" xmlns="http://www.w3.org/2000/svg" xmlns:xlink="http://www.w3.org/1999/xlink">
<g stroke-linecap="round" id="레이어_9">
<path d="M132.32,217.80 C132.49,217.93 145.20,220.80 151.46,222.26 C157.49,223.56 169.56,224.55 176.19,225.03 C194.14,226.14 220.91,226.33 236.13,226.25 C245.84,226.26 325.14,219.14 354.21,216.71 C361.90,216.15 376.77,215.43 383.84,215.17 C385.47,215.12 402.67,216.32 403.05,217.13 C405.15,222.14 405.75,235.87 406.09,242.75 C406.27,248.59 402.62,278.35 399.67,297.60 C397.63,309.89 390.85,337.70 387.51,351.93 C387.14,353.55 386.45,356.52 386.14,357.88 C385.57,360.25 384.73,363.76 384.46,364.89" fill="none" stroke="rgb(204, 170, 254)" stroke-width="26.21" stroke-opacity="1.00" stroke-linejoin="round"/>
<path d="M395.80,247.81 C396.27,255.35 397.19,268.66 397.44,275.21 C397.76,285.35 397.77,289.26 396.67,301.53 C395.77,310.58 394.39,324.28 393.92,328.93 C395.07,323.11 397.86,306.52 398.33,300.88 C398.74,295.83 399.23,275.32 399.52,272.91 C399.91,269.73 400.01,267.87 399.99,265.21 C400.76,269.39 401.78,281.27 401.35,287.40 C400.73,295.55 399.43,311.46 398.76,319.23 C398.04,326.15 396.28,335.26 393.82,346.00 C391.68,354.89 388.75,364.04 386.52,370.18 C386.35,369.25 392.00,354.15 393.51,349.69 C395.65,343.07 397.49,329.11 398.47,321.42 C398.73,319.17 398.97,317.56 399.44,314.67 C400.07,315.97 399.82,329.46 398.87,335.91 C397.99,341.81 395.26,353.92 393.26,360.05 C390.42,368.44 380.00,390.76 377.93,394.21 C375.17,398.62 372.49,401.69 369.50,403.47 C366.56,405.17 360.93,407.65 359.22,408.55 C362.95,404.98 369.26,395.99 371.91,390.64 C375.58,383.19 384.18,370.04 385.34,368.10 C386.74,365.76 389.88,359.06 391.15,357.09 C391.84,356.04 392.86,354.76 394.31,353.04 C394.31,353.04 378.58,388.53 378.58,388.53 C378.60,388.49 390.04,370.77 392.34,364.88 C394.68,358.74 395.14,357.68 396.21,355.48 C396.21,355.48 386.60,378.71 386.60,378.71 C386.60,378.71 386.49,376.37 386.49,376.37 C370.41,389.16 357.10,401.29 353.26,403.78 C351.31,405.03 345.21,407.75 340.08,409.75 C336.15,411.25 333.43,411.97 329.88,412.48 C316.39,414.22 297.45,416.67 296.16,416.77 C293.75,416.97 290.82,417.06 289.32,417.03" fill="none" stroke="rgb(204, 170, 254)" stroke-width="38.21" stroke-opacity="1.00" stroke-linejoin="round"/>
<path d="M139.22,227.72 C139.17,227.99 139.16,232.72 138.56,235.52 C137.89,238.62 137.38,241.81 137.26,242.57 C137.26,242.57 137.57,230.23 137.57,230.23 C137.57,231.40 134.70,250.47 134.44,257.42 C134.19,271.88 133.78,306.44 134.21,318.51 C134.65,325.70 135.71,345.61 135.88,347.57 C136.52,354.98 139.19,366.96 141.27,370.56 C141.95,371.72 147.19,378.96 147.58,379.42 C148.08,380.00 160.25,391.90 165.19,395.56 C167.21,397.05 169.05,398.20 170.14,398.71 C170.06,398.79 164.73,396.77 162.87,395.92 C159.99,394.58 155.74,390.91 152.18,387.20 C148.53,383.29 147.86,382.65 146.70,381.66 C148.97,384.39 167.51,398.91 169.66,400.38 C171.43,401.58 177.17,404.10 180.67,405.27 C185.49,406.86 194.53,409.21 195.15,409.79 C191.67,409.30 183.19,408.08 180.04,407.38 C175.18,406.29 168.02,402.18 167.19,401.69 C170.27,403.88 180.03,407.39 187.84,408.97 C199.17,411.24 224.22,413.08 228.86,413.80 C225.96,414.17 218.21,413.81 215.04,413.87 C210.28,414.00 203.93,414.51 201.67,414.47 C200.11,414.44 192.05,413.63 192.05,413.63 C195.34,415.18 208.91,416.66 215.54,417.06 C216.39,417.12 234.29,418.82 241.53,418.93 C248.27,419.00 268.42,415.95 279.06,415.17 C283.04,414.89 288.30,413.44 289.75,413.00 C287.57,414.44 284.06,415.14 278.89,415.12 C278.48,415.11 278.05,415.11 277.62,415.12 C280.72,417.86 287.64,416.92 288.82,416.65 C281.42,416.66 266.90,420.12 262.27,420.13 C261.75,420.13 260.65,420.09 258.99,420.02 C266.01,419.28 279.24,417.77 284.41,416.30 C289.38,414.87 295.83,411.76 296.45,411.42 C296.80,411.22 297.60,410.75 298.83,410.01" fill="none" stroke="rgb(204, 170, 254)" stroke-width="38.21" stroke-opacity="1.00" stroke-linejoin="round"/>
<path d="M372.35,355.03 C369.64,358.61 361.13,366.72 354.00,372.09 C342.23,380.66 314.67,401.34 309.23,406.78 C310.93,406.97 316.01,404.29 318.98,402.53 C332.29,394.47 351.28,380.39 364.06,370.20 C369.70,365.74 381.46,356.40 387.57,351.51 C390.84,348.83 394.19,345.27 395.30,343.44 C396.10,342.06 396.62,340.48 396.78,338.98 C396.91,337.21 395.48,333.09 392.97,327.64 C390.43,322.27 388.23,317.28 387.36,315.86 C385.52,316.82 382.75,321.37 381.21,323.92 C371.40,340.07 356.92,361.85 346.29,374.63 C341.68,380.15 339.64,381.22 339.09,381.11 C339.14,378.70 346.30,364.01 349.23,358.02 C356.15,343.49 367.16,320.05 368.42,316.42 C369.57,313.04 369.47,308.51 368.31,307.16 C368.18,307.01 367.87,306.72 367.39,306.27" fill="none" stroke="rgb(204, 170, 254)" stroke-width="38.21" stroke-opacity="1.00" stroke-linejoin="round"/>
<path d="M382.72,242.32 C382.70,242.00 382.68,241.75 382.64,241.55 C382.44,240.63 381.84,239.42 381.21,238.87 C379.04,237.11 366.47,237.96 355.53,239.08 C343.41,240.12 309.49,241.27 294.14,241.68 C279.00,241.97 248.54,242.44 233.70,242.32 C218.21,241.81 187.91,241.05 172.99,240.57 C165.75,240.36 159.55,241.27 158.38,242.04 C156.84,243.12 155.22,247.74 154.88,250.22 C154.14,256.04 154.45,271.58 154.65,279.60 C154.91,287.89 155.64,307.00 155.95,310.91 C156.53,317.10 158.47,332.71 159.67,338.75 C161.47,347.44 163.95,357.11 166.38,363.30 C167.91,367.16 170.70,372.53 172.73,375.35 C174.53,377.81 177.94,380.73 179.29,381.29 C181.12,382.00 183.87,381.75 185.67,380.70 C187.07,379.85 190.23,375.48 191.89,371.97 C193.83,367.79 197.56,353.37 198.57,348.18 C200.23,338.91 204.26,308.13 205.50,294.70 C206.01,286.97 206.38,273.58 205.92,268.60 C205.29,263.13 204.27,258.52 202.48,257.11 C200.71,257.45 199.61,257.89 198.64,258.83 C194.45,262.95 188.27,275.49 186.24,281.56 C184.27,287.53 181.13,301.67 180.14,309.15 C179.57,313.52 178.54,328.06 178.46,332.22 C178.41,339.82 179.26,353.16 180.38,359.43 C180.85,361.99 182.41,368.41 183.19,370.48 C184.73,374.48 187.86,380.00 190.25,381.94 C191.44,382.86 194.01,383.97 195.41,384.17 C198.37,384.51 204.14,382.43 206.48,380.95 C211.71,377.49 221.66,366.67 226.10,360.39 C231.91,352.12 247.12,324.41 253.69,311.45 C256.72,305.25 262.60,292.97 265.46,286.90 C267.95,281.42 273.12,267.45 273.69,264.02 C273.96,262.36 273.63,261.29 272.53,259.82 C270.04,259.72 268.50,259.97 266.62,260.91 C263.75,262.36 259.72,265.70 257.72,267.82 C254.32,271.48 247.51,282.14 244.07,289.28 C239.83,298.13 231.76,322.40 229.41,334.30 C228.30,340.18 226.58,353.11 226.49,359.98 C226.46,363.49 226.90,369.69 227.36,372.39 C227.74,374.59 229.37,380.20 230.92,382.85 C231.79,384.30 234.08,386.60 235.35,387.36 C236.64,388.07 239.47,388.71 241.02,388.65 C244.00,388.46 248.65,386.25 251.84,384.28 C254.50,382.57 265.43,372.27 270.36,366.44 C277.74,357.67 297.28,329.55 305.73,316.42 C309.60,310.15 316.99,297.99 320.91,291.17 C325.47,282.97 329.84,273.80 332.33,266.91 C332.93,265.15 333.15,263.37 333.16,260.72 C331.67,259.84 330.53,259.70 328.97,260.44 C324.19,262.73 314.10,271.73 309.47,277.30 C305.68,281.88 299.08,291.58 296.11,296.71 C293.14,301.95 287.60,313.08 285.19,318.89 C282.78,324.73 278.98,336.12 277.48,341.68 C275.59,348.92 273.55,362.90 273.74,369.23 C273.91,373.76 275.88,380.16 277.66,381.28 C278.04,381.49 281.67,382.17 282.15,382.13 C284.24,381.87 290.30,377.96 293.73,374.89 C297.27,371.67 305.24,362.56 312.16,353.73 C320.79,341.98 337.87,317.01 347.27,302.89 C351.44,296.50 358.11,286.19 361.55,280.22 C366.73,271.02 366.81,269.23 366.60,267.71 C364.67,267.99 363.29,268.48 361.64,269.62 C356.63,273.12 347.13,283.21 343.92,287.58 C338.51,294.98 331.85,306.00 328.42,312.95 C321.91,326.23 316.41,344.94 315.53,351.47 C315.27,353.39 315.38,355.02 315.83,357.64 C317.26,358.29 318.21,358.38 319.25,357.73 C323.47,355.02 332.77,343.67 335.60,339.55 C339.25,334.21 359.62,301.07 367.68,287.49 C370.59,282.42 374.71,273.51 374.67,271.59 C372.91,271.36 369.30,273.23 366.92,274.91 C361.87,278.50 353.91,286.99 348.82,293.80 C347.06,296.20 344.48,299.75 343.67,300.90" fill="none" stroke="rgb(204, 170, 254)" stroke-width="53.67" stroke-opacity="1.00" stroke-linejoin="round"/>
<path d="M338.36,426.84 C351.47,426.02 361.70,422.01 362.74,421.40 C362.74,421.40 362.05,421.26 362.05,421.26" fill="none" stroke="rgb(204, 170, 254)" stroke-width="6.77" stroke-opacity="1.00" stroke-linejoin="round"/>
<path d="M343.78,427.46 C349.00,426.43 363.04,421.83 365.46,420.96 C367.10,420.37 368.98,419.65 369.75,419.32" fill="none" stroke="rgb(204, 170, 254)" stroke-width="6.77" stroke-opacity="1.00" stroke-linejoin="round"/>
<path d="M120.94,211.73 C119.79,215.21 115.92,254.51 115.08,267.87 C114.55,280.21 114.70,312.56 114.84,326.07 C114.85,334.75 115.33,345.46 116.19,351.62 C117.33,359.62 119.74,369.59 122.14,374.78 C124.23,379.26 131.99,392.37 136.28,398.18 C139.88,403.04 151.58,414.36 156.86,417.97 C163.26,422.29 174.11,426.82 180.42,429.08 C186.83,431.34 194.52,432.87 204.55,434.44 C214.00,435.79 223.20,437.63 228.23,438.20 C230.76,438.48 248.74,438.50 256.64,438.44 C267.38,438.11 307.43,435.69 314.68,434.76 C329.20,432.94 337.64,431.48 342.69,430.99 C346.87,430.57 360.47,426.96 365.32,424.84" fill="none" stroke="rgb(0, 0, 0)" stroke-width="5.00" stroke-opacity="1.00" stroke-linejoin="round"/>
<path d="M415.41,213.85 C415.41,213.86 415.41,213.89 415.41,213.90 C416.22,218.03 416.85,222.67 417.29,228.12 C418.93,248.19 419.18,262.15 420.27,285.59 C420.38,293.82 420.14,307.77 419.98,314.10 C419.52,321.67 418.29,336.26 417.61,343.90 C417.24,347.93 414.93,360.46 412.46,368.60 C409.16,379.00 406.49,385.60 401.82,393.80 C399.78,397.33 398.19,399.39 395.12,402.57 C388.68,409.09 378.24,417.56 373.76,419.65 C373.28,419.87 372.14,420.34 370.36,421.05" fill="none" stroke="rgb(0, 0, 0)" stroke-width="5.00" stroke-opacity="1.00" stroke-linejoin="round"/>
<path d="M366.80,425.35 C366.80,425.35 366.57,425.34 366.57,425.34 C368.04,424.09 371.68,421.80 372.94,421.01 C373.82,420.45 374.71,419.90 375.59,419.35" fill="none" stroke="rgb(0, 0, 0)" stroke-width="5.00" stroke-opacity="1.00" stroke-linejoin="round"/>
<path d="M123.63,243.33 C124.64,250.09 125.23,260.92 125.52,267.45 C125.86,277.96 123.95,300.74 123.90,324.62 C124.08,336.45 124.98,344.79 127.27,350.84 C127.64,351.64 128.29,353.07 128.66,353.24 C130.24,353.90 136.61,354.86 139.88,355.81 C141.65,356.33 157.90,361.00 160.86,361.35 C171.51,362.53 180.35,362.58 187.11,362.26 C191.97,362.03 209.86,359.72 213.39,358.57 C216.58,357.50 219.36,355.23 220.44,352.66 C221.80,349.27 222.14,333.44 222.30,325.08 C222.29,313.16 221.53,300.76 220.56,295.24 C219.97,292.10 217.92,288.67 214.92,285.55 C214.07,284.68 200.45,273.15 199.20,272.70 C198.94,272.62 190.85,272.25 186.00,271.61 C178.39,270.59 167.69,267.78 156.16,264.44 C150.86,262.85 146.04,261.17 143.76,259.77 C140.26,257.58 131.81,251.96 131.68,251.81 C141.55,255.19 148.43,257.75 156.31,261.81 C161.90,264.53 170.00,267.21 183.74,271.37 C188.35,272.74 190.66,273.22 195.62,273.44 C199.31,273.59 202.60,273.22 203.55,273.14 C203.55,273.14 201.37,270.31 201.37,270.31 C206.23,276.30 207.36,279.14 207.59,280.20 C207.65,280.46 207.72,280.92 207.80,281.56" fill="none" stroke="rgb(0, 39, 255)" stroke-width="16.21" stroke-opacity="1.00" stroke-linejoin="round"/>
<path d="M138.93,267.43 C139.36,277.49 137.89,310.26 138.88,324.11 C139.43,331.35 141.21,339.65 142.41,341.19 C143.11,342.01 145.75,339.96 147.15,337.84 C149.85,333.68 154.65,321.67 156.25,314.96 C157.62,309.18 159.47,293.47 158.90,286.10 C158.48,281.00 157.26,275.70 156.68,275.87 C155.28,277.18 153.11,294.07 152.98,301.72 C152.92,305.77 153.74,322.24 155.24,329.03 C155.91,331.99 158.66,338.92 160.12,340.38 C160.89,341.09 162.90,341.95 163.93,342.00 C166.22,342.04 170.06,338.39 171.73,335.63 C174.40,331.06 178.78,317.80 180.09,311.44 C182.15,301.08 183.89,288.85 183.71,282.34 C183.67,280.86 183.34,279.82 182.72,278.63 C181.36,279.12 177.31,291.03 175.59,298.42 C172.83,310.82 171.46,331.64 171.82,337.04 C172.08,340.63 173.43,347.10 174.58,348.48 C175.20,349.14 176.92,349.45 177.84,348.87 C180.07,347.39 184.03,341.20 185.13,339.01 C188.35,332.45 190.77,326.04 193.85,316.03 C198.86,298.59 198.59,290.14 198.40,288.40 C197.14,294.40 196.08,306.51 196.33,313.29 C196.64,321.12 198.93,333.54 200.65,336.57 C201.66,335.61 202.14,334.86 202.43,333.40 C203.86,325.52 207.37,305.93 207.78,304.11 C207.78,304.11 208.92,339.28 208.92,339.28 C212.40,335.77 223.21,330.28 232.53,324.53 C238.69,320.79 251.84,313.33 253.94,311.89 C251.56,312.10 242.81,316.02 242.04,316.33 C240.43,316.96 239.00,317.27 238.30,317.25 C237.98,316.14 240.60,311.16 242.31,308.92 C243.51,307.38 250.12,299.91 251.05,298.96 C251.46,298.55 278.58,274.92 278.76,274.35 C271.33,279.08 251.81,297.49 243.21,306.35 C244.59,303.19 250.72,296.14 258.72,288.74 C261.17,286.51 265.01,283.04 265.51,283.12 C265.68,285.67 260.15,294.89 251.99,307.40 C250.97,308.97 248.60,312.60 248.44,312.86 C248.30,313.10 248.17,313.37 248.06,313.67" fill="none" stroke="rgb(0, 39, 255)" stroke-width="35.12" stroke-opacity="1.00" stroke-linejoin="round"/>
<path d="M256.73,277.46 C258.67,275.65 263.06,271.62 265.72,269.89 C270.47,266.84 276.52,265.39 284.73,264.42 C300.70,262.72 343.37,258.13 347.59,257.34 C350.25,256.84 365.73,253.23 372.56,251.59 C381.59,249.36 394.30,244.80 399.37,242.65 C400.18,242.31 400.86,242.00 401.40,241.74 C401.60,241.64 401.77,241.53 401.89,241.43" fill="none" stroke="rgb(0, 39, 255)" stroke-width="19.60" stroke-opacity="1.00" stroke-linejoin="round"/>
<path d="M401.53,243.11 C406.14,240.40 409.62,238.10 411.47,236.72 C411.76,236.51 412.20,236.13 412.79,235.60 C412.88,235.68 411.83,244.27 411.79,247.84 C411.78,249.36 412.77,265.45 412.39,274.00 C411.87,282.82 410.76,289.79 408.19,301.71 C407.94,302.88 407.70,304.06 407.46,305.23" fill="none" stroke="rgb(0, 39, 255)" stroke-width="12.64" stroke-opacity="1.00" stroke-linejoin="round"/>
<path d="M275.75,307.53 C274.15,308.96 266.09,315.58 251.26,329.59 C244.48,336.12 240.75,340.65 238.36,343.35 C236.60,345.37 233.82,347.32 233.13,348.26 C232.62,348.99 233.32,350.42 234.37,351.70 C236.41,353.95 241.15,356.90 244.98,357.61 C245.88,357.77 250.60,358.32 252.30,358.52 C245.93,357.02 236.62,357.04 232.35,357.19 C236.47,358.11 250.37,358.23 261.86,357.71 C285.13,356.16 307.10,353.57 322.04,351.71 C326.73,351.10 346.24,347.27 350.71,346.11 C355.24,344.89 356.67,344.34 357.53,343.81 C357.71,343.70 357.81,343.58 357.84,343.45" fill="none" stroke="rgb(0, 39, 255)" stroke-width="12.64" stroke-opacity="1.00" stroke-linejoin="round"/>
<path d="M245.89,357.03 C245.89,357.03 245.61,357.09 245.61,357.09 C252.87,358.01 271.65,360.32 275.03,360.45 C278.71,360.58 293.75,360.23 300.20,359.33 C316.56,356.71 344.09,352.06 358.45,348.48 C365.85,346.45 378.78,342.87 379.04,342.79 C379.41,342.68 380.09,342.46 381.08,342.13" fill="none" stroke="rgb(0, 39, 255)" stroke-width="12.64" stroke-opacity="1.00" stroke-linejoin="round"/>
<path d="M309.25,358.60 C313.61,358.43 325.61,356.92 335.82,355.05 C344.06,353.39 360.00,350.03 367.70,348.33 C384.92,344.24 400.58,337.95 401.76,337.12 C401.72,336.96 401.56,336.89 401.29,336.91 C401.03,336.93 400.27,337.07 399.03,337.32" fill="none" stroke="rgb(0, 39, 255)" stroke-width="12.64" stroke-opacity="1.00" stroke-linejoin="round"/>
<path d="M360.55,347.80 C361.72,347.65 362.57,347.46 364.67,346.82 C372.49,344.49 390.92,338.88 393.89,337.15 C394.69,336.67 407.38,327.85 407.53,327.73 C407.53,327.73 407.14,327.45 407.14,327.45" fill="none" stroke="rgb(0, 39, 255)" stroke-width="12.64" stroke-opacity="1.00" stroke-linejoin="round"/>
<path d="M410.45,282.87 C410.26,284.91 409.39,306.23 409.36,312.15 C409.32,316.27 408.64,321.16 407.50,324.32 C406.07,328.08 404.52,330.61 402.41,332.01 C398.35,334.59 383.03,339.28 381.36,338.93 C381.83,338.48 382.19,338.15 382.44,337.95 C382.69,337.74 383.19,337.37 383.93,336.83" fill="none" stroke="rgb(0, 39, 255)" stroke-width="18.40" stroke-opacity="1.00" stroke-linejoin="round"/>
<path d="M410.37,322.56 C405.60,325.01 395.17,328.13 388.74,330.03 C361.71,337.96 345.77,341.98 334.15,344.21 C330.27,344.90 311.65,347.10 303.61,347.99 C295.09,348.78 281.28,348.75 274.34,347.64 C260.65,345.11 243.03,345.31 234.08,346.34 C236.00,346.17 246.91,341.91 254.65,338.05 C268.07,331.01 286.44,321.28 308.04,310.88 C318.66,305.70 327.54,300.96 331.32,297.77 C332.38,296.86 333.36,295.54 333.55,294.73 C333.70,293.84 332.90,292.21 331.77,291.42 C327.65,288.67 310.63,284.95 306.14,284.41 C303.42,284.10 285.06,283.27 284.70,282.80 C286.34,281.92 299.95,276.56 306.49,274.97 C321.02,271.54 340.00,267.01 363.46,262.15 C384.75,257.61 398.69,253.21 400.42,252.78 C400.67,253.59 399.73,257.36 398.25,259.40 C396.53,261.69 391.30,266.02 388.59,267.74 C383.52,270.92 374.03,274.89 363.95,278.57 C353.32,282.31 318.11,293.16 308.12,294.96 C302.19,296.02 285.95,297.58 284.90,297.72 C286.10,298.48 298.69,296.47 307.82,294.04 C323.98,289.55 356.35,280.35 372.52,275.35 C394.09,268.38 396.56,267.19 398.42,266.12 C395.55,265.12 383.92,268.26 374.37,271.29 C359.75,275.85 330.17,285.01 315.21,289.62 C301.16,294.22 263.55,306.96 263.75,308.05 C264.50,309.36 277.83,307.97 287.06,305.96 C295.97,304.01 330.35,293.58 339.24,290.36 C349.85,286.34 396.16,264.29 397.19,263.79 C379.46,274.53 362.84,283.88 344.49,292.58 C333.31,297.48 304.13,309.26 289.28,315.14 C280.32,318.57 275.13,319.49 273.68,319.63 C278.03,316.82 288.82,311.86 294.90,309.64 C307.38,305.10 355.04,293.12 360.16,291.82 C343.22,297.50 315.67,308.14 306.30,312.61 C300.69,315.43 287.48,322.19 282.37,325.29 C275.30,329.59 266.26,336.30 264.46,338.95 C264.46,338.95 264.95,340.00 264.95,340.00 C269.41,340.92 279.64,339.15 289.46,336.78 C307.06,332.48 339.93,324.37 355.21,320.57 C363.46,318.33 374.24,314.82 374.23,314.07 C371.22,313.15 358.94,314.90 350.36,316.69 C341.75,318.72 308.48,328.83 298.98,332.87 C289.70,336.84 287.70,338.96 287.55,339.60 C289.16,340.42 293.31,340.61 296.42,340.37 C301.80,339.92 311.89,337.87 320.80,335.67 C327.46,333.87 343.69,329.27 348.59,327.60 C358.16,324.22 367.15,320.41 372.40,316.88 C374.98,315.12 378.45,311.18 379.12,309.69 C379.77,308.08 379.86,305.35 379.02,304.41 C377.40,302.67 370.85,301.03 368.07,300.84 C362.65,300.50 350.86,302.40 344.84,304.48 C337.11,307.24 328.43,311.18 321.08,315.44 C314.51,319.35 304.51,326.69 301.45,330.09 C299.65,332.09 298.80,333.66 298.68,334.96 C299.85,335.98 300.76,336.46 302.02,336.57 C306.97,336.93 319.74,334.02 326.31,331.79 C332.78,329.59 347.12,323.60 353.96,320.22 C360.97,316.71 374.91,308.79 380.00,305.49 C385.82,301.71 396.73,293.22 397.61,291.06 C397.72,290.76 397.72,290.31 397.61,289.70 C395.71,288.73 391.73,288.94 388.95,289.58 C382.40,291.13 370.37,297.54 365.64,301.04 C360.55,304.83 350.84,315.10 349.03,319.69 C348.06,322.21 347.99,324.37 348.66,325.99 C350.46,327.03 351.60,327.47 352.82,327.42 C355.13,327.30 360.27,325.91 363.22,324.44 C368.68,321.66 378.33,313.21 382.10,309.11 C386.09,304.75 394.33,293.48 396.93,287.76 C399.36,282.33 400.30,274.31 399.67,272.83 C399.32,272.12 397.95,271.28 397.15,271.44 C395.26,271.88 391.58,275.63 390.16,277.70 C388.48,280.18 385.53,286.19 384.40,289.48 C383.31,292.73 381.91,299.33 381.65,302.42 C381.45,305.04 381.84,311.30 382.89,314.31 C383.43,315.76 385.05,317.68 386.04,318.02 C388.22,318.65 393.64,315.73 395.82,313.60 C399.48,309.91 405.89,297.54 408.12,290.50 C410.27,283.59 410.88,274.70 410.24,272.78 C409.94,271.95 408.94,270.89 408.32,270.72 C406.89,270.42 403.89,273.49 402.51,275.88 C400.04,280.30 396.24,292.85 395.43,298.03 C395.09,300.26 394.40,307.40 394.60,310.35 C394.80,312.99 396.24,315.34 396.58,315.38 C398.08,314.91 399.96,305.06 401.76,291.81 C403.33,279.85 404.11,270.61 402.78,269.23 C400.66,272.06 393.59,287.20 389.90,293.32 C388.29,295.96 384.62,300.72 383.13,302.45 C379.26,306.91 372.84,311.19 371.01,312.27" fill="none" stroke="rgb(0, 39, 255)" stroke-width="18.40" stroke-opacity="1.00" stroke-linejoin="round"/>
<path d="M192.43,351.14 C195.31,352.09 205.75,349.39 209.56,348.08 C211.33,347.47 214.92,346.09 216.81,345.36 C217.75,344.99 218.68,344.62 219.62,344.24" fill="none" stroke="rgb(0, 39, 255)" stroke-width="18.40" stroke-opacity="1.00" stroke-linejoin="round"/>
<path d="M299.76,280.33 C296.85,278.93 293.42,278.07 290.51,278.18 C286.66,278.39 279.88,280.22 276.69,281.80 C273.99,283.18 270.18,286.69 268.89,288.98 C268.25,290.17 267.59,292.45 267.59,293.54 C267.66,295.81 270.68,299.12 273.40,300.83 C276.97,303.07 285.28,307.75 285.30,307.77 C288.47,309.62 292.06,312.83 293.35,314.68 C294.81,316.83 296.02,321.35 295.80,323.70 C295.53,326.02 293.34,329.78 291.41,330.97 C289.20,332.25 282.38,333.28 278.34,333.05 C273.94,332.76 267.63,331.16 264.74,329.91 C260.38,327.99 255.46,323.38 255.02,322.65 C254.76,322.21 254.24,321.13 253.46,319.42" fill="none" stroke="rgb(255, 255, 255)" stroke-width="15.00" stroke-opacity="1.00" stroke-linejoin="round"/>
<path d="M239.39,372.44 C240.92,374.00 242.01,374.79 243.53,375.25 C249.21,376.96 260.79,377.54 270.51,376.94 C289.19,375.75 309.65,375.27 327.41,373.43 C336.06,372.50 370.41,365.93 379.42,363.74 C382.90,362.83 388.09,361.18 390.06,360.25 C392.43,359.12 400.69,353.72 401.31,353.26 C401.69,352.98 402.42,352.40 403.51,351.51" fill="none" stroke="rgb(255, 255, 255)" stroke-width="15.00" stroke-opacity="1.00" stroke-linejoin="round"/>
<path d="M413.39,340.76 C412.96,341.42 411.15,343.72 410.17,344.72 C408.89,346.00 402.95,350.42 400.45,351.87 C398.73,352.84 395.60,354.61 394.17,355.40" fill="none" stroke="rgb(255, 255, 255)" stroke-width="15.00" stroke-opacity="1.00" stroke-linejoin="round"/>
<path d="M124.61,364.00 C124.45,364.42 125.10,365.83 126.13,366.98 C127.12,368.07 132.66,371.12 136.19,372.30 C140.59,373.74 151.60,375.63 161.43,375.96 C172.77,376.14 179.43,375.90 191.22,375.21 C202.40,374.66 208.42,374.03 213.36,372.71 C213.79,372.59 214.48,372.43 215.41,372.22" fill="none" stroke="rgb(255, 255, 255)" stroke-width="15.00" stroke-opacity="1.00" stroke-linejoin="round"/>
<path d="M218.77,369.95 C218.78,369.93 218.78,369.99 218.77,370.01 C217.71,372.28 216.63,373.75 215.29,374.60 C213.77,375.54 209.23,377.32 205.06,378.44 C203.63,378.82 198.13,380.10 197.14,380.32" fill="none" stroke="rgb(255, 255, 255)" stroke-width="15.00" stroke-opacity="1.00" stroke-linejoin="round"/>
<path d="M184.66,380.74 C186.91,380.75 194.98,380.45 198.43,380.31 C202.88,380.10 210.59,379.75 213.86,379.61 C215.35,379.55 217.61,379.47 218.39,379.45" fill="none" stroke="rgb(255, 255, 255)" stroke-width="15.00" stroke-opacity="1.00" stroke-linejoin="round"/>
<path d="M236.52,379.09 C237.31,380.29 238.90,381.45 240.41,381.62 C241.08,381.69 244.41,381.10 245.75,380.86 C246.59,380.71 247.43,380.55 248.26,380.40" fill="none" stroke="rgb(255, 255, 255)" stroke-width="15.00" stroke-opacity="1.00" stroke-linejoin="round"/>
<path d="M242.25,374.87 C244.93,375.05 251.66,375.47 255.64,375.54 C259.75,375.60 272.94,375.22 276.01,374.99 C276.51,374.96 277.13,374.90 277.87,374.82" fill="none" stroke="rgb(255, 255, 255)" stroke-width="15.00" stroke-opacity="1.00" stroke-linejoin="round"/>
<path d="M201.74,262.30 C201.68,262.27 205.39,264.46 209.36,267.49 C213.05,270.36 228.18,288.33 228.91,288.97 C229.22,289.25 230.10,289.98 231.53,291.17 C238.34,283.94 246.96,275.69 252.65,270.31 C260.42,263.33 267.60,258.04 269.78,256.46 C269.78,256.46 268.58,257.17 268.58,257.17" fill="none" stroke="rgb(0, 0, 0)" stroke-width="5.00" stroke-opacity="1.00" stroke-linejoin="round"/>
<path d="M231.15,291.32 C231.15,291.32 231.04,291.39 231.04,291.39 C230.38,293.69 230.16,294.84 230.09,296.79 C229.37,312.93 228.16,357.61 228.15,357.87 C228.13,358.31 228.04,358.95 228.02,359.07" fill="none" stroke="rgb(0, 0, 0)" stroke-width="5.00" stroke-opacity="1.00" stroke-linejoin="round"/>
<path d="M118.10,354.33 C118.11,354.34 118.14,354.42 118.15,354.43 C119.98,356.69 123.01,358.86 127.72,360.44 C134.68,362.71 146.62,365.49 154.87,366.55 C162.22,367.43 178.24,367.70 185.49,367.59 C191.48,367.38 211.51,365.86 215.04,365.32 C219.20,364.56 222.55,363.51 223.25,362.78 C223.72,362.28 224.14,359.79 224.24,359.69" fill="none" stroke="rgb(0, 0, 0)" stroke-width="5.00" stroke-opacity="1.00" stroke-linejoin="round"/>
<path d="M230.61,361.89 C233.28,363.62 239.50,364.70 243.08,365.04 C256.54,366.16 287.32,366.03 298.02,365.50 C312.33,364.51 341.67,361.27 356.06,358.77 C363.94,357.19 377.29,354.09 385.02,351.75 C403.08,346.11 408.57,341.45 408.99,340.77 C408.99,340.77 408.76,340.60 408.76,340.60" fill="none" stroke="rgb(0, 0, 0)" stroke-width="5.00" stroke-opacity="1.00" stroke-linejoin="round"/>
<path d="M125.54,377.24 C125.52,377.24 125.52,377.27 125.54,377.28 C128.83,378.60 170.51,385.15 178.14,385.87 C182.64,386.29 197.74,386.82 204.86,386.53 C212.23,386.12 220.88,384.41 221.26,384.20 C222.43,383.53 223.21,382.14 223.66,380.09 C225.15,374.09 226.18,362.37 226.04,360.80 C226.04,360.80 225.75,360.89 225.75,360.89 C225.75,360.89 225.65,361.17 225.65,361.17" fill="none" stroke="rgb(0, 0, 0)" stroke-width="5.00" stroke-opacity="1.00" stroke-linejoin="round"/>
<path d="M233.11,361.41 C233.11,361.41 233.00,361.39 233.00,361.39 C233.00,361.33 232.74,363.05 232.61,364.18 C231.69,372.50 232.52,382.46 233.67,384.18 C234.75,385.69 240.30,386.78 244.67,387.05 C249.98,387.34 286.79,385.32 302.66,384.35 C322.19,382.96 351.74,379.80 360.91,377.61 C368.62,375.72 378.68,372.33 387.24,368.90 C402.04,362.70 412.13,353.31 412.56,352.77 C412.78,352.48 412.90,352.19 412.91,351.88 C412.91,351.83 412.89,351.75 412.86,351.65" fill="none" stroke="rgb(0, 0, 0)" stroke-width="5.00" stroke-opacity="1.00" stroke-linejoin="round"/>
<path d="M416.55,330.44 C413.97,334.00 411.31,337.05 408.43,338.99 C403.95,341.95 395.72,345.54 394.44,346.04 C394.08,346.18 393.52,346.39 392.76,346.66" fill="none" stroke="rgb(0, 0, 0)" stroke-width="5.00" stroke-opacity="1.00" stroke-linejoin="round"/>
<path d="M267.84,257.79 C267.77,257.80 269.47,257.10 270.24,256.84 C270.54,256.73 313.82,252.17 329.75,249.98 C337.12,248.81 351.95,246.24 359.66,244.64 C367.68,242.82 386.46,238.11 391.24,236.70 C413.17,230.20 416.77,227.03 416.84,226.50 C416.84,226.50 416.32,226.13 416.32,226.13" fill="none" stroke="rgb(0, 0, 0)" stroke-width="5.00" stroke-opacity="1.00" stroke-linejoin="round"/>
<path d="M120.65,230.64 C120.65,230.64 120.43,230.53 120.43,230.53 C120.42,230.50 121.57,233.68 123.53,235.56 C127.27,239.10 137.71,244.47 147.91,249.02 C156.44,252.68 166.35,256.14 175.46,258.82 C181.98,260.61 195.87,264.32 196.27,264.38 C196.66,264.44 197.48,264.48 198.71,264.50" fill="none" stroke="rgb(0, 0, 0)" stroke-width="5.00" stroke-opacity="1.00" stroke-linejoin="round"/>
</g>
</svg>
