<?xml version="1.0" encoding="UTF-8" standalone="no"?>
<!DOCTYPE svg PUBLIC "-//W3C//DTD SVG 1.1//EN" "http://www.w3.org/Graphics/SVG/1.1/DTD/svg11.dtd">
<svg width="102.86" height="102.86" viewBox="0.00 0.00 500.00 500.00" xmlns="http://www.w3.org/2000/svg" xmlns:xlink="http://www.w3.org/1999/xlink">
<g stroke-linecap="round" id="레이어_5">
<path d="M114.54,232.28 C113.12,233.24 109.69,235.32 105.38,237.18 C98.31,240.06 85.57,245.37 79.73,248.83 C77.41,250.22 73.89,252.81 72.69,254.33 C71.36,256.05 70.61,259.21 70.70,260.54 C70.83,261.99 72.05,264.60 72.81,265.38 C73.72,266.27 76.50,267.36 77.92,267.07 C79.36,266.73 82.51,264.12 83.93,262.05 C86.74,257.85 89.47,249.56 89.09,248.48 C87.81,248.23 84.61,250.97 82.89,253.33 C80.99,255.99 77.50,263.28 76.82,266.05 C76.28,268.30 76.49,271.48 77.19,272.55 C77.63,273.18 79.10,273.93 79.97,273.96 C81.84,273.98 86.48,271.20 88.59,268.80 C90.66,266.39 92.92,261.75 93.40,260.01 C93.79,258.40 93.61,255.48 92.62,254.17 C91.59,252.91 88.39,252.15 86.50,253.01 C84.48,253.99 80.90,258.47 79.87,261.34 C78.85,264.32 79.17,268.54 79.85,269.91 C80.59,271.19 83.27,272.95 85.35,272.56 C87.43,272.12 92.03,268.42 93.99,265.56 C95.92,262.65 98.14,256.63 98.32,253.78 C98.37,252.68 97.71,249.78 96.80,249.27 C95.70,248.68 92.85,249.68 91.43,250.75 C90.05,251.87 87.18,256.36 86.10,259.08 C85.21,261.43 84.23,265.67 84.09,267.35 C83.89,269.99 84.51,273.48 85.01,274.58 C85.55,275.70 87.08,277.12 88.01,277.41 C88.93,277.67 91.03,277.36 92.16,276.79 C93.59,276.03 96.98,272.92 98.71,270.41 C100.86,267.23 105.07,257.79 105.93,254.00 C106.61,250.89 106.36,247.42 105.58,246.51 C104.28,246.15 100.81,248.21 99.17,250.91 C97.74,253.33 96.08,258.24 95.54,260.35 C94.77,263.54 94.51,268.94 95.02,270.89 C95.54,272.53 97.59,274.33 99.35,273.65 C101.01,272.93 104.34,268.73 105.91,265.52 C108.87,259.36 110.31,251.82 111.27,243.43 C111.72,239.72 111.86,238.80 112.00,238.11 C112.84,240.19 109.67,265.08 108.54,269.21 C108.16,270.52 107.54,271.41 106.69,271.81 C106.01,272.11 104.18,272.80 103.53,273.12 C104.46,273.52 107.63,273.55 109.03,273.06 C110.76,272.39 111.92,269.70 112.41,265.87 C114.86,245.52 114.90,239.89 114.87,238.33 C114.87,238.33 111.30,270.54 111.30,270.54" fill="none" stroke="rgb(204, 170, 254)" stroke-width="13.70" stroke-opacity="1.00" stroke-linejoin="round"/>
<path d="M116.11,228.21 C116.14,228.23 113.07,228.00 111.13,228.68 C108.18,229.75 92.66,235.85 86.10,239.36 C79.78,242.84 71.94,248.89 69.49,252.26 C68.16,254.13 66.59,257.57 65.98,259.91 C65.70,261.09 65.40,264.27 65.51,265.85 C65.66,267.55 66.94,271.06 67.93,272.52 C69.79,275.18 73.85,278.18 75.53,278.98 C78.99,280.58 89.54,282.44 93.02,282.27 C95.10,282.16 110.99,279.13 112.29,278.39 C112.53,278.24 112.75,278.01 112.95,277.68" fill="none" stroke="rgb(0, 0, 0)" stroke-width="5.00" stroke-opacity="1.00" stroke-linejoin="round"/>
<path d="M66.66,260.85 C69.07,259.80 76.57,256.49 77.21,256.23 C82.00,254.29 83.60,254.22 84.27,254.51 C84.27,254.51 84.50,254.92 84.50,254.92" fill="none" stroke="rgb(0, 0, 0)" stroke-width="5.00" stroke-opacity="1.00" stroke-linejoin="round"/>
<path d="M69.19,270.40 C69.19,270.40 69.09,270.51 69.09,270.51 C69.09,270.51 68.80,270.96 68.80,270.96 C69.23,270.82 75.80,267.78 80.06,266.52 C81.74,266.03 82.91,265.74 83.57,265.65 C84.05,265.58 84.86,265.57 85.98,265.61" fill="none" stroke="rgb(0, 0, 0)" stroke-width="5.00" stroke-opacity="1.00" stroke-linejoin="round"/>
<path d="M79.33,278.97 C81.55,278.17 88.91,275.53 89.44,275.37 C89.83,275.25 90.61,275.05 91.77,274.76" fill="none" stroke="rgb(0, 0, 0)" stroke-width="5.00" stroke-opacity="1.00" stroke-linejoin="round"/>
<path d="M95.31,243.01 C96.10,242.09 97.05,241.29 98.51,240.49 C101.83,238.69 114.30,233.61 114.85,233.83 C116.29,235.58 115.21,247.49 113.72,255.21 C112.37,261.42 110.53,270.24 110.19,274.03 C110.19,274.03 108.41,269.52 108.41,269.52" fill="none" stroke="rgb(255, 255, 255)" stroke-width="12.43" stroke-opacity="1.00" stroke-linejoin="round"/>
<path d="M97.89,244.71 C98.76,248.29 99.90,266.09 100.61,272.58 C100.73,273.65 100.84,274.72 100.96,275.79 C100.96,275.79 100.97,275.45 100.97,275.45" fill="none" stroke="rgb(255, 255, 255)" stroke-width="12.43" stroke-opacity="1.00" stroke-linejoin="round"/>
<path d="M102.88,242.62 C104.09,245.58 105.18,249.70 105.69,254.20 C106.21,259.07 105.40,269.59 105.30,270.80 C105.30,270.80 106.00,266.77 106.00,266.77" fill="none" stroke="rgb(255, 255, 255)" stroke-width="12.43" stroke-opacity="1.00" stroke-linejoin="round"/>
<path d="M111.12,239.55 C111.15,248.19 111.45,258.84 110.77,264.46 C110.60,265.82 110.09,269.08 109.86,270.05 C109.44,271.86 108.95,273.27 108.67,273.65" fill="none" stroke="rgb(255, 255, 255)" stroke-width="12.43" stroke-opacity="1.00" stroke-linejoin="round"/>
<path d="M92.23,240.87 C92.24,240.95 96.16,260.67 96.00,267.01 C95.85,271.44 94.54,278.92 94.40,279.71 C94.39,279.77 94.40,279.92 94.43,279.87" fill="none" stroke="rgb(0, 0, 0)" stroke-width="6.00" stroke-opacity="1.00" stroke-linejoin="round"/>
<path d="M102.80,233.06 C104.89,236.34 106.88,242.58 107.38,245.16 C109.54,256.68 108.21,274.38 107.81,276.68 C107.63,277.69 107.10,279.36 106.71,280.30 C106.63,280.50 106.56,280.61 106.51,280.63" fill="none" stroke="rgb(0, 0, 0)" stroke-width="6.00" stroke-opacity="1.00" stroke-linejoin="round"/>
</g>
</svg>
