<?xml version="1.0" encoding="UTF-8" standalone="no"?>
<!DOCTYPE svg PUBLIC "-//W3C//DTD SVG 1.1//EN" "http://www.w3.org/Graphics/SVG/1.1/DTD/svg11.dtd">
<svg width="102.86" height="102.86" viewBox="0.00 0.00 500.00 500.00" xmlns="http://www.w3.org/2000/svg" xmlns:xlink="http://www.w3.org/1999/xlink">
<g stroke-linecap="round" id="레이어_10">
<path d="M276.65,149.30 C275.00,149.30 272.43,149.40 271.22,149.62 C268.55,150.12 262.44,152.92 259.98,154.66 C254.39,158.68 246.33,167.58 243.21,172.14 C240.11,176.71 234.81,187.24 232.83,192.90 C230.89,198.50 228.68,209.43 228.31,215.17 C228.15,218.03 228.54,223.72 229.12,226.95 C229.52,229.05 231.93,234.97 233.77,237.32 C235.95,240.03 241.73,243.66 245.11,244.43 C248.74,245.19 255.52,244.36 258.18,243.49 C261.03,242.51 266.29,239.96 269.18,238.05 C275.19,234.03 285.76,224.11 290.63,218.11 C295.45,212.13 302.79,199.99 305.55,193.19 C306.97,189.64 308.36,184.52 308.83,181.21 C309.35,177.27 309.47,171.04 308.77,167.75 C307.92,163.90 305.19,157.87 302.95,155.29 C300.71,152.81 294.98,149.49 291.60,148.80 C288.38,148.19 283.30,148.64 280.21,149.29 C275.88,150.32 265.95,155.74 261.50,159.57 C257.47,163.06 250.58,171.80 247.95,176.92 C245.31,182.10 241.97,193.67 241.39,199.67 C241.11,202.73 241.14,207.94 241.42,211.24 C241.71,214.29 243.25,220.40 244.59,223.81 C245.40,225.85 248.21,230.07 249.36,231.38 C250.95,233.13 256.09,236.83 259.39,237.69 C262.54,238.49 267.85,238.31 269.65,237.98 C274.00,237.14 283.27,232.50 288.06,228.79 C292.71,225.15 301.77,215.71 305.88,210.26 C309.89,204.92 316.75,193.31 319.37,187.50 C321.94,181.77 325.18,170.93 325.80,166.10 C326.05,164.14 326.23,158.51 325.72,155.41 C325.42,153.63 324.21,150.28 323.38,148.89 C322.53,147.52 320.32,145.30 318.99,144.46 C316.06,142.73 309.43,142.10 306.47,142.55 C301.61,143.38 291.99,147.51 286.90,151.11 C281.67,154.84 272.03,164.86 267.90,170.94 C263.92,176.88 257.94,189.91 256.22,196.23 C254.59,202.32 254.00,212.64 254.96,217.38 C255.59,220.26 258.76,226.32 261.70,228.62 C263.10,229.68 266.29,231.16 268.05,231.59 C271.27,232.31 277.39,231.58 279.86,230.84 C284.16,229.49 293.04,224.12 297.56,220.15 C301.95,216.26 310.24,206.69 313.97,201.28 C317.56,196.05 323.14,185.71 324.89,181.03 C325.75,178.72 327.02,174.01 327.25,172.35 C327.81,168.05 326.90,161.77 325.39,159.29 C324.60,158.06 322.52,156.05 321.24,155.28 C318.40,153.67 312.03,153.08 309.21,153.52 C304.58,154.33 295.64,158.33 291.04,161.80 C286.39,165.35 278.28,174.66 275.10,180.15 C272.04,185.51 268.19,196.86 267.54,202.24 C267.24,204.84 267.26,209.24 267.58,211.82 C267.99,214.74 270.57,220.87 273.16,223.15 C274.39,224.18 277.26,225.62 278.84,226.01 C282.24,226.75 288.92,225.37 291.64,224.11 C296.01,221.99 304.00,215.86 308.19,211.48 C312.29,207.17 320.00,196.96 323.38,191.44 C326.68,186.03 331.50,176.05 333.23,171.17 C334.27,168.16 335.50,161.86 335.10,159.27 C334.87,158.04 334.09,156.39 333.34,155.55 C331.83,153.96 326.96,152.90 324.20,153.42 C320.94,154.08 315.11,157.08 311.59,159.50 C308.04,161.98 299.76,170.49 296.19,175.48 C292.72,180.37 287.24,191.14 286.01,195.33 C284.83,199.43 283.89,205.76 284.41,208.81 C284.67,210.20 285.77,212.80 286.42,213.49 C286.72,213.79 289.77,215.57 290.18,215.69 C292.24,216.21 298.13,214.14 301.74,211.52 C306.10,208.29 316.17,196.65 320.62,190.34 C323.85,185.75 330.83,174.38 335.74,165.41 C342.58,152.30 349.17,134.73 350.33,129.12 C351.13,125.10 351.07,119.12 350.15,116.67 C349.33,114.64 345.72,111.59 343.77,111.19 C341.66,110.80 336.55,111.77 334.09,113.01 C331.89,114.15 327.28,118.17 325.94,120.06 C324.88,121.60 322.75,127.20 322.99,130.32 C323.16,132.07 324.79,135.13 326.05,135.97 C327.30,136.76 330.11,137.48 331.37,137.45 C333.91,137.32 338.36,135.75 340.81,134.08 C343.16,132.45 347.79,127.87 349.87,125.24 C351.87,122.68 355.02,117.51 356.12,114.99 C357.03,112.86 358.54,107.29 358.55,104.33 C358.53,102.84 357.68,100.69 356.85,100.08 C354.96,98.83 349.08,100.12 346.54,101.63 C344.37,102.98 340.35,106.85 338.71,109.10 C337.03,111.45 334.38,117.17 334.41,119.32 C334.46,120.30 335.34,121.69 336.09,121.93 C337.94,122.40 342.86,118.73 344.88,116.28 C346.21,114.64 349.52,109.51 350.63,107.00 C351.42,105.19 353.77,98.57 354.35,95.34 C356.19,84.22 352.02,84.50 351.72,84.43 C350.01,84.05 345.14,86.94 343.03,88.33 C340.40,90.06 337.30,91.56 337.37,91.49 C337.28,90.18 339.94,86.21 344.09,81.23 C345.76,79.26 348.58,78.17 349.60,77.81 C350.37,77.56 356.20,74.73 359.01,74.51 C361.18,74.39 365.38,75.56 369.63,77.81 C371.50,78.84 372.62,80.19 373.78,82.63 C374.90,85.13 375.79,90.27 375.74,93.38 C375.48,100.73 374.16,108.72 371.70,115.31 C368.07,124.99 365.62,133.01 364.54,138.58 C363.39,144.56 362.05,159.37 362.00,162.01 C361.96,165.32 362.68,181.60 363.19,183.44 C363.27,183.70 363.50,184.46 363.88,185.71" fill="none" stroke="rgb(255, 255, 255)" stroke-width="34.86" stroke-opacity="1.00" stroke-linejoin="round"/>
<path d="M339.49,111.36 C338.55,111.50 336.89,111.74 335.32,111.93 C331.08,112.45 313.25,113.34 311.28,113.25 C305.49,112.92 301.03,109.46 299.20,107.83 C300.89,106.40 304.83,106.22 307.13,106.36 C312.18,106.67 317.07,106.79 320.20,106.92 C315.37,108.43 310.20,109.90 307.63,110.29 C304.01,110.80 297.34,110.57 296.47,109.80 C295.86,109.25 292.56,105.89 291.92,105.35 C290.10,103.81 286.24,102.53 283.32,102.17 C273.65,101.03 238.75,99.59 233.94,100.47 C232.23,100.78 222.00,102.32 221.78,102.34 C220.20,102.49 212.41,101.16 211.53,100.93 C206.24,99.52 199.59,94.12 197.93,91.98 C197.74,91.73 196.17,87.34 193.90,82.70 C193.35,81.59 192.66,80.91 190.69,79.39 C189.22,78.32 188.25,78.03 186.45,78.09 C184.44,78.20 175.48,80.15 175.46,80.18 C175.46,80.18 177.02,88.49 177.02,88.49 C177.02,88.49 175.93,81.47 175.93,81.47 C176.40,81.52 177.80,85.23 178.14,87.64 C178.60,91.31 178.07,97.56 177.35,100.11 C174.54,110.09 172.79,118.00 171.99,127.12 C170.91,139.97 173.30,159.33 174.50,162.84 C176.94,169.86 181.89,177.89 184.29,180.20 C187.31,183.07 192.63,185.96 196.33,187.18 C198.06,187.74 201.64,188.87 203.11,189.29 C206.25,190.17 211.66,191.27 213.05,191.54" fill="none" stroke="rgb(255, 255, 255)" stroke-width="59.55" stroke-opacity="1.00" stroke-linejoin="round"/>
<path d="M264.44,146.66 C264.28,146.16 263.74,145.06 263.26,144.58 C261.85,143.23 255.21,141.90 251.74,141.86 C245.77,141.84 236.49,143.35 227.19,145.41 C220.56,147.02 207.39,150.74 201.08,153.16 C192.21,156.57 185.21,160.19 183.22,161.63 C186.27,162.22 191.60,161.18 194.38,160.57 C199.94,159.32 239.42,147.43 253.94,143.44 C274.51,138.22 284.06,135.47 284.96,135.20 C283.90,134.81 269.92,137.81 263.34,140.24 C257.75,142.33 247.46,147.47 243.09,150.42 C239.47,152.88 233.92,157.48 231.44,160.05 C228.91,162.72 225.83,167.35 224.92,169.48 C224.16,171.35 223.89,176.19 224.48,177.82 C225.18,179.66 228.18,182.96 230.44,184.19 C232.77,185.43 238.93,186.93 242.48,187.10 C248.27,187.33 260.03,185.46 266.62,183.66 C271.27,182.36 288.91,175.48 292.76,173.32 C298.47,170.00 301.72,167.74 301.91,166.18 C300.09,164.86 295.90,164.42 292.16,164.78 C288.02,165.20 282.18,166.64 278.46,167.96 C271.07,170.65 257.83,177.80 251.47,182.39 C244.68,187.33 233.75,198.55 231.73,201.69 C229.32,205.48 227.04,209.64 226.32,211.70 C224.80,216.15 224.15,222.50 224.81,225.42 C225.49,228.21 228.66,232.41 231.08,233.81 C233.51,235.15 239.66,236.29 243.14,236.00 C246.65,235.67 251.37,234.19 255.72,232.39 C260.87,230.11 271.27,222.49 275.15,218.41 C277.45,215.95 281.20,211.00 282.59,208.28 C284.02,205.40 285.21,199.88 284.96,197.38 C284.65,194.88 282.34,190.38 280.35,188.46 C278.29,186.51 272.71,183.54 269.47,182.71 C266.00,181.86 258.94,181.86 254.76,182.79 C252.63,183.29 246.79,185.60 244.17,187.12 C241.23,188.85 236.65,192.33 233.99,194.85 C229.18,199.47 221.46,211.22 218.95,217.68 C217.62,221.16 216.34,226.38 215.79,230.39 C215.43,233.17 215.44,237.49 216.03,240.62 C216.68,243.87 219.82,249.20 221.96,250.84 C224.06,252.38 229.09,253.41 231.81,252.87 C234.57,252.27 240.06,249.10 242.97,246.42 C247.71,242.00 254.69,232.04 257.08,227.07 C258.53,224.00 260.80,217.83 261.60,214.32 C262.44,210.55 262.89,203.40 262.49,200.15 C262.07,196.92 260.02,191.45 258.42,189.28 C256.79,187.15 252.47,184.17 249.84,183.39 C247.10,182.62 240.87,182.67 237.54,183.54 C234.35,184.40 228.82,187.19 226.14,189.05 C221.68,192.19 214.09,200.99 211.43,206.09 C209.83,209.21 207.75,215.73 207.35,218.84 C206.94,222.40 208.19,228.92 209.73,231.50 C211.25,233.94 215.75,237.38 218.42,238.24 C221.10,239.05 226.80,238.75 229.59,237.63 C232.38,236.46 237.49,232.28 239.68,229.39 C241.82,226.52 245.12,219.63 246.14,215.96 C247.12,212.29 247.71,204.94 247.33,201.33 C246.92,197.81 244.86,191.05 243.29,187.99 C241.70,184.93 237.60,179.78 235.19,177.88 C232.67,175.94 227.03,173.72 223.95,173.51 C220.78,173.35 213.93,175.03 210.67,176.77 C206.25,179.16 199.33,185.47 196.71,188.94 C194.11,192.43 190.21,200.31 189.01,204.49 C188.53,206.20 187.51,211.42 187.39,214.61 C187.26,218.30 188.73,225.16 190.16,227.75 C191.56,230.20 195.51,233.47 197.81,234.17 C200.12,234.82 204.99,234.15 207.32,232.82 C209.68,231.43 213.71,227.02 215.57,223.80 C217.64,220.13 220.03,213.56 220.86,209.68 C221.63,205.93 222.14,198.21 221.86,194.36 C221.55,190.50 219.91,182.99 218.63,179.54 C217.31,176.03 214.31,170.70 212.11,168.19 C210.22,166.07 206.48,163.74 204.15,163.20 C201.41,162.61 196.83,163.16 194.22,164.27 C191.68,165.38 186.68,169.12 184.47,171.55 C182.26,174.02 178.82,179.70 177.68,182.77 C176.60,185.76 175.66,191.43 175.63,194.54 C175.65,196.06 176.10,199.26 176.55,200.65 C177.00,201.92 178.59,203.39 179.55,203.51 C180.76,203.57 182.91,202.03 184.30,200.19 C185.43,198.63 187.85,192.14 188.61,188.53 C189.94,181.88 189.72,166.62 188.45,159.43 C187.76,155.67 185.91,149.65 184.84,147.29 C183.69,144.82 180.64,141.01 179.30,140.08 C177.59,138.97 174.28,137.93 172.46,138.12 C169.51,138.48 165.06,141.29 163.77,142.53 C162.32,143.95 159.65,147.85 158.87,149.40 C156.26,154.77 153.35,170.04 152.05,172.75 C151.95,172.95 151.77,173.25 151.52,173.67 C150.72,172.69 149.76,168.00 149.69,164.82 C149.61,159.63 151.64,146.16 154.17,141.63 C158.31,134.42 162.36,131.61 164.66,130.31 C159.04,137.13 153.48,145.42 147.09,156.25 C144.13,161.38 142.39,164.78 141.62,167.40 C140.42,171.65 139.49,176.80 139.35,180.74 C139.26,184.45 139.98,191.12 140.86,194.77 C142.73,202.33 147.36,211.22 153.78,222.55 C155.81,226.11 167.30,241.16 170.65,244.00 C172.54,245.59 178.70,249.76 179.36,250.01 C176.61,248.16 171.16,243.91 169.01,241.77 C165.30,238.06 154.00,222.06 152.71,219.90 C150.92,216.82 147.30,206.25 146.89,202.74 C146.74,206.34 146.42,214.19 146.67,216.18 C147.13,219.64 152.20,231.50 153.96,233.72 C157.12,237.66 161.06,240.70 163.56,242.46 C157.53,235.28 151.17,226.04 148.69,220.80 C146.44,215.98 143.12,203.20 143.07,201.78 C143.06,201.52 143.05,201.08 143.06,200.45 C143.05,200.39 144.44,215.26 146.17,220.36 C147.11,223.07 149.61,228.46 150.66,230.19 C152.52,233.21 155.99,237.43 158.28,239.77 C160.59,242.08 178.95,253.65 180.20,254.60" fill="none" stroke="rgb(255, 255, 255)" stroke-width="59.55" stroke-opacity="1.00" stroke-linejoin="round"/>
<path d="M257.15,263.79 C257.15,263.79 324.45,251.01 324.45,251.01" fill="none" stroke="rgb(255, 255, 255)" stroke-width="59.55" stroke-opacity="1.00" stroke-linejoin="round"/>
<path d="M260.57,261.66 C260.57,261.66 327.98,249.75 327.98,249.75" fill="none" stroke="rgb(255, 255, 255)" stroke-width="59.55" stroke-opacity="1.00" stroke-linejoin="round"/>
<path d="M325.43,229.75 C325.43,229.75 340.66,220.15 340.66,220.15" fill="none" stroke="rgb(255, 255, 255)" stroke-width="59.55" stroke-opacity="1.00" stroke-linejoin="round"/>
<path d="M344.47,210.28 C347.33,204.80 349.86,199.64 351.07,196.03 C352.12,192.87 353.59,186.63 354.02,183.25 C354.63,178.23 353.23,154.80 355.49,141.67 C357.52,141.87 363.22,148.89 364.20,150.18 C364.20,150.18 361.81,142.16 361.81,142.16 C361.99,142.56 366.45,154.17 371.08,168.37 C374.30,178.33 376.44,187.69 376.33,192.31 C376.21,195.92 373.72,205.30 370.07,215.89 C369.09,218.67 367.20,223.95 366.12,225.82 C361.49,233.47 359.12,236.77 358.37,237.75" fill="none" stroke="rgb(255, 255, 255)" stroke-width="59.55" stroke-opacity="1.00" stroke-linejoin="round"/>
<path d="M365.85,214.81 C365.85,214.81 365.28,218.23 365.28,218.23 C365.28,218.23 375.22,206.21 375.22,206.21" fill="none" stroke="rgb(255, 255, 255)" stroke-width="59.55" stroke-opacity="1.00" stroke-linejoin="round"/>
<path d="M178.42,273.91 C177.97,273.84 177.51,273.77 177.06,273.70 C176.31,273.59 175.14,272.97 174.63,272.82 C173.66,272.54 171.59,272.32 171.11,272.37 C171.83,273.15 172.54,273.92 173.25,274.70 C173.51,274.98 173.87,275.32 174.31,275.71 C176.11,277.28 178.18,278.94 179.42,279.72 C181.92,281.27 186.12,282.40 191.39,283.20 C205.20,285.09 235.09,289.07 247.37,289.70 C255.54,290.06 267.84,289.60 275.24,288.18 C278.21,287.61 297.63,282.42 300.62,281.50 C304.90,280.16 322.45,273.52 328.71,270.60 C338.31,265.93 362.88,252.86 368.24,249.40 C368.47,248.70 329.30,264.04 314.72,268.59 C301.75,272.26 264.45,280.21 264.20,280.32 C264.02,280.40 263.74,280.54 263.36,280.75 C264.30,281.81 268.05,282.60 270.78,282.19 C275.03,281.51 284.07,277.31 293.29,272.46 C306.95,265.20 330.84,252.60 336.21,250.17 C322.56,256.15 295.01,268.16 282.30,272.90 C275.29,275.43 262.07,279.08 257.03,279.94 C250.48,281.05 242.05,281.48 229.43,281.63 C220.41,281.87 214.16,281.17 205.82,279.66 C201.89,278.93 195.42,275.99 194.41,275.61 C193.90,275.42 192.88,275.09 191.32,274.62" fill="none" stroke="rgb(255, 255, 255)" stroke-width="16.50" stroke-opacity="1.00" stroke-linejoin="round"/>
<path d="M156.03,265.49 C155.74,265.28 155.44,265.07 155.14,264.87 C154.99,264.76 154.77,264.62 154.49,264.43 C154.44,264.45 154.50,264.57 154.66,264.82 C155.16,265.55 155.79,266.41 156.54,267.39 C157.12,268.14 157.80,268.95 158.57,269.83 C160.98,272.52 167.66,277.88 169.19,278.75 C173.64,281.25 183.86,285.32 184.28,285.64 C184.37,285.70 184.54,285.84 184.79,286.05" fill="none" stroke="rgb(255, 255, 255)" stroke-width="16.50" stroke-opacity="1.00" stroke-linejoin="round"/>
<path d="M187.31,280.50 C187.31,280.50 186.64,281.10 186.64,281.10 C186.93,282.55 190.78,284.11 196.08,285.65 C204.38,288.01 222.44,290.39 223.04,290.49 C229.01,291.61 261.23,294.81 277.64,293.87 C283.41,293.53 293.95,291.52 299.00,289.91 C309.51,286.47 337.98,274.89 352.19,268.90 C357.99,266.37 369.31,258.39 372.71,255.33 C379.37,249.28 386.66,236.84 387.18,235.84 C387.70,234.85 388.21,233.86 388.72,232.86" fill="none" stroke="rgb(255, 255, 255)" stroke-width="16.50" stroke-opacity="1.00" stroke-linejoin="round"/>
<path d="M396.52,219.97 C396.27,222.68 395.58,225.41 393.62,231.68 C391.63,237.89 387.54,245.92 383.85,251.09 C380.35,255.97 373.90,262.52 367.15,267.63 C361.25,272.08 352.60,277.40 344.10,281.58 C336.58,285.22 325.69,288.67 317.80,290.23 C300.89,293.25 281.91,294.52 281.08,294.54 C280.06,294.57 279.04,294.59 278.02,294.61" fill="none" stroke="rgb(255, 255, 255)" stroke-width="16.50" stroke-opacity="1.00" stroke-linejoin="round"/>
<path d="M147.69,104.44 C147.97,102.21 147.68,98.14 146.77,91.77 C145.84,85.95 145.23,81.33 145.33,78.93 C145.45,76.30 146.48,69.71 147.24,67.93 C148.46,65.16 152.52,60.44 153.98,59.16 C156.24,57.19 162.28,53.50 164.54,52.54 C169.64,50.42 182.40,48.12 188.18,48.00 C190.09,47.97 195.01,48.34 196.98,48.98 C199.21,49.73 204.22,52.62 207.07,55.39 C210.16,58.42 212.77,61.58 213.65,62.70 C214.21,63.38 215.91,65.14 216.58,65.82 C219.07,68.28 223.08,70.43 226.16,70.80 C230.88,71.26 245.18,70.14 251.60,70.47 C257.88,70.71 271.63,71.34 279.09,71.72 C285.00,71.88 299.87,74.79 301.99,75.16 C311.17,76.76 317.66,78.47 318.93,78.32 C319.15,78.29 328.26,72.71 329.18,72.15 C329.29,72.08 332.95,68.70 335.87,66.20 C337.72,64.65 343.11,61.74 346.47,60.59 C348.44,59.94 357.03,58.13 359.75,58.01 C364.39,57.85 368.29,58.34 371.29,59.53 C375.80,61.45 379.27,63.53 382.35,66.18 C385.25,68.71 388.86,73.21 390.29,75.67 C391.24,77.31 393.26,81.98 393.62,83.63 C393.82,84.61 394.61,92.80 394.94,96.16 C395.24,99.49 394.75,105.97 394.32,107.47 C394.29,107.57 390.39,115.62 389.72,117.84 C388.82,120.87 388.32,127.00 388.77,129.12 C389.04,130.34 399.01,156.54 400.49,160.80" fill="none" stroke="rgb(0, 0, 0)" stroke-width="6.00" stroke-opacity="1.00" stroke-linejoin="round"/>
<path d="M147.39,104.44 C147.39,104.44 146.26,104.04 146.26,104.04 C143.39,107.50 134.30,117.85 129.55,124.17 C125.93,129.01 121.35,138.18 117.65,146.62 C114.93,152.99 111.06,165.38 110.14,170.67 C109.26,175.88 109.18,191.74 109.60,197.11 C110.15,203.81 113.93,221.23 115.00,224.69 C117.09,231.43 123.02,243.69 126.66,249.31 C130.05,254.51 137.23,262.89 141.38,266.63 C147.62,272.06 158.46,279.67 163.41,282.57 C167.07,284.69 185.97,291.99 186.63,292.19 C187.45,292.43 188.28,292.41 188.32,292.33" fill="none" stroke="rgb(0, 0, 0)" stroke-width="6.00" stroke-opacity="1.00" stroke-linejoin="round"/>
<path d="M184.56,291.14 C184.55,291.13 185.45,291.61 185.94,291.79 C188.38,292.60 194.33,294.66 196.58,295.18 C198.95,295.72 215.08,298.55 221.72,299.89 C233.53,301.96 269.06,303.38 279.26,303.01 C285.63,302.77 300.94,300.74 307.19,299.40 C308.79,299.05 328.42,294.05 331.23,293.08 C342.21,289.11 351.53,285.15 359.37,280.98 C361.51,279.83 369.15,274.77 371.46,272.78 C371.93,272.37 373.98,270.28 374.44,269.77 C374.66,269.52 375.08,269.02 375.69,268.28" fill="none" stroke="rgb(0, 0, 0)" stroke-width="6.00" stroke-opacity="1.00" stroke-linejoin="round"/>
<path d="M399.20,155.96 C400.04,156.92 403.27,169.24 403.75,174.62 C404.30,179.66 405.46,192.12 405.75,199.39 C406.08,209.48 405.42,218.64 403.32,225.98 C401.85,231.07 396.60,244.16 393.98,248.97 C392.95,250.84 388.25,258.57 386.63,260.61 C383.88,264.02 376.41,269.79 373.75,271.85 C372.34,272.95 369.91,275.02 368.71,276.16 C368.34,276.50 367.89,276.96 367.36,277.53" fill="none" stroke="rgb(0, 0, 0)" stroke-width="6.00" stroke-opacity="1.00" stroke-linejoin="round"/>
<path d="M174.62,64.42 C174.40,64.39 174.05,64.78 173.25,66.02 C171.22,69.24 167.39,75.31 166.87,76.31 C166.87,76.31 186.45,74.49 186.45,74.49 C179.25,81.44 174.82,85.23 173.88,85.97 C173.68,86.13 173.44,86.30 173.16,86.50" fill="none" stroke="rgb(0, 0, 0)" stroke-width="6.00" stroke-opacity="1.00" stroke-linejoin="round"/>
<path d="M373.12,82.60 C370.70,81.53 359.55,84.18 358.12,84.52 C362.51,86.30 369.12,92.89 369.33,93.42 C365.94,93.70 361.47,94.27 360.81,94.43 C360.40,94.53 359.64,94.76 358.55,95.14" fill="none" stroke="rgb(0, 0, 0)" stroke-width="6.00" stroke-opacity="1.00" stroke-linejoin="round"/>
<path d="M182.63,90.80 C189.05,86.97 204.35,79.35 207.26,78.13 C213.00,75.96 225.61,70.82 227.99,69.34 C229.04,68.63 230.17,65.72 230.82,61.87 C231.66,56.85 232.97,33.70 233.71,32.53 C234.64,31.36 240.30,30.02 241.26,29.80 C243.57,29.30 260.57,25.01 265.02,24.52 C268.16,24.18 287.10,23.77 291.83,24.49 C295.17,25.02 302.29,26.82 304.37,28.02 C306.52,29.30 310.69,33.47 312.57,35.61 C314.23,37.54 315.16,41.41 314.66,43.01 C314.02,44.76 311.64,46.77 308.26,47.68 C304.54,48.64 295.48,48.82 290.80,48.15 C287.41,47.66 270.40,44.34 264.70,43.62 C256.45,42.59 236.64,42.48 235.48,42.45 C242.72,41.50 258.54,39.59 266.85,38.85 C276.64,38.13 287.54,38.12 293.03,38.77 C296.61,39.22 298.98,39.89 301.14,40.79 C298.60,41.70 281.05,44.95 275.12,46.30 C267.63,48.17 251.96,52.40 247.71,53.74 C240.93,56.00 233.09,59.66 232.55,60.74 C233.68,62.04 243.05,62.73 251.32,62.46 C260.30,62.14 271.21,60.95 279.94,59.72 C294.08,57.49 302.23,56.38 304.16,55.66 C305.42,55.15 307.17,52.15 307.40,52.13 C307.40,52.13 309.84,56.83 309.84,56.83 C309.84,56.83 312.02,53.30 312.02,53.30 C312.02,53.30 312.44,57.44 312.44,57.44 C312.44,57.46 311.24,50.01 310.83,49.15 C310.66,48.80 310.38,48.54 309.98,48.36 C309.84,48.30 309.44,48.17 308.78,47.97" fill="none" stroke="rgb(205, 158, 127)" stroke-width="17.30" stroke-opacity="1.00" stroke-linejoin="round"/>
<path d="M229.97,35.52 C230.76,40.37 233.25,47.44 233.46,48.74 C233.53,49.22 233.63,50.25 233.75,51.84" fill="none" stroke="rgb(205, 158, 127)" stroke-width="17.30" stroke-opacity="1.00" stroke-linejoin="round"/>
<path d="M244.39,66.96 C243.83,68.14 241.81,69.76 238.10,71.85 C231.31,75.67 217.66,83.26 212.35,85.75 C208.29,87.61 195.87,91.27 194.26,91.51 C196.32,91.32 202.68,90.44 205.25,90.34 C209.97,90.17 245.87,93.03 249.03,92.96 C262.77,92.59 293.18,88.80 296.96,88.34 C305.72,87.26 321.12,86.51 322.53,86.40 C327.15,86.01 332.31,84.73 332.47,83.44 C332.56,82.07 329.29,77.37 328.70,76.76 C327.18,75.22 316.87,69.48 315.23,68.76 C316.21,69.35 321.52,71.77 322.33,72.19 C324.68,73.43 335.28,84.88 336.37,86.01 C336.55,86.17 337.44,86.83 337.43,86.82 C334.55,86.53 293.67,79.54 283.80,78.84 C268.99,77.88 237.34,75.84 237.36,75.85 C240.59,76.92 251.97,77.39 263.10,77.47 C282.31,77.19 302.95,75.77 307.84,74.50 C310.67,73.74 311.48,72.53 311.71,72.04 C310.78,71.84 267.70,82.00 257.03,83.43 C249.57,84.35 234.95,84.71 233.74,84.70 C233.40,84.69 233.22,84.63 233.21,84.50" fill="none" stroke="rgb(205, 158, 127)" stroke-width="17.30" stroke-opacity="1.00" stroke-linejoin="round"/>
<path d="M225.06,58.37 C235.46,60.98 241.22,61.87 250.78,61.75 C271.39,61.18 279.81,60.41 301.84,57.78 C310.20,56.77 318.01,54.66 318.55,54.32 C318.55,54.32 318.54,54.60 318.54,54.60" fill="none" stroke="rgb(103, 56, 25)" stroke-width="12.25" stroke-opacity="1.00" stroke-linejoin="round"/>
<path d="M317.53,55.66 C317.25,55.69 315.34,56.53 313.90,57.18 C311.60,58.16 306.19,59.96 303.11,60.43 C298.76,61.07 289.03,61.07 288.15,61.05 C287.85,61.04 287.48,61.02 287.04,60.98" fill="none" stroke="rgb(103, 56, 25)" stroke-width="12.25" stroke-opacity="1.00" stroke-linejoin="round"/>
<path d="M290.20,17.08 C289.66,17.03 289.12,16.98 288.58,16.92 C278.24,15.98 269.51,15.79 262.49,16.41 C255.74,17.02 241.00,19.81 234.93,21.77 C232.24,22.65 226.43,24.99 223.88,26.88 C222.74,27.75 222.88,29.85 224.21,30.63 C226.58,31.95 239.24,33.34 251.49,33.23 C305.56,31.94 318.15,30.57 319.43,29.90 C319.78,29.41 318.76,27.69 317.01,26.14 C315.24,24.58 299.53,17.54 293.47,16.20 C287.29,14.87 279.96,14.96 277.00,15.51 C275.81,15.74 274.30,16.09 273.14,16.38" fill="none" stroke="rgb(0, 0, 0)" stroke-width="6.00" stroke-opacity="1.00" stroke-linejoin="round"/>
<path d="M221.70,30.01 C221.70,30.03 221.68,30.06 221.68,30.05 C221.66,30.01 221.64,30.42 221.59,31.80 C221.37,39.51 221.00,56.55 221.60,59.32 C221.67,59.64 221.87,60.31 222.20,61.33 C222.20,61.33 223.31,61.54 223.31,61.54" fill="none" stroke="rgb(0, 0, 0)" stroke-width="6.00" stroke-opacity="1.00" stroke-linejoin="round"/>
<path d="M321.01,29.64 C320.99,32.43 321.64,42.13 321.22,54.74 C321.01,60.61 321.01,61.41 321.06,61.93 C321.06,62.00 321.08,62.09 321.10,62.20" fill="none" stroke="rgb(0, 0, 0)" stroke-width="6.00" stroke-opacity="1.00" stroke-linejoin="round"/>
<path d="M222.30,61.50 C221.87,61.66 221.13,61.98 219.82,62.58 C213.77,65.47 201.12,71.58 194.52,74.80 C188.89,77.65 176.42,85.67 175.00,87.54 C173.66,89.34 172.73,91.47 173.07,92.16 C173.92,93.57 179.42,95.38 182.87,95.91 C196.52,97.94 217.22,99.32 236.84,99.48 C253.60,99.44 284.78,98.17 299.82,97.33 C308.27,96.78 327.65,95.43 330.18,95.13 C335.16,94.54 342.75,92.85 344.17,91.72 C345.26,90.80 344.60,86.42 343.72,84.00 C342.49,80.66 339.83,75.76 338.29,73.96 C331.37,66.06 324.44,62.80 321.39,61.45 C320.92,61.24 320.29,60.96 319.52,60.60" fill="none" stroke="rgb(0, 0, 0)" stroke-width="6.00" stroke-opacity="1.00" stroke-linejoin="round"/>
<path d="M223.77,51.64 C227.35,52.66 241.50,55.43 244.54,55.84 C250.91,56.69 265.90,57.52 272.46,57.55 C280.11,57.46 293.86,56.19 300.64,54.82 C305.90,53.74 315.08,50.96 316.63,49.97 C316.63,49.97 316.45,49.98 316.45,49.98" fill="none" stroke="rgb(0, 0, 0)" stroke-width="6.00" stroke-opacity="1.00" stroke-linejoin="round"/>
<path d="M220.00,62.81 C220.49,63.49 224.55,64.83 229.44,65.63 C233.84,66.27 283.44,67.88 289.58,67.52 C299.33,66.81 309.64,65.22 314.39,62.78 C316.10,61.90 317.86,60.69 319.60,59.28 C320.33,58.68 320.78,58.26 320.85,58.16" fill="none" stroke="rgb(0, 0, 0)" stroke-width="6.00" stroke-opacity="1.00" stroke-linejoin="round"/>
<path d="M316.13,51.49 C316.13,51.49 321.58,48.00 321.58,48.00 C321.58,48.00 321.32,48.14 321.32,48.14" fill="none" stroke="rgb(0, 0, 0)" stroke-width="6.00" stroke-opacity="1.00" stroke-linejoin="round"/>
<path d="M188.43,99.42 C188.42,99.43 188.36,99.45 188.34,99.45 C182.94,100.70 173.69,104.43 168.78,107.08 C164.62,109.33 149.70,119.95 145.62,123.07 C141.33,126.41 128.81,137.43 125.85,140.34 C118.53,147.71 117.37,149.79 116.47,151.91 C116.47,151.91 117.17,152.95 117.17,152.95" fill="none" stroke="rgb(0, 0, 0)" stroke-width="6.00" stroke-opacity="1.00" stroke-linejoin="round"/>
<path d="M331.27,92.89 C332.65,93.95 335.78,95.71 347.07,100.82 C353.75,103.91 362.79,109.39 368.71,113.64 C373.90,117.40 385.75,127.28 387.89,129.98 C389.36,131.86 390.66,134.03 391.27,135.58 C391.32,135.72 391.45,136.08 391.66,136.67" fill="none" stroke="rgb(0, 0, 0)" stroke-width="6.00" stroke-opacity="1.00" stroke-linejoin="round"/>
<path d="M245.72,55.93 C245.72,55.93 245.52,54.63 245.52,54.63 C244.61,54.82 242.59,57.73 241.30,60.21 C239.52,63.70 237.94,69.38 238.49,70.34 C239.26,71.48 241.49,72.11 243.01,71.45 C244.66,70.67 247.62,66.72 248.32,64.69 C248.80,63.17 248.31,60.44 247.57,59.50 C246.73,58.50 244.08,57.98 242.44,58.72 C240.57,59.61 237.28,63.53 236.49,65.71 C236.17,66.64 236.15,68.08 236.45,68.63 C236.82,69.20 238.33,69.97 239.38,70.07 C241.84,70.25 247.21,67.95 248.99,66.28 C250.33,64.97 252.00,61.79 252.17,60.33 C252.29,58.75 250.63,57.51 249.60,57.26 C249.60,57.26 248.33,58.00 248.33,58.00" fill="none" stroke="rgb(103, 56, 25)" stroke-width="6.00" stroke-opacity="1.00" stroke-linejoin="round"/>
<path d="M245.60,54.02 C245.61,54.02 245.58,54.03 245.57,54.04 C243.50,54.72 242.38,55.26 241.94,56.14 C240.36,59.37 239.82,65.59 240.76,66.73 C241.72,67.71 244.20,68.00 245.75,67.16 C247.36,66.26 249.92,62.91 250.57,60.96 C251.13,59.23 250.95,56.58 250.32,55.80 C249.70,55.09 247.74,54.64 246.64,55.06 C245.39,55.57 243.20,58.07 242.59,59.73 C242.03,61.39 242.41,64.20 243.34,65.15 C244.31,66.08 246.93,66.27 248.29,65.42 C249.63,64.53 251.27,61.78 251.39,60.25 C251.48,58.85 250.66,56.51 249.86,55.51 C249.49,55.10 248.21,54.41 247.44,54.30 C246.44,54.19 244.50,55.05 243.60,56.04 C241.74,58.15 241.35,60.85 241.43,61.98 C241.91,62.53 242.27,62.88 242.53,63.01 C242.78,63.14 243.28,63.24 244.03,63.32" fill="none" stroke="rgb(103, 56, 25)" stroke-width="11.09" stroke-opacity="1.00" stroke-linejoin="round"/>
<path d="M288.98,52.76 C288.82,52.83 288.73,52.86 288.71,52.87 C286.59,53.94 283.53,58.49 283.27,61.09 C283.11,63.43 284.34,66.66 286.13,67.55 C288.03,68.43 292.23,68.20 293.48,67.21 C294.79,66.09 295.58,62.52 295.03,59.84 C294.55,57.67 292.88,54.85 291.86,54.14 C290.75,53.42 288.53,54.16 287.52,56.06 C286.49,58.06 285.64,62.59 285.99,63.87 C286.41,65.20 288.63,66.87 290.02,66.67 C291.42,66.43 293.51,64.08 294.00,62.41 C294.39,60.94 294.18,58.17 293.60,57.09 C292.99,56.02 291.07,55.06 289.86,55.28 C288.57,55.55 286.40,57.51 286.01,58.93 C285.63,60.48 286.76,63.51 287.99,64.43 C289.14,65.23 291.07,64.95 291.97,63.86 C292.38,63.30 293.31,60.94 293.53,59.68 C293.79,58.17 293.24,55.89 292.54,54.89 C291.95,54.13 289.16,54.05 287.53,54.92 C285.75,55.91 283.15,59.23 282.83,60.98 C282.71,61.85 283.03,63.44 283.50,64.07 C284.56,65.40 288.88,66.45 290.62,65.99 C292.00,65.59 294.18,63.45 294.52,62.11 C294.84,60.73 294.25,57.42 293.51,56.09 C292.83,54.88 291.03,53.69 290.40,53.90 C288.66,54.59 287.55,58.08 287.38,59.64 C287.34,60.06 287.30,60.80 287.27,61.87" fill="none" stroke="rgb(103, 56, 25)" stroke-width="11.09" stroke-opacity="1.00" stroke-linejoin="round"/>
<path d="M241.77,52.01 C241.50,52.02 241.28,52.03 241.10,52.05 C239.78,52.20 237.79,52.87 236.63,53.63 C235.34,54.52 232.97,59.94 232.50,63.50 C232.29,65.23 232.40,68.40 232.72,69.66 C233.09,70.94 234.44,72.88 235.50,73.63 C236.64,74.38 239.50,75.21 241.00,75.20 C243.99,75.11 250.45,71.49 253.09,68.89 C255.50,66.44 257.80,61.68 257.78,59.29 C257.72,57.20 256.09,53.01 254.78,51.83 C252.94,50.27 247.13,48.84 244.04,49.51 C241.39,50.13 236.20,53.29 235.12,54.51 C234.50,55.23 233.33,57.12 233.26,57.34" fill="none" stroke="rgb(0, 0, 0)" stroke-width="6.00" stroke-opacity="1.00" stroke-linejoin="round"/>
<path d="M289.48,49.79 C288.90,49.76 287.15,49.93 286.14,50.16 C284.68,50.52 280.88,53.68 279.00,56.98 C278.06,58.70 276.88,64.33 277.85,66.97 C278.40,68.39 280.37,70.73 281.72,71.62 C284.40,73.27 290.90,73.86 293.67,72.89 C294.94,72.40 296.98,70.97 297.77,69.99 C299.37,67.88 300.93,61.32 300.60,58.06 C300.27,55.15 298.30,51.40 296.29,50.45 C295.03,49.90 292.02,49.39 290.45,49.52 C288.86,49.66 285.74,50.69 284.01,51.54 C283.38,51.86 280.62,53.44 279.64,54.00" fill="none" stroke="rgb(0, 0, 0)" stroke-width="6.00" stroke-opacity="1.00" stroke-linejoin="round"/>
<path d="M233.78,62.79 C233.52,61.54 234.62,58.70 236.91,56.67 C238.00,55.73 240.27,54.48 241.30,54.28 C243.12,53.98 246.98,56.64 248.13,58.79 C248.75,60.02 249.33,62.64 249.18,63.87 C248.82,66.33 244.69,71.15 242.12,72.42 C240.85,73.02 238.39,73.43 237.40,73.22 C236.57,73.00 235.10,71.79 234.57,70.79 C233.64,68.93 233.04,66.90 233.32,66.41 C233.50,66.14 233.67,65.87 233.84,65.60" fill="none" stroke="rgb(0, 0, 0)" stroke-width="6.00" stroke-opacity="1.00" stroke-linejoin="round"/>
<path d="M279.90,63.74 C278.99,63.03 278.17,60.99 279.34,59.32 C280.55,57.70 284.73,55.31 286.72,55.10 C287.80,55.02 289.50,55.51 290.30,56.15 C291.67,57.33 294.06,62.22 294.26,64.41 C294.41,66.65 292.54,69.57 290.81,70.47 C287.37,72.15 281.85,70.06 281.76,69.85 C281.76,69.85 281.86,69.26 281.86,69.26" fill="none" stroke="rgb(0, 0, 0)" stroke-width="6.00" stroke-opacity="1.00" stroke-linejoin="round"/>
</g>
</svg>
