<?xml version="1.0" encoding="UTF-8" standalone="no"?>
<!DOCTYPE svg PUBLIC "-//W3C//DTD SVG 1.1//EN" "http://www.w3.org/Graphics/SVG/1.1/DTD/svg11.dtd">
<svg width="102.86" height="102.86" viewBox="0.00 0.00 500.00 500.00" xmlns="http://www.w3.org/2000/svg" xmlns:xlink="http://www.w3.org/1999/xlink">
<g stroke-linecap="round" id="레이어_9">
<path d="M132.32,217.80 C132.49,217.93 145.20,220.80 151.46,222.26 C157.49,223.56 169.56,224.55 176.19,225.03 C194.14,226.14 220.91,226.33 236.13,226.25 C245.84,226.26 325.14,219.14 354.21,216.71 C361.90,216.15 376.77,215.43 383.84,215.17 C385.47,215.12 402.67,216.32 403.05,217.13 C405.15,222.14 405.75,235.87 406.09,242.75 C406.27,248.59 402.62,278.35 399.67,297.60 C397.63,309.89 390.85,337.70 387.51,351.93 C387.14,353.55 386.45,356.52 386.14,357.88 C385.57,360.25 384.73,363.76 384.46,364.89" fill="none" stroke="rgb(204, 170, 254)" stroke-width="26.21" stroke-opacity="1.00" stroke-linejoin="round"/>
<path d="M395.80,247.81 C396.27,255.35 397.19,268.66 397.44,275.21 C397.76,285.35 397.77,289.26 396.67,301.53 C395.77,310.58 394.39,324.28 393.92,328.93 C395.07,323.11 397.86,306.52 398.33,300.88 C398.74,295.83 399.23,275.32 399.52,272.91 C399.91,269.73 400.01,267.87 399.99,265.21 C400.76,269.39 401.78,281.27 401.35,287.40 C400.73,295.55 399.43,311.46 398.76,319.23 C398.04,326.15 396.28,335.26 393.82,346.00 C391.68,354.89 388.75,364.04 386.52,370.18 C386.35,369.25 392.00,354.15 393.51,349.69 C395.65,343.07 397.49,329.11 398.47,321.42 C398.73,319.17 398.97,317.56 399.44,314.67 C400.07,315.97 399.82,329.46 398.87,335.91 C397.99,341.81 395.26,353.92 393.26,360.05 C390.42,368.44 380.00,390.76 377.93,394.21 C375.17,398.62 372.49,401.69 369.50,403.47 C366.56,405.17 360.93,407.65 359.22,408.55 C362.95,404.98 369.26,395.99 371.91,390.64 C375.58,383.19 384.18,370.04 385.34,368.10 C386.74,365.76 389.88,359.06 391.15,357.09 C391.84,356.04 392.86,354.76 394.31,353.04 C394.31,353.04 378.58,388.53 378.58,388.53 C378.60,388.49 390.04,370.77 392.34,364.88 C394.68,358.74 395.14,357.68 396.21,355.48 C396.21,355.48 386.60,378.71 386.60,378.71 C386.60,378.71 386.49,376.37 386.49,376.37 C370.41,389.16 357.10,401.29 353.26,403.78 C351.31,405.03 345.21,407.75 340.08,409.75 C336.15,411.25 333.43,411.97 329.88,412.48 C316.39,414.22 297.45,416.67 296.16,416.77 C293.75,416.97 290.82,417.06 289.32,417.03" fill="none" stroke="rgb(204, 170, 254)" stroke-width="38.21" stroke-opacity="1.00" stroke-linejoin="round"/>
<path d="M139.22,227.72 C139.17,227.99 139.16,232.72 138.56,235.52 C137.89,238.62 137.38,241.81 137.26,242.57 C137.26,242.57 137.57,230.23 137.57,230.23 C137.57,231.40 134.70,250.47 134.44,257.42 C134.19,271.88 133.78,306.44 134.21,318.51 C134.65,325.70 135.71,345.61 135.88,347.57 C136.52,354.98 139.19,366.96 141.27,370.56 C141.95,371.72 147.19,378.96 147.58,379.42 C148.08,380.00 160.25,391.90 165.19,395.56 C167.21,397.05 169.05,398.20 170.14,398.71 C170.06,398.79 164.73,396.77 162.87,395.92 C159.99,394.58 155.74,390.91 152.18,387.20 C148.53,383.29 147.86,382.65 146.70,381.66 C148.97,384.39 167.51,398.91 169.66,400.38 C171.43,401.58 177.17,404.10 180.67,405.27 C185.49,406.86 194.53,409.21 195.15,409.79 C191.67,409.30 183.19,408.08 180.04,407.38 C175.18,406.29 168.02,402.18 167.19,401.69 C170.27,403.88 180.03,407.39 187.84,408.97 C199.17,411.24 224.22,413.08 228.86,413.80 C225.96,414.17 218.21,413.81 215.04,413.87 C210.28,414.00 203.93,414.51 201.67,414.47 C200.11,414.44 192.05,413.63 192.05,413.63 C195.34,415.18 208.91,416.66 215.54,417.06 C216.39,417.12 234.29,418.82 241.53,418.93 C248.27,419.00 268.42,415.95 279.06,415.17 C283.04,414.89 288.30,413.44 289.75,413.00 C287.57,414.44 284.06,415.14 278.89,415.12 C278.48,415.11 278.05,415.11 277.62,415.12 C280.72,417.86 287.64,416.92 288.82,416.65 C281.42,416.66 266.90,420.12 262.27,420.13 C261.75,420.13 260.65,420.09 258.99,420.02 C266.01,419.28 279.24,417.77 284.41,416.30 C289.38,414.87 295.83,411.76 296.45,411.42 C296.80,411.22 297.60,410.75 298.83,410.01" fill="none" stroke="rgb(204, 170, 254)" stroke-width="38.21" stroke-opacity="1.00" stroke-linejoin="round"/>
<path d="M372.35,355.03 C369.64,358.61 361.13,366.72 354.00,372.09 C342.23,380.66 314.67,401.34 309.23,406.78 C310.93,406.97 316.01,404.29 318.98,402.53 C332.29,394.47 351.28,380.39 364.06,370.20 C369.70,365.74 381.46,356.40 387.57,351.51 C390.84,348.83 394.19,345.27 395.30,343.44 C396.10,342.06 396.62,340.48 396.78,338.98 C396.91,337.21 395.48,333.09 392.97,327.64 C390.43,322.27 388.23,317.28 387.36,315.86 C385.52,316.82 382.75,321.37 381.21,323.92 C371.40,340.07 356.92,361.85 346.29,374.63 C341.68,380.15 339.64,381.22 339.09,381.11 C339.14,378.70 346.30,364.01 349.23,358.02 C356.15,343.49 367.16,320.05 368.42,316.42 C369.57,313.04 369.47,308.51 368.31,307.16 C368.18,307.01 367.87,306.72 367.39,306.27" fill="none" stroke="rgb(204, 170, 254)" stroke-width="38.21" stroke-opacity="1.00" stroke-linejoin="round"/>
<path d="M382.72,242.32 C382.70,242.00 382.68,241.75 382.64,241.55 C382.44,240.63 381.84,239.42 381.21,238.87 C379.04,237.11 366.47,237.96 355.53,239.08 C343.41,240.12 309.49,241.27 294.14,241.68 C279.00,241.97 248.54,242.44 233.70,242.32 C218.21,241.81 187.91,241.05 172.99,240.57 C165.75,240.36 159.55,241.27 158.38,242.04 C156.84,243.12 155.22,247.74 154.88,250.22 C154.14,256.04 154.45,271.58 154.65,279.60 C154.91,287.89 155.64,307.00 155.95,310.91 C156.53,317.10 158.47,332.71 159.67,338.75 C161.47,347.44 163.95,357.11 166.38,363.30 C167.91,367.16 170.70,372.53 172.73,375.35 C174.53,377.81 177.94,380.73 179.29,381.29 C181.12,382.00 183.87,381.75 185.67,380.70 C187.07,379.85 190.23,375.48 191.89,371.97 C193.83,367.79 197.56,353.37 198.57,348.18 C200.23,338.91 204.26,308.13 205.50,294.70 C206.01,286.97 206.38,273.58 205.92,268.60 C205.29,263.13 204.27,258.52 202.48,257.11 C200.71,257.45 199.61,257.89 198.64,258.83 C194.45,262.95 188.27,275.49 186.24,281.56 C184.27,287.53 181.13,301.67 180.14,309.15 C179.57,313.52 178.54,328.06 178.46,332.22 C178.41,339.82 179.26,353.16 180.38,359.43 C180.85,361.99 182.41,368.41 183.19,370.48 C184.73,374.48 187.86,380.00 190.25,381.94 C191.44,382.86 194.01,383.97 195.41,384.17 C198.37,384.51 204.14,382.43 206.48,380.95 C211.71,377.49 221.66,366.67 226.10,360.39 C231.91,352.12 247.12,324.41 253.69,311.45 C256.72,305.25 262.60,292.97 265.46,286.90 C267.95,281.42 273.12,267.45 273.69,264.02 C273.96,262.36 273.63,261.29 272.53,259.82 C270.04,259.72 268.50,259.97 266.62,260.91 C263.75,262.36 259.72,265.70 257.72,267.82 C254.32,271.48 247.51,282.14 244.07,289.28 C239.83,298.13 231.76,322.40 229.41,334.30 C228.30,340.18 226.58,353.11 226.49,359.98 C226.46,363.49 226.90,369.69 227.36,372.39 C227.74,374.59 229.37,380.20 230.92,382.85 C231.79,384.30 234.08,386.60 235.35,387.36 C236.64,388.07 239.47,388.71 241.02,388.65 C244.00,388.46 248.65,386.25 251.84,384.28 C254.50,382.57 265.43,372.27 270.36,366.44 C277.74,357.67 297.28,329.55 305.73,316.42 C309.60,310.15 316.99,297.99 320.91,291.17 C325.47,282.97 329.84,273.80 332.33,266.91 C332.93,265.15 333.15,263.37 333.16,260.72 C331.67,259.84 330.53,259.70 328.97,260.44 C324.19,262.73 314.10,271.73 309.47,277.30 C305.68,281.88 299.08,291.58 296.11,296.71 C293.14,301.95 287.60,313.08 285.19,318.89 C282.78,324.73 278.98,336.12 277.48,341.68 C275.59,348.92 273.55,362.90 273.74,369.23 C273.91,373.76 275.88,380.16 277.66,381.28 C278.04,381.49 281.67,382.17 282.15,382.13 C284.24,381.87 290.30,377.96 293.73,374.89 C297.27,371.67 305.24,362.56 312.16,353.73 C320.79,341.98 337.87,317.01 347.27,302.89 C351.44,296.50 358.11,286.19 361.55,280.22 C366.73,271.02 366.81,269.23 366.60,267.71 C364.67,267.99 363.29,268.48 361.64,269.62 C356.63,273.12 347.13,283.21 343.92,287.58 C338.51,294.98 331.85,306.00 328.42,312.95 C321.91,326.23 316.41,344.94 315.53,351.47 C315.27,353.39 315.38,355.02 315.83,357.64 C317.26,358.29 318.21,358.38 319.25,357.73 C323.47,355.02 332.77,343.67 335.60,339.55 C339.25,334.21 359.62,301.07 367.68,287.49 C370.59,282.42 374.71,273.51 374.67,271.59 C372.91,271.36 369.30,273.23 366.92,274.91 C361.87,278.50 353.91,286.99 348.82,293.80 C347.06,296.20 344.48,299.75 343.67,300.90" fill="none" stroke="rgb(204, 170, 254)" stroke-width="53.67" stroke-opacity="1.00" stroke-linejoin="round"/>
<path d="M338.36,426.84 C351.47,426.02 361.70,422.01 362.74,421.40 C362.74,421.40 362.05,421.26 362.05,421.26" fill="none" stroke="rgb(204, 170, 254)" stroke-width="6.77" stroke-opacity="1.00" stroke-linejoin="round"/>
<path d="M343.78,427.46 C349.00,426.43 363.04,421.83 365.46,420.96 C367.10,420.37 368.98,419.65 369.75,419.32" fill="none" stroke="rgb(204, 170, 254)" stroke-width="6.77" stroke-opacity="1.00" stroke-linejoin="round"/>
<path d="M120.94,211.73 C119.79,215.21 115.92,254.51 115.08,267.87 C114.55,280.21 114.70,312.56 114.84,326.07 C114.85,334.75 115.33,345.46 116.19,351.62 C117.33,359.62 119.74,369.59 122.14,374.78 C124.23,379.26 131.99,392.37 136.28,398.18 C139.88,403.04 151.58,414.36 156.86,417.97 C163.26,422.29 174.11,426.82 180.42,429.08 C186.83,431.34 194.52,432.87 204.55,434.44 C214.00,435.79 223.20,437.63 228.23,438.20 C230.76,438.48 248.74,438.50 256.64,438.44 C267.38,438.11 307.43,435.69 314.68,434.76 C329.20,432.94 337.64,431.48 342.69,430.99 C346.87,430.57 360.47,426.96 365.32,424.84" fill="none" stroke="rgb(0, 0, 0)" stroke-width="5.00" stroke-opacity="1.00" stroke-linejoin="round"/>
<path d="M415.41,213.85 C415.41,213.86 415.41,213.89 415.41,213.90 C416.22,218.03 416.85,222.67 417.29,228.12 C418.93,248.19 419.18,262.15 420.27,285.59 C420.38,293.82 420.14,307.77 419.98,314.10 C419.52,321.67 418.29,336.26 417.61,343.90 C417.24,347.93 414.93,360.46 412.46,368.60 C409.16,379.00 406.49,385.60 401.82,393.80 C399.78,397.33 398.19,399.39 395.12,402.57 C388.68,409.09 378.24,417.56 373.76,419.65 C373.28,419.87 372.14,420.34 370.36,421.05" fill="none" stroke="rgb(0, 0, 0)" stroke-width="5.00" stroke-opacity="1.00" stroke-linejoin="round"/>
<path d="M366.80,425.35 C366.80,425.35 366.57,425.34 366.57,425.34 C368.04,424.09 371.68,421.80 372.94,421.01 C373.82,420.45 374.71,419.90 375.59,419.35" fill="none" stroke="rgb(0, 0, 0)" stroke-width="5.00" stroke-opacity="1.00" stroke-linejoin="round"/>
<path d="M121.70,277.49 C120.31,277.14 118.52,276.58 118.51,276.58 C118.45,276.61 120.13,281.36 121.81,283.43 C125.71,288.12 131.26,289.94 131.56,289.98 C131.56,289.98 122.69,280.88 122.69,280.88 C122.69,280.88 132.36,284.23 132.36,284.23 C132.36,284.23 125.93,278.59 125.93,278.59 C125.93,278.58 129.90,281.74 134.62,284.86 C137.75,286.88 141.17,288.45 144.96,289.59 C153.37,292.08 162.16,294.22 162.14,294.22 C159.48,293.13 154.78,292.27 152.33,292.20 C141.68,292.08 131.08,289.74 130.06,289.48 C130.06,289.48 180.77,298.98 180.77,298.98 C176.13,297.79 164.00,297.05 156.76,296.36 C153.40,296.07 137.48,295.25 136.43,295.07 C140.84,295.66 153.42,296.00 160.77,296.15 C166.41,296.23 177.91,298.06 177.91,298.06 C177.91,298.06 160.66,293.71 160.66,293.71 C161.46,293.85 173.03,295.01 182.78,296.83 C196.00,299.21 227.55,302.81 232.54,303.24 C232.54,303.24 180.63,302.23 180.63,302.23 C180.59,302.23 192.41,304.56 201.42,305.44 C209.58,306.04 226.51,307.23 235.27,307.81 C246.25,308.60 259.48,310.46 263.04,310.83 C270.22,311.58 282.38,311.58 288.72,310.99 C296.80,310.21 302.81,308.74 304.51,308.22 C302.62,307.80 261.24,311.82 250.58,311.91 C236.05,312.01 223.57,308.77 221.13,307.80 C221.13,307.80 271.62,306.87 271.62,306.87 C271.79,306.83 257.50,304.20 247.08,303.22 C239.32,302.61 231.09,302.64 227.15,302.77 C232.78,304.23 244.28,305.00 252.38,305.09 C258.00,305.06 294.93,301.83 308.91,300.37 C326.40,298.31 337.32,296.02 346.53,293.59 C337.05,296.65 318.05,300.28 317.47,300.41 C316.91,300.53 315.67,300.82 313.75,301.27 C316.91,301.31 332.40,298.76 339.27,297.57 C349.62,295.57 374.00,287.87 375.99,287.35 C375.62,288.76 364.26,291.89 353.22,294.37 C345.23,296.26 332.01,299.76 326.48,301.29 C326.48,301.29 381.05,294.08 381.05,294.08 C381.05,294.08 350.65,297.49 350.65,297.49 C350.65,297.49 380.80,294.08 380.80,294.08 C366.52,296.24 335.49,300.03 325.34,301.75 C309.82,304.34 300.46,304.39 299.93,304.39 C301.35,305.15 319.15,302.98 326.81,301.99 C341.08,300.01 365.45,294.85 382.89,290.35 C386.66,289.30 393.72,287.28 395.45,286.45 C396.21,286.07 406.98,279.58 407.05,279.54 C407.05,279.54 396.47,284.37 396.47,284.37 C400.34,282.76 404.08,281.06 405.80,280.08 C408.92,278.28 415.93,272.94 415.96,273.01 C415.96,273.01 397.83,283.68 397.83,283.68 C397.83,283.68 415.76,277.12 415.76,277.12 C415.76,277.12 402.63,286.63 402.63,286.63 C402.63,286.63 413.46,282.09 413.46,282.09 C405.45,285.63 398.75,288.10 390.32,290.52 C384.93,291.94 370.80,294.68 363.22,296.09 C359.64,296.69 357.88,296.91 357.59,296.88 C357.49,296.87 357.40,296.81 357.31,296.72" fill="none" stroke="rgb(47, 57, 126)" stroke-width="10.20" stroke-opacity="1.00" stroke-linejoin="round"/>
<path d="M400.30,284.02 C400.27,284.04 400.20,284.05 400.08,284.07 C398.64,284.30 366.09,291.99 363.41,292.76 C363.41,292.76 409.16,281.45 409.16,281.45 C409.16,281.45 373.30,295.55 373.30,295.55 C373.30,295.55 398.31,291.00 398.31,291.00 C398.31,291.00 395.01,292.26 395.01,292.26 C395.01,292.26 404.42,290.20 404.42,290.20 C402.38,289.45 387.76,293.38 379.66,295.37 C366.57,298.32 339.14,303.18 331.83,306.45 C331.36,306.66 330.56,307.05 329.41,307.62" fill="none" stroke="rgb(47, 57, 126)" stroke-width="10.20" stroke-opacity="1.00" stroke-linejoin="round"/>
<path d="M150.35,301.29 C150.03,301.53 149.28,303.36 148.99,304.09 C147.60,307.44 146.73,310.82 146.74,312.93 C146.82,317.44 152.67,334.02 153.61,335.83 C155.16,338.76 158.59,344.05 160.07,345.86 C164.39,351.10 166.90,350.56 167.30,350.31 C167.96,348.95 163.45,336.89 159.76,330.22 C159.02,328.89 154.88,322.17 153.21,320.67 C151.37,319.06 150.14,319.39 149.56,319.70 C148.83,320.98 148.79,325.47 149.62,329.20 C150.30,332.18 153.29,341.06 154.57,344.06 C156.10,347.55 159.37,353.32 161.82,356.51 C164.07,359.39 167.87,362.41 169.74,362.76 C170.58,362.88 171.94,362.54 172.42,362.05 C173.53,360.82 173.61,355.60 172.11,352.30 C170.31,348.40 161.31,335.36 158.02,332.20 C155.72,330.00 152.17,327.70 151.06,327.66 C150.52,327.68 149.61,328.35 149.31,329.04 C148.61,330.81 149.44,336.01 150.37,338.48 C152.12,342.96 158.77,352.63 162.40,356.40 C164.79,358.86 168.02,361.55 170.05,362.89 C171.69,363.94 176.58,365.63 178.39,365.21 C179.24,364.96 180.57,363.41 180.92,362.24 C181.91,358.70 180.39,348.34 178.68,341.55 C176.83,334.43 172.01,318.27 170.99,315.51 C168.47,308.83 166.14,307.78 165.27,307.66 C164.33,308.07 163.29,309.11 162.81,310.58 C161.89,313.46 161.79,319.94 162.09,322.57 C162.83,328.75 167.63,343.39 170.90,349.31 C172.52,352.21 175.63,356.55 177.55,358.56 C178.93,359.98 182.50,362.59 184.63,362.89 C185.81,363.03 188.09,362.02 188.83,361.00 C190.14,359.11 190.93,354.04 190.95,351.90 C190.95,347.08 188.66,332.26 187.12,325.51 C185.74,319.53 182.25,310.49 179.75,308.00 C178.66,306.97 176.95,305.93 176.02,305.86 C175.07,305.84 173.33,307.01 172.70,308.24 C171.49,310.71 170.77,317.00 170.84,319.65 C171.03,325.83 174.13,338.69 176.05,344.17 C178.17,350.18 184.63,363.05 188.56,367.44 C190.65,369.73 194.52,372.73 196.56,373.59 C198.46,374.35 201.97,374.52 203.50,373.93 C204.98,373.32 207.43,370.86 208.40,369.03 C210.21,365.52 211.58,355.44 211.34,348.30 C211.07,341.09 209.06,327.23 207.56,322.02 C207.12,320.51 205.12,315.09 203.29,312.15 C202.46,310.85 199.17,308.45 197.75,309.02 C196.14,309.72 194.82,315.40 194.76,318.75 C194.71,323.96 196.88,336.52 198.69,342.88 C200.47,349.09 204.89,360.54 207.35,365.48 C208.67,368.11 212.06,373.56 213.85,375.70 C215.41,377.55 219.15,380.50 220.57,381.04 C222.14,381.61 225.00,381.27 226.25,380.38 C227.53,379.41 229.46,376.18 230.26,373.57 C231.40,369.79 232.58,356.53 232.59,347.89 C232.58,339.30 231.38,326.06 230.40,322.42 C229.58,319.47 228.07,315.68 227.16,314.48 C226.07,313.12 224.15,311.70 223.10,311.66 C221.24,311.65 218.78,314.40 218.07,315.98 C216.35,319.93 215.48,330.57 215.87,335.99 C216.22,340.55 217.97,350.16 219.30,354.78 C220.53,359.05 225.25,370.48 228.64,374.29 C231.30,377.22 235.25,379.27 236.88,379.42 C238.59,379.53 241.80,378.21 243.25,376.82 C244.71,375.37 247.03,371.43 247.91,369.31 C250.00,364.12 252.50,350.42 252.86,342.22 C253.04,338.08 252.90,331.24 252.44,327.48 C251.99,323.91 250.76,319.89 249.89,318.26 C249.46,317.52 248.04,316.17 247.20,315.84 C246.24,315.51 243.88,316.32 242.85,317.41 C240.68,319.77 238.20,327.25 237.67,330.76 C236.98,335.58 237.04,345.20 237.55,349.80 C238.06,354.38 240.12,364.05 241.81,368.69 C243.04,372.07 245.73,376.79 246.94,378.32 C248.50,380.22 251.95,382.49 253.73,382.84 C255.51,383.14 259.20,382.19 260.99,380.94 C262.44,379.90 265.92,376.06 267.29,373.92 C270.48,368.87 274.73,356.83 276.61,350.08 C280.32,336.13 282.07,321.70 281.63,318.29 C281.49,317.35 280.60,315.55 279.87,314.94 C278.32,313.70 273.65,315.40 271.76,317.08 C270.38,318.34 267.03,322.76 265.72,325.15 C263.17,329.86 260.34,339.99 259.69,344.54 C259.07,348.98 258.87,359.79 259.91,365.00 C260.61,368.38 263.33,373.32 265.15,374.71 C266.70,375.82 270.28,376.45 272.19,375.94 C274.37,375.30 278.99,371.95 281.27,369.35 C285.45,364.51 291.77,353.26 294.22,347.87 C296.99,341.75 301.43,328.95 302.33,323.89 C302.81,320.99 302.80,317.60 302.22,315.78 C301.92,314.93 300.51,313.79 299.27,313.35 C298.24,313.02 294.41,314.26 292.25,315.58 C287.67,318.47 280.56,326.95 278.30,330.81 C276.04,334.69 272.72,343.12 271.71,347.49 C270.67,352.10 270.12,362.74 271.63,367.15 C272.48,369.51 275.29,372.68 277.09,373.44 C278.89,374.15 283.09,373.94 285.33,373.03 C287.15,372.27 291.80,369.12 293.80,367.27 C298.41,362.98 306.05,352.34 309.58,346.68 C312.80,341.43 318.21,330.94 319.44,327.17 C320.12,325.05 320.87,320.34 320.04,318.59 C319.49,317.52 317.29,316.99 315.65,317.32 C314.28,317.65 310.29,320.34 308.64,321.94 C304.99,325.52 299.16,333.99 297.01,337.92 C295.35,340.98 291.07,350.67 289.55,356.50 C288.97,358.78 288.68,362.92 289.05,364.73 C289.27,365.68 290.56,367.09 291.75,367.72 C292.69,368.19 296.58,367.37 298.85,366.07 C302.32,364.02 309.69,356.21 314.47,350.21 C316.57,347.54 329.75,328.75 331.41,326.23 C335.35,320.22 338.07,314.23 338.15,312.19 C337.33,311.59 335.74,311.62 333.83,312.54 C329.01,314.89 320.43,324.45 317.72,328.35 C312.50,335.90 306.57,350.36 305.63,355.26 C305.21,357.57 305.08,361.51 305.66,363.43 C305.95,364.32 307.34,365.39 308.56,365.71 C309.41,365.90 313.43,364.03 316.30,361.34 C319.64,358.15 328.22,345.63 331.76,339.71 C337.98,329.07 342.84,319.18 342.62,317.03 C340.19,317.72 338.90,318.31 337.94,319.34 C333.67,323.92 326.13,335.55 322.72,343.00 C320.64,347.59 318.47,355.00 318.77,357.27 C319.62,357.74 320.87,357.48 322.66,356.34 C325.37,354.59 333.18,344.37 338.60,335.89 C350.91,316.01 353.41,310.55 353.47,309.27 C352.13,309.27 350.92,309.83 349.79,311.33 C346.76,315.40 342.87,326.51 341.97,332.25 C341.73,333.74 341.61,335.92 341.52,338.70 C341.52,338.70 341.25,334.35 341.25,334.35" fill="none" stroke="rgb(47, 57, 126)" stroke-width="24.90" stroke-opacity="1.00" stroke-linejoin="round"/>
<path d="M363.78,303.25 C363.53,306.20 358.70,319.55 356.05,325.18 C351.25,335.08 337.89,356.29 337.02,357.33 C336.89,357.49 336.61,357.79 336.19,358.23" fill="none" stroke="rgb(47, 57, 126)" stroke-width="15.40" stroke-opacity="1.00" stroke-linejoin="round"/>
<path d="M167.79,369.60 C168.06,370.84 171.53,373.15 174.96,374.60 C177.54,375.66 192.60,380.23 195.78,381.95 C197.68,382.99 201.07,385.41 202.00,386.08 C202.34,386.32 203.00,386.78 203.97,387.45" fill="none" stroke="rgb(47, 57, 126)" stroke-width="15.40" stroke-opacity="1.00" stroke-linejoin="round"/>
<path d="M180.86,377.71 C181.78,379.25 184.49,381.76 188.67,383.82 C192.33,385.58 201.70,387.74 210.40,388.31 C213.72,388.53 220.08,388.98 223.13,389.21 C224.56,389.33 227.72,389.46 229.18,389.44 C229.64,389.43 230.07,389.39 230.48,389.32" fill="none" stroke="rgb(47, 57, 126)" stroke-width="15.40" stroke-opacity="1.00" stroke-linejoin="round"/>
<path d="M197.89,387.73 C202.32,389.34 210.77,391.18 220.11,391.83 C227.95,392.25 244.94,392.72 248.10,392.59 C253.53,392.36 266.16,390.36 268.03,389.78 C268.54,389.63 269.47,389.27 270.81,388.70" fill="none" stroke="rgb(47, 57, 126)" stroke-width="15.40" stroke-opacity="1.00" stroke-linejoin="round"/>
<path d="M232.69,391.86 C232.72,392.85 233.77,394.36 235.57,395.12 C237.94,396.08 244.07,396.89 248.31,396.66 C252.39,396.42 263.80,394.04 270.34,392.16 C285.47,387.78 299.80,380.32 302.08,378.50 C302.35,378.28 302.76,377.88 303.33,377.29" fill="none" stroke="rgb(47, 57, 126)" stroke-width="15.40" stroke-opacity="1.00" stroke-linejoin="round"/>
<path d="M262.88,392.72 C265.95,393.31 275.87,391.75 283.70,389.69 C289.92,388.00 300.75,384.43 305.50,382.29 C309.72,380.39 317.00,375.88 322.89,371.43 C328.67,367.02 333.03,362.92 333.61,362.28 C333.91,361.96 334.65,361.13 335.83,359.79" fill="none" stroke="rgb(47, 57, 126)" stroke-width="15.40" stroke-opacity="1.00" stroke-linejoin="round"/>
<path d="M345.57,348.52 C344.54,351.01 335.23,363.04 323.86,373.19 C318.44,377.98 311.85,382.47 310.83,382.75 C310.68,382.79 310.43,382.81 310.07,382.81" fill="none" stroke="rgb(47, 57, 126)" stroke-width="15.40" stroke-opacity="1.00" stroke-linejoin="round"/>
<path d="M351.32,335.53 C351.55,336.64 350.74,339.94 349.24,342.74 C346.79,347.23 339.42,356.25 334.19,361.13 C324.88,369.77 306.03,381.55 300.67,384.33 C295.39,387.06 289.68,389.28 288.79,389.63" fill="none" stroke="rgb(47, 57, 126)" stroke-width="15.40" stroke-opacity="1.00" stroke-linejoin="round"/>
<path d="M270.17,393.04 C270.65,393.72 273.85,393.96 277.83,393.22 C282.54,392.31 299.79,387.38 302.81,386.28 C308.97,384.03 318.73,379.13 323.08,376.09 C327.18,373.20 334.31,366.01 336.85,361.75 C337.09,361.36 337.56,360.52 338.28,359.24" fill="none" stroke="rgb(47, 57, 126)" stroke-width="15.40" stroke-opacity="1.00" stroke-linejoin="round"/>
<path d="M344.08,349.85 C343.88,350.40 342.84,352.79 342.03,354.52 C339.79,359.23 333.70,367.27 330.16,370.84 C326.11,374.91 317.03,381.91 312.26,384.70 C307.73,387.32 298.44,391.04 295.95,390.76 C295.52,390.71 295.11,390.44 294.94,390.25" fill="none" stroke="rgb(47, 57, 126)" stroke-width="15.40" stroke-opacity="1.00" stroke-linejoin="round"/>
<path d="M336.85,364.40 C336.37,364.83 336.00,365.19 335.73,365.48 C335.28,365.97 328.89,373.61 327.60,374.93 C324.39,378.18 316.78,383.50 311.91,385.82 C307.21,388.03 296.34,391.61 291.10,392.85 C288.06,393.56 284.33,394.12 282.62,394.30" fill="none" stroke="rgb(47, 57, 126)" stroke-width="15.40" stroke-opacity="1.00" stroke-linejoin="round"/>
<path d="M118.56,271.93 C119.91,272.81 120.83,273.33 122.02,273.88 C128.35,276.72 154.93,287.05 158.47,287.64 C165.91,288.87 204.07,295.73 211.49,296.41 C231.94,298.04 254.68,298.56 264.40,298.26 C271.21,297.90 300.27,295.43 304.38,294.93 C317.42,293.08 351.49,288.29 363.54,286.24 C370.46,284.89 382.74,282.41 389.27,280.54 C394.82,278.87 413.44,269.40 414.79,268.87 C414.84,268.85 414.98,268.80 414.94,268.82 C414.93,268.82 414.94,268.82 414.94,268.82" fill="none" stroke="rgb(0, 0, 0)" stroke-width="5.00" stroke-opacity="1.00" stroke-linejoin="round"/>
<path d="M115.67,284.42 C116.68,287.05 122.29,290.52 131.45,295.57 C134.43,297.18 137.42,298.12 141.88,299.10 C153.80,301.67 162.54,302.69 165.88,303.15 C182.34,305.47 200.74,307.77 225.29,310.05 C233.84,310.66 259.80,310.75 278.83,309.46 C289.63,308.60 319.07,307.34 332.91,306.63 C340.86,306.14 383.99,299.15 389.58,297.71 C397.46,295.67 407.99,291.33 413.67,287.77 C414.62,287.16 418.10,284.97 418.46,284.70 C418.79,284.44 419.08,284.09 419.33,283.65 C419.33,283.65 419.28,283.48 419.28,283.48" fill="none" stroke="rgb(0, 0, 0)" stroke-width="5.00" stroke-opacity="1.00" stroke-linejoin="round"/>
<path d="M136.08,297.20 C136.00,299.92 135.84,306.75 135.75,310.86 C135.57,324.01 135.73,328.20 137.91,336.02 C140.12,343.75 144.89,355.79 147.88,359.78 C152.06,365.27 162.20,374.01 167.76,378.16 C174.50,383.16 181.09,386.73 188.00,389.34 C190.55,390.28 203.38,394.91 209.83,396.46 C218.62,398.49 227.43,399.77 232.68,400.37 C245.60,402.06 254.07,402.66 260.06,402.55 C264.85,402.44 280.34,400.56 286.64,399.63 C296.26,398.03 305.06,395.98 313.16,393.00 C318.37,391.05 330.56,383.17 334.81,378.78 C338.47,374.96 345.96,363.45 348.78,358.52 C351.49,353.58 356.84,342.96 359.29,337.76 C361.52,332.84 366.03,322.12 367.20,315.91 C367.80,312.56 367.34,308.70 366.94,308.22 C366.78,308.05 366.37,307.53 366.32,307.45" fill="none" stroke="rgb(0, 0, 0)" stroke-width="5.00" stroke-opacity="1.00" stroke-linejoin="round"/>
<path d="M367.40,302.27 C367.82,305.27 367.99,307.67 367.71,309.17 C367.58,309.92 367.33,310.91 366.97,312.13 C366.88,312.43 366.78,312.73 366.65,313.05" fill="none" stroke="rgb(0, 0, 0)" stroke-width="5.00" stroke-opacity="1.00" stroke-linejoin="round"/>
<path d="M149.88,310.06 C149.58,312.89 149.59,319.39 149.76,321.89 C150.10,326.81 153.20,340.19 155.45,346.06 C157.59,351.59 162.50,358.71 166.32,362.57 C169.95,366.19 178.12,372.32 184.57,374.95 C190.58,377.33 202.45,380.88 204.81,381.31 C213.54,382.85 218.08,383.23 226.95,384.06 C232.32,384.49 243.36,384.80 252.74,384.14 C260.96,383.49 268.86,382.00 275.88,379.83 C283.35,377.46 292.20,373.12 297.52,369.56 C301.43,366.93 311.35,358.41 313.46,355.76 C317.09,351.13 320.66,343.64 321.72,338.73 C324.18,326.97 323.45,316.82 323.28,316.85 C323.28,316.85 322.93,316.98 322.93,316.98" fill="none" stroke="rgb(0, 0, 0)" stroke-width="5.00" stroke-opacity="1.00" stroke-linejoin="round"/>
<path d="M151.59,309.78 C151.59,309.78 151.61,309.58 151.61,309.58 C154.21,311.89 160.87,315.75 168.69,318.44 C180.19,322.32 187.81,324.59 197.65,325.91 C212.67,327.56 240.74,328.61 253.07,328.31 C264.15,327.89 292.70,324.21 307.69,321.90 C310.55,321.39 318.72,319.47 320.58,318.85 C321.87,318.42 324.07,317.46 324.35,317.26 C324.39,317.23 324.47,317.15 324.57,317.04" fill="none" stroke="rgb(0, 0, 0)" stroke-width="5.00" stroke-opacity="1.00" stroke-linejoin="round"/>
</g>
</svg>
