<?xml version="1.0" encoding="UTF-8" standalone="no"?>
<!DOCTYPE svg PUBLIC "-//W3C//DTD SVG 1.1//EN" "http://www.w3.org/Graphics/SVG/1.1/DTD/svg11.dtd">
<svg width="102.86" height="102.86" viewBox="0.00 0.00 500.00 500.00" xmlns="http://www.w3.org/2000/svg" xmlns:xlink="http://www.w3.org/1999/xlink">
<g stroke-linecap="round" id="레이어_4">
<path d="M261.98,185.36 C261.82,185.51 261.28,187.88 261.36,188.79 C261.39,189.15 261.59,189.50 261.97,189.84 C261.97,189.84 263.12,189.96 263.12,189.96 C264.82,189.02 264.95,186.06 264.62,185.85 C264.62,185.85 261.51,186.84 261.51,186.84 C261.70,186.90 261.87,186.94 262.02,186.96 C262.17,186.97 262.53,186.97 263.08,186.97" fill="none" stroke="rgb(0, 0, 0)" stroke-width="8.00" stroke-opacity="1.00" stroke-linejoin="round"/>
<path d="M302.05,176.50 C302.05,176.50 301.07,176.73 301.07,176.73 C300.54,178.42 300.40,179.42 300.77,179.84 C301.66,180.81 303.89,179.37 303.58,178.21 C303.54,178.07 303.39,177.85 303.13,177.56 C303.13,177.56 301.86,177.41 301.86,177.41 C301.44,177.81 301.15,178.11 301.00,178.29 C300.84,178.47 300.61,178.80 300.28,179.27" fill="none" stroke="rgb(0, 0, 0)" stroke-width="8.00" stroke-opacity="1.00" stroke-linejoin="round"/>
</g>
</svg>
