<?xml version="1.0" encoding="UTF-8" standalone="no"?>
<!DOCTYPE svg PUBLIC "-//W3C//DTD SVG 1.1//EN" "http://www.w3.org/Graphics/SVG/1.1/DTD/svg11.dtd">
<svg width="102.86" height="102.86" viewBox="0.00 0.00 500.00 500.00" xmlns="http://www.w3.org/2000/svg" xmlns:xlink="http://www.w3.org/1999/xlink">
<g stroke-linecap="round" id="레이어_8">
<path d="M244.18,149.78 C244.13,149.73 244.08,149.68 244.04,149.64 C243.20,148.91 241.44,148.47 239.96,148.83 C238.47,149.23 235.82,150.83 234.80,152.00 C233.66,153.34 232.28,156.54 232.11,158.36 C231.97,160.20 232.90,162.50 234.25,163.01 C235.80,163.55 239.64,162.82 241.66,161.60 C243.60,160.38 246.56,157.09 247.37,155.16 C248.14,153.26 248.05,150.03 247.39,149.08 C246.70,148.19 243.69,147.64 241.87,148.40 C240.00,149.23 236.48,153.08 235.55,155.25 C234.83,156.98 234.32,160.43 234.58,161.77 C234.76,162.62 235.72,163.92 236.45,164.31 C238.10,165.13 242.76,164.07 245.35,162.14 C247.85,160.22 251.98,154.83 253.28,152.10 C254.40,149.64 254.35,148.16 254.12,147.45 C253.18,146.56 249.70,146.77 247.35,148.34 C244.90,150.03 241.20,155.54 240.59,158.29 C240.16,160.33 240.66,163.48 241.54,164.36 C242.12,164.89 243.96,165.27 245.02,165.10 C247.22,164.66 252.17,160.91 253.98,158.43 C255.33,156.56 256.78,153.19 256.95,151.70 C257.11,150.08 255.56,148.09 253.88,147.90 C251.87,147.74 247.79,150.04 246.20,152.21 C244.85,154.10 244.00,157.79 244.11,158.84 C244.28,160.01 244.91,161.58 245.56,162.24 C246.19,162.84 247.81,163.44 248.72,163.41 C250.59,163.27 254.42,160.51 256.16,158.20 C256.89,157.20 258.23,154.06 258.19,152.54 C258.13,151.13 256.89,148.99 255.93,148.70 C254.57,148.36 251.45,150.07 250.47,152.01 C249.63,153.72 249.50,157.40 249.79,158.39 C250.16,159.54 251.04,160.99 251.80,161.52 C253.26,162.49 256.99,161.73 258.73,160.24 C260.33,158.82 262.27,155.07 262.53,153.26 C262.71,151.90 262.13,150.39 261.55,149.94 C261.00,149.53 260.06,149.72 259.88,150.26 C259.44,151.66 259.81,152.97 260.03,153.35 C260.03,153.35 260.60,150.61 260.60,150.61 C260.91,150.73 262.19,152.12 262.84,153.53 C263.39,154.81 263.70,160.66 263.27,162.38 C262.82,164.01 260.76,166.68 259.23,167.26 C257.78,167.75 251.11,167.81 248.16,167.53 C244.48,167.17 236.86,164.00 235.93,163.60 C234.10,162.83 231.18,162.81 231.13,162.81 C231.44,164.38 233.21,166.83 234.54,167.88 C236.10,169.03 241.19,170.74 244.52,170.81 C246.80,170.82 252.99,169.85 256.77,169.38 C259.33,169.02 262.66,167.40 263.54,165.93 C264.32,164.54 264.02,158.09 264.56,156.62 C264.62,156.46 264.67,156.35 264.72,156.28 C264.72,156.28 264.21,164.01 264.21,164.01 C264.21,164.01 264.34,156.79 264.34,156.79 C264.03,157.45 263.61,158.51 263.33,159.23 C263.25,159.41 263.16,159.60 263.06,159.82" fill="none" stroke="rgb(255, 255, 255)" stroke-width="8.83" stroke-opacity="1.00" stroke-linejoin="round"/>
<path d="M239.30,144.74 C237.57,144.54 232.61,147.16 230.98,148.94 C229.59,150.53 227.15,155.90 226.70,157.65 C225.71,161.57 226.48,164.71 227.22,165.67 C228.66,167.47 234.48,171.26 236.09,171.95 C238.90,173.12 243.72,174.20 247.48,174.19 C250.49,174.15 257.15,173.44 260.29,172.46 C262.20,171.84 264.70,170.65 265.81,169.78 C267.90,168.06 269.63,163.01 269.76,159.89 C269.81,157.84 268.29,151.53 267.10,149.54 C265.77,147.39 263.12,145.70 259.69,143.84 C256.77,142.29 251.99,141.47 248.13,141.52 C241.28,141.67 237.39,142.95 237.06,143.54 C237.06,143.54 237.51,144.01 237.51,144.01" fill="none" stroke="rgb(0, 0, 0)" stroke-width="5.00" stroke-opacity="1.00" stroke-linejoin="round"/>
<path d="M249.97,137.69 C247.91,137.25 244.00,138.57 242.83,139.85 C241.68,141.15 241.75,143.17 242.24,143.70 C242.89,144.34 245.42,145.04 246.79,145.00 C247.85,144.95 250.31,144.16 250.92,143.13 C251.53,142.04 250.49,138.98 248.86,138.46 C246.62,137.82 243.49,139.84 243.52,140.97 C243.61,141.93 244.78,143.24 245.87,143.60 C246.76,143.88 249.12,143.70 249.83,142.76 C250.60,141.70 249.91,140.48 249.47,140.15 C249.47,140.15 247.21,141.47 247.21,141.47 C247.21,141.47 248.09,142.05 248.09,142.05 C248.09,142.05 248.38,140.89 248.38,140.89 C247.87,140.64 247.20,140.62 246.43,140.89 C246.29,140.94 246.12,141.01 245.94,141.12" fill="none" stroke="rgb(0, 0, 0)" stroke-width="5.00" stroke-opacity="1.00" stroke-linejoin="round"/>
</g>
</svg>
