<?xml version="1.0" encoding="UTF-8" standalone="no"?>
<!DOCTYPE svg PUBLIC "-//W3C//DTD SVG 1.1//EN" "http://www.w3.org/Graphics/SVG/1.1/DTD/svg11.dtd">
<svg width="102.86" height="102.86" viewBox="0.00 0.00 500.00 500.00" xmlns="http://www.w3.org/2000/svg" xmlns:xlink="http://www.w3.org/1999/xlink">
<g stroke-linecap="round" id="레이어_10">
<path d="M226.20,60.09 C226.20,60.09 225.69,60.52 225.69,60.52 C225.85,59.75 228.17,57.57 231.41,55.69 C234.15,54.12 238.06,52.60 243.95,50.46 C247.79,49.07 252.36,47.97 255.48,47.83 C259.31,47.69 267.50,50.12 269.44,50.72 C255.72,49.23 243.56,51.15 242.13,51.50 C244.16,52.27 247.67,52.15 253.99,51.70 C275.21,50.45 282.89,50.25 285.05,50.58 C284.77,50.58 274.12,48.21 266.13,47.64 C264.25,47.51 263.91,47.46 263.93,47.46 C271.17,47.52 277.95,47.99 284.09,48.97 C298.18,51.34 304.36,54.83 304.81,55.18 C304.81,55.18 274.80,50.64 274.80,50.64 C274.80,50.64 309.28,57.35 309.28,57.35 C308.18,56.98 290.74,52.96 286.68,51.57 C276.73,48.07 267.69,45.35 261.42,44.28 C256.19,43.42 255.23,43.10 255.12,42.33 C255.13,41.55 257.78,39.01 261.55,36.31 C264.90,33.96 269.85,31.87 272.91,31.64 C275.44,31.49 279.16,32.38 280.30,33.34 C281.44,34.37 282.44,40.70 282.67,41.62 C282.79,42.10 283.06,42.89 283.47,43.98 C283.14,43.23 281.41,41.05 279.72,39.97 C277.78,38.76 274.07,37.44 271.75,37.17 C269.45,36.91 264.95,37.22 263.22,37.61 C259.83,38.40 257.40,39.93 257.31,40.36 C258.01,41.46 266.33,40.80 275.98,39.54 C279.16,39.09 283.22,38.52 284.09,38.38 C284.09,38.38 285.22,41.59 285.22,41.59 C285.22,41.59 285.34,39.05 285.34,39.05 C285.34,39.05 284.45,44.97 284.45,44.97 C283.32,45.27 276.14,42.01 274.79,41.46 C272.43,40.50 266.18,38.87 263.22,38.84 C258.33,38.83 252.77,42.70 252.30,43.25 C255.84,40.98 264.02,35.99 267.77,35.06 C269.40,34.68 273.63,34.47 276.39,34.97 C278.33,35.33 280.95,37.03 281.88,38.10 C282.59,38.97 283.03,40.49 283.05,44.45 C283.05,44.80 283.05,45.15 283.05,45.49" fill="none" stroke="rgb(47, 57, 126)" stroke-width="8.66" stroke-opacity="1.00" stroke-linejoin="round"/>
<path d="M134.47,210.43 C134.37,210.06 134.52,208.40 134.90,206.30 C136.27,199.69 139.35,184.44 139.97,181.28 C141.19,175.45 144.61,165.07 148.51,152.29 C150.81,144.81 157.10,130.17 158.69,127.27 C162.00,121.28 170.71,111.29 174.82,106.44 C178.07,102.61 181.57,98.91 184.52,96.37 C187.93,93.46 192.49,89.97 197.18,87.57 C199.15,86.58 219.55,77.17 221.54,76.36 C227.11,74.13 240.17,71.57 244.81,70.95 C254.24,69.72 259.78,69.18 268.12,69.18 C279.75,69.30 288.22,69.71 297.11,71.04 C303.85,72.06 315.70,76.39 321.21,79.43 C325.38,81.74 339.46,91.67 340.02,92.14 C344.34,95.82 350.06,101.79 353.54,107.73 C357.11,113.88 365.31,132.38 366.33,134.71 C368.52,139.79 373.01,152.90 373.01,152.87 C373.01,152.87 362.07,118.69 362.07,118.69 C363.81,121.82 368.03,128.61 372.38,138.38 C378.05,151.11 379.41,154.71 382.50,165.24 C383.23,167.74 386.45,181.32 387.27,183.49 C387.28,183.53 386.93,175.35 386.74,173.91 C386.21,169.94 379.85,151.13 379.63,150.04 C379.99,151.76 384.57,164.60 387.57,171.57 C390.32,178.10 392.74,189.03 393.94,193.65 C394.43,196.04 397.01,204.94 397.02,204.92 C396.43,202.51 394.36,194.52 394.28,194.05 C393.97,192.21 393.57,185.21 393.32,182.55 C393.18,181.03 392.05,177.16 392.07,177.26 C393.29,182.62 399.96,198.74 400.78,201.52 C401.01,202.35 401.57,204.60 401.46,204.73 C400.83,205.41 398.84,207.07 398.11,207.48" fill="none" stroke="rgb(204, 170, 254)" stroke-width="30.41" stroke-opacity="1.00" stroke-linejoin="round"/>
<path d="M403.92,211.37 C403.92,211.37 405.13,215.75 405.13,215.75 C402.14,216.10 387.92,214.52 380.48,213.71 C363.82,212.06 334.84,209.32 319.21,208.49 C295.65,207.15 275.77,204.23 260.36,203.33 C256.08,203.08 239.34,203.06 232.76,203.11 C226.26,203.10 206.94,201.71 203.06,201.63 C196.29,201.51 189.73,202.74 181.17,205.01 C173.01,207.12 150.77,210.16 147.60,210.90 C149.88,212.27 159.35,212.95 171.05,213.17 C191.23,213.73 216.77,215.72 231.01,217.01 C247.19,218.12 271.66,218.64 286.30,218.59 C295.47,218.44 326.55,216.52 339.39,216.51 C342.26,216.54 356.24,217.12 364.74,216.64 C373.16,216.18 387.73,217.23 389.91,217.29 C392.71,217.37 401.10,217.27 401.27,217.42 C400.65,218.43 396.74,219.60 393.90,220.19 C387.81,221.42 378.82,222.14 369.19,222.28 C361.89,222.27 346.23,221.91 338.78,221.68 C336.16,221.57 295.26,217.64 281.12,216.36 C267.58,215.10 238.95,211.95 224.47,209.87 C217.97,208.82 200.54,205.70 198.79,205.45 C195.35,204.98 180.58,204.08 169.64,203.98 C163.03,203.96 160.10,203.87 158.94,203.15 C157.84,202.38 160.26,195.54 163.85,186.79 C167.01,179.53 174.14,164.85 177.60,158.18 C180.94,151.92 191.18,136.05 193.54,132.83 C197.96,126.79 208.36,115.36 214.24,110.36 C219.97,105.50 231.31,98.23 235.10,96.33 C241.74,93.09 246.04,92.06 246.80,92.42 C247.24,94.20 240.95,100.44 232.69,107.65 C226.70,112.87 216.30,122.05 210.80,127.47 C203.29,134.98 198.34,140.38 190.43,149.59 C177.34,165.32 175.26,169.47 175.17,169.87 C176.45,169.09 185.90,157.50 189.15,152.90 C197.98,139.77 221.83,103.76 223.74,100.06 C225.54,96.53 227.21,92.62 227.27,90.33 C226.27,88.95 222.51,89.55 219.74,90.70 C216.03,92.32 206.29,100.25 201.29,105.49 C196.56,110.48 186.96,122.30 182.68,128.61 C178.26,135.17 171.42,147.96 169.06,153.87 C166.72,159.79 164.02,171.44 164.50,175.70 C164.80,178.01 166.66,181.14 168.16,181.86 C169.73,182.54 173.74,182.09 176.56,180.83 C179.80,179.35 189.97,171.70 195.84,166.34 C203.35,159.30 226.67,135.84 238.03,124.43 C256.48,106.36 267.85,94.57 270.30,89.44 C270.72,88.54 270.71,87.74 270.38,86.45 C267.90,85.98 263.36,87.51 261.95,88.16 C257.31,90.32 247.84,96.86 243.56,100.59 C237.40,106.03 227.83,116.01 223.82,120.79 C218.80,126.79 209.71,139.54 205.90,145.94 C198.50,158.43 192.87,174.79 192.19,178.69 C191.49,182.94 191.87,188.26 192.93,189.88 C193.48,190.65 194.98,191.63 195.94,191.84 C197.94,192.20 203.31,190.57 207.05,188.38 C210.57,186.28 220.24,178.33 225.38,173.35 C237.39,161.34 255.95,140.88 266.00,129.71 C282.41,111.08 290.76,100.51 292.74,96.09 C293.32,94.78 293.29,93.54 292.81,91.37 C290.75,90.33 289.45,89.96 287.95,90.19 C283.38,90.91 273.03,95.74 268.66,98.52 C262.85,102.23 252.80,110.04 247.23,115.31 C241.70,120.58 231.34,132.46 226.89,138.75 C222.28,145.29 215.25,158.57 213.82,162.59 C211.75,168.52 210.48,177.28 210.96,180.26 C211.29,182.11 212.13,184.60 212.90,185.76 C213.63,186.82 215.55,188.40 216.72,188.89 C219.22,189.86 225.02,189.26 227.67,188.38 C231.96,186.88 240.99,181.89 245.64,178.52 C252.21,173.69 260.69,166.43 266.78,161.00 C272.57,155.56 283.55,144.63 288.94,139.14 C293.70,134.03 304.04,122.63 307.23,118.50 C312.24,111.95 314.98,105.34 315.20,102.85 C315.26,101.70 314.12,99.84 312.84,98.94 C311.76,98.24 306.04,98.85 302.14,100.32 C298.49,101.73 289.08,107.52 284.50,111.27 C280.01,114.95 271.13,123.84 266.60,129.53 C262.10,135.20 254.86,146.79 252.26,152.27 C249.71,157.70 246.36,168.22 245.70,172.95 C245.45,174.85 245.25,180.10 245.74,182.86 C246.03,184.40 247.18,187.19 247.94,188.28 C248.73,189.32 250.74,190.88 251.93,191.38 C254.52,192.38 260.34,191.90 262.95,191.08 C267.18,189.69 275.57,185.15 280.49,181.76 C284.04,179.30 297.35,168.57 302.00,164.47 C307.54,159.44 318.14,149.14 323.40,143.61 C329.21,137.24 337.05,126.83 339.08,122.52 C340.07,120.37 341.06,115.72 340.48,113.85 C339.86,112.05 336.54,110.02 333.87,109.92 C329.49,109.81 318.85,113.88 314.16,116.65 C309.17,119.62 299.15,127.69 294.44,132.60 C289.62,137.66 281.34,148.95 278.28,154.69 C275.24,160.45 271.67,171.51 271.20,176.50 C270.75,181.62 272.58,189.57 274.29,192.20 C275.24,193.61 277.63,195.90 279.05,196.78 C282.05,198.53 288.77,199.50 291.76,199.31 C296.48,198.95 306.01,196.42 311.31,194.13 C316.51,191.88 327.09,185.68 332.17,181.97 C342.05,174.71 352.43,163.24 355.10,159.35 C356.71,156.98 359.52,151.19 360.14,148.14 C360.65,145.37 359.92,140.77 358.72,139.12 C357.44,137.49 353.24,135.80 350.47,135.90 C347.58,136.05 341.32,138.25 337.56,140.49 C334.32,142.44 327.55,148.48 324.77,151.88 C321.98,155.33 317.72,163.00 316.58,166.63 C315.29,170.83 314.47,178.06 314.82,181.63 C315.20,185.14 317.47,191.32 319.28,193.91 C321.09,196.42 325.77,200.23 328.51,201.44 C331.28,202.62 337.48,203.48 340.79,203.14 C344.12,202.76 350.71,200.50 353.77,198.67 C356.76,196.84 361.91,192.12 363.94,189.39 C365.88,186.74 368.46,181.22 369.05,178.55 C369.58,175.97 369.33,171.25 368.61,169.25 C367.87,167.30 365.34,164.34 363.64,163.43 C361.91,162.55 357.77,162.09 355.55,162.57 C353.26,163.09 348.80,165.57 346.82,167.44 C344.85,169.36 341.74,174.17 340.73,176.89 C339.76,179.62 339.01,185.27 339.30,187.99 C339.61,190.66 341.42,195.35 342.84,197.18 C344.26,198.95 347.87,201.26 349.92,201.76 C351.93,202.21 356.01,201.82 357.88,201.03 C359.68,200.24 362.75,197.65 363.96,195.99 C365.09,194.42 366.66,190.75 366.86,189.42 C367.07,187.67 366.84,185.25 366.23,184.14 C365.60,183.10 363.50,181.60 362.09,181.19 C360.62,180.81 357.35,180.86 355.72,181.30 C354.24,181.74 351.17,183.34 349.95,184.32 C349.51,184.67 348.60,185.48 347.21,186.74" fill="none" stroke="rgb(204, 170, 254)" stroke-width="30.41" stroke-opacity="1.00" stroke-linejoin="round"/>
<path d="M381.30,196.72 C381.30,196.72 379.87,200.78 379.87,200.78 C377.48,200.47 371.63,199.23 369.05,198.97 C363.02,198.39 356.89,200.36 356.08,200.73 C355.73,200.88 354.97,201.25 353.82,201.83" fill="none" stroke="rgb(204, 170, 254)" stroke-width="30.41" stroke-opacity="1.00" stroke-linejoin="round"/>
<path d="M119.78,209.57 C119.82,207.69 119.94,206.63 120.41,204.45 C122.10,196.24 125.33,180.53 126.88,173.03 C128.03,167.19 130.07,157.07 132.88,149.27 C135.78,141.43 141.04,130.79 145.03,124.38 C147.41,120.57 157.29,106.18 160.87,102.42 C163.79,99.41 176.94,87.80 183.28,83.30 C191.44,77.68 202.22,71.02 206.44,68.75 C213.31,65.06 223.77,60.99 230.39,59.28 C238.31,57.25 248.37,56.20 256.88,56.01 C264.65,55.91 279.86,55.81 285.76,55.92 C290.55,56.04 303.02,57.58 310.05,59.61 C318.00,61.94 329.63,67.28 334.93,70.30 C340.68,73.59 349.39,80.16 354.58,85.41 C360.03,90.98 369.58,103.44 374.32,109.74 C377.63,114.19 384.65,126.38 386.34,129.55" fill="none" stroke="rgb(0, 0, 0)" stroke-width="5.00" stroke-opacity="1.00" stroke-linejoin="round"/>
<path d="M416.04,212.83 C416.08,212.92 416.11,213.06 416.12,213.24 C416.13,213.42 416.15,213.89 416.18,214.67" fill="none" stroke="rgb(0, 0, 0)" stroke-width="5.00" stroke-opacity="1.00" stroke-linejoin="round"/>
<path d="M381.03,122.30 C384.49,126.67 389.38,135.10 393.29,142.87 C398.82,154.38 408.20,177.35 411.48,189.60 C413.36,197.13 418.35,217.69 418.57,218.77 C418.79,219.84 419.15,222.01 419.32,223.15" fill="none" stroke="rgb(0, 0, 0)" stroke-width="5.00" stroke-opacity="1.00" stroke-linejoin="round"/>
<path d="M220.76,61.10 C220.46,60.10 220.88,58.61 224.18,55.43 C226.03,53.67 229.73,50.82 231.39,49.87 C236.62,46.94 247.84,44.50 255.26,43.91 C264.82,43.03 272.68,43.01 278.62,44.11 C289.35,46.16 299.27,48.32 302.64,49.80 C306.40,51.48 313.74,58.78 313.91,60.46 C313.93,60.67 313.97,61.21 314.00,61.30" fill="none" stroke="rgb(0, 0, 0)" stroke-width="5.00" stroke-opacity="1.00" stroke-linejoin="round"/>
<path d="M249.57,42.65 C249.15,41.97 249.46,40.14 250.98,38.40 C253.11,36.03 259.20,31.90 261.72,30.87 C265.84,29.25 276.40,27.83 280.78,28.41 C281.96,28.58 284.68,30.24 285.90,31.97 C288.13,35.22 288.66,39.97 288.67,40.90 C288.67,41.10 288.69,41.51 288.72,42.12" fill="none" stroke="rgb(0, 0, 0)" stroke-width="5.00" stroke-opacity="1.00" stroke-linejoin="round"/>
</g>
</svg>
