<?xml version="1.0" encoding="UTF-8" standalone="no"?>
<!DOCTYPE svg PUBLIC "-//W3C//DTD SVG 1.1//EN" "http://www.w3.org/Graphics/SVG/1.1/DTD/svg11.dtd">
<svg width="102.86" height="102.86" viewBox="0.00 0.00 500.00 500.00" xmlns="http://www.w3.org/2000/svg" xmlns:xlink="http://www.w3.org/1999/xlink">
<g stroke-linecap="round" id="레이어_9">
<path d="M273.93,393.25 C273.93,393.25 273.72,393.27 273.72,393.27 C281.28,391.69 296.74,386.60 298.37,386.09 C303.65,384.45 318.31,381.54 321.29,382.53 C321.85,382.74 324.40,389.02 324.66,390.38 C325.27,393.63 326.42,415.88 325.96,418.42 C325.63,420.06 323.07,425.82 321.52,426.69 C319.68,427.68 315.05,428.91 310.90,430.45 C308.15,431.47 292.19,433.72 287.90,433.84 C286.01,433.86 284.03,433.62 283.33,433.09 C281.70,431.76 279.02,426.19 278.43,423.96 C276.08,414.76 278.06,398.74 278.34,397.62 C278.34,397.62 276.78,397.39 276.78,397.39 C278.59,396.98 299.90,389.81 303.00,388.90 C312.99,385.98 319.64,386.30 320.25,386.95 C320.25,386.95 320.62,407.73 320.62,407.73 C320.62,407.73 320.04,407.58 320.04,407.58" fill="none" stroke="rgb(148, 201, 254)" stroke-width="8.00" stroke-opacity="1.00" stroke-linejoin="round"/>
<path d="M317.94,396.56 C317.52,396.32 316.01,395.59 315.19,395.30 C313.29,394.66 304.38,394.14 301.90,394.85 C297.62,396.10 288.33,402.70 285.67,405.81 C283.99,407.81 282.32,413.19 282.94,416.05 C283.35,417.80 285.10,421.12 286.20,422.15 C287.42,423.23 289.81,423.45 291.40,422.83 C292.76,422.22 295.48,417.66 296.54,413.50 C297.59,409.27 297.19,401.07 296.76,399.07 C296.30,397.08 294.96,394.87 293.83,394.51 C292.68,394.22 290.00,395.18 288.39,396.41 C285.33,398.86 282.06,404.40 282.06,405.35 C282.06,405.35 277.82,398.45 277.82,398.45 C278.66,403.20 279.40,407.92 280.09,413.10 C280.69,417.67 281.90,422.35 283.62,424.21 C284.50,425.09 286.37,426.05 287.20,425.76 C288.33,425.33 290.18,423.37 291.16,421.67 C294.40,415.88 296.43,408.55 296.67,404.74 C295.19,406.88 290.60,421.73 291.01,424.15 C291.33,425.89 292.34,427.80 293.09,428.08 C293.93,428.33 295.30,428.19 296.09,427.70 C298.91,425.83 306.61,411.48 308.20,406.54 C309.02,403.94 308.76,401.98 308.48,401.95 C307.07,402.51 300.45,414.42 298.53,420.45 C297.40,424.08 297.01,427.56 297.71,428.24 C298.63,428.99 302.11,427.10 304.75,424.07 C307.52,420.84 310.19,416.88 311.93,413.54 C316.02,405.55 314.71,401.34 314.28,401.11 C313.21,400.86 310.92,403.02 309.22,406.88 C308.53,408.47 307.16,413.45 306.95,415.07 C306.52,418.61 307.43,422.17 308.63,423.19 C309.28,423.69 310.67,423.98 311.45,423.73 C313.20,423.10 316.62,418.11 317.92,414.17 C319.02,410.69 319.21,407.78 319.08,405.42 C317.93,408.44 317.45,413.49 317.47,415.65 C317.48,416.90 317.81,418.04 318.55,419.78 C318.55,419.78 320.04,420.06 320.04,420.06 C321.42,419.02 322.67,417.38 323.35,415.43 C324.29,412.69 323.96,410.97 323.77,410.75 C322.72,413.06 321.80,415.40 321.46,416.17 C321.33,416.46 321.11,416.87 320.80,417.42" fill="none" stroke="rgb(148, 201, 254)" stroke-width="13.22" stroke-opacity="1.00" stroke-linejoin="round"/>
<path d="M270.03,396.28 C270.66,401.35 272.68,417.26 273.41,421.33 C274.67,428.19 278.05,436.33 279.43,437.43 C282.17,439.41 295.87,437.66 305.76,436.05 C309.27,435.43 315.57,433.84 319.97,432.48 C325.60,430.69 327.88,429.70 328.49,427.83 C329.57,424.16 329.57,416.38 328.74,404.26 C328.29,396.37 327.68,385.67 327.25,382.76 C327.25,382.76 326.99,383.52 326.99,383.52" fill="none" stroke="rgb(0, 0, 0)" stroke-width="8.00" stroke-opacity="1.00" stroke-linejoin="round"/>
</g>
</svg>
