<?xml version="1.0" encoding="UTF-8" standalone="no"?>
<!DOCTYPE svg PUBLIC "-//W3C//DTD SVG 1.1//EN" "http://www.w3.org/Graphics/SVG/1.1/DTD/svg11.dtd">
<svg width="102.86" height="102.86" viewBox="0.00 0.00 500.00 500.00" xmlns="http://www.w3.org/2000/svg" xmlns:xlink="http://www.w3.org/1999/xlink">
<g stroke-linecap="round" id="레이어_6">
<path d="M173.71,336.00 C173.02,335.81 171.53,335.60 170.88,335.77 C170.01,336.01 168.24,338.09 167.52,339.54 C166.84,341.03 166.79,346.38 167.57,348.93 C167.87,349.81 169.23,352.68 169.86,353.40 C172.67,356.51 174.07,356.46 175.03,356.31 C176.30,354.42 176.91,352.95 177.17,350.79 C178.26,341.40 177.31,337.02 176.70,335.72 C174.77,337.44 173.84,338.92 173.46,341.32 C172.81,345.58 172.48,353.12 172.83,355.92 C173.01,357.23 174.12,359.46 175.03,360.43 C175.50,360.89 177.03,360.50 177.54,359.97 C178.83,358.52 180.57,353.78 181.06,351.57 C181.66,348.86 182.13,344.89 182.17,340.24 C182.16,335.01 180.81,332.25 179.78,331.36 C178.84,331.33 177.14,333.55 175.82,337.01 C174.30,341.10 172.99,347.64 173.03,350.31 C173.10,352.34 174.66,354.85 176.13,355.13 C176.90,355.24 178.66,354.74 179.49,354.10 C181.13,352.80 183.96,347.08 184.70,344.49 C185.01,343.35 186.52,336.25 186.76,333.73 C187.00,330.87 186.23,328.70 185.59,328.21 C183.91,328.81 180.74,334.19 179.57,337.47 C178.48,340.70 178.47,342.64 178.71,344.45 C179.28,345.32 183.50,341.62 186.04,337.91 C189.45,332.79 191.67,325.70 191.78,324.94 C191.70,324.97 189.14,325.01 187.03,326.48 C185.70,327.42 185.04,327.99 184.28,328.81 C184.28,328.81 199.64,319.44 199.64,319.44 C201.87,321.59 204.56,349.38 204.07,351.78 C203.77,353.07 199.59,357.10 197.21,358.88 C191.34,363.21 183.19,367.53 179.85,368.86 C179.45,369.01 179.13,368.87 178.89,368.45 C177.02,364.84 176.61,361.51 176.47,360.53 C176.47,360.53 179.33,368.45 179.33,368.45 C181.10,367.89 183.86,359.05 187.48,345.30 C187.97,343.44 188.80,340.28 189.13,338.99 C189.13,338.99 185.07,364.79 185.07,364.79 C185.07,364.79 194.38,326.68 194.38,326.68 C194.64,335.63 191.10,356.35 190.89,357.59 C190.89,357.59 197.24,325.93 197.24,325.93 C197.24,325.93 196.97,350.54 196.97,350.54 C196.97,350.54 196.72,325.57 196.72,325.57 C197.63,332.19 200.46,351.53 200.41,351.79 C200.13,353.27 198.96,354.36 196.59,355.56 C195.46,356.12 194.60,356.87 194.52,357.29 C194.50,357.45 194.46,357.68 194.39,357.96" fill="none" stroke="rgb(148, 201, 254)" stroke-width="8.00" stroke-opacity="1.00" stroke-linejoin="round"/>
<path d="M200.07,316.11 C199.48,316.10 198.56,316.23 197.36,316.58 C192.07,318.17 179.69,323.81 173.98,327.72 C168.20,331.70 162.60,337.92 161.94,339.99 C161.40,341.80 162.09,346.77 163.33,350.34 C167.40,361.74 176.49,375.10 178.52,376.74 C182.80,375.27 194.58,365.70 195.28,365.09 C195.61,364.80 196.19,364.28 197.01,363.52" fill="none" stroke="rgb(0, 0, 0)" stroke-width="8.00" stroke-opacity="1.00" stroke-linejoin="round"/>
<path d="M196.10,365.02 C198.46,362.90 202.34,359.94 202.78,359.49 C203.86,358.24 205.48,356.41 206.14,355.98 C206.23,355.92 206.27,355.91 206.27,355.94" fill="none" stroke="rgb(0, 0, 0)" stroke-width="8.00" stroke-opacity="1.00" stroke-linejoin="round"/>
</g>
</svg>
