<?xml version="1.0" encoding="UTF-8" standalone="no"?>
<!DOCTYPE svg PUBLIC "-//W3C//DTD SVG 1.1//EN" "http://www.w3.org/Graphics/SVG/1.1/DTD/svg11.dtd">
<svg width="102.86" height="102.86" viewBox="0.00 0.00 500.00 500.00" xmlns="http://www.w3.org/2000/svg" xmlns:xlink="http://www.w3.org/1999/xlink">
<g stroke-linecap="round" id="레이어_2">
<path d="M191.51,421.97 C191.28,421.76 190.40,421.17 189.93,421.05 C188.65,420.74 184.48,423.62 182.67,425.92 C180.67,428.55 178.28,434.25 178.10,436.87 C178.05,437.98 178.35,439.87 178.70,440.51 C179.14,441.20 180.73,442.22 181.89,442.50 C184.69,443.12 190.65,441.38 193.32,439.32 C195.68,437.41 198.15,432.89 198.13,430.53 C198.06,428.38 196.11,424.56 194.76,423.75 C193.04,422.79 188.51,423.23 186.66,424.86 C184.95,426.46 182.87,431.84 182.82,434.84 C182.82,436.44 183.43,439.41 184.05,440.71 C184.70,442.01 186.58,444.07 187.75,444.77 C188.90,445.41 191.49,445.97 192.83,445.86 C195.48,445.58 200.52,442.17 202.23,439.63 C203.88,437.09 204.99,431.51 204.54,429.28 C204.33,428.40 203.60,427.10 203.09,426.71 C202.49,426.32 200.86,426.12 199.87,426.39 C198.70,426.75 196.26,428.35 195.12,429.55 C192.89,431.98 190.34,438.70 190.33,441.66 C190.36,442.96 190.97,444.90 191.56,445.48 C192.23,446.05 194.39,446.53 195.78,446.39 C198.91,445.99 205.34,442.08 208.26,439.04 C210.85,436.27 213.85,430.91 213.91,429.41 C213.91,428.75 213.27,427.68 212.64,427.28 C211.81,426.81 209.50,426.37 208.05,426.49 C204.91,426.80 197.76,430.38 194.64,432.87 C191.77,435.22 188.95,439.63 189.04,441.38 C189.14,442.25 190.23,443.58 191.31,444.08 C193.99,445.22 201.52,444.77 205.41,443.13 C208.79,441.65 213.24,438.00 213.99,436.33 C214.56,434.91 213.41,431.74 211.41,430.49 C208.85,428.96 202.07,428.51 198.79,429.63 C195.89,430.67 191.68,434.13 190.57,436.18 C189.63,437.99 189.81,441.19 191.25,442.31 C193.24,443.75 199.27,444.31 204.05,443.29 C206.44,442.75 220.81,437.36 224.54,435.01 C226.00,434.06 227.90,432.21 228.32,431.31 C228.89,429.98 228.09,429.16 227.83,429.05 C227.63,429.71 223.50,433.16 220.21,434.92 C213.89,438.23 206.93,439.05 205.14,438.81 C205.14,438.81 221.18,426.41 221.18,426.41 C219.72,428.74 211.32,433.53 203.37,437.14 C198.32,439.37 188.65,443.20 187.87,443.94 C188.01,444.87 188.36,445.47 189.19,445.67 C189.86,445.83 191.45,446.04 191.39,446.01 C191.39,446.01 186.93,445.40 186.93,445.40 C186.93,445.40 187.65,447.09 187.65,447.09 C187.65,447.09 184.04,445.43 184.04,445.43 C184.15,445.13 184.47,444.73 184.98,444.34 C185.15,444.21 185.54,443.93 186.14,443.51" fill="none" stroke="rgb(204, 170, 254)" stroke-width="13.70" stroke-opacity="1.00" stroke-linejoin="round"/>
<path d="M173.93,427.56 C173.93,427.56 173.93,427.03 173.93,427.03 C173.67,427.99 173.15,430.48 173.04,431.84 C172.79,435.25 173.95,440.64 174.70,442.71 C175.46,444.75 178.38,449.92 180.67,451.52 C183.11,453.18 188.23,454.38 190.51,454.42 C193.91,454.45 199.29,453.82 202.36,452.83 C210.68,450.01 217.87,446.97 222.94,443.28 C227.31,440.08 228.55,438.81 228.73,438.33 C228.76,438.25 228.76,438.13 228.73,438.00" fill="none" stroke="rgb(0, 0, 0)" stroke-width="5.00" stroke-opacity="1.00" stroke-linejoin="round"/>
<path d="M174.52,437.85 C175.19,437.20 175.82,436.68 177.16,435.71 C178.45,434.78 179.73,433.97 180.33,433.73 C180.53,433.66 180.84,433.58 181.27,433.50" fill="none" stroke="rgb(0, 0, 0)" stroke-width="5.00" stroke-opacity="1.00" stroke-linejoin="round"/>
<path d="M180.77,449.26 C181.49,447.98 184.96,444.24 187.19,442.95 C187.49,442.78 187.98,442.56 188.67,442.28" fill="none" stroke="rgb(0, 0, 0)" stroke-width="5.00" stroke-opacity="1.00" stroke-linejoin="round"/>
<path d="M197.76,444.72 C197.07,446.90 196.64,449.35 196.66,451.25 C196.66,451.59 196.70,451.81 196.79,451.91" fill="none" stroke="rgb(0, 0, 0)" stroke-width="5.00" stroke-opacity="1.00" stroke-linejoin="round"/>
</g>
</svg>
