<?xml version="1.0" encoding="UTF-8" standalone="no"?>
<!DOCTYPE svg PUBLIC "-//W3C//DTD SVG 1.1//EN" "http://www.w3.org/Graphics/SVG/1.1/DTD/svg11.dtd">
<svg width="102.86" height="102.86" viewBox="0.00 0.00 500.00 500.00" xmlns="http://www.w3.org/2000/svg" xmlns:xlink="http://www.w3.org/1999/xlink">
<g stroke-linecap="round" id="레이어_8">
<path d="M215.21,395.11 C215.21,395.11 214.98,394.81 214.98,394.81 C214.87,403.86 216.18,412.91 217.55,418.68 C218.96,424.56 221.40,431.50 221.91,431.64 C223.02,431.43 223.93,431.08 224.40,430.49 C225.47,429.11 225.78,423.95 225.55,420.92 C225.33,418.31 220.01,396.62 220.15,396.66 C220.15,396.66 221.10,396.30 221.10,396.30 C222.77,397.28 223.92,404.70 225.36,416.66 C226.57,425.89 228.01,430.73 228.93,432.71 C230.31,432.70 231.38,432.18 232.33,430.79 C234.11,428.13 235.02,422.78 235.01,419.06 C234.94,414.07 233.14,404.10 231.21,397.99 C231.54,404.98 232.50,422.22 233.46,426.05 C234.24,429.01 235.20,430.55 235.74,430.82 C236.36,430.67 237.20,430.11 237.56,429.12 C240.34,421.24 236.41,397.05 236.51,396.40 C236.71,395.52 238.69,400.00 239.16,404.33 C240.63,417.43 241.86,424.40 242.63,426.45 C243.15,424.56 243.47,417.68 243.35,415.97 C243.19,413.75 241.78,405.40 241.41,402.25 C241.22,400.37 241.30,399.04 241.82,398.65 C242.54,398.15 258.33,394.74 260.97,395.05 C261.06,395.06 261.20,395.12 261.39,395.23 C261.89,396.88 262.84,406.96 262.98,408.84 C263.30,413.28 262.76,418.05 262.13,419.64 C261.44,421.31 260.10,422.99 258.30,424.46 C250.65,430.48 248.75,430.08 248.11,429.76 C247.33,427.47 247.33,421.66 247.67,419.18 C248.25,415.16 251.09,403.59 251.88,399.58 C251.99,401.23 250.46,427.01 250.23,427.60 C249.55,429.31 248.28,430.87 246.88,431.70 C243.26,433.74 238.24,435.21 237.57,435.53 C243.36,434.53 255.91,429.61 257.34,428.73 C258.94,427.71 260.75,422.39 260.92,419.57 C261.01,417.99 261.13,408.56 261.32,406.68 C261.89,400.87 261.97,399.89 262.00,399.20 C261.27,398.27 236.40,397.34 227.49,397.56 C222.58,397.74 221.12,398.28 218.69,399.56" fill="none" stroke="rgb(148, 201, 254)" stroke-width="13.22" stroke-opacity="1.00" stroke-linejoin="round"/>
<path d="M208.06,391.24 C208.00,391.27 207.97,391.34 207.96,391.46 C207.93,393.60 210.69,415.62 211.28,418.84 C212.04,422.99 214.03,429.00 215.25,431.59 C216.70,434.59 220.51,437.69 223.35,438.75 C226.52,439.88 233.57,440.87 237.40,440.83 C245.63,440.64 254.37,438.75 258.17,436.87 C260.50,435.68 263.99,432.91 265.27,431.09 C266.37,429.50 268.57,424.73 269.43,422.02 C270.62,418.13 270.98,412.09 270.52,406.04 C270.36,403.97 270.44,398.21 270.28,394.01" fill="none" stroke="rgb(0, 0, 0)" stroke-width="8.00" stroke-opacity="1.00" stroke-linejoin="round"/>
</g>
</svg>
