<?xml version="1.0" encoding="UTF-8" standalone="no"?>
<!DOCTYPE svg PUBLIC "-//W3C//DTD SVG 1.1//EN" "http://www.w3.org/Graphics/SVG/1.1/DTD/svg11.dtd">
<svg width="102.86" height="102.86" viewBox="0.00 0.00 500.00 500.00" xmlns="http://www.w3.org/2000/svg" xmlns:xlink="http://www.w3.org/1999/xlink">
<g stroke-linecap="round" id="레이어_11">
<path d="M208.63,320.93 C208.63,320.90 208.66,321.95 208.66,322.54 C208.33,328.83 207.95,339.12 208.48,347.27 C209.14,356.03 210.63,370.40 212.08,375.80 C214.58,384.88 218.03,389.07 219.57,390.52 C219.39,387.93 216.92,370.69 215.80,363.15 C214.63,356.27 213.90,345.11 214.91,340.18 C216.02,335.01 219.56,329.66 220.68,328.26 C221.86,331.54 222.03,338.12 222.15,342.07 C222.47,350.24 223.56,367.75 224.44,374.50 C225.88,384.89 227.31,388.86 227.84,390.12 C228.25,386.47 226.17,330.93 226.24,330.49 C226.28,330.23 226.36,330.11 226.49,330.13 C227.25,330.22 227.88,330.52 228.20,331.33 C229.45,334.54 230.97,351.83 231.60,359.33 C233.61,380.20 235.96,387.65 236.15,388.11 C237.38,380.98 237.17,338.55 238.01,332.23 C238.20,330.82 238.38,330.10 238.61,329.59 C239.98,333.07 240.67,340.86 240.85,342.76 C243.42,372.12 244.89,383.62 246.70,388.87 C246.70,388.87 249.39,335.26 249.39,335.26 C249.60,336.18 251.55,354.78 252.46,363.10 C253.65,372.61 255.86,382.18 256.29,382.11 C256.29,382.11 259.89,327.49 259.89,327.49 C263.03,373.45 264.98,387.89 265.79,391.13 C265.79,391.13 269.83,325.09 269.83,325.09 C269.63,332.43 269.24,347.88 269.04,355.98 C268.79,374.92 270.62,386.84 270.82,387.84 C270.90,387.86 271.86,372.70 272.40,365.80 C273.24,356.83 280.41,312.41 280.41,312.44 C280.41,312.44 281.53,389.14 281.53,389.14 C281.53,389.14 289.16,305.45 289.16,305.45 C289.16,305.45 291.14,380.27 291.14,380.27 C291.56,372.92 292.42,359.78 293.77,350.79 C296.27,334.98 300.91,305.15 300.91,299.28 C301.78,305.62 301.94,319.87 301.88,325.14 C300.65,355.78 299.40,387.41 299.37,388.39 C299.52,379.92 299.98,371.84 300.96,361.53 C308.06,304.47 308.58,298.41 308.90,294.41 C310.17,300.53 310.59,307.17 310.79,319.79 C310.86,327.62 310.92,338.52 310.33,347.87 C309.72,356.36 308.54,372.82 308.49,375.38 C310.23,363.53 316.19,330.60 318.66,314.61 C319.72,307.42 320.84,297.22 320.80,293.06 C323.52,299.05 326.39,311.01 326.92,316.53 C327.57,323.64 326.90,337.93 325.62,345.74 C323.54,358.22 314.17,385.82 313.15,386.00 C312.92,385.99 305.51,388.20 303.18,388.65 C292.70,390.65 268.73,386.91 253.61,387.48 C239.11,388.06 223.44,390.44 217.56,392.01 C221.66,393.40 224.92,393.86 228.00,393.93 C232.17,394.02 251.12,393.67 257.37,394.24 C262.13,394.67 281.65,394.72 284.86,394.46 C288.41,394.17 308.58,390.66 309.88,390.11 C312.43,389.00 313.38,387.03 313.51,386.62 C313.56,386.44 313.67,386.02 313.82,385.35" fill="none" stroke="rgb(148, 201, 254)" stroke-width="16.27" stroke-opacity="1.00" stroke-linejoin="round"/>
<path d="M210.24,322.64 C209.81,321.10 209.63,319.74 209.97,318.69 C210.83,316.08 214.51,311.73 216.14,310.24 C219.67,307.09 234.53,300.48 239.82,298.93 C247.82,296.62 289.31,289.56 294.46,289.32 C304.73,288.93 318.68,289.04 321.60,290.34 C322.57,290.80 326.24,294.59 326.72,295.89 C326.31,297.09 323.84,298.91 320.43,299.63 C315.71,300.57 296.89,301.53 295.02,301.72 C290.22,302.22 278.24,306.42 272.42,309.18 C268.80,310.89 251.23,320.18 246.74,321.89 C244.67,322.67 237.47,324.56 235.61,324.68 C234.55,324.75 225.41,324.53 221.69,324.44 C218.01,324.31 214.63,323.41 213.77,323.01 C217.33,322.77 257.65,323.01 260.46,322.87 C266.98,322.53 271.51,321.33 274.40,320.16 C276.55,319.28 280.90,317.09 281.77,316.65 C278.38,318.14 260.87,327.30 254.92,329.28 C252.33,330.12 245.35,331.75 242.32,331.96 C239.23,332.14 233.16,331.04 229.69,329.43 C226.47,327.89 220.80,323.99 219.74,322.74 C218.50,321.20 216.89,315.46 216.46,311.84 C215.93,306.95 215.74,300.21 215.52,299.32 C215.52,299.32 215.37,323.39 215.37,323.39 C215.37,323.39 232.54,298.33 232.54,298.33 C232.54,298.33 230.19,331.51 230.19,331.51 C230.73,330.55 237.63,310.41 239.36,305.98 C240.28,303.62 243.01,297.34 244.52,295.43 C244.52,295.43 241.64,328.57 241.64,328.57 C242.76,324.25 247.15,312.09 250.52,305.19 C252.06,302.08 254.26,299.27 255.03,298.56 C255.71,300.27 254.48,308.15 253.94,311.21 C252.34,319.73 252.29,322.02 252.34,323.64 C259.57,307.67 265.02,298.61 267.55,295.85 C268.41,297.49 267.46,302.34 266.53,306.48 C261.77,326.96 261.37,333.14 261.38,334.09 C261.65,334.09 268.33,318.07 270.35,313.76 C271.99,310.39 275.38,303.55 277.38,300.06 C278.50,298.12 279.29,297.33 280.12,297.04 C280.16,300.05 276.89,314.57 275.44,321.53 C273.70,330.94 273.28,334.92 273.60,335.88 C274.15,334.97 281.26,317.70 283.86,311.80 C285.21,308.81 288.12,303.27 289.43,302.50 C289.43,302.50 286.60,328.02 286.60,328.02 C288.50,324.67 296.20,309.90 300.92,302.76 C302.75,300.04 305.53,297.02 306.50,297.05 C307.05,298.36 306.42,302.29 305.19,307.71 C304.65,310.06 302.25,319.83 302.26,319.88 C307.11,305.52 312.06,295.92 312.87,295.63 C312.87,295.63 312.39,310.87 312.39,310.87 C312.39,310.87 317.20,295.54 317.20,295.54 C318.38,297.72 318.86,299.14 319.02,301.32 C319.17,303.15 319.40,306.19 319.49,307.41 C319.49,307.41 323.43,293.95 323.43,293.95 C323.43,293.95 322.93,307.23 322.93,307.23 C322.93,307.23 322.21,307.23 322.21,307.23 C322.21,307.23 321.76,306.75 321.76,306.75" fill="none" stroke="rgb(148, 201, 254)" stroke-width="16.27" stroke-opacity="1.00" stroke-linejoin="round"/>
<path d="M201.53,318.44 C201.53,318.44 201.58,318.19 201.58,318.19 C199.76,326.62 198.34,335.79 197.97,342.02 C197.61,348.28 198.22,360.59 199.26,366.97 C200.31,373.23 203.57,384.21 206.50,388.99 C208.01,391.42 211.12,395.03 211.88,395.60 C212.31,395.92 213.34,396.57 214.95,397.56" fill="none" stroke="rgb(0, 0, 0)" stroke-width="8.00" stroke-opacity="1.00" stroke-linejoin="round"/>
<path d="M331.80,290.98 C331.73,291.07 331.69,291.25 331.70,291.52 C331.74,293.73 336.59,311.39 337.37,319.27 C337.89,324.80 336.92,339.74 335.95,345.44 C334.68,352.76 329.43,371.40 328.41,374.18 C326.50,379.28 319.86,391.78 316.99,394.75 C316.71,395.04 315.96,395.78 314.75,396.98" fill="none" stroke="rgb(0, 0, 0)" stroke-width="8.00" stroke-opacity="1.00" stroke-linejoin="round"/>
<path d="M216.71,302.41 C216.71,302.41 215.87,301.70 215.87,301.70 C213.74,302.14 210.01,325.68 209.83,326.84 C209.83,326.84 210.22,325.98 210.22,325.98" fill="none" stroke="rgb(148, 201, 254)" stroke-width="16.27" stroke-opacity="1.00" stroke-linejoin="round"/>
<path d="M212.14,315.41 C212.14,315.43 212.12,315.38 212.11,315.36 C211.86,312.96 212.61,308.39 214.23,305.68 C215.56,303.52 220.85,298.77 222.97,298.38 C223.35,298.31 239.00,295.93 248.91,295.82 C253.35,295.80 263.88,295.83 264.74,295.87 C269.19,296.09 272.54,296.64 272.78,296.64" fill="none" stroke="rgb(148, 201, 254)" stroke-width="16.27" stroke-opacity="1.00" stroke-linejoin="round"/>
<path d="M206.84,296.23 C205.46,299.79 203.70,306.23 203.02,309.23 C202.08,313.51 201.19,318.40 200.84,321.17 C200.73,322.09 200.62,323.01 200.51,323.94" fill="none" stroke="rgb(0, 0, 0)" stroke-width="8.00" stroke-opacity="1.00" stroke-linejoin="round"/>
</g>
</svg>
