<?xml version="1.0" encoding="UTF-8" standalone="no"?>
<!DOCTYPE svg PUBLIC "-//W3C//DTD SVG 1.1//EN" "http://www.w3.org/Graphics/SVG/1.1/DTD/svg11.dtd">
<svg width="102.86" height="102.86" viewBox="0.00 0.00 500.00 500.00" xmlns="http://www.w3.org/2000/svg" xmlns:xlink="http://www.w3.org/1999/xlink">
<g stroke-linecap="round" id="레이어_5">
<path d="M189.48,145.87 C189.01,145.41 188.60,144.61 188.32,143.34 C187.76,140.72 187.41,133.86 187.19,131.97 C186.93,129.67 185.83,123.89 185.55,122.08 C187.98,122.11 192.43,123.32 198.50,125.65 C202.34,127.09 206.60,127.33 207.16,127.58 C207.16,127.58 207.41,127.96 207.41,127.96" fill="none" stroke="rgb(0, 0, 0)" stroke-width="8.00" stroke-opacity="1.00" stroke-linejoin="round"/>
<path d="M299.54,120.95 C299.53,120.97 300.23,120.16 300.62,119.63 C302.47,117.17 312.34,100.88 314.27,99.10 C315.29,99.41 317.00,102.27 318.39,106.14 C319.81,110.20 321.67,115.57 322.12,116.87" fill="none" stroke="rgb(0, 0, 0)" stroke-width="8.00" stroke-opacity="1.00" stroke-linejoin="round"/>
</g>
</svg>
