<?xml version="1.0" encoding="UTF-8" standalone="no"?>
<!DOCTYPE svg PUBLIC "-//W3C//DTD SVG 1.1//EN" "http://www.w3.org/Graphics/SVG/1.1/DTD/svg11.dtd">
<svg width="102.86" height="102.86" viewBox="0.00 0.00 500.00 500.00" xmlns="http://www.w3.org/2000/svg" xmlns:xlink="http://www.w3.org/1999/xlink">
<g stroke-linecap="round" id="레이어_3">
<path d="M235.32,126.90 C235.32,126.90 235.70,128.45 235.70,128.45 C235.70,128.45 236.88,127.09 236.88,127.09 C236.88,127.09 235.25,126.78 235.25,126.78 C235.25,126.78 235.42,127.51 235.42,127.51" fill="none" stroke="rgb(0, 0, 0)" stroke-width="5.00" stroke-opacity="1.00" stroke-linejoin="round"/>
<path d="M259.06,126.33 C259.06,126.33 258.99,126.20 258.99,126.20 C258.99,126.20 259.18,128.30 259.18,128.30 C259.18,128.30 260.03,126.95 260.03,126.95 C260.03,126.95 258.26,127.82 258.26,127.82 C258.26,127.82 258.44,128.38 258.44,128.38" fill="none" stroke="rgb(0, 0, 0)" stroke-width="5.00" stroke-opacity="1.00" stroke-linejoin="round"/>
</g>
</svg>
