<?xml version="1.0" encoding="UTF-8" standalone="no"?>
<!DOCTYPE svg PUBLIC "-//W3C//DTD SVG 1.1//EN" "http://www.w3.org/Graphics/SVG/1.1/DTD/svg11.dtd">
<svg width="102.86" height="102.86" viewBox="0.00 0.00 500.00 500.00" xmlns="http://www.w3.org/2000/svg" xmlns:xlink="http://www.w3.org/1999/xlink">
<g stroke-linecap="round" id="레이어_6">
<path d="M298.22,425.49 C297.60,425.42 296.33,425.32 295.58,425.33 C294.34,425.35 292.52,425.91 291.56,426.57 C290.63,427.24 288.86,431.75 288.50,434.77 C288.17,437.66 288.86,442.22 289.80,443.24 C291.00,444.42 295.94,444.88 298.59,443.87 C300.61,443.06 303.42,440.30 303.99,438.53 C304.68,436.29 303.95,431.29 302.92,429.24 C302.15,427.78 300.19,426.28 299.12,426.36 C297.84,426.53 295.21,429.85 294.39,432.71 C293.58,435.70 294.07,441.91 295.24,443.88 C295.87,444.85 297.63,446.11 298.79,446.42 C299.97,446.70 302.52,446.52 303.76,446.06 C306.21,445.09 310.57,440.35 311.58,437.38 C312.53,434.44 312.06,428.69 311.13,427.33 C310.67,426.73 309.31,426.13 308.40,426.15 C307.31,426.23 305.02,427.18 303.95,428.08 C301.75,430.01 299.11,436.61 298.71,440.88 C298.58,442.72 299.43,447.41 300.92,448.54 C301.82,449.17 304.35,449.61 305.82,449.38 C308.65,448.86 313.75,445.41 315.62,443.63 C317.26,442.03 319.79,438.66 320.76,436.94 C321.86,434.95 323.38,429.88 322.82,428.03 C322.48,427.05 320.90,425.67 319.72,425.33 C317.27,424.70 312.15,426.37 310.00,427.72 C308.21,428.88 304.82,431.91 303.36,433.67 C301.64,435.82 299.41,440.44 299.11,442.46 C298.99,443.57 299.20,445.66 299.64,446.68 C300.15,447.79 302.36,449.47 303.84,449.92 C307.04,450.79 313.79,449.27 316.40,447.95 C318.36,446.92 321.80,444.71 324.36,442.32 C325.66,441.08 328.10,436.76 327.83,434.51 C327.66,433.32 326.43,431.21 325.47,430.44 C324.45,429.68 321.98,429.00 320.56,429.13 C317.53,429.47 311.60,433.44 309.83,435.47 C308.47,437.08 306.28,440.59 305.33,444.14 C304.90,445.87 305.59,451.29 307.52,453.02 C308.63,453.95 311.65,454.90 313.33,454.82 C316.19,454.61 321.56,452.33 323.29,451.36 C327.68,448.84 335.48,441.74 338.23,437.33 C339.02,436.04 339.82,433.86 339.78,433.12 C339.70,432.40 338.56,431.19 337.56,430.76 C334.81,429.72 328.79,431.16 326.30,432.72 C324.45,433.93 321.19,436.64 318.93,439.66 C317.90,441.06 316.17,445.93 316.69,447.65 C317.01,448.57 318.52,449.86 319.67,450.20 C320.94,450.53 323.95,450.40 325.58,449.93 C328.77,448.93 335.04,444.10 337.36,440.93 C339.47,437.97 341.31,432.86 341.00,431.58 C340.83,431.02 339.97,430.13 339.36,429.93 C337.65,429.47 332.22,431.98 329.67,434.57 C324.70,439.73 324.94,443.01 325.23,443.61 C326.45,444.28 330.29,443.35 332.91,441.60 C334.94,440.21 340.03,435.59 341.25,433.50 C341.79,432.59 343.35,429.51 343.81,429.12 C344.94,428.18 346.91,426.94 347.32,426.83 C346.75,427.82 343.46,431.96 342.41,433.17 C339.01,437.04 328.43,443.28 319.52,447.25 C317.10,448.30 312.71,448.73 309.41,447.81 C307.44,447.24 299.92,443.59 298.78,443.44 C298.57,443.42 298.29,443.45 297.94,443.53 C296.41,445.33 297.86,448.44 297.86,448.44 C297.86,448.44 296.94,447.88 296.94,447.88 C301.23,447.32 329.57,438.33 334.19,436.01 C338.12,434.02 344.12,428.76 346.38,426.94 C346.38,426.94 343.54,430.76 343.54,430.76 C343.54,430.76 347.84,427.52 347.84,427.52 C347.84,427.52 345.20,432.29 345.20,432.29 C345.20,432.29 344.84,431.87 344.84,431.87" fill="none" stroke="rgb(204, 170, 254)" stroke-width="13.70" stroke-opacity="1.00" stroke-linejoin="round"/>
<path d="M283.55,439.37 C283.53,439.33 283.53,439.44 283.54,439.47 C285.23,444.20 287.41,448.83 289.06,450.51 C290.94,452.36 293.24,453.91 296.00,455.09 C302.21,457.67 305.59,458.82 309.74,458.86 C313.75,458.84 321.31,457.93 324.38,457.10 C327.46,456.23 333.27,453.29 335.96,451.31 C339.69,448.55 344.37,444.52 346.36,442.05 C349.23,438.44 350.99,435.66 351.75,434.22 C351.75,434.22 350.90,433.62 350.90,433.62" fill="none" stroke="rgb(0, 0, 0)" stroke-width="5.00" stroke-opacity="1.00" stroke-linejoin="round"/>
<path d="M354.41,430.38 C354.40,430.64 354.21,431.76 353.94,432.30 C353.65,432.90 353.18,433.59 352.53,434.37 C352.26,434.71 351.70,435.31 350.85,436.18" fill="none" stroke="rgb(0, 0, 0)" stroke-width="5.00" stroke-opacity="1.00" stroke-linejoin="round"/>
<path d="M291.89,449.40 C292.22,448.82 293.00,447.85 293.70,447.31 C294.19,446.92 294.80,446.57 295.50,446.26 C295.85,446.10 296.63,445.81 297.82,445.38" fill="none" stroke="rgb(0, 0, 0)" stroke-width="5.00" stroke-opacity="1.00" stroke-linejoin="round"/>
<path d="M306.28,448.95 C305.27,450.99 304.12,454.26 304.02,455.80 C303.99,456.25 304.11,456.71 304.39,457.18" fill="none" stroke="rgb(0, 0, 0)" stroke-width="5.00" stroke-opacity="1.00" stroke-linejoin="round"/>
<path d="M318.85,449.46 C319.06,451.11 319.67,455.65 319.76,456.23 C319.83,456.60 319.92,456.95 320.03,457.28" fill="none" stroke="rgb(0, 0, 0)" stroke-width="5.00" stroke-opacity="1.00" stroke-linejoin="round"/>
</g>
</svg>
