<?xml version="1.0" encoding="UTF-8" standalone="no"?>
<!DOCTYPE svg PUBLIC "-//W3C//DTD SVG 1.1//EN" "http://www.w3.org/Graphics/SVG/1.1/DTD/svg11.dtd">
<svg width="102.86" height="102.86" viewBox="0.00 0.00 500.00 500.00" xmlns="http://www.w3.org/2000/svg" xmlns:xlink="http://www.w3.org/1999/xlink">
<g stroke-linecap="round" id="레이어_3">
<path d="M319.39,186.72 C318.38,186.13 315.16,184.96 313.09,184.64 C310.19,184.22 305.54,185.04 303.12,186.54 C301.04,187.87 295.99,192.94 294.48,195.18 C292.51,198.19 291.28,204.62 291.68,208.63 C292.10,212.33 294.00,217.96 295.36,219.87 C297.08,222.17 301.18,224.66 305.12,225.19 C306.63,225.38 311.13,224.79 314.49,223.61 C316.70,222.82 321.38,220.16 323.44,218.46 C325.46,216.75 328.74,212.84 329.77,210.72 C330.91,208.31 331.63,203.47 331.48,202.02 C331.13,199.21 329.36,195.57 327.67,193.93 C325.88,192.27 321.46,190.48 318.75,190.54 C315.90,190.65 309.82,192.98 307.05,195.08 C304.11,197.38 299.79,203.54 298.72,207.04 C298.22,208.75 297.85,212.12 297.99,213.64 C298.17,215.18 299.18,217.69 300.01,218.66 C300.83,219.56 303.04,220.74 304.31,220.99 C306.85,221.40 312.35,219.50 314.63,217.50 C316.81,215.52 319.53,210.21 320.00,207.24 C320.41,204.31 319.57,199.66 318.81,197.97 C318.00,196.33 315.38,193.79 313.48,193.65 C311.64,193.59 308.25,196.20 307.23,198.64 C306.16,201.32 306.13,206.40 306.65,208.28 C307.23,210.10 309.52,213.04 311.49,213.47 C313.18,213.78 316.54,212.40 317.81,210.99 C319.03,209.57 320.60,205.83 321.09,203.68 C321.73,200.76 322.76,189.72 323.82,186.08 C326.15,187.35 329.29,190.41 330.70,192.22 C332.24,194.25 333.30,199.10 333.54,201.98 C333.85,206.16 333.54,212.08 332.85,214.73 C332.04,217.68 329.27,222.91 327.10,224.46 C324.68,226.15 320.52,227.63 318.63,227.91 C310.20,229.07 295.27,224.31 295.15,224.43 C295.56,225.55 297.58,228.48 300.05,230.32 C302.19,231.88 308.59,233.38 311.95,233.72 C316.08,234.11 329.81,231.97 332.67,230.69 C334.92,229.65 339.58,224.61 340.62,221.76 C341.64,218.82 343.01,210.22 342.35,206.81 C341.82,204.30 338.28,198.59 335.80,195.74 C333.17,192.75 330.18,191.10 328.95,190.87 C327.06,190.57 322.84,191.57 319.72,193.27 C319.08,193.62 315.89,195.50 314.74,196.17" fill="none" stroke="rgb(226, 242, 253)" stroke-width="17.96" stroke-opacity="1.00" stroke-linejoin="round"/>
<path d="M157.49,178.85 C156.54,178.28 155.70,177.86 155.10,177.75 C153.42,177.49 149.16,179.38 146.04,182.13 C144.73,183.29 141.38,187.31 140.08,189.32 C138.77,191.39 137.17,195.43 136.73,197.41 C136.26,199.60 136.30,204.25 136.81,206.47 C137.30,208.50 139.08,212.74 140.25,214.70 C141.47,216.69 144.16,219.38 145.93,220.31 C147.64,221.18 151.46,221.94 153.35,221.80 C155.25,221.63 159.41,220.20 161.42,219.09 C163.25,218.05 167.11,214.91 169.12,212.26 C170.30,210.68 172.55,205.48 173.00,202.19 C173.25,200.25 172.83,194.07 171.90,190.50 C171.30,188.27 169.34,184.64 167.99,183.28 C166.68,182.01 163.69,180.42 162.06,180.13 C160.36,179.86 156.73,180.42 155.01,181.40 C153.16,182.49 149.66,186.38 148.29,188.95 C146.84,191.74 145.29,197.86 145.31,200.95 C145.38,204.07 147.08,209.62 148.65,211.70 C150.25,213.73 154.71,216.20 157.32,216.59 C159.94,216.93 164.96,215.76 167.21,214.31 C169.46,212.81 172.62,208.57 173.39,206.02 C174.08,203.63 173.74,199.08 172.77,196.85 C171.71,194.49 168.88,191.14 167.48,190.05 C166.03,189.01 162.41,187.70 160.31,188.06 C158.30,188.45 155.15,191.32 154.12,193.76 C153.10,196.29 152.19,203.30 152.52,206.56 C152.91,209.97 155.45,215.12 157.49,216.53 C159.53,217.85 164.44,217.89 166.83,216.71 C169.13,215.50 172.90,211.27 174.14,208.52 C175.33,205.80 176.18,199.88 175.83,197.05 C175.44,194.28 173.21,189.73 171.52,188.18 C169.85,186.70 165.77,185.45 163.83,185.88 C161.74,186.40 157.78,190.03 156.03,193.07 C154.25,196.26 152.15,203.75 151.99,207.56 C151.88,211.35 153.45,217.11 155.24,219.44 C156.04,220.42 159.21,222.40 161.28,222.61 C163.52,222.80 167.77,221.17 169.68,219.38 C171.52,217.60 174.51,212.62 175.44,209.93 C176.27,207.44 176.85,202.29 176.74,199.49 C176.62,196.77 175.71,192.29 174.92,190.36 C174.22,188.70 172.64,186.58 171.62,185.86 C170.41,185.04 167.51,184.41 166.20,184.63 C165.03,184.87 162.60,187.05 161.28,189.25 C159.86,191.66 157.95,197.26 157.57,200.10 C157.21,202.95 157.72,207.70 158.56,209.55 C159.35,211.20 161.87,213.32 163.49,213.71 C165.15,214.06 168.36,212.96 169.87,211.63 C171.36,210.26 173.49,206.48 174.19,203.94 C174.80,201.64 175.23,197.23 175.07,195.90 C174.93,194.82 173.90,192.87 173.15,192.17 C172.33,191.43 170.41,191.05 169.55,191.59 C168.53,192.28 167.23,195.62 167.36,197.44 C167.51,199.15 169.23,201.85 170.63,202.52 C172.02,203.15 174.61,203.02 175.58,202.43 C176.59,201.78 177.81,199.87 177.84,198.49 C177.82,194.87 174.39,189.50 173.58,188.73 C175.58,191.34 178.83,195.31 179.85,197.75 C180.41,199.14 180.67,203.03 180.26,204.64 C179.43,207.64 174.85,213.22 174.05,214.19 C173.85,214.44 173.55,214.78 173.16,215.22" fill="none" stroke="rgb(226, 242, 253)" stroke-width="17.96" stroke-opacity="1.00" stroke-linejoin="round"/>
</g>
</svg>
