<?xml version="1.0" encoding="UTF-8" standalone="no"?>
<!DOCTYPE svg PUBLIC "-//W3C//DTD SVG 1.1//EN" "http://www.w3.org/Graphics/SVG/1.1/DTD/svg11.dtd">
<svg width="102.86" height="102.86" viewBox="0.00 0.00 500.00 500.00" xmlns="http://www.w3.org/2000/svg" xmlns:xlink="http://www.w3.org/1999/xlink">
<g stroke-linecap="round" id="레이어_4">
<path d="M134.47,210.43 C134.37,210.06 134.52,208.40 134.90,206.30 C136.27,199.69 139.35,184.44 139.97,181.28 C141.19,175.45 144.61,165.07 148.51,152.29 C150.81,144.81 157.10,130.17 158.69,127.27 C162.00,121.28 170.71,111.29 174.82,106.44 C178.07,102.61 181.57,98.91 184.52,96.37 C187.93,93.46 192.49,89.97 197.18,87.57 C199.15,86.58 219.55,77.17 221.54,76.36 C227.11,74.13 240.17,71.57 244.81,70.95 C254.24,69.72 259.78,69.18 268.12,69.18 C279.75,69.30 288.22,69.71 297.11,71.04 C303.85,72.06 315.70,76.39 321.21,79.43 C325.38,81.74 339.46,91.67 340.02,92.14 C344.34,95.82 350.06,101.79 353.54,107.73 C357.11,113.88 365.31,132.38 366.33,134.71 C368.52,139.79 373.01,152.90 373.01,152.87 C373.01,152.87 362.07,118.69 362.07,118.69 C363.81,121.82 368.03,128.61 372.38,138.38 C378.05,151.11 379.41,154.71 382.50,165.24 C383.23,167.74 386.45,181.32 387.27,183.49 C387.28,183.53 386.93,175.35 386.74,173.91 C386.21,169.94 379.85,151.13 379.63,150.04 C379.99,151.76 384.57,164.60 387.57,171.57 C390.32,178.10 392.74,189.03 393.94,193.65 C394.43,196.04 397.01,204.94 397.02,204.92 C396.43,202.51 394.36,194.52 394.28,194.05 C393.97,192.21 393.57,185.21 393.32,182.55 C393.18,181.03 392.05,177.16 392.07,177.26 C393.29,182.62 399.96,198.74 400.78,201.52 C401.01,202.35 401.57,204.60 401.46,204.73 C400.83,205.41 398.84,207.07 398.11,207.48" fill="none" stroke="rgb(204, 170, 254)" stroke-width="30.41" stroke-opacity="1.00" stroke-linejoin="round"/>
<path d="M403.92,211.37 C403.92,211.37 405.13,215.75 405.13,215.75 C402.14,216.10 387.92,214.52 380.48,213.71 C363.82,212.06 334.84,209.32 319.21,208.49 C295.65,207.15 275.77,204.23 260.36,203.33 C256.08,203.08 239.34,203.06 232.76,203.11 C226.26,203.10 206.94,201.71 203.06,201.63 C196.29,201.51 189.73,202.74 181.17,205.01 C173.01,207.12 150.77,210.16 147.60,210.90 C149.88,212.27 159.35,212.95 171.05,213.17 C191.23,213.73 216.77,215.72 231.01,217.01 C247.19,218.12 271.66,218.64 286.30,218.59 C295.47,218.44 326.55,216.52 339.39,216.51 C342.26,216.54 356.24,217.12 364.74,216.64 C373.16,216.18 387.73,217.23 389.91,217.29 C392.71,217.37 401.10,217.27 401.27,217.42 C400.65,218.43 396.74,219.60 393.90,220.19 C387.81,221.42 378.82,222.14 369.19,222.28 C361.89,222.27 346.23,221.91 338.78,221.68 C336.16,221.57 295.26,217.64 281.12,216.36 C267.58,215.10 238.95,211.95 224.47,209.87 C217.97,208.82 200.54,205.70 198.79,205.45 C195.35,204.98 180.58,204.08 169.64,203.98 C163.03,203.96 160.10,203.87 158.94,203.15 C157.84,202.38 160.26,195.54 163.85,186.79 C167.01,179.53 174.14,164.85 177.60,158.18 C180.94,151.92 191.18,136.05 193.54,132.83 C197.96,126.79 208.36,115.36 214.24,110.36 C219.97,105.50 231.31,98.23 235.10,96.33 C241.74,93.09 246.04,92.06 246.80,92.42 C247.24,94.20 240.95,100.44 232.69,107.65 C226.70,112.87 216.30,122.05 210.80,127.47 C203.29,134.98 198.34,140.38 190.43,149.59 C177.34,165.32 175.26,169.47 175.17,169.87 C176.45,169.09 185.90,157.50 189.15,152.90 C197.98,139.77 221.83,103.76 223.74,100.06 C225.54,96.53 227.21,92.62 227.27,90.33 C226.27,88.95 222.51,89.55 219.74,90.70 C216.03,92.32 206.29,100.25 201.29,105.49 C196.56,110.48 186.96,122.30 182.68,128.61 C178.26,135.17 171.42,147.96 169.06,153.87 C166.72,159.79 164.02,171.44 164.50,175.70 C164.80,178.01 166.66,181.14 168.16,181.86 C169.73,182.54 173.74,182.09 176.56,180.83 C179.80,179.35 189.97,171.70 195.84,166.34 C203.35,159.30 226.67,135.84 238.03,124.43 C256.48,106.36 267.85,94.57 270.30,89.44 C270.72,88.54 270.71,87.74 270.38,86.45 C267.90,85.98 263.36,87.51 261.95,88.16 C257.31,90.32 247.84,96.86 243.56,100.59 C237.40,106.03 227.83,116.01 223.82,120.79 C218.80,126.79 209.71,139.54 205.90,145.94 C198.50,158.43 192.87,174.79 192.19,178.69 C191.49,182.94 191.87,188.26 192.93,189.88 C193.48,190.65 194.98,191.63 195.94,191.84 C197.94,192.20 203.31,190.57 207.05,188.38 C210.57,186.28 220.24,178.33 225.38,173.35 C237.39,161.34 255.95,140.88 266.00,129.71 C282.41,111.08 290.76,100.51 292.74,96.09 C293.32,94.78 293.29,93.54 292.81,91.37 C290.75,90.33 289.45,89.96 287.95,90.19 C283.38,90.91 273.03,95.74 268.66,98.52 C262.85,102.23 252.80,110.04 247.23,115.31 C241.70,120.58 231.34,132.46 226.89,138.75 C222.28,145.29 215.25,158.57 213.82,162.59 C211.75,168.52 210.48,177.28 210.96,180.26 C211.29,182.11 212.13,184.60 212.90,185.76 C213.63,186.82 215.55,188.40 216.72,188.89 C219.22,189.86 225.02,189.26 227.67,188.38 C231.96,186.88 240.99,181.89 245.64,178.52 C252.21,173.69 260.69,166.43 266.78,161.00 C272.57,155.56 283.55,144.63 288.94,139.14 C293.70,134.03 304.04,122.63 307.23,118.50 C312.24,111.95 314.98,105.34 315.20,102.85 C315.26,101.70 314.12,99.84 312.84,98.94 C311.76,98.24 306.04,98.85 302.14,100.32 C298.49,101.73 289.08,107.52 284.50,111.27 C280.01,114.95 271.13,123.84 266.60,129.53 C262.10,135.20 254.86,146.79 252.26,152.27 C249.71,157.70 246.36,168.22 245.70,172.95 C245.45,174.85 245.25,180.10 245.74,182.86 C246.03,184.40 247.18,187.19 247.94,188.28 C248.73,189.32 250.74,190.88 251.93,191.38 C254.52,192.38 260.34,191.90 262.95,191.08 C267.18,189.69 275.57,185.15 280.49,181.76 C284.04,179.30 297.35,168.57 302.00,164.47 C307.54,159.44 318.14,149.14 323.40,143.61 C329.21,137.24 337.05,126.83 339.08,122.52 C340.07,120.37 341.06,115.72 340.48,113.85 C339.86,112.05 336.54,110.02 333.87,109.92 C329.49,109.81 318.85,113.88 314.16,116.65 C309.17,119.62 299.15,127.69 294.44,132.60 C289.62,137.66 281.34,148.95 278.28,154.69 C275.24,160.45 271.67,171.51 271.20,176.50 C270.75,181.62 272.58,189.57 274.29,192.20 C275.24,193.61 277.63,195.90 279.05,196.78 C282.05,198.53 288.77,199.50 291.76,199.31 C296.48,198.95 306.01,196.42 311.31,194.13 C316.51,191.88 327.09,185.68 332.17,181.97 C342.05,174.71 352.43,163.24 355.10,159.35 C356.71,156.98 359.52,151.19 360.14,148.14 C360.65,145.37 359.92,140.77 358.72,139.12 C357.44,137.49 353.24,135.80 350.47,135.90 C347.58,136.05 341.32,138.25 337.56,140.49 C334.32,142.44 327.55,148.48 324.77,151.88 C321.98,155.33 317.72,163.00 316.58,166.63 C315.29,170.83 314.47,178.06 314.82,181.63 C315.20,185.14 317.47,191.32 319.28,193.91 C321.09,196.42 325.77,200.23 328.51,201.44 C331.28,202.62 337.48,203.48 340.79,203.14 C344.12,202.76 350.71,200.50 353.77,198.67 C356.76,196.84 361.91,192.12 363.94,189.39 C365.88,186.74 368.46,181.22 369.05,178.55 C369.58,175.97 369.33,171.25 368.61,169.25 C367.87,167.30 365.34,164.34 363.64,163.43 C361.91,162.55 357.77,162.09 355.55,162.57 C353.26,163.09 348.80,165.57 346.82,167.44 C344.85,169.36 341.74,174.17 340.73,176.89 C339.76,179.62 339.01,185.27 339.30,187.99 C339.61,190.66 341.42,195.35 342.84,197.18 C344.26,198.95 347.87,201.26 349.92,201.76 C351.93,202.21 356.01,201.82 357.88,201.03 C359.68,200.24 362.75,197.65 363.96,195.99 C365.09,194.42 366.66,190.75 366.86,189.42 C367.07,187.67 366.84,185.25 366.23,184.14 C365.60,183.10 363.50,181.60 362.09,181.19 C360.62,180.81 357.35,180.86 355.72,181.30 C354.24,181.74 351.17,183.34 349.95,184.32 C349.51,184.67 348.60,185.48 347.21,186.74" fill="none" stroke="rgb(204, 170, 254)" stroke-width="30.41" stroke-opacity="1.00" stroke-linejoin="round"/>
<path d="M381.30,196.72 C381.30,196.72 379.87,200.78 379.87,200.78 C377.48,200.47 371.63,199.23 369.05,198.97 C363.02,198.39 356.89,200.36 356.08,200.73 C355.73,200.88 354.97,201.25 353.82,201.83" fill="none" stroke="rgb(204, 170, 254)" stroke-width="30.41" stroke-opacity="1.00" stroke-linejoin="round"/>
<path d="M119.78,209.57 C119.82,207.69 119.94,206.63 120.41,204.45 C122.10,196.24 125.33,180.53 126.88,173.03 C128.03,167.19 130.07,157.07 132.88,149.27 C135.78,141.43 141.04,130.79 145.03,124.38 C147.41,120.57 157.29,106.18 160.87,102.42 C163.79,99.41 176.94,87.80 183.28,83.30 C191.44,77.68 202.22,71.02 206.44,68.75 C213.31,65.06 223.77,60.99 230.39,59.28 C238.31,57.25 248.37,56.20 256.88,56.01 C264.65,55.91 279.86,55.81 285.76,55.92 C290.55,56.04 303.02,57.58 310.05,59.61 C318.00,61.94 329.63,67.28 334.93,70.30 C340.68,73.59 349.39,80.16 354.58,85.41 C360.03,90.98 369.58,103.44 374.32,109.74 C377.63,114.19 384.65,126.38 386.34,129.55" fill="none" stroke="rgb(0, 0, 0)" stroke-width="5.00" stroke-opacity="1.00" stroke-linejoin="round"/>
<path d="M416.04,212.83 C416.08,212.92 416.11,213.06 416.12,213.24 C416.13,213.42 416.15,213.89 416.18,214.67" fill="none" stroke="rgb(0, 0, 0)" stroke-width="5.00" stroke-opacity="1.00" stroke-linejoin="round"/>
<path d="M381.03,122.30 C384.49,126.67 389.38,135.10 393.29,142.87 C398.82,154.38 408.20,177.35 411.48,189.60 C413.36,197.13 418.35,217.69 418.57,218.77 C418.79,219.84 419.15,222.01 419.32,223.15" fill="none" stroke="rgb(0, 0, 0)" stroke-width="5.00" stroke-opacity="1.00" stroke-linejoin="round"/>
<path d="M211.92,64.38 C210.71,65.23 202.90,72.68 192.82,80.93 C183.79,88.37 182.65,90.22 182.68,90.19 C187.28,85.91 196.33,79.54 203.20,75.26 C209.63,71.45 219.68,66.61 224.31,65.47 C228.64,64.42 230.07,64.76 230.26,64.94 C229.59,66.24 225.40,68.42 222.77,69.48 C207.86,75.60 192.32,84.02 192.16,84.21 C200.77,80.24 213.37,76.00 218.47,74.67 C228.75,72.00 257.31,68.18 259.52,68.60 C259.94,69.70 238.28,71.12 234.88,71.44 C222.38,72.67 206.89,76.59 206.41,76.75 C207.20,76.85 225.73,75.66 233.74,75.17 C240.87,74.85 253.51,74.66 264.54,75.10 C271.46,75.52 278.64,76.21 279.02,76.34 C274.65,76.26 261.82,75.47 250.28,75.44 C245.06,75.50 233.55,76.09 232.43,76.15 C237.68,76.68 286.49,76.42 291.39,76.15 C291.97,76.12 292.75,76.06 293.73,75.99 C286.29,75.14 269.61,79.00 261.00,81.26 C262.76,82.32 278.71,80.47 286.08,79.76 C294.60,78.91 304.30,77.03 307.43,76.22 C286.73,81.64 280.74,84.80 280.03,85.34 C282.28,85.73 293.23,83.30 299.16,81.63 C305.10,79.85 317.83,76.12 322.89,74.96 C322.89,74.96 290.91,86.62 290.91,86.62 C290.91,86.62 335.73,69.10 335.73,69.10 C335.02,68.93 300.63,79.21 286.76,83.05 C281.32,84.63 276.02,83.45 275.04,83.36" fill="none" stroke="rgb(102, 102, 102)" stroke-width="9.91" stroke-opacity="1.00" stroke-linejoin="round"/>
<path d="M296.69,44.48 C295.36,42.46 293.68,40.54 291.95,39.22 C289.99,37.74 284.58,35.64 282.17,35.11 C277.52,34.13 266.63,34.65 260.79,36.36 C254.66,38.19 243.19,44.61 238.71,48.69 C236.49,50.74 233.44,54.61 232.46,56.40 C231.70,57.82 230.71,61.93 231.72,63.47 C232.72,64.93 236.66,65.60 238.14,65.48 C240.14,65.29 244.49,63.93 246.29,63.08 C249.07,61.74 254.12,58.21 255.76,56.75 C257.38,55.31 261.43,50.85 263.24,48.20 C264.58,46.20 267.15,40.42 267.02,37.89 C266.86,35.60 264.98,33.06 264.06,32.44 C263.12,31.82 259.60,30.61 255.78,30.44 C251.19,30.26 239.97,33.58 234.98,36.31 C232.20,37.86 227.86,41.02 225.93,42.88 C224.03,44.75 221.64,48.88 221.51,50.35 C221.43,51.80 221.91,53.82 222.66,54.79 C224.00,56.45 228.56,57.77 230.87,57.28 C233.12,56.74 237.77,53.40 240.26,50.69 C242.68,48.00 246.00,42.94 246.60,41.04 C247.05,39.50 246.33,37.58 245.07,37.36 C243.31,37.12 237.84,39.34 234.56,41.69 C230.58,44.58 222.15,53.11 219.87,57.55 C218.88,59.55 218.95,60.67 219.15,61.18 C219.99,61.78 222.61,61.39 224.03,60.17 C225.25,59.09 226.73,56.20 226.81,55.19 C226.87,54.19 226.10,52.40 225.32,52.12 C224.36,51.82 221.26,52.99 220.03,54.21 C218.93,55.33 217.04,58.68 216.83,59.66 C216.66,60.50 217.26,61.72 218.00,61.69 C220.30,61.41 229.89,50.39 234.75,44.70 C237.32,41.70 241.67,37.38 244.32,35.44 C248.32,32.54 260.34,28.68 266.78,27.27 C273.65,25.78 285.27,24.45 292.05,24.44 C296.15,24.44 298.83,24.82 299.88,25.11 C299.36,25.28 287.47,24.46 277.13,24.32 C270.73,24.33 258.20,25.63 253.27,27.02 C247.27,28.74 243.96,30.94 243.98,31.07 C244.02,31.05 247.90,28.67 250.22,27.76 C254.04,26.29 265.68,24.26 270.46,23.94 C273.47,23.75 289.47,23.69 294.30,24.38 C304.14,25.82 317.19,31.38 320.04,33.36 C322.91,35.40 326.07,39.27 327.52,42.06 C328.61,44.20 331.31,50.04 331.29,50.06 C331.29,50.06 315.14,30.81 315.14,30.81 C317.34,30.84 324.47,32.53 326.85,33.51 C328.89,34.38 337.80,41.68 338.62,43.57 C339.75,46.25 340.03,52.50 339.19,54.49 C338.25,56.57 335.00,59.53 332.42,60.47 C327.92,62.02 299.11,61.66 278.27,60.43 C266.13,59.65 264.53,59.42 262.89,59.09 C263.17,58.36 278.90,52.20 285.44,49.68 C297.78,45.22 317.69,39.64 319.67,39.39 C317.79,40.22 301.57,45.72 295.64,47.96 C276.03,55.94 266.20,61.27 264.08,63.31 C264.91,64.49 266.21,65.05 268.66,65.12 C273.61,65.26 309.99,61.87 317.99,61.62 C325.83,61.54 333.78,61.42 333.75,61.41 C332.45,61.30 331.67,61.28 331.33,61.39 C331.26,61.41 331.10,61.48 330.86,61.58" fill="none" stroke="rgb(102, 102, 102)" stroke-width="22.52" stroke-opacity="1.00" stroke-linejoin="round"/>
<path d="M247.02,30.25 C247.01,30.20 246.94,30.29 246.80,30.50 C238.60,43.62 235.27,56.88 235.15,57.86 C236.79,58.85 239.89,58.77 243.33,58.39 C246.93,57.99 253.13,57.28 256.93,57.30 C258.17,57.31 260.49,57.31 261.56,57.30" fill="none" stroke="rgb(255, 255, 255)" stroke-width="6.00" stroke-opacity="1.00" stroke-linejoin="round"/>
<path d="M270.75,41.61 C270.33,41.66 269.95,41.77 269.60,41.96 C267.07,43.35 263.47,48.20 263.00,49.94 C262.74,51.01 262.94,52.80 263.38,53.45 C264.31,54.69 268.06,54.78 269.83,53.62 C271.58,52.41 273.61,48.42 273.71,46.18 C273.76,44.03 272.22,41.04 270.96,40.76 C269.85,40.56 268.64,41.40 268.18,41.83" fill="none" stroke="rgb(255, 255, 255)" stroke-width="6.00" stroke-opacity="1.00" stroke-linejoin="round"/>
<path d="M279.93,42.26 C279.94,42.20 280.02,42.36 280.03,42.42 C280.43,46.06 281.20,52.58 281.62,54.33 C282.15,56.53 282.66,57.60 283.18,57.79 C284.47,56.05 290.07,43.44 291.20,42.42 C291.79,41.90 293.04,41.93 293.32,42.08" fill="none" stroke="rgb(255, 255, 255)" stroke-width="6.00" stroke-opacity="1.00" stroke-linejoin="round"/>
<path d="M302.01,50.98 C302.08,51.10 302.18,51.19 302.30,51.25 C303.80,51.89 308.49,49.23 310.30,47.30 C311.80,45.66 312.99,43.94 312.95,43.39 C312.78,42.24 310.57,40.62 308.63,40.39 C307.50,40.29 305.06,40.68 303.92,41.21 C302.61,41.86 300.37,43.93 299.40,45.42 C298.54,46.80 297.39,49.81 297.22,51.09 C296.99,53.18 298.88,56.22 300.74,57.38 C301.65,57.90 304.72,58.63 306.28,58.59 C306.92,58.57 308.02,58.39 309.56,58.04" fill="none" stroke="rgb(255, 255, 255)" stroke-width="6.00" stroke-opacity="1.00" stroke-linejoin="round"/>
<path d="M204.21,82.49 C204.86,80.20 205.52,78.87 206.81,77.60 C208.89,75.58 212.82,71.95 215.71,70.39 C221.87,67.15 223.39,65.16 223.87,64.14 C223.87,64.14 223.64,63.89 223.64,63.89" fill="none" stroke="rgb(0, 233, 255)" stroke-width="6.00" stroke-opacity="1.00" stroke-linejoin="round"/>
<path d="M226.02,63.65 C225.89,62.55 225.87,61.74 225.96,61.21 C226.06,60.62 226.42,59.57 227.04,58.06 C227.16,57.76 227.29,57.47 227.42,57.19" fill="none" stroke="rgb(0, 233, 255)" stroke-width="6.00" stroke-opacity="1.00" stroke-linejoin="round"/>
<path d="M246.37,19.15 C245.38,18.82 243.66,19.18 242.12,20.21 C240.24,21.48 231.10,34.94 229.67,39.36 C228.40,43.44 228.18,53.75 227.31,55.33 C227.08,55.75 226.48,56.57 225.53,57.78" fill="none" stroke="rgb(0, 233, 255)" stroke-width="6.00" stroke-opacity="1.00" stroke-linejoin="round"/>
<path d="M272.36,84.38 C272.77,81.92 274.43,79.09 276.39,77.42 C278.48,75.68 283.68,73.00 284.59,73.12 C284.71,73.14 284.95,73.15 285.29,73.15" fill="none" stroke="rgb(1, 232, 254)" stroke-width="6.00" stroke-opacity="1.00" stroke-linejoin="round"/>
<path d="M283.31,72.68 C284.52,72.85 285.50,72.66 286.42,71.91 C290.83,68.29 292.20,63.52 292.61,61.29 C292.61,61.29 292.37,61.33 292.37,61.33" fill="none" stroke="rgb(1, 232, 254)" stroke-width="6.00" stroke-opacity="1.00" stroke-linejoin="round"/>
<path d="M296.78,33.22 C296.78,33.22 296.66,33.29 296.66,33.29 C296.17,31.60 296.00,29.92 296.35,28.33 C296.75,26.60 298.21,23.58 299.36,22.19 C301.38,19.82 306.28,17.45 308.98,17.34 C309.88,17.31 310.54,17.37 310.96,17.52 C311.17,17.60 311.39,17.79 311.63,18.10" fill="none" stroke="rgb(1, 232, 254)" stroke-width="6.00" stroke-opacity="1.00" stroke-linejoin="round"/>
<path d="M335.92,30.15 C335.83,30.29 335.74,30.43 335.64,30.57 C332.05,35.96 325.92,47.31 324.64,52.39 C324.10,54.65 324.27,63.55 323.49,66.12 C321.79,71.50 317.25,74.74 316.18,75.28 C315.86,75.43 315.28,75.67 314.45,75.99" fill="none" stroke="rgb(1, 232, 254)" stroke-width="6.00" stroke-opacity="1.00" stroke-linejoin="round"/>
<path d="M315.01,77.84 C312.75,78.54 311.46,78.97 309.21,79.81 C305.35,81.25 297.35,84.25 295.56,85.08 C294.84,85.43 291.14,87.78 290.36,88.29" fill="none" stroke="rgb(1, 232, 254)" stroke-width="6.00" stroke-opacity="1.00" stroke-linejoin="round"/>
<path d="M224.49,77.76 C235.12,72.87 241.24,69.78 242.34,68.88 C242.55,68.71 243.04,68.27 243.81,67.57" fill="none" stroke="rgb(1, 232, 254)" stroke-width="6.00" stroke-opacity="1.00" stroke-linejoin="round"/>
<path d="M247.02,66.33 C247.45,65.60 247.74,65.13 247.91,64.92 C248.10,64.69 248.40,64.44 248.81,64.18 C248.89,64.13 249.00,64.06 249.15,63.98" fill="none" stroke="rgb(1, 232, 254)" stroke-width="6.00" stroke-opacity="1.00" stroke-linejoin="round"/>
<path d="M263.43,28.96 C263.43,28.98 263.43,28.91 263.43,28.89 C263.55,28.02 264.25,26.03 265.11,24.34 C265.87,22.84 269.51,17.97 270.73,16.82 C272.33,15.32 274.41,14.01 275.76,13.61 C276.00,13.54 276.36,13.48 276.84,13.41" fill="none" stroke="rgb(1, 232, 254)" stroke-width="6.00" stroke-opacity="1.00" stroke-linejoin="round"/>
<path d="M260.41,17.18 C260.41,17.19 260.38,17.23 260.37,17.23 C259.66,18.01 258.03,19.70 257.64,20.17 C255.68,22.55 253.78,26.12 253.54,26.67 C253.34,27.13 252.89,28.21 252.21,29.91" fill="none" stroke="rgb(1, 254, 29)" stroke-width="6.00" stroke-opacity="1.00" stroke-linejoin="round"/>
<path d="M254.74,63.30 C254.74,63.35 254.74,63.45 254.75,63.58 C254.91,65.61 255.40,70.74 254.39,72.66 C254.09,73.22 253.48,74.10 252.56,75.31 C252.38,75.54 252.18,75.79 251.95,76.07" fill="none" stroke="rgb(1, 254, 29)" stroke-width="6.00" stroke-opacity="1.00" stroke-linejoin="round"/>
<path d="M221.92,34.27 C222.03,34.36 221.28,37.47 219.72,43.04 C218.80,46.39 217.41,52.45 217.15,54.37 C216.93,56.00 216.69,58.74 216.58,60.45" fill="none" stroke="rgb(1, 254, 29)" stroke-width="6.00" stroke-opacity="1.00" stroke-linejoin="round"/>
<path d="M216.77,63.38 C216.39,63.65 211.23,67.12 208.21,69.42 C203.72,72.89 200.36,75.81 199.00,77.59 C197.05,80.27 195.99,82.83 195.86,84.01 C195.82,84.37 195.90,84.81 196.09,85.32" fill="none" stroke="rgb(1, 254, 29)" stroke-width="6.00" stroke-opacity="1.00" stroke-linejoin="round"/>
<path d="M317.90,22.11 C317.89,22.12 317.84,22.17 317.82,22.18 C316.54,23.08 314.98,24.22 314.28,24.83 C313.54,25.49 312.24,27.04 311.49,28.10 C310.84,29.04 309.47,31.14 308.91,31.99" fill="none" stroke="rgb(1, 254, 29)" stroke-width="6.00" stroke-opacity="1.00" stroke-linejoin="round"/>
<path d="M302.62,72.95 C300.81,74.26 298.16,76.36 294.58,79.31 C292.18,81.25 285.94,85.78 285.34,86.19 C285.07,86.38 284.56,86.72 283.81,87.22" fill="none" stroke="rgb(1, 254, 29)" stroke-width="6.00" stroke-opacity="1.00" stroke-linejoin="round"/>
<path d="M304.06,64.31 C303.45,65.82 302.48,68.09 301.97,69.07 C301.47,70.03 300.02,72.31 299.30,73.27 C299.01,73.65 298.25,74.62 297.04,76.16" fill="none" stroke="rgb(1, 254, 29)" stroke-width="6.00" stroke-opacity="1.00" stroke-linejoin="round"/>
<path d="M274.37,63.65 C273.71,65.18 271.49,69.07 268.66,73.68 C263.55,82.17 263.29,85.50 263.50,85.93 C263.58,86.08 263.80,86.35 264.16,86.75" fill="none" stroke="rgb(1, 254, 29)" stroke-width="6.00" stroke-opacity="1.00" stroke-linejoin="round"/>
<path d="M289.02,15.29 C288.66,15.77 287.69,17.05 287.46,17.39 C286.22,19.18 281.11,27.66 280.35,29.43 C279.58,31.27 278.87,33.88 278.65,35.30" fill="none" stroke="rgb(1, 254, 29)" stroke-width="6.00" stroke-opacity="1.00" stroke-linejoin="round"/>
<path d="M344.78,45.53 C344.66,45.68 343.46,48.08 342.25,50.89 C341.03,53.72 336.93,61.42 336.01,62.68 C334.38,64.85 323.59,75.30 322.49,76.17 C321.74,76.75 321.00,77.33 320.25,77.91" fill="none" stroke="rgb(1, 254, 29)" stroke-width="6.00" stroke-opacity="1.00" stroke-linejoin="round"/>
<path d="M250.40,20.00 C249.36,20.35 247.15,22.95 243.16,28.36 C241.25,30.86 238.71,34.18 238.08,35.00" fill="none" stroke="rgb(254, 50, 1)" stroke-width="6.00" stroke-opacity="1.00" stroke-linejoin="round"/>
<path d="M230.44,68.01 C230.13,68.32 229.47,69.09 227.87,71.00 C226.78,72.32 224.50,75.09 223.32,76.55 C222.95,76.99 222.33,77.72 221.46,78.73" fill="none" stroke="rgb(254, 50, 1)" stroke-width="6.00" stroke-opacity="1.00" stroke-linejoin="round"/>
<path d="M330.09,26.60 C329.98,26.70 329.83,26.86 329.67,27.07 C328.22,28.91 323.94,36.26 323.28,37.54 C322.50,39.06 321.69,40.87 321.09,42.35 C320.97,42.66 320.76,43.17 320.47,43.87" fill="none" stroke="rgb(254, 50, 1)" stroke-width="6.00" stroke-opacity="1.00" stroke-linejoin="round"/>
<path d="M311.39,70.98 C309.34,73.82 307.45,76.05 305.51,77.59 C303.24,79.36 298.35,82.45 295.11,83.83 C293.77,84.39 287.99,86.43 286.94,86.80" fill="none" stroke="rgb(254, 50, 1)" stroke-width="6.00" stroke-opacity="1.00" stroke-linejoin="round"/>
<path d="M266.77,70.90 C266.78,70.90 266.74,70.90 266.73,70.90 C266.01,71.06 264.18,71.83 263.12,72.65 C261.81,73.68 254.84,81.18 254.48,81.60 C254.22,81.91 253.74,82.52 253.04,83.43" fill="none" stroke="rgb(254, 50, 1)" stroke-width="6.00" stroke-opacity="1.00" stroke-linejoin="round"/>
<path d="M264.24,65.16 C265.51,63.59 266.51,62.28 267.11,61.49 C267.25,61.30 267.44,61.07 267.67,60.79" fill="none" stroke="rgb(254, 50, 1)" stroke-width="6.00" stroke-opacity="1.00" stroke-linejoin="round"/>
<path d="M280.41,31.30 C282.02,28.23 286.63,23.85 288.31,22.55 C290.04,21.24 294.67,18.46 295.25,18.26 C295.65,18.12 296.59,17.87 298.07,17.53" fill="none" stroke="rgb(254, 50, 1)" stroke-width="6.00" stroke-opacity="1.00" stroke-linejoin="round"/>
<path d="M280.17,17.07 C280.18,17.06 280.16,17.06 280.09,17.07 C279.54,17.26 277.88,18.14 276.84,18.93 C275.77,19.74 273.53,21.83 272.60,22.81 C270.88,24.66 268.94,27.07 268.41,27.73" fill="none" stroke="rgb(244, 1, 254)" stroke-width="6.00" stroke-opacity="1.00" stroke-linejoin="round"/>
<path d="M220.06,69.53 C219.94,69.77 219.52,70.34 216.18,74.71 C214.88,76.44 213.73,78.40 213.61,79.32 C213.57,79.66 213.60,80.33 213.71,81.34" fill="none" stroke="rgb(244, 1, 254)" stroke-width="6.00" stroke-opacity="1.00" stroke-linejoin="round"/>
<path d="M256.75,79.83 C258.45,77.79 259.63,76.66 261.66,75.24 C264.85,73.00 270.90,67.82 272.51,66.95 C272.92,66.73 273.68,66.39 274.80,65.93" fill="none" stroke="rgb(244, 1, 254)" stroke-width="6.00" stroke-opacity="1.00" stroke-linejoin="round"/>
<path d="M280.89,63.78 C280.87,63.80 282.40,62.91 283.13,62.50 C283.67,62.20 284.47,61.86 284.63,61.81" fill="none" stroke="rgb(244, 1, 254)" stroke-width="6.00" stroke-opacity="1.00" stroke-linejoin="round"/>
<path d="M343.05,43.63 C342.99,43.63 342.66,43.68 342.33,43.80 C340.70,44.47 337.95,47.73 334.41,52.16 C332.05,55.19 330.82,57.98 330.52,60.84 C330.44,61.74 330.42,62.46 330.47,63.00 C330.51,63.45 330.65,64.48 330.90,66.07" fill="none" stroke="rgb(244, 1, 254)" stroke-width="6.00" stroke-opacity="1.00" stroke-linejoin="round"/>
<path d="M344.53,59.26 C344.50,59.88 343.56,61.91 342.58,63.17 C342.04,63.83 338.79,66.45 337.90,67.11 C336.76,67.94 333.98,69.84 332.92,70.56" fill="none" stroke="rgb(244, 1, 254)" stroke-width="6.00" stroke-opacity="1.00" stroke-linejoin="round"/>
<path d="M221.92,41.10 C221.02,44.26 219.49,49.67 219.28,50.45 C218.99,51.60 218.69,52.74 218.40,53.89" fill="none" stroke="rgb(244, 1, 254)" stroke-width="6.00" stroke-opacity="1.00" stroke-linejoin="round"/>
<path d="M204.88,73.17 C204.88,73.17 204.86,73.16 204.86,73.16 C203.67,73.55 200.08,76.17 197.93,78.42 C195.81,80.66 192.54,84.46 191.69,85.46" fill="none" stroke="rgb(244, 1, 254)" stroke-width="6.00" stroke-opacity="1.00" stroke-linejoin="round"/>
<path d="M178.07,98.33 C178.07,98.33 177.93,98.40 177.93,98.40 C175.32,98.32 187.99,90.72 195.15,87.79 C200.77,85.52 212.68,82.25 218.65,81.34 C224.50,80.48 236.74,79.99 241.56,80.44 C249.57,81.21 257.68,83.61 268.71,87.36 C273.03,88.81 278.34,90.07 281.22,90.41 C284.27,90.77 291.65,90.70 294.67,90.26 C301.04,89.31 310.98,85.49 321.43,80.97 C330.32,76.89 337.00,73.22 338.89,71.84 C339.66,71.28 340.58,70.44 340.61,70.35" fill="none" stroke="rgb(0, 0, 0)" stroke-width="5.00" stroke-opacity="1.00" stroke-linejoin="round"/>
<path d="M177.23,95.30 C176.62,94.16 176.90,92.04 178.47,89.62 C181.73,84.73 191.55,74.35 197.37,69.55 C199.40,67.89 204.38,64.29 204.61,64.14 C204.84,63.98 205.20,63.75 205.70,63.43" fill="none" stroke="rgb(0, 0, 0)" stroke-width="5.00" stroke-opacity="1.00" stroke-linejoin="round"/>
<path d="M207.60,61.77 C207.60,61.77 207.46,61.77 207.46,61.77 C206.65,60.93 205.85,57.68 206.74,55.19 C208.60,50.23 217.47,37.71 220.13,34.93 C225.12,29.84 234.24,22.82 240.03,20.00 C246.25,17.01 259.29,13.76 266.31,13.04 C271.56,12.52 282.58,12.47 288.10,12.91 C295.56,13.58 308.96,16.03 315.93,18.20 C322.62,20.31 333.37,25.44 337.54,28.57 C339.45,30.03 343.46,34.17 344.92,36.48 C346.67,39.30 348.62,45.14 349.10,48.39 C349.94,54.54 348.04,61.60 346.85,65.40 C346.62,66.19 346.39,66.98 346.16,67.77" fill="none" stroke="rgb(0, 0, 0)" stroke-width="5.00" stroke-opacity="1.00" stroke-linejoin="round"/>
<path d="M208.93,62.94 C208.92,62.94 208.92,62.96 208.93,62.96 C211.71,64.08 217.09,65.26 219.33,65.61 C224.39,66.39 261.63,69.84 277.34,70.82 C293.45,71.50 324.24,72.12 332.44,71.25 C333.76,71.11 337.77,70.51 338.86,70.24 C340.98,69.72 343.63,68.76 344.69,68.17 C344.88,68.06 345.11,67.90 345.37,67.70" fill="none" stroke="rgb(0, 0, 0)" stroke-width="5.00" stroke-opacity="1.00" stroke-linejoin="round"/>
</g>
</svg>
