<?xml version="1.0" encoding="UTF-8" standalone="no"?>
<!DOCTYPE svg PUBLIC "-//W3C//DTD SVG 1.1//EN" "http://www.w3.org/Graphics/SVG/1.1/DTD/svg11.dtd">
<svg width="102.86" height="102.86" viewBox="0.00 0.00 500.00 500.00" xmlns="http://www.w3.org/2000/svg" xmlns:xlink="http://www.w3.org/1999/xlink">
<g stroke-linecap="round" id="레이어_3">
<path d="M155.73,96.38 C155.73,96.38 155.66,95.10 155.66,95.10 C155.66,95.10 149.25,103.74 149.25,103.74 C149.58,101.11 150.26,99.37 151.88,97.58 C154.25,94.98 158.45,92.69 160.36,92.47 C160.57,92.45 172.16,92.37 176.24,92.34 C187.28,92.32 207.91,86.10 210.69,85.55 C204.33,86.17 186.95,88.84 185.33,89.02 C182.47,89.34 175.86,89.63 174.33,90.02 C172.61,90.48 168.56,92.08 167.54,92.89 C165.75,94.35 163.94,99.28 162.58,101.75 C160.33,105.79 154.55,111.62 152.60,113.16 C152.60,113.16 149.50,103.24 149.50,103.24 C149.27,106.47 147.24,120.45 147.04,130.23 C146.95,135.03 146.56,139.74 145.98,142.60 C145.42,145.23 142.80,152.50 141.82,153.99 C141.15,151.75 141.14,145.01 141.36,142.87 C141.86,138.28 144.69,130.77 145.36,129.09 C145.00,131.20 143.06,137.22 141.82,140.82 C140.40,144.80 137.31,149.56 134.14,152.62 C132.14,154.51 125.08,160.44 123.55,162.57 C122.53,164.05 119.84,170.64 119.60,173.64 C119.39,177.16 121.09,183.86 123.28,188.10 C129.77,199.28 141.26,221.19 142.17,222.97 C143.88,226.34 145.79,232.14 146.23,236.26 C146.62,239.98 147.25,253.58 147.36,255.17 C147.36,255.17 141.04,221.10 141.04,221.10 C141.04,221.10 142.52,256.65 142.52,256.65 C142.52,256.65 142.52,255.56 142.52,255.56" fill="none" stroke="rgb(148, 201, 254)" stroke-width="43.83" stroke-opacity="1.00" stroke-linejoin="round"/>
<path d="M127.05,220.95 C127.05,220.95 126.30,219.68 126.30,219.68 C130.73,228.74 133.45,236.75 135.76,245.30 C136.66,248.72 137.45,255.36 137.71,260.56 C138.02,268.85 136.28,276.69 136.95,278.01 C137.49,279.03 139.55,279.93 140.77,279.82 C141.89,279.68 142.78,279.25 142.88,278.94 C142.88,278.94 140.64,273.96 140.64,273.96 C140.64,273.96 182.87,273.15 182.87,273.15 C182.87,273.15 160.85,280.64 160.85,280.64 C162.55,280.78 167.58,281.11 170.68,280.84 C172.05,280.71 181.86,279.40 185.82,279.20 C192.12,278.99 196.59,279.09 198.92,279.90 C201.71,280.92 204.15,283.35 206.22,285.89 C207.64,287.58 211.21,290.88 212.19,291.78 C212.19,291.78 194.89,285.76 194.89,285.76 C201.17,288.99 214.50,297.44 216.90,298.45 C222.23,300.47 235.83,305.94 239.50,306.00 C242.22,306.00 245.11,305.10 248.00,304.00 C248.00,304.00 223.16,306.34 223.16,306.34 C224.00,308.08 227.84,309.63 230.89,310.16 C233.32,310.56 238.71,310.73 241.91,309.84 C245.84,308.78 253.48,306.55 255.03,305.36 C257.84,303.10 263.41,296.58 265.94,293.87 C265.94,293.87 258.65,301.04 258.65,301.04 C260.33,298.16 272.38,285.97 276.86,282.60 C279.43,280.70 283.59,279.09 286.86,278.47 C287.89,278.29 309.18,273.81 312.92,273.10 C315.51,272.60 327.55,268.11 337.18,265.98 C339.19,265.49 343.35,264.47 344.32,264.04 C346.30,263.12 348.77,261.24 349.13,260.19 C349.69,258.42 349.39,251.29 348.79,248.75 C348.08,245.74 348.01,241.28 348.29,237.03 C348.58,232.91 349.49,226.87 350.56,222.96 C351.74,218.77 354.02,214.69 356.66,211.83 C360.43,207.74 362.09,205.83 363.16,204.03 C366.28,198.61 370.10,186.38 371.25,179.77 C371.60,177.73 372.49,171.06 372.67,168.34 C372.76,165.75 370.07,161.54 367.31,159.54 C365.02,157.96 348.37,148.27 344.84,145.28 C342.16,142.97 337.47,136.73 336.64,135.18 C335.62,133.22 333.95,128.05 333.83,124.91 C333.62,119.14 330.35,104.16 330.42,101.46 C330.09,104.87 330.82,112.81 333.24,122.36 C334.34,126.50 336.61,134.36 338.07,136.96 C339.92,140.17 347.87,147.86 352.49,151.83 C352.49,151.83 344.53,139.55 344.53,139.55 C351.27,147.47 355.47,153.07 355.64,153.91 C355.64,153.92 350.65,172.18 348.77,179.15 C346.37,187.58 341.72,198.46 338.17,205.18 C336.07,209.07 326.95,224.07 322.80,230.55 C312.83,245.56 297.52,262.58 295.67,263.40 C293.77,264.20 290.60,264.69 289.80,264.63 C289.62,264.61 289.42,264.55 289.19,264.46" fill="none" stroke="rgb(148, 201, 254)" stroke-width="33.46" stroke-opacity="1.00" stroke-linejoin="round"/>
<path d="M203.61,79.82 C205.33,80.42 209.61,80.01 215.96,78.45 C220.82,77.19 221.67,76.76 225.72,73.72 C230.55,70.10 233.95,67.87 237.00,66.46 C246.17,62.14 257.59,57.96 262.22,57.00 C264.34,56.57 271.41,56.17 274.24,57.15 C276.31,57.90 281.82,62.02 283.24,64.67 C284.43,66.96 286.20,71.05 288.72,74.02 C290.88,76.54 294.96,80.67 295.86,81.57 C295.18,78.99 291.39,73.67 287.31,69.12 C284.54,66.20 279.84,61.25 279.17,60.19 C282.07,63.94 294.46,78.78 298.04,81.96 C300.97,84.52 304.90,86.87 308.78,88.48 C309.21,88.66 318.14,92.48 318.86,92.77 C320.01,93.24 326.37,95.54 328.01,97.17 C330.07,99.29 331.98,102.84 332.68,105.92 C333.32,108.96 332.99,114.24 332.06,119.59 C331.55,122.36 323.67,138.04 321.03,142.10 C318.23,146.39 289.63,187.98 286.29,194.52 C285.83,195.44 285.09,197.31 284.79,198.23 C284.68,198.59 284.57,198.94 284.46,199.30" fill="none" stroke="rgb(148, 201, 254)" stroke-width="33.46" stroke-opacity="1.00" stroke-linejoin="round"/>
<path d="M276.37,89.50 C274.53,88.72 273.24,88.26 271.67,87.85 C268.54,87.05 263.38,86.50 260.22,86.61 C254.13,86.85 241.26,90.15 235.12,93.00 C229.39,95.68 217.50,103.22 212.46,107.31 C206.22,112.41 197.87,121.20 191.83,128.66 C186.19,135.74 179.31,146.69 176.50,152.19 C173.30,158.49 168.58,171.60 166.95,179.11 C166.27,182.26 165.78,186.16 165.65,188.14 C165.52,190.63 166.29,198.29 167.43,201.03 C168.65,203.84 172.90,208.15 175.85,209.35 C179.03,210.58 186.15,210.68 189.32,209.93 C195.34,208.42 206.48,202.36 212.38,198.08 C217.01,194.70 226.96,185.98 231.65,181.06 C235.69,176.80 244.47,165.36 247.68,159.29 C248.95,156.86 252.14,149.47 252.81,147.23 C253.28,145.64 254.17,141.30 254.07,138.00 C253.97,135.66 253.37,132.85 252.57,131.24 C251.08,128.40 245.76,124.29 242.85,123.21 C239.64,122.06 234.34,121.10 230.43,120.95 C223.33,120.74 209.11,123.89 202.87,126.48 C196.40,129.20 185.19,136.40 179.17,141.53 C173.76,146.18 162.82,160.30 159.98,165.52 C158.42,168.43 155.37,175.53 154.39,178.67 C153.28,182.33 151.98,188.83 151.70,192.36 C151.46,195.73 151.79,202.18 152.36,205.33 C152.93,208.41 154.80,214.18 156.09,216.90 C157.35,219.54 160.49,224.37 162.33,226.54 C165.95,230.77 175.00,237.12 180.21,239.16 C185.45,241.18 197.03,242.82 202.73,242.27 C209.44,241.60 220.82,237.78 226.60,234.77 C232.30,231.78 243.70,222.77 248.65,217.60 C253.58,212.39 262.76,199.53 266.30,192.80 C270.09,185.55 274.98,172.12 276.54,165.23 C278.00,158.71 278.54,146.18 277.57,140.62 C277.09,138.06 274.86,132.36 272.69,129.69 C270.77,127.43 264.98,124.95 261.33,124.79 C259.34,124.73 253.50,125.92 250.62,127.18 C247.39,128.63 241.97,132.38 238.51,135.54 C233.60,140.06 225.63,151.01 221.69,157.93 C220.05,160.87 213.90,174.09 211.86,180.46 C208.45,191.45 205.63,203.33 204.64,211.32 C203.81,218.18 203.61,233.89 204.37,239.73 C204.84,243.10 206.08,248.33 207.10,251.01 C208.10,253.57 210.21,257.04 211.79,258.82 C212.60,259.69 214.96,261.46 216.39,262.15 C219.29,263.52 225.49,263.16 227.95,262.36 C230.19,261.60 234.57,259.15 236.99,257.36 C241.37,254.08 250.27,244.10 255.14,237.24 C259.31,231.33 266.60,218.90 270.33,211.65 C276.52,199.15 289.34,168.32 292.69,157.62 C293.74,154.26 295.42,146.94 295.94,143.49 C296.50,139.64 296.01,132.44 295.68,131.01 C295.19,129.07 294.00,126.42 292.80,124.78 C291.26,122.73 289.42,121.20 287.23,120.16 C284.29,118.83 278.87,118.80 276.24,119.31 C274.16,119.75 269.22,121.69 266.89,122.99 C264.85,124.15 259.34,128.00 256.85,130.30 C251.01,135.78 243.48,145.74 240.18,151.41 C237.28,156.45 232.51,167.27 230.59,173.11 C228.71,178.86 226.15,190.85 225.62,196.41 C225.03,202.79 225.27,213.56 226.68,220.70 C227.35,223.99 229.69,230.15 230.72,232.17 C231.92,234.47 234.95,238.52 236.60,240.04 C238.25,241.53 241.88,243.62 243.80,244.20 C245.76,244.76 249.88,244.91 252.06,244.51 C254.41,244.05 258.26,242.46 261.14,240.88 C264.63,238.94 274.84,229.50 279.95,222.68 C284.86,216.09 291.64,205.29 294.68,199.36 C296.67,195.47 304.09,179.25 306.12,172.99 C308.02,167.00 310.21,154.62 309.68,149.08 C308.90,141.62 306.19,134.25 303.43,127.90 C308.94,133.38 316.93,144.10 320.06,149.43 C322.20,153.12 324.59,158.33 325.50,161.38 C326.32,164.24 326.94,170.19 326.81,172.76 C326.52,177.79 322.93,187.82 319.71,193.88 C315.58,201.61 296.06,228.57 289.55,239.55 C284.95,247.42 279.53,255.62 275.66,258.17 C274.00,259.24 256.70,268.62 253.66,271.01 C253.34,271.27 252.74,271.81 251.87,272.63 C253.78,272.90 258.19,272.02 261.27,270.78 C268.71,267.70 298.84,252.82 312.56,246.14 C322.06,241.29 326.69,237.65 327.67,236.90" fill="none" stroke="rgb(148, 201, 254)" stroke-width="60.99" stroke-opacity="1.00" stroke-linejoin="round"/>
<path d="M330.42,197.88 C328.51,198.35 326.86,200.06 323.61,204.01 C313.82,215.84 300.59,230.88 298.19,233.93 C297.52,234.77 295.04,238.10 294.29,239.10" fill="none" stroke="rgb(148, 201, 254)" stroke-width="60.99" stroke-opacity="1.00" stroke-linejoin="round"/>
<path d="M108.64,145.06 C112.38,142.04 116.25,138.08 117.54,135.55 C119.67,131.24 123.75,115.48 124.41,108.48 C124.80,104.49 126.27,98.11 127.78,93.96 C129.48,89.39 132.22,83.76 134.49,81.30 C135.36,80.39 141.40,74.64 142.76,73.86 C146.19,71.91 162.07,67.37 168.71,66.66 C174.34,66.09 195.48,65.73 197.21,65.51 C199.15,65.26 208.08,62.76 210.43,61.76 C216.06,59.34 233.88,48.44 238.18,46.24 C243.15,43.72 249.66,41.46 253.07,40.49 C259.10,38.81 271.95,38.37 277.46,39.00 C280.80,39.40 286.04,41.36 289.57,43.19 C292.69,44.87 295.45,48.33 298.38,53.18 C300.73,57.18 304.73,62.84 307.19,65.42 C309.96,68.29 316.29,72.23 320.41,74.01 C322.63,74.97 331.46,78.09 333.92,79.22 C336.71,80.53 341.04,83.86 343.74,86.82 C345.97,89.30 348.16,93.57 348.66,97.39 C348.96,99.84 349.32,109.28 349.46,113.05 C349.60,116.13 351.26,121.00 352.70,123.34 C354.32,125.93 358.87,130.24 362.28,132.84 C370.53,139.04 377.57,144.60 383.15,150.81 C385.90,153.91 388.40,158.88 389.29,162.68 C389.84,165.13 390.92,173.42 390.98,176.46 C391.03,179.57 390.26,186.66 389.63,189.19 C387.99,195.64 381.27,208.05 377.35,212.97 C376.27,214.33 371.75,219.70 370.18,222.33 C368.09,225.94 367.33,230.07 367.38,234.63 C367.61,247.23 367.23,257.60 365.74,264.89 C365.32,266.89 362.93,274.39 361.98,275.62 C359.99,278.11 354.16,281.05 350.77,282.39 C346.35,284.08 338.98,285.21 326.04,286.72 C319.04,287.55 305.35,290.25 297.71,293.38 C294.56,294.71 288.72,297.17 287.03,298.93 C286.34,299.66 269.97,318.15 267.23,319.99 C264.77,321.61 256.83,325.92 254.29,326.81 C251.36,327.79 244.92,328.07 241.26,327.39 C238.34,326.82 232.36,325.30 226.44,323.68 C221.41,322.23 216.92,320.51 214.10,318.72 C210.60,316.45 195.11,304.42 191.22,301.92 C188.07,299.92 180.46,296.43 177.38,295.61 C170.44,293.83 140.42,294.28 135.00,293.78 C131.68,293.44 127.46,291.13 125.30,289.25 C122.75,286.95 120.62,282.49 119.38,277.14 C118.44,272.80 118.75,251.75 118.74,248.70 C118.70,244.16 118.16,238.24 117.36,234.71 C116.05,229.15 112.01,217.43 109.25,211.40 C107.68,208.00 98.42,192.00 97.09,187.60 C96.30,184.93 95.20,178.66 95.25,176.81 C95.40,173.00 99.97,156.18 102.20,152.33 C104.29,148.81 111.30,142.00 117.18,138.22 C118.12,137.61 119.05,137.00 119.99,136.39" fill="none" stroke="rgb(0, 0, 0)" stroke-width="7.91" stroke-opacity="1.00" stroke-linejoin="round"/>
<path d="M197.28,42.59 C195.32,42.24 191.30,43.90 189.52,46.06 C186.28,50.12 181.28,64.03 180.43,70.06 C180.25,71.39 179.92,77.32 180.34,80.50 C180.79,83.76 182.95,87.97 184.61,88.99 C185.55,89.51 187.74,89.95 188.81,89.71 C191.02,89.18 194.90,86.00 196.35,84.31 C199.89,80.15 205.62,68.12 207.25,62.13 C207.88,59.76 208.72,54.16 208.33,51.23 C208.14,49.89 207.13,47.43 206.48,46.58 C205.74,45.72 203.63,44.54 202.42,44.48 C199.66,44.41 194.97,46.99 193.35,48.49 C191.48,50.25 188.30,54.92 187.07,57.69 C185.82,60.54 184.27,66.26 183.84,69.98 C183.49,73.21 183.73,77.90 184.39,80.82 C184.81,82.50 186.09,85.03 187.25,86.16 C188.54,87.35 191.82,87.95 193.99,87.65 C195.68,87.36 200.18,84.57 202.46,82.36 C206.76,78.12 214.94,65.60 217.73,59.22 C220.28,53.29 221.90,45.05 221.50,43.27 C221.26,42.40 220.16,40.98 219.38,40.62 C217.44,39.82 212.36,42.10 210.23,43.96 C208.31,45.71 205.21,50.12 204.06,52.75 C202.99,55.27 201.79,60.62 201.68,63.16 C201.60,65.85 202.72,71.26 204.32,72.64 C205.21,73.34 207.68,73.83 208.94,73.45 C211.49,72.61 215.18,68.72 216.27,67.02 C217.49,65.09 219.28,61.02 220.05,58.56 C220.84,55.97 221.67,50.27 221.48,47.53 C221.31,46.04 220.48,43.74 219.42,42.20 C218.22,40.53 215.21,38.44 213.17,37.84 C211.06,37.25 206.11,37.24 204.58,37.22 C205.24,37.50 220.66,38.03 226.46,39.57 C229.47,40.39 235.70,42.65 238.35,43.94 C241.09,45.31 244.60,48.40 246.15,51.32 C247.78,54.50 250.28,61.59 250.52,65.30 C250.60,67.17 250.30,69.47 249.73,70.55 C248.56,72.67 244.64,75.49 242.54,76.48 C238.25,78.45 224.77,81.32 217.95,82.63 C214.03,83.41 207.52,85.33 204.79,86.91 C203.40,87.74 202.48,88.74 201.51,90.28 C202.71,91.57 215.16,84.00 224.54,77.69 C227.40,75.70 232.84,71.89 235.56,69.79 C237.92,67.93 241.96,62.74 242.29,60.68 C242.59,58.43 241.82,55.56 240.38,53.37 C239.86,52.60 235.62,47.18 234.89,44.82 C234.53,43.61 234.00,42.16 233.33,40.54 C233.07,40.23 237.53,39.50 240.33,40.23 C242.56,40.88 245.62,43.58 248.76,47.65 C251.74,51.57 256.23,61.39 256.91,65.94 C257.09,67.31 257.21,71.12 256.92,72.08 C256.01,74.86 251.52,79.24 248.24,81.16 C245.53,82.70 225.03,88.42 222.12,89.58 C220.67,90.16 215.63,93.27 215.00,93.90 C215.29,94.80 216.25,95.32 218.10,95.44 C220.59,95.59 237.16,90.73 245.33,88.24 C251.72,86.25 259.78,83.77 260.30,83.42" fill="none" stroke="rgb(120, 120, 120)" stroke-width="29.39" stroke-opacity="1.00" stroke-linejoin="round"/>
<path d="M265.66,80.32 C265.62,80.32 265.76,80.32 265.80,80.32 C268.72,80.66 282.16,85.59 287.27,89.13 C288.18,89.77 288.58,90.24 288.70,90.57 C283.48,91.48 267.79,91.07 266.68,91.15 C263.43,91.39 257.26,93.13 254.77,93.58 C251.09,94.27 246.75,96.19 243.67,98.52 C240.94,100.62 236.33,105.24 233.66,106.19 C233.10,106.38 228.77,106.68 226.51,106.73 C227.09,107.42 228.40,108.24 229.80,108.56 C233.03,109.26 239.00,107.50 243.36,105.02 C248.54,102.04 261.22,96.46 265.17,95.03 C265.55,94.89 266.04,94.70 266.62,94.46" fill="none" stroke="rgb(120, 120, 120)" stroke-width="12.10" stroke-opacity="1.00" stroke-linejoin="round"/>
<path d="M177.01,92.87 C177.01,92.87 175.65,93.09 175.65,93.09 C176.37,94.80 178.88,97.83 180.91,98.43 C182.59,98.91 185.33,99.40 185.34,99.29 C183.90,98.53 182.73,98.10 180.89,97.73 C179.06,97.37 177.62,97.21 175.50,97.11 C176.46,98.51 178.97,98.69 180.60,98.62 C180.97,98.60 181.61,98.55 182.51,98.47" fill="none" stroke="rgb(120, 120, 120)" stroke-width="12.10" stroke-opacity="1.00" stroke-linejoin="round"/>
<path d="M181.51,45.70 C181.21,51.76 181.93,63.56 183.04,68.68 C183.89,72.40 185.87,76.84 187.77,77.97 C189.69,77.94 192.61,75.05 194.52,72.48 C194.73,72.20 197.09,68.89 197.63,68.18 C198.25,67.38 199.76,65.58 200.31,64.92" fill="none" stroke="rgb(255, 255, 255)" stroke-width="8.00" stroke-opacity="1.00" stroke-linejoin="round"/>
<path d="M208.12,51.54 C207.89,51.33 206.89,51.08 206.19,51.16 C205.23,51.29 203.72,54.94 203.54,58.26 C203.39,61.77 204.64,65.72 206.06,66.42 C206.78,66.73 208.30,66.68 209.07,66.30 C210.70,65.40 212.84,61.03 212.97,58.34 C213.05,55.81 211.57,52.25 210.48,51.98 C209.50,51.80 208.61,52.89 208.24,53.55" fill="none" stroke="rgb(255, 255, 255)" stroke-width="8.00" stroke-opacity="1.00" stroke-linejoin="round"/>
<path d="M222.15,50.29 C222.15,50.29 222.06,50.05 222.06,50.05 C222.93,53.08 224.45,57.23 225.54,59.25 C226.86,61.67 227.92,62.76 228.67,62.65 C229.38,60.04 230.85,48.95 231.57,47.70 C231.73,47.43 232.04,47.14 232.50,46.83" fill="none" stroke="rgb(255, 255, 255)" stroke-width="8.00" stroke-opacity="1.00" stroke-linejoin="round"/>
<path d="M240.82,52.52 C242.96,52.05 245.30,51.18 246.92,50.08 C248.34,49.09 249.94,46.96 249.92,45.98 C249.85,44.80 248.11,43.16 246.57,42.61 C245.30,42.21 242.31,43.64 241.45,45.37 C240.57,47.27 240.36,53.06 241.07,54.87 C241.98,57.03 243.94,59.41 245.22,59.75 C245.80,59.89 246.42,59.87 247.09,59.70 C247.29,59.63 247.57,59.48 247.92,59.24" fill="none" stroke="rgb(255, 255, 255)" stroke-width="8.00" stroke-opacity="1.00" stroke-linejoin="round"/>
<path d="M246.58,61.08 C250.46,59.42 254.64,57.17 255.89,55.83 C256.03,55.67 256.18,55.43 256.31,55.10 C256.31,55.10 256.21,54.71 256.21,54.71" fill="none" stroke="rgb(255, 255, 255)" stroke-width="8.00" stroke-opacity="1.00" stroke-linejoin="round"/>
<path d="M205.61,86.65 C205.50,88.06 208.15,91.56 211.11,92.99 C213.68,94.18 219.94,96.26 222.69,96.86 C226.18,97.60 238.26,99.09 238.88,99.20 C240.97,99.59 243.94,100.76 244.88,101.65 C246.09,102.85 246.22,106.81 246.29,107.86 C246.30,108.10 246.33,108.38 246.36,108.68" fill="none" stroke="rgb(0, 255, 225)" stroke-width="8.00" stroke-opacity="1.00" stroke-linejoin="round"/>
<path d="M264.59,71.24 C263.47,71.56 261.28,73.23 260.91,75.87 C260.72,77.57 261.97,80.62 263.46,82.12 C264.21,82.85 268.52,86.01 269.46,86.79 C270.80,87.94 272.10,90.05 272.07,91.22 C271.97,92.47 270.36,95.24 268.79,97.04 C268.38,97.50 267.53,98.40 266.25,99.73" fill="none" stroke="rgb(0, 255, 225)" stroke-width="8.00" stroke-opacity="1.00" stroke-linejoin="round"/>
<path d="M202.98,29.88 C203.01,29.86 202.92,29.91 202.90,29.92 C202.09,30.43 200.73,31.99 199.98,33.46 C199.35,34.71 198.08,42.00 197.89,45.31 C197.82,46.58 197.83,49.52 197.84,50.58" fill="none" stroke="rgb(0, 255, 225)" stroke-width="8.00" stroke-opacity="1.00" stroke-linejoin="round"/>
<path d="M200.76,78.15 C200.68,79.50 200.64,80.37 200.64,80.75 C200.64,81.13 200.67,81.57 200.74,82.07" fill="none" stroke="rgb(0, 255, 225)" stroke-width="8.00" stroke-opacity="1.00" stroke-linejoin="round"/>
<path d="M238.81,29.44 C238.74,29.50 238.67,29.60 238.59,29.77 C238.15,30.77 237.46,33.40 237.54,34.53 C237.60,35.20 237.83,36.10 238.26,37.23 C238.36,37.50 238.51,37.80 238.69,38.12" fill="none" stroke="rgb(0, 255, 225)" stroke-width="8.00" stroke-opacity="1.00" stroke-linejoin="round"/>
<path d="M256.86,67.03 C257.04,67.32 257.13,67.49 257.16,67.56 C257.18,67.62 257.16,67.67 257.09,67.71" fill="none" stroke="rgb(0, 255, 225)" stroke-width="8.00" stroke-opacity="1.00" stroke-linejoin="round"/>
<path d="M224.94,80.00 C224.97,79.97 224.89,80.05 224.86,80.08 C223.39,82.01 222.53,83.62 222.33,85.18 C221.98,88.13 223.49,93.02 225.78,96.03 C228.30,99.32 230.16,102.84 230.93,106.20 C231.27,107.73 232.31,111.89 232.62,112.77 C232.74,113.13 232.88,113.31 233.03,113.31" fill="none" stroke="rgb(0, 101, 255)" stroke-width="8.00" stroke-opacity="1.00" stroke-linejoin="round"/>
<path d="M252.67,76.73 C252.94,77.39 254.14,79.09 255.12,79.83 C257.08,81.29 265.73,83.02 267.92,83.39 C272.80,84.21 278.52,86.06 280.69,87.75 C282.09,88.87 283.39,90.48 283.75,91.53 C283.83,91.80 283.92,92.25 284.00,92.89" fill="none" stroke="rgb(0, 101, 255)" stroke-width="8.00" stroke-opacity="1.00" stroke-linejoin="round"/>
<path d="M192.70,98.72 C194.61,98.04 200.01,98.31 202.82,99.25 C204.02,99.66 213.68,103.70 214.27,103.89 C215.08,104.16 216.72,104.45 216.82,104.45" fill="none" stroke="rgb(250, 0, 255)" stroke-width="8.00" stroke-opacity="1.00" stroke-linejoin="round"/>
<path d="M233.42,77.44 C233.01,77.98 233.27,79.81 234.48,81.07 C235.81,82.42 239.89,84.89 244.14,86.60 C247.37,87.84 254.52,90.57 256.33,91.84 C258.38,93.34 259.57,97.22 259.78,98.47 C259.87,99.05 259.98,100.11 259.99,100.24" fill="none" stroke="rgb(250, 0, 255)" stroke-width="8.00" stroke-opacity="1.00" stroke-linejoin="round"/>
<path d="M222.72,30.18 C220.63,33.98 220.36,38.33 220.35,39.70 C220.35,40.85 220.35,42.01 220.35,43.16" fill="none" stroke="rgb(250, 0, 255)" stroke-width="8.00" stroke-opacity="1.00" stroke-linejoin="round"/>
<path d="M174.27,68.39 C174.13,70.17 174.28,71.62 174.97,74.59 C175.68,77.45 176.69,80.60 177.44,81.73 C178.31,83.01 181.86,85.13 182.83,85.72 C185.33,87.20 185.80,90.63 185.76,91.01" fill="none" stroke="rgb(250, 0, 255)" stroke-width="8.00" stroke-opacity="1.00" stroke-linejoin="round"/>
<path d="M262.79,55.02 C262.79,55.24 262.80,55.46 262.82,55.66 C263.04,57.48 264.51,61.40 264.64,61.95 C264.75,62.39 264.84,63.01 264.90,63.81 C264.92,63.99 264.92,64.20 264.92,64.44" fill="none" stroke="rgb(250, 0, 255)" stroke-width="8.00" stroke-opacity="1.00" stroke-linejoin="round"/>
<path d="M227.49,82.77 C227.73,84.66 230.83,88.46 233.72,90.08 C235.62,91.11 240.12,93.28 241.92,94.50 C243.91,95.90 245.75,98.80 246.31,100.18 C246.44,100.53 246.56,100.84 246.67,101.10" fill="none" stroke="rgb(255, 123, 0)" stroke-width="8.00" stroke-opacity="1.00" stroke-linejoin="round"/>
<path d="M259.00,86.00 C264.04,85.05 273.45,84.52 281.02,85.42 C281.50,85.48 282.20,85.59 283.11,85.75" fill="none" stroke="rgb(255, 123, 0)" stroke-width="8.00" stroke-opacity="1.00" stroke-linejoin="round"/>
<path d="M213.92,30.21 C212.69,33.80 211.77,37.12 211.60,39.09 C211.46,40.64 211.40,41.79 211.39,42.55 C211.39,43.00 211.44,43.50 211.55,44.07" fill="none" stroke="rgb(255, 123, 0)" stroke-width="8.00" stroke-opacity="1.00" stroke-linejoin="round"/>
<path d="M189.98,32.79 C189.78,34.62 189.45,37.57 189.30,39.31 C189.05,42.48 188.77,46.83 188.71,47.98" fill="none" stroke="rgb(255, 123, 0)" stroke-width="8.00" stroke-opacity="1.00" stroke-linejoin="round"/>
<path d="M208.41,102.01 C209.88,101.84 211.32,101.87 213.65,102.16 C214.96,102.33 216.64,102.54 216.68,102.55" fill="none" stroke="rgb(255, 123, 0)" stroke-width="8.00" stroke-opacity="1.00" stroke-linejoin="round"/>
<path d="M292.48,96.91 C289.69,96.53 287.53,96.34 285.53,96.38 C281.60,96.48 274.31,97.50 271.41,98.26 C265.13,99.93 253.17,105.47 246.98,109.80 C244.10,111.74 238.95,113.97 236.15,114.35 C234.78,114.52 231.35,114.45 230.17,114.23 C229.46,114.08 207.61,108.10 201.66,106.80 C193.22,105.04 179.54,103.83 178.81,103.87 C178.60,103.89 178.44,103.95 178.34,104.07" fill="none" stroke="rgb(0, 0, 0)" stroke-width="8.00" stroke-opacity="1.00" stroke-linejoin="round"/>
<path d="M183.75,102.03 C183.75,102.03 183.57,102.09 183.57,102.09 C183.57,102.09 181.39,101.15 181.39,101.15 C182.39,99.03 192.81,90.26 198.70,86.51 C205.52,82.24 216.36,77.01 223.55,74.66 C229.37,72.78 242.32,70.46 249.44,70.31 C254.94,70.23 272.56,73.11 272.90,73.27 C273.26,73.43 273.93,73.89 274.90,74.63" fill="none" stroke="rgb(0, 0, 0)" stroke-width="8.00" stroke-opacity="1.00" stroke-linejoin="round"/>
<path d="M276.80,76.74 C276.80,76.74 277.26,76.30 277.26,76.30 C278.98,76.95 284.51,80.19 286.18,81.27 C291.78,84.95 296.29,90.99 297.66,93.18 C297.81,93.41 298.02,93.78 298.30,94.29" fill="none" stroke="rgb(0, 0, 0)" stroke-width="8.00" stroke-opacity="1.00" stroke-linejoin="round"/>
<path d="M171.00,98.75 C170.93,98.77 170.83,98.75 170.69,98.69 C168.84,97.82 166.46,93.17 165.64,89.27 C164.43,83.16 164.30,69.49 165.10,64.07 C166.09,57.65 170.24,45.13 173.74,39.77 C175.30,37.44 177.64,35.13 180.28,33.14 C182.75,31.32 187.85,28.50 190.84,27.34 C196.09,25.36 211.02,23.32 218.16,23.19 C226.70,23.07 240.10,24.92 244.97,27.16 C247.41,28.31 253.24,32.62 255.79,35.29 C258.65,38.34 261.50,42.52 263.16,45.74 C265.07,49.49 267.52,54.71 268.63,57.68 C269.79,60.85 270.65,63.87 271.13,65.86 C271.21,66.21 271.31,66.64 271.43,67.16" fill="none" stroke="rgb(0, 0, 0)" stroke-width="8.00" stroke-opacity="1.00" stroke-linejoin="round"/>
</g>
</svg>
