<?xml version="1.0" encoding="UTF-8" standalone="no"?>
<!DOCTYPE svg PUBLIC "-//W3C//DTD SVG 1.1//EN" "http://www.w3.org/Graphics/SVG/1.1/DTD/svg11.dtd">
<svg width="102.86" height="102.86" viewBox="0.00 0.00 500.00 500.00" xmlns="http://www.w3.org/2000/svg" xmlns:xlink="http://www.w3.org/1999/xlink">
<g stroke-linecap="round" id="레이어_4">
<path d="M134.47,210.43 C134.37,210.06 134.52,208.40 134.90,206.30 C136.27,199.69 139.35,184.44 139.97,181.28 C141.19,175.45 144.61,165.07 148.51,152.29 C150.81,144.81 157.10,130.17 158.69,127.27 C162.00,121.28 170.71,111.29 174.82,106.44 C178.07,102.61 181.57,98.91 184.52,96.37 C187.93,93.46 192.49,89.97 197.18,87.57 C199.15,86.58 219.55,77.17 221.54,76.36 C227.11,74.13 240.17,71.57 244.81,70.95 C254.24,69.72 259.78,69.18 268.12,69.18 C279.75,69.30 288.22,69.71 297.11,71.04 C303.85,72.06 315.70,76.39 321.21,79.43 C325.38,81.74 339.46,91.67 340.02,92.14 C344.34,95.82 350.06,101.79 353.54,107.73 C357.11,113.88 365.31,132.38 366.33,134.71 C368.52,139.79 373.01,152.90 373.01,152.87 C373.01,152.87 362.07,118.69 362.07,118.69 C363.81,121.82 368.03,128.61 372.38,138.38 C378.05,151.11 379.41,154.71 382.50,165.24 C383.23,167.74 386.45,181.32 387.27,183.49 C387.28,183.53 386.93,175.35 386.74,173.91 C386.21,169.94 379.85,151.13 379.63,150.04 C379.99,151.76 384.57,164.60 387.57,171.57 C390.32,178.10 392.74,189.03 393.94,193.65 C394.43,196.04 397.01,204.94 397.02,204.92 C396.43,202.51 394.36,194.52 394.28,194.05 C393.97,192.21 393.57,185.21 393.32,182.55 C393.18,181.03 392.05,177.16 392.07,177.26 C393.29,182.62 399.96,198.74 400.78,201.52 C401.01,202.35 401.57,204.60 401.46,204.73 C400.83,205.41 398.84,207.07 398.11,207.48" fill="none" stroke="rgb(204, 170, 254)" stroke-width="30.41" stroke-opacity="1.00" stroke-linejoin="round"/>
<path d="M403.92,211.37 C403.92,211.37 405.13,215.75 405.13,215.75 C402.14,216.10 387.92,214.52 380.48,213.71 C363.82,212.06 334.84,209.32 319.21,208.49 C295.65,207.15 275.77,204.23 260.36,203.33 C256.08,203.08 239.34,203.06 232.76,203.11 C226.26,203.10 206.94,201.71 203.06,201.63 C196.29,201.51 189.73,202.74 181.17,205.01 C173.01,207.12 150.77,210.16 147.60,210.90 C149.88,212.27 159.35,212.95 171.05,213.17 C191.23,213.73 216.77,215.72 231.01,217.01 C247.19,218.12 271.66,218.64 286.30,218.59 C295.47,218.44 326.55,216.52 339.39,216.51 C342.26,216.54 356.24,217.12 364.74,216.64 C373.16,216.18 387.73,217.23 389.91,217.29 C392.71,217.37 401.10,217.27 401.27,217.42 C400.65,218.43 396.74,219.60 393.90,220.19 C387.81,221.42 378.82,222.14 369.19,222.28 C361.89,222.27 346.23,221.91 338.78,221.68 C336.16,221.57 295.26,217.64 281.12,216.36 C267.58,215.10 238.95,211.95 224.47,209.87 C217.97,208.82 200.54,205.70 198.79,205.45 C195.35,204.98 180.58,204.08 169.64,203.98 C163.03,203.96 160.10,203.87 158.94,203.15 C157.84,202.38 160.26,195.54 163.85,186.79 C167.01,179.53 174.14,164.85 177.60,158.18 C180.94,151.92 191.18,136.05 193.54,132.83 C197.96,126.79 208.36,115.36 214.24,110.36 C219.97,105.50 231.31,98.23 235.10,96.33 C241.74,93.09 246.04,92.06 246.80,92.42 C247.24,94.20 240.95,100.44 232.69,107.65 C226.70,112.87 216.30,122.05 210.80,127.47 C203.29,134.98 198.34,140.38 190.43,149.59 C177.34,165.32 175.26,169.47 175.17,169.87 C176.45,169.09 185.90,157.50 189.15,152.90 C197.98,139.77 221.83,103.76 223.74,100.06 C225.54,96.53 227.21,92.62 227.27,90.33 C226.27,88.95 222.51,89.55 219.74,90.70 C216.03,92.32 206.29,100.25 201.29,105.49 C196.56,110.48 186.96,122.30 182.68,128.61 C178.26,135.17 171.42,147.96 169.06,153.87 C166.72,159.79 164.02,171.44 164.50,175.70 C164.80,178.01 166.66,181.14 168.16,181.86 C169.73,182.54 173.74,182.09 176.56,180.83 C179.80,179.35 189.97,171.70 195.84,166.34 C203.35,159.30 226.67,135.84 238.03,124.43 C256.48,106.36 267.85,94.57 270.30,89.44 C270.72,88.54 270.71,87.74 270.38,86.45 C267.90,85.98 263.36,87.51 261.95,88.16 C257.31,90.32 247.84,96.86 243.56,100.59 C237.40,106.03 227.83,116.01 223.82,120.79 C218.80,126.79 209.71,139.54 205.90,145.94 C198.50,158.43 192.87,174.79 192.19,178.69 C191.49,182.94 191.87,188.26 192.93,189.88 C193.48,190.65 194.98,191.63 195.94,191.84 C197.94,192.20 203.31,190.57 207.05,188.38 C210.57,186.28 220.24,178.33 225.38,173.35 C237.39,161.34 255.95,140.88 266.00,129.71 C282.41,111.08 290.76,100.51 292.74,96.09 C293.32,94.78 293.29,93.54 292.81,91.37 C290.75,90.33 289.45,89.96 287.95,90.19 C283.38,90.91 273.03,95.74 268.66,98.52 C262.85,102.23 252.80,110.04 247.23,115.31 C241.70,120.58 231.34,132.46 226.89,138.75 C222.28,145.29 215.25,158.57 213.82,162.59 C211.75,168.52 210.48,177.28 210.96,180.26 C211.29,182.11 212.13,184.60 212.90,185.76 C213.63,186.82 215.55,188.40 216.72,188.89 C219.22,189.86 225.02,189.26 227.67,188.38 C231.96,186.88 240.99,181.89 245.64,178.52 C252.21,173.69 260.69,166.43 266.78,161.00 C272.57,155.56 283.55,144.63 288.94,139.14 C293.70,134.03 304.04,122.63 307.23,118.50 C312.24,111.95 314.98,105.34 315.20,102.85 C315.26,101.70 314.12,99.84 312.84,98.94 C311.76,98.24 306.04,98.85 302.14,100.32 C298.49,101.73 289.08,107.52 284.50,111.27 C280.01,114.95 271.13,123.84 266.60,129.53 C262.10,135.20 254.86,146.79 252.26,152.27 C249.71,157.70 246.36,168.22 245.70,172.95 C245.45,174.85 245.25,180.10 245.74,182.86 C246.03,184.40 247.18,187.19 247.94,188.28 C248.73,189.32 250.74,190.88 251.93,191.38 C254.52,192.38 260.34,191.90 262.95,191.08 C267.18,189.69 275.57,185.15 280.49,181.76 C284.04,179.30 297.35,168.57 302.00,164.47 C307.54,159.44 318.14,149.14 323.40,143.61 C329.21,137.24 337.05,126.83 339.08,122.52 C340.07,120.37 341.06,115.72 340.48,113.85 C339.86,112.05 336.54,110.02 333.87,109.92 C329.49,109.81 318.85,113.88 314.16,116.65 C309.17,119.62 299.15,127.69 294.44,132.60 C289.62,137.66 281.34,148.95 278.28,154.69 C275.24,160.45 271.67,171.51 271.20,176.50 C270.75,181.62 272.58,189.57 274.29,192.20 C275.24,193.61 277.63,195.90 279.05,196.78 C282.05,198.53 288.77,199.50 291.76,199.31 C296.48,198.95 306.01,196.42 311.31,194.13 C316.51,191.88 327.09,185.68 332.17,181.97 C342.05,174.71 352.43,163.24 355.10,159.35 C356.71,156.98 359.52,151.19 360.14,148.14 C360.65,145.37 359.92,140.77 358.72,139.12 C357.44,137.49 353.24,135.80 350.47,135.90 C347.58,136.05 341.32,138.25 337.56,140.49 C334.32,142.44 327.55,148.48 324.77,151.88 C321.98,155.33 317.72,163.00 316.58,166.63 C315.29,170.83 314.47,178.06 314.82,181.63 C315.20,185.14 317.47,191.32 319.28,193.91 C321.09,196.42 325.77,200.23 328.51,201.44 C331.28,202.62 337.48,203.48 340.79,203.14 C344.12,202.76 350.71,200.50 353.77,198.67 C356.76,196.84 361.91,192.12 363.94,189.39 C365.88,186.74 368.46,181.22 369.05,178.55 C369.58,175.97 369.33,171.25 368.61,169.25 C367.87,167.30 365.34,164.34 363.64,163.43 C361.91,162.55 357.77,162.09 355.55,162.57 C353.26,163.09 348.80,165.57 346.82,167.44 C344.85,169.36 341.74,174.17 340.73,176.89 C339.76,179.62 339.01,185.27 339.30,187.99 C339.61,190.66 341.42,195.35 342.84,197.18 C344.26,198.95 347.87,201.26 349.92,201.76 C351.93,202.21 356.01,201.82 357.88,201.03 C359.68,200.24 362.75,197.65 363.96,195.99 C365.09,194.42 366.66,190.75 366.86,189.42 C367.07,187.67 366.84,185.25 366.23,184.14 C365.60,183.10 363.50,181.60 362.09,181.19 C360.62,180.81 357.35,180.86 355.72,181.30 C354.24,181.74 351.17,183.34 349.95,184.32 C349.51,184.67 348.60,185.48 347.21,186.74" fill="none" stroke="rgb(204, 170, 254)" stroke-width="30.41" stroke-opacity="1.00" stroke-linejoin="round"/>
<path d="M381.30,196.72 C381.30,196.72 379.87,200.78 379.87,200.78 C377.48,200.47 371.63,199.23 369.05,198.97 C363.02,198.39 356.89,200.36 356.08,200.73 C355.73,200.88 354.97,201.25 353.82,201.83" fill="none" stroke="rgb(204, 170, 254)" stroke-width="30.41" stroke-opacity="1.00" stroke-linejoin="round"/>
<path d="M119.78,209.57 C119.82,207.69 119.94,206.63 120.41,204.45 C122.10,196.24 125.33,180.53 126.88,173.03 C128.03,167.19 130.07,157.07 132.88,149.27 C135.78,141.43 141.04,130.79 145.03,124.38 C147.41,120.57 157.29,106.18 160.87,102.42 C163.79,99.41 176.94,87.80 183.28,83.30 C191.44,77.68 202.22,71.02 206.44,68.75 C213.31,65.06 223.77,60.99 230.39,59.28 C238.31,57.25 248.37,56.20 256.88,56.01 C264.65,55.91 279.86,55.81 285.76,55.92 C290.55,56.04 303.02,57.58 310.05,59.61 C318.00,61.94 329.63,67.28 334.93,70.30 C340.68,73.59 349.39,80.16 354.58,85.41 C360.03,90.98 369.58,103.44 374.32,109.74 C377.63,114.19 384.65,126.38 386.34,129.55" fill="none" stroke="rgb(0, 0, 0)" stroke-width="5.00" stroke-opacity="1.00" stroke-linejoin="round"/>
<path d="M416.04,212.83 C416.08,212.92 416.11,213.06 416.12,213.24 C416.13,213.42 416.15,213.89 416.18,214.67" fill="none" stroke="rgb(0, 0, 0)" stroke-width="5.00" stroke-opacity="1.00" stroke-linejoin="round"/>
<path d="M381.03,122.30 C384.49,126.67 389.38,135.10 393.29,142.87 C398.82,154.38 408.20,177.35 411.48,189.60 C413.36,197.13 418.35,217.69 418.57,218.77 C418.79,219.84 419.15,222.01 419.32,223.15" fill="none" stroke="rgb(0, 0, 0)" stroke-width="5.00" stroke-opacity="1.00" stroke-linejoin="round"/>
<path d="M224.63,38.22 C224.63,38.22 210.49,72.53 210.49,72.53 C213.14,68.62 218.54,58.96 221.95,52.85 C225.36,46.87 231.38,40.63 231.66,39.67 C231.82,39.06 232.22,38.25 232.22,38.22 C231.85,37.01 230.15,36.70 229.50,36.92 C234.95,35.48 251.19,33.28 259.12,32.28 C269.56,31.14 281.96,30.96 288.94,30.91 C303.66,30.92 321.36,32.89 323.21,34.00 C323.30,34.71 319.18,38.03 315.86,40.05 C313.92,41.20 309.91,42.75 305.12,44.34 C300.89,45.72 260.41,49.72 250.20,51.01 C240.41,52.50 232.28,54.13 223.37,56.26 C214.88,58.42 212.16,60.16 211.47,61.11 C212.95,62.18 223.31,62.14 230.84,61.24 C253.45,58.57 303.47,54.67 311.15,54.48 C311.15,54.48 233.78,73.21 233.78,73.21 C234.45,74.07 239.85,75.23 245.39,75.65 C250.52,75.99 288.59,72.73 294.60,72.67 C291.36,73.19 269.73,75.84 266.73,76.28 C257.82,77.61 250.99,79.65 248.82,81.22 C249.26,82.39 250.11,83.09 251.97,83.37 C257.33,84.19 268.30,83.06 277.73,81.02 C285.08,79.41 300.01,74.82 303.52,72.78 C305.29,71.72 307.90,69.70 309.12,68.43 C311.68,65.65 314.33,55.26 316.23,49.80 C316.23,49.80 318.32,66.06 318.32,66.06 C318.32,66.06 319.33,51.53 319.33,51.53 C319.62,54.14 319.77,69.16 319.82,76.30 C319.82,77.56 318.80,79.82 317.71,81.26 C315.92,83.50 304.71,86.00 293.90,87.68 C287.09,88.59 273.59,90.20 266.13,90.54 C258.77,90.71 243.62,90.96 235.63,90.88 C227.51,90.70 216.32,89.68 209.25,88.40 C202.80,87.23 191.48,84.48 185.00,83.56 C180.17,82.89 174.55,82.78 173.90,82.59 C171.74,81.95 170.98,79.60 171.53,78.89 C172.46,77.79 177.53,74.64 181.25,73.03 C187.77,70.26 194.99,69.56 197.85,69.92 C195.86,70.46 172.49,74.75 171.31,75.06 C168.91,75.70 165.05,78.02 164.91,78.50 C165.38,79.97 167.41,82.01 169.00,82.22 C171.18,82.45 185.76,81.15 195.77,81.26 C221.65,81.47 262.01,84.72 280.35,85.01 C285.51,85.02 303.74,84.25 311.80,83.85 C321.35,83.36 331.84,83.67 335.81,83.26 C338.71,82.97 346.90,84.15 349.16,84.67 C335.26,85.85 307.92,87.57 306.15,87.88 C305.09,88.07 304.11,88.35 303.22,88.73 C302.89,88.87 302.43,89.14 301.86,89.52" fill="none" stroke="rgb(209, 112, 0)" stroke-width="26.23" stroke-opacity="1.00" stroke-linejoin="round"/>
<path d="M201.77,69.33 C203.51,69.69 208.35,71.04 211.21,71.63 C215.02,72.40 220.00,72.90 223.87,72.42 C228.70,71.79 232.69,71.81 234.68,71.16 C226.74,73.14 225.07,76.65 225.17,77.08 C225.71,77.96 228.38,78.92 231.00,78.87 C233.09,78.81 238.07,77.66 240.09,76.36 C241.01,75.75 241.67,73.69 241.39,72.59 C241.08,71.46 239.39,69.86 238.07,69.68 C236.55,69.52 232.91,70.95 231.27,72.39 C229.75,73.76 228.03,76.95 227.97,78.38 C227.94,79.81 229.46,81.59 231.02,81.92 C231.81,82.04 234.16,81.39 235.33,80.63 C237.56,79.12 238.22,75.63 237.63,74.10 C239.50,75.32 247.32,76.27 250.61,76.43 C262.66,77.01 266.12,76.92 278.09,75.11 C280.23,74.81 284.95,74.26 286.54,72.90 C286.72,72.74 286.82,72.65 286.82,72.65 C286.82,72.65 285.58,78.46 285.58,78.46 C286.56,79.25 287.97,79.71 289.47,79.45 C290.85,79.20 293.47,77.91 294.36,77.09 C295.05,76.40 295.39,74.96 295.08,74.24 C294.66,73.41 292.95,72.45 291.66,72.46 C290.08,72.49 287.74,73.73 286.65,74.99 C285.88,75.94 286.02,78.71 287.03,79.74 C288.08,80.74 291.19,81.65 292.76,81.40 C294.02,81.18 297.50,79.26 298.16,77.18 C298.53,75.97 298.13,74.05 297.48,72.67 C296.34,72.06 294.66,72.03 293.22,72.94 C291.91,73.79 289.86,76.51 289.62,77.71 C289.45,78.70 289.90,80.14 290.39,80.69 C294.07,83.94 299.10,79.61 299.50,78.86 C299.28,78.04 298.54,77.10 297.27,76.37 C295.78,75.54 292.53,74.65 290.81,74.69 C289.19,74.75 286.41,75.84 285.58,76.65 C284.92,77.37 284.82,79.11 285.35,80.01 C286.01,81.00 288.17,82.37 289.63,82.67 C292.19,83.14 298.58,82.04 301.65,81.05 C308.02,78.97 325.10,75.61 325.57,75.50 C327.98,74.91 331.75,72.18 332.27,71.65 C332.29,71.54 309.22,74.43 307.63,74.70 C305.75,75.03 303.70,75.59 302.84,75.95 C303.51,76.10 304.17,76.26 304.84,76.42 C305.16,76.49 305.57,76.60 306.09,76.74" fill="none" stroke="rgb(87, 46, 0)" stroke-width="9.82" stroke-opacity="1.00" stroke-linejoin="round"/>
<path d="M196.77,73.74 C197.55,71.39 199.30,66.20 200.27,63.35 C208.30,40.30 212.55,30.96 212.63,30.79 C213.04,29.90 213.71,29.53 215.19,29.28 C218.52,28.81 233.65,31.00 241.41,32.16 C249.02,33.17 263.39,34.63 270.65,35.11 C277.96,35.42 294.48,35.99 298.16,35.91 C303.30,35.71 317.90,34.63 322.66,33.64 C325.79,32.98 330.51,31.09 331.61,30.24 C332.93,29.13 333.71,27.37 333.00,26.42 C331.81,24.89 326.76,22.58 324.89,22.04 C320.63,20.84 310.99,19.68 301.83,18.98 C292.09,18.51 261.92,19.31 244.58,20.77 C236.92,21.51 217.42,23.60 215.37,25.16 C215.06,25.41 214.47,26.08 213.61,27.18 C213.61,27.18 215.11,29.56 215.11,29.56" fill="none" stroke="rgb(0, 0, 0)" stroke-width="6.00" stroke-opacity="1.00" stroke-linejoin="round"/>
<path d="M330.68,33.73 C331.84,36.99 333.22,53.63 333.98,61.81 C335.23,72.63 336.52,80.20 336.84,82.28 C337.03,83.54 337.33,85.58 337.44,86.36" fill="none" stroke="rgb(0, 0, 0)" stroke-width="6.00" stroke-opacity="1.00" stroke-linejoin="round"/>
<path d="M197.81,58.79 C196.41,58.69 195.32,58.69 193.03,58.84 C187.68,59.19 182.94,59.75 180.53,60.34 C174.94,61.77 162.09,67.07 158.01,70.26 C155.55,72.22 152.64,76.64 152.44,79.21 C152.38,80.52 152.93,83.21 153.55,84.53 C154.76,86.98 159.53,90.75 162.38,92.05 C167.73,94.43 180.48,97.77 189.62,99.26 C195.90,100.27 211.50,101.39 217.18,101.61 C231.56,101.78 262.80,101.90 279.64,101.86 C295.27,101.54 325.31,100.24 340.76,98.46 C344.60,97.99 350.71,96.70 353.10,95.82 C356.47,94.54 360.63,91.53 361.33,89.96 C362.07,88.12 361.92,84.99 360.94,82.96 C360.62,82.32 357.84,78.14 356.77,76.44 C355.32,74.20 353.59,72.39 352.01,71.53 C351.59,71.32 347.94,70.30 347.06,70.14 C346.53,70.05 345.38,69.92 343.62,69.74" fill="none" stroke="rgb(0, 0, 0)" stroke-width="6.00" stroke-opacity="1.00" stroke-linejoin="round"/>
<path d="M227.69,67.17 C227.36,67.18 227.07,67.20 226.81,67.24 C225.00,67.56 222.58,68.89 221.38,70.39 C220.24,71.85 219.18,77.46 220.10,79.96 C220.61,81.26 222.38,83.37 223.63,84.15 C226.11,85.61 233.23,86.15 236.76,85.33 C240.17,84.48 244.69,81.29 245.71,79.01 C246.63,76.77 246.26,71.36 244.98,69.28 C244.26,68.20 242.31,66.58 241.03,66.05 C238.25,64.99 231.44,65.74 228.27,67.29 C227.80,67.52 226.86,68.03 225.47,68.83" fill="none" stroke="rgb(0, 0, 0)" stroke-width="6.00" stroke-opacity="1.00" stroke-linejoin="round"/>
<path d="M293.54,65.98 C293.44,65.87 293.30,65.77 293.13,65.68 C292.02,65.13 289.53,64.72 287.87,64.91 C286.46,65.10 281.71,68.53 280.26,70.73 C279.70,71.61 277.94,75.46 277.73,76.38 C277.44,77.82 277.82,80.83 278.48,82.09 C279.22,83.40 281.66,85.46 283.35,86.21 C285.01,86.90 288.83,87.60 290.84,87.59 C292.75,87.56 296.46,86.84 298.09,86.22 C299.65,85.58 302.09,83.90 302.94,82.88 C303.75,81.85 304.64,79.49 304.72,78.15 C304.77,76.82 304.14,73.94 303.50,72.59 C302.10,69.78 297.88,67.63 294.71,67.08 C291.36,66.56 280.86,67.77 279.61,67.92" fill="none" stroke="rgb(0, 0, 0)" stroke-width="6.00" stroke-opacity="1.00" stroke-linejoin="round"/>
<path d="M201.16,60.48 C202.26,62.46 203.21,63.68 204.47,64.47 C206.87,65.93 212.75,67.03 216.90,67.28 C219.76,67.44 222.38,67.64 223.89,67.82 C224.31,67.87 224.65,67.94 224.89,68.03" fill="none" stroke="rgb(0, 0, 0)" stroke-width="6.00" stroke-opacity="1.00" stroke-linejoin="round"/>
<path d="M199.82,69.79 C199.78,70.24 200.62,72.48 201.39,73.62 C203.16,76.15 212.64,77.62 215.85,77.87 C217.13,77.95 219.29,78.09 220.18,78.14" fill="none" stroke="rgb(0, 0, 0)" stroke-width="6.00" stroke-opacity="1.00" stroke-linejoin="round"/>
<path d="M246.53,69.63 C246.53,69.63 246.41,69.63 246.41,69.63 C251.16,70.89 261.02,71.30 272.08,71.29 C275.10,71.30 279.40,71.33 279.78,71.37 C279.91,71.39 280.03,71.42 280.15,71.47" fill="none" stroke="rgb(0, 0, 0)" stroke-width="6.00" stroke-opacity="1.00" stroke-linejoin="round"/>
<path d="M245.43,81.57 C245.43,81.57 245.31,81.59 245.31,81.59 C247.58,81.66 253.20,81.79 256.56,81.85 C260.09,81.91 269.27,82.04 270.97,82.02 C272.39,81.99 274.81,81.94 275.81,81.91" fill="none" stroke="rgb(0, 0, 0)" stroke-width="6.00" stroke-opacity="1.00" stroke-linejoin="round"/>
<path d="M301.41,70.25 C301.41,70.25 301.29,70.23 301.29,70.23 C305.92,70.34 311.53,70.08 315.81,69.33 C323.68,67.92 329.00,65.49 330.09,64.82 C330.35,64.65 330.60,64.45 330.84,64.22" fill="none" stroke="rgb(0, 0, 0)" stroke-width="6.00" stroke-opacity="1.00" stroke-linejoin="round"/>
<path d="M303.18,82.70 C303.18,82.70 302.99,82.80 302.99,82.80 C304.94,82.98 308.15,82.68 313.52,81.80 C324.65,79.83 330.72,78.37 332.33,77.83 C332.55,77.75 332.93,77.60 333.47,77.37" fill="none" stroke="rgb(0, 0, 0)" stroke-width="6.00" stroke-opacity="1.00" stroke-linejoin="round"/>
<path d="M129.03,161.85 C128.98,161.91 128.98,161.99 129.03,162.11 C130.85,166.05 139.39,173.70 147.68,180.49 C153.83,185.41 163.60,192.81 170.42,197.64 C175.79,201.34 188.27,208.46 194.32,211.24 C200.83,214.22 211.37,218.17 220.55,221.14 C227.66,223.38 237.22,225.29 241.57,225.99 C243.74,226.33 246.72,226.61 248.72,226.69 C249.22,226.70 249.95,226.71 250.93,226.70" fill="none" stroke="rgb(0, 0, 0)" stroke-width="6.00" stroke-opacity="1.00" stroke-linejoin="round"/>
<path d="M261.04,226.88 C265.43,225.37 285.37,217.33 289.44,215.44 C301.17,209.97 317.43,200.42 338.76,186.76 C360.75,172.48 368.59,166.73 374.49,161.84 C378.37,158.57 382.26,154.42 382.80,152.86 C382.93,152.48 383.11,151.63 383.37,150.30" fill="none" stroke="rgb(0, 0, 0)" stroke-width="6.00" stroke-opacity="1.00" stroke-linejoin="round"/>
<path d="M249.15,225.59 C249.16,225.62 249.21,225.55 249.21,225.51 C249.28,223.19 248.84,219.34 248.04,216.93 C247.01,213.95 244.52,209.52 242.50,207.69 C241.42,206.76 238.69,205.33 237.35,205.07 C236.28,204.88 232.05,204.92 230.96,205.14 C227.91,205.82 223.26,209.32 221.67,211.28 C220.25,213.09 217.70,217.70 216.62,220.37 C215.48,223.26 213.94,229.59 214.44,231.98 C214.74,233.30 216.18,235.68 217.23,236.56 C219.50,238.36 225.78,238.58 228.79,237.89 C234.41,236.53 244.89,231.00 250.62,227.24 C256.87,222.89 269.10,214.64 276.48,211.60 C279.64,210.31 285.29,208.82 287.18,208.94 C288.19,209.05 289.54,210.86 290.15,212.83 C290.58,214.36 289.54,220.05 288.47,222.09 C287.42,224.03 284.29,227.07 282.36,228.07 C280.21,229.14 275.67,229.89 272.07,229.79 C267.82,229.62 255.65,225.59 253.61,225.26 C253.61,225.26 252.66,227.04 252.66,227.04" fill="none" stroke="rgb(0, 0, 0)" stroke-width="6.00" stroke-opacity="1.00" stroke-linejoin="round"/>
<path d="M250.92,230.93 C250.83,231.11 250.73,231.27 250.64,231.40 C246.63,236.52 240.77,246.17 237.84,252.43 C235.10,258.34 234.52,263.93 235.20,265.04 C235.20,265.04 239.58,262.90 239.58,262.90" fill="none" stroke="rgb(0, 0, 0)" stroke-width="6.00" stroke-opacity="1.00" stroke-linejoin="round"/>
<path d="M258.97,225.31 C259.73,233.06 262.06,246.35 262.25,250.02 C262.43,253.67 261.92,259.14 261.37,261.47 C261.30,261.73 261.18,262.16 261.01,262.75" fill="none" stroke="rgb(0, 0, 0)" stroke-width="6.00" stroke-opacity="1.00" stroke-linejoin="round"/>
<path d="M391.17,138.28 C391.18,138.25 390.60,139.85 390.03,141.26 C388.35,145.37 385.56,150.08 382.29,155.01 C381.07,156.82 380.01,158.33 379.14,159.53" fill="none" stroke="rgb(0, 0, 0)" stroke-width="6.00" stroke-opacity="1.00" stroke-linejoin="round"/>
</g>
</svg>
