<?xml version="1.0" encoding="UTF-8" standalone="no"?>
<!DOCTYPE svg PUBLIC "-//W3C//DTD SVG 1.1//EN" "http://www.w3.org/Graphics/SVG/1.1/DTD/svg11.dtd">
<svg width="102.86" height="102.86" viewBox="0.00 0.00 500.00 500.00" xmlns="http://www.w3.org/2000/svg" xmlns:xlink="http://www.w3.org/1999/xlink">
<g stroke-linecap="round" id="레이어_3">
<path d="M155.73,96.38 C155.73,96.38 155.66,95.10 155.66,95.10 C155.66,95.10 149.25,103.74 149.25,103.74 C149.58,101.11 150.26,99.37 151.88,97.58 C154.25,94.98 158.45,92.69 160.36,92.47 C160.57,92.45 172.16,92.37 176.24,92.34 C187.28,92.32 207.91,86.10 210.69,85.55 C204.33,86.17 186.95,88.84 185.33,89.02 C182.47,89.34 175.86,89.63 174.33,90.02 C172.61,90.48 168.56,92.08 167.54,92.89 C165.75,94.35 163.94,99.28 162.58,101.75 C160.33,105.79 154.55,111.62 152.60,113.16 C152.60,113.16 149.50,103.24 149.50,103.24 C149.27,106.47 147.24,120.45 147.04,130.23 C146.95,135.03 146.56,139.74 145.98,142.60 C145.42,145.23 142.80,152.50 141.82,153.99 C141.15,151.75 141.14,145.01 141.36,142.87 C141.86,138.28 144.69,130.77 145.36,129.09 C145.00,131.20 143.06,137.22 141.82,140.82 C140.40,144.80 137.31,149.56 134.14,152.62 C132.14,154.51 125.08,160.44 123.55,162.57 C122.53,164.05 119.84,170.64 119.60,173.64 C119.39,177.16 121.09,183.86 123.28,188.10 C129.77,199.28 141.26,221.19 142.17,222.97 C143.88,226.34 145.79,232.14 146.23,236.26 C146.62,239.98 147.25,253.58 147.36,255.17 C147.36,255.17 141.04,221.10 141.04,221.10 C141.04,221.10 142.52,256.65 142.52,256.65 C142.52,256.65 142.52,255.56 142.52,255.56" fill="none" stroke="rgb(148, 201, 254)" stroke-width="43.83" stroke-opacity="1.00" stroke-linejoin="round"/>
<path d="M127.05,220.95 C127.05,220.95 126.30,219.68 126.30,219.68 C130.73,228.74 133.45,236.75 135.76,245.30 C136.66,248.72 137.45,255.36 137.71,260.56 C138.02,268.85 136.28,276.69 136.95,278.01 C137.49,279.03 139.55,279.93 140.77,279.82 C141.89,279.68 142.78,279.25 142.88,278.94 C142.88,278.94 140.64,273.96 140.64,273.96 C140.64,273.96 182.87,273.15 182.87,273.15 C182.87,273.15 160.85,280.64 160.85,280.64 C162.55,280.78 167.58,281.11 170.68,280.84 C172.05,280.71 181.86,279.40 185.82,279.20 C192.12,278.99 196.59,279.09 198.92,279.90 C201.71,280.92 204.15,283.35 206.22,285.89 C207.64,287.58 211.21,290.88 212.19,291.78 C212.19,291.78 194.89,285.76 194.89,285.76 C201.17,288.99 214.50,297.44 216.90,298.45 C222.23,300.47 235.83,305.94 239.50,306.00 C242.22,306.00 245.11,305.10 248.00,304.00 C248.00,304.00 223.16,306.34 223.16,306.34 C224.00,308.08 227.84,309.63 230.89,310.16 C233.32,310.56 238.71,310.73 241.91,309.84 C245.84,308.78 253.48,306.55 255.03,305.36 C257.84,303.10 263.41,296.58 265.94,293.87 C265.94,293.87 258.65,301.04 258.65,301.04 C260.33,298.16 272.38,285.97 276.86,282.60 C279.43,280.70 283.59,279.09 286.86,278.47 C287.89,278.29 309.18,273.81 312.92,273.10 C315.51,272.60 327.55,268.11 337.18,265.98 C339.19,265.49 343.35,264.47 344.32,264.04 C346.30,263.12 348.77,261.24 349.13,260.19 C349.69,258.42 349.39,251.29 348.79,248.75 C348.08,245.74 348.01,241.28 348.29,237.03 C348.58,232.91 349.49,226.87 350.56,222.96 C351.74,218.77 354.02,214.69 356.66,211.83 C360.43,207.74 362.09,205.83 363.16,204.03 C366.28,198.61 370.10,186.38 371.25,179.77 C371.60,177.73 372.49,171.06 372.67,168.34 C372.76,165.75 370.07,161.54 367.31,159.54 C365.02,157.96 348.37,148.27 344.84,145.28 C342.16,142.97 337.47,136.73 336.64,135.18 C335.62,133.22 333.95,128.05 333.83,124.91 C333.62,119.14 330.35,104.16 330.42,101.46 C330.09,104.87 330.82,112.81 333.24,122.36 C334.34,126.50 336.61,134.36 338.07,136.96 C339.92,140.17 347.87,147.86 352.49,151.83 C352.49,151.83 344.53,139.55 344.53,139.55 C351.27,147.47 355.47,153.07 355.64,153.91 C355.64,153.92 350.65,172.18 348.77,179.15 C346.37,187.58 341.72,198.46 338.17,205.18 C336.07,209.07 326.95,224.07 322.80,230.55 C312.83,245.56 297.52,262.58 295.67,263.40 C293.77,264.20 290.60,264.69 289.80,264.63 C289.62,264.61 289.42,264.55 289.19,264.46" fill="none" stroke="rgb(148, 201, 254)" stroke-width="33.46" stroke-opacity="1.00" stroke-linejoin="round"/>
<path d="M203.61,79.82 C205.33,80.42 209.61,80.01 215.96,78.45 C220.82,77.19 221.67,76.76 225.72,73.72 C230.55,70.10 233.95,67.87 237.00,66.46 C246.17,62.14 257.59,57.96 262.22,57.00 C264.34,56.57 271.41,56.17 274.24,57.15 C276.31,57.90 281.82,62.02 283.24,64.67 C284.43,66.96 286.20,71.05 288.72,74.02 C290.88,76.54 294.96,80.67 295.86,81.57 C295.18,78.99 291.39,73.67 287.31,69.12 C284.54,66.20 279.84,61.25 279.17,60.19 C282.07,63.94 294.46,78.78 298.04,81.96 C300.97,84.52 304.90,86.87 308.78,88.48 C309.21,88.66 318.14,92.48 318.86,92.77 C320.01,93.24 326.37,95.54 328.01,97.17 C330.07,99.29 331.98,102.84 332.68,105.92 C333.32,108.96 332.99,114.24 332.06,119.59 C331.55,122.36 323.67,138.04 321.03,142.10 C318.23,146.39 289.63,187.98 286.29,194.52 C285.83,195.44 285.09,197.31 284.79,198.23 C284.68,198.59 284.57,198.94 284.46,199.30" fill="none" stroke="rgb(148, 201, 254)" stroke-width="33.46" stroke-opacity="1.00" stroke-linejoin="round"/>
<path d="M276.37,89.50 C274.53,88.72 273.24,88.26 271.67,87.85 C268.54,87.05 263.38,86.50 260.22,86.61 C254.13,86.85 241.26,90.15 235.12,93.00 C229.39,95.68 217.50,103.22 212.46,107.31 C206.22,112.41 197.87,121.20 191.83,128.66 C186.19,135.74 179.31,146.69 176.50,152.19 C173.30,158.49 168.58,171.60 166.95,179.11 C166.27,182.26 165.78,186.16 165.65,188.14 C165.52,190.63 166.29,198.29 167.43,201.03 C168.65,203.84 172.90,208.15 175.85,209.35 C179.03,210.58 186.15,210.68 189.32,209.93 C195.34,208.42 206.48,202.36 212.38,198.08 C217.01,194.70 226.96,185.98 231.65,181.06 C235.69,176.80 244.47,165.36 247.68,159.29 C248.95,156.86 252.14,149.47 252.81,147.23 C253.28,145.64 254.17,141.30 254.07,138.00 C253.97,135.66 253.37,132.85 252.57,131.24 C251.08,128.40 245.76,124.29 242.85,123.21 C239.64,122.06 234.34,121.10 230.43,120.95 C223.33,120.74 209.11,123.89 202.87,126.48 C196.40,129.20 185.19,136.40 179.17,141.53 C173.76,146.18 162.82,160.30 159.98,165.52 C158.42,168.43 155.37,175.53 154.39,178.67 C153.28,182.33 151.98,188.83 151.70,192.36 C151.46,195.73 151.79,202.18 152.36,205.33 C152.93,208.41 154.80,214.18 156.09,216.90 C157.35,219.54 160.49,224.37 162.33,226.54 C165.95,230.77 175.00,237.12 180.21,239.16 C185.45,241.18 197.03,242.82 202.73,242.27 C209.44,241.60 220.82,237.78 226.60,234.77 C232.30,231.78 243.70,222.77 248.65,217.60 C253.58,212.39 262.76,199.53 266.30,192.80 C270.09,185.55 274.98,172.12 276.54,165.23 C278.00,158.71 278.54,146.18 277.57,140.62 C277.09,138.06 274.86,132.36 272.69,129.69 C270.77,127.43 264.98,124.95 261.33,124.79 C259.34,124.73 253.50,125.92 250.62,127.18 C247.39,128.63 241.97,132.38 238.51,135.54 C233.60,140.06 225.63,151.01 221.69,157.93 C220.05,160.87 213.90,174.09 211.86,180.46 C208.45,191.45 205.63,203.33 204.64,211.32 C203.81,218.18 203.61,233.89 204.37,239.73 C204.84,243.10 206.08,248.33 207.10,251.01 C208.10,253.57 210.21,257.04 211.79,258.82 C212.60,259.69 214.96,261.46 216.39,262.15 C219.29,263.52 225.49,263.16 227.95,262.36 C230.19,261.60 234.57,259.15 236.99,257.36 C241.37,254.08 250.27,244.10 255.14,237.24 C259.31,231.33 266.60,218.90 270.33,211.65 C276.52,199.15 289.34,168.32 292.69,157.62 C293.74,154.26 295.42,146.94 295.94,143.49 C296.50,139.64 296.01,132.44 295.68,131.01 C295.19,129.07 294.00,126.42 292.80,124.78 C291.26,122.73 289.42,121.20 287.23,120.16 C284.29,118.83 278.87,118.80 276.24,119.31 C274.16,119.75 269.22,121.69 266.89,122.99 C264.85,124.15 259.34,128.00 256.85,130.30 C251.01,135.78 243.48,145.74 240.18,151.41 C237.28,156.45 232.51,167.27 230.59,173.11 C228.71,178.86 226.15,190.85 225.62,196.41 C225.03,202.79 225.27,213.56 226.68,220.70 C227.35,223.99 229.69,230.15 230.72,232.17 C231.92,234.47 234.95,238.52 236.60,240.04 C238.25,241.53 241.88,243.62 243.80,244.20 C245.76,244.76 249.88,244.91 252.06,244.51 C254.41,244.05 258.26,242.46 261.14,240.88 C264.63,238.94 274.84,229.50 279.95,222.68 C284.86,216.09 291.64,205.29 294.68,199.36 C296.67,195.47 304.09,179.25 306.12,172.99 C308.02,167.00 310.21,154.62 309.68,149.08 C308.90,141.62 306.19,134.25 303.43,127.90 C308.94,133.38 316.93,144.10 320.06,149.43 C322.20,153.12 324.59,158.33 325.50,161.38 C326.32,164.24 326.94,170.19 326.81,172.76 C326.52,177.79 322.93,187.82 319.71,193.88 C315.58,201.61 296.06,228.57 289.55,239.55 C284.95,247.42 279.53,255.62 275.66,258.17 C274.00,259.24 256.70,268.62 253.66,271.01 C253.34,271.27 252.74,271.81 251.87,272.63 C253.78,272.90 258.19,272.02 261.27,270.78 C268.71,267.70 298.84,252.82 312.56,246.14 C322.06,241.29 326.69,237.65 327.67,236.90" fill="none" stroke="rgb(148, 201, 254)" stroke-width="60.99" stroke-opacity="1.00" stroke-linejoin="round"/>
<path d="M330.42,197.88 C328.51,198.35 326.86,200.06 323.61,204.01 C313.82,215.84 300.59,230.88 298.19,233.93 C297.52,234.77 295.04,238.10 294.29,239.10" fill="none" stroke="rgb(148, 201, 254)" stroke-width="60.99" stroke-opacity="1.00" stroke-linejoin="round"/>
<path d="M108.64,145.06 C112.38,142.04 116.25,138.08 117.54,135.55 C119.67,131.24 123.75,115.48 124.41,108.48 C124.80,104.49 126.27,98.11 127.78,93.96 C129.48,89.39 132.22,83.76 134.49,81.30 C135.36,80.39 141.40,74.64 142.76,73.86 C146.19,71.91 162.07,67.37 168.71,66.66 C174.34,66.09 195.48,65.73 197.21,65.51 C199.15,65.26 208.08,62.76 210.43,61.76 C216.06,59.34 233.88,48.44 238.18,46.24 C243.15,43.72 249.66,41.46 253.07,40.49 C259.10,38.81 271.95,38.37 277.46,39.00 C280.80,39.40 286.04,41.36 289.57,43.19 C292.69,44.87 295.45,48.33 298.38,53.18 C300.73,57.18 304.73,62.84 307.19,65.42 C309.96,68.29 316.29,72.23 320.41,74.01 C322.63,74.97 331.46,78.09 333.92,79.22 C336.71,80.53 341.04,83.86 343.74,86.82 C345.97,89.30 348.16,93.57 348.66,97.39 C348.96,99.84 349.32,109.28 349.46,113.05 C349.60,116.13 351.26,121.00 352.70,123.34 C354.32,125.93 358.87,130.24 362.28,132.84 C370.53,139.04 377.57,144.60 383.15,150.81 C385.90,153.91 388.40,158.88 389.29,162.68 C389.84,165.13 390.92,173.42 390.98,176.46 C391.03,179.57 390.26,186.66 389.63,189.19 C387.99,195.64 381.27,208.05 377.35,212.97 C376.27,214.33 371.75,219.70 370.18,222.33 C368.09,225.94 367.33,230.07 367.38,234.63 C367.61,247.23 367.23,257.60 365.74,264.89 C365.32,266.89 362.93,274.39 361.98,275.62 C359.99,278.11 354.16,281.05 350.77,282.39 C346.35,284.08 338.98,285.21 326.04,286.72 C319.04,287.55 305.35,290.25 297.71,293.38 C294.56,294.71 288.72,297.17 287.03,298.93 C286.34,299.66 269.97,318.15 267.23,319.99 C264.77,321.61 256.83,325.92 254.29,326.81 C251.36,327.79 244.92,328.07 241.26,327.39 C238.34,326.82 232.36,325.30 226.44,323.68 C221.41,322.23 216.92,320.51 214.10,318.72 C210.60,316.45 195.11,304.42 191.22,301.92 C188.07,299.92 180.46,296.43 177.38,295.61 C170.44,293.83 140.42,294.28 135.00,293.78 C131.68,293.44 127.46,291.13 125.30,289.25 C122.75,286.95 120.62,282.49 119.38,277.14 C118.44,272.80 118.75,251.75 118.74,248.70 C118.70,244.16 118.16,238.24 117.36,234.71 C116.05,229.15 112.01,217.43 109.25,211.40 C107.68,208.00 98.42,192.00 97.09,187.60 C96.30,184.93 95.20,178.66 95.25,176.81 C95.40,173.00 99.97,156.18 102.20,152.33 C104.29,148.81 111.30,142.00 117.18,138.22 C118.12,137.61 119.05,137.00 119.99,136.39" fill="none" stroke="rgb(0, 0, 0)" stroke-width="7.91" stroke-opacity="1.00" stroke-linejoin="round"/>
<path d="M188.78,57.78 C185.34,58.42 181.58,60.24 176.23,63.14 C171.99,65.48 166.28,69.19 163.09,71.83 C154.77,78.79 153.87,81.50 154.08,81.90 C155.14,82.49 160.47,82.12 164.93,81.14 C181.85,77.32 191.59,70.58 192.46,69.87 C191.52,68.72 186.97,69.24 184.10,69.89 C180.91,70.64 175.19,72.54 170.13,74.48 C157.89,79.31 148.38,87.06 147.89,87.40 C148.73,88.15 153.26,88.59 158.03,88.01 C162.77,87.41 230.92,70.25 240.97,67.11 C257.43,61.84 270.97,58.53 277.71,56.95 C281.36,56.11 288.88,54.16 291.55,54.39 C292.10,54.44 293.32,54.60 295.23,54.86 C291.04,54.15 276.12,48.46 268.96,45.73 C265.52,44.44 263.06,44.15 258.00,44.35 C249.37,44.91 215.20,54.27 204.60,56.29 C201.78,56.83 198.59,57.42 198.23,57.49 C199.23,57.34 217.13,48.26 219.11,47.19 C219.81,46.80 221.93,45.12 222.40,44.52 C222.89,43.86 222.82,42.20 222.47,41.38 C222.07,40.57 220.79,39.34 219.77,38.87 C217.13,37.74 210.42,37.65 206.97,38.91 C204.79,39.74 200.46,42.46 199.42,43.12 C199.97,40.25 200.22,37.65 199.97,36.33 C199.65,34.38 200.03,33.41 201.70,32.16 C202.23,31.77 211.88,25.88 214.30,25.03 C215.30,24.70 219.54,24.65 225.83,24.92 C229.43,25.09 235.09,25.66 236.81,26.74 C237.90,27.50 238.50,31.86 238.29,36.39 C238.12,40.01 238.16,47.96 238.12,49.63 C238.05,52.64 237.57,57.81 236.59,60.19 C235.91,61.75 231.89,65.20 229.05,66.58 C228.01,67.07 219.60,70.55 215.93,72.47 C216.30,73.62 227.74,72.40 242.09,70.40 C250.01,69.26 264.77,67.05 269.63,65.23" fill="none" stroke="rgb(115, 115, 115)" stroke-width="25.23" stroke-opacity="1.00" stroke-linejoin="round"/>
<path d="M232.76,13.51 C232.79,13.51 232.71,13.51 232.69,13.51 C231.36,13.41 224.72,12.96 221.89,13.09 C216.18,13.39 202.17,16.83 197.55,18.90 C195.09,20.03 190.41,23.41 189.71,25.40 C190.39,27.39 194.77,28.88 199.71,29.84 C204.30,30.68 222.13,30.21 228.24,29.23 C234.32,28.23 246.12,24.92 246.69,24.55 C248.50,23.34 249.92,21.58 249.71,20.66 C249.23,18.99 245.80,15.87 243.42,15.03 C240.76,14.14 234.72,13.74 230.41,14.21 C229.46,14.33 228.52,14.44 227.57,14.56" fill="none" stroke="rgb(0, 0, 0)" stroke-width="8.00" stroke-opacity="1.00" stroke-linejoin="round"/>
<path d="M188.44,30.73 C188.04,37.40 187.22,53.92 187.34,57.66 C187.49,61.97 188.57,76.88 188.86,80.49 C189.01,82.57 189.24,83.37 189.88,84.35 C189.88,84.35 190.77,84.24 190.77,84.24" fill="none" stroke="rgb(0, 0, 0)" stroke-width="8.00" stroke-opacity="1.00" stroke-linejoin="round"/>
<path d="M247.89,25.04 C247.61,29.57 247.85,35.52 248.59,38.99 C249.28,42.14 251.43,49.45 252.47,52.90 C253.35,55.75 255.09,61.47 255.96,64.33 C256.13,64.91 256.30,65.49 256.47,66.07" fill="none" stroke="rgb(0, 0, 0)" stroke-width="8.00" stroke-opacity="1.00" stroke-linejoin="round"/>
<path d="M184.88,48.56 C182.57,49.04 181.09,49.50 178.81,50.57 C170.23,54.57 160.39,60.44 155.53,63.88 C149.92,67.88 139.52,76.95 137.08,81.43 C135.49,84.42 134.53,89.20 135.28,91.55 C136.10,93.94 140.02,97.10 142.39,98.12 C144.52,99.00 149.63,100.13 152.25,100.30 C157.33,100.60 169.18,99.19 178.36,97.49 C192.24,94.56 220.56,88.35 234.55,84.96 C245.95,81.96 278.51,71.97 291.31,66.85 C295.03,65.33 301.29,62.22 303.74,60.65 C304.76,59.96 306.56,58.03 307.01,56.98 C307.45,55.86 306.74,53.53 305.75,52.17 C302.76,48.29 291.87,40.15 287.81,38.39 C283.26,36.46 269.52,33.62 262.83,33.73 C259.62,33.80 254.22,34.58 253.00,34.82 C252.49,34.93 251.40,35.16 249.72,35.53" fill="none" stroke="rgb(0, 0, 0)" stroke-width="8.00" stroke-opacity="1.00" stroke-linejoin="round"/>
<path d="M165.73,101.26 C164.51,101.52 161.84,104.56 160.06,107.41 C156.11,113.94 148.68,126.31 145.21,132.16 C140.78,139.96 134.32,152.84 130.88,159.87 C126.28,169.52 122.23,179.70 119.43,186.86 C114.84,199.03 110.90,218.48 110.63,224.49 C110.48,228.11 111.16,232.26 111.35,232.87 C111.42,233.08 111.57,233.38 111.78,233.76" fill="none" stroke="rgb(0, 0, 0)" stroke-width="8.00" stroke-opacity="1.00" stroke-linejoin="round"/>
<path d="M296.52,71.19 C296.51,71.27 296.55,71.38 296.65,71.54 C298.08,73.72 308.45,80.37 312.95,84.22 C320.37,90.64 334.62,108.62 352.17,128.96 C362.08,140.58 372.68,155.83 377.39,164.08 C379.28,167.48 383.12,174.51 385.07,178.14 C385.39,178.74 385.76,179.47 386.19,180.33" fill="none" stroke="rgb(0, 0, 0)" stroke-width="8.00" stroke-opacity="1.00" stroke-linejoin="round"/>
</g>
</svg>
