<?xml version="1.0" encoding="UTF-8" standalone="no"?>
<!DOCTYPE svg PUBLIC "-//W3C//DTD SVG 1.1//EN" "http://www.w3.org/Graphics/SVG/1.1/DTD/svg11.dtd">
<svg width="102.86" height="102.86" viewBox="0.00 0.00 500.00 500.00" xmlns="http://www.w3.org/2000/svg" xmlns:xlink="http://www.w3.org/1999/xlink">
<g stroke-linecap="round" id="레이어_11">
<path d="M208.63,320.93 C208.63,320.90 208.66,321.95 208.66,322.54 C208.33,328.83 207.95,339.12 208.48,347.27 C209.14,356.03 210.63,370.40 212.08,375.80 C214.58,384.88 218.03,389.07 219.57,390.52 C219.39,387.93 216.92,370.69 215.80,363.15 C214.63,356.27 213.90,345.11 214.91,340.18 C216.02,335.01 219.56,329.66 220.68,328.26 C221.86,331.54 222.03,338.12 222.15,342.07 C222.47,350.24 223.56,367.75 224.44,374.50 C225.88,384.89 227.31,388.86 227.84,390.12 C228.25,386.47 226.17,330.93 226.24,330.49 C226.28,330.23 226.36,330.11 226.49,330.13 C227.25,330.22 227.88,330.52 228.20,331.33 C229.45,334.54 230.97,351.83 231.60,359.33 C233.61,380.20 235.96,387.65 236.15,388.11 C237.38,380.98 237.17,338.55 238.01,332.23 C238.20,330.82 238.38,330.10 238.61,329.59 C239.98,333.07 240.67,340.86 240.85,342.76 C243.42,372.12 244.89,383.62 246.70,388.87 C246.70,388.87 249.39,335.26 249.39,335.26 C249.60,336.18 251.55,354.78 252.46,363.10 C253.65,372.61 255.86,382.18 256.29,382.11 C256.29,382.11 259.89,327.49 259.89,327.49 C263.03,373.45 264.98,387.89 265.79,391.13 C265.79,391.13 269.83,325.09 269.83,325.09 C269.63,332.43 269.24,347.88 269.04,355.98 C268.79,374.92 270.62,386.84 270.82,387.84 C270.90,387.86 271.86,372.70 272.40,365.80 C273.24,356.83 280.41,312.41 280.41,312.44 C280.41,312.44 281.53,389.14 281.53,389.14 C281.53,389.14 289.16,305.45 289.16,305.45 C289.16,305.45 291.14,380.27 291.14,380.27 C291.56,372.92 292.42,359.78 293.77,350.79 C296.27,334.98 300.91,305.15 300.91,299.28 C301.78,305.62 301.94,319.87 301.88,325.14 C300.65,355.78 299.40,387.41 299.37,388.39 C299.52,379.92 299.98,371.84 300.96,361.53 C308.06,304.47 308.58,298.41 308.90,294.41 C310.17,300.53 310.59,307.17 310.79,319.79 C310.86,327.62 310.92,338.52 310.33,347.87 C309.72,356.36 308.54,372.82 308.49,375.38 C310.23,363.53 316.19,330.60 318.66,314.61 C319.72,307.42 320.84,297.22 320.80,293.06 C323.52,299.05 326.39,311.01 326.92,316.53 C327.57,323.64 326.90,337.93 325.62,345.74 C323.54,358.22 314.17,385.82 313.15,386.00 C312.92,385.99 305.51,388.20 303.18,388.65 C292.70,390.65 268.73,386.91 253.61,387.48 C239.11,388.06 223.44,390.44 217.56,392.01 C221.66,393.40 224.92,393.86 228.00,393.93 C232.17,394.02 251.12,393.67 257.37,394.24 C262.13,394.67 281.65,394.72 284.86,394.46 C288.41,394.17 308.58,390.66 309.88,390.11 C312.43,389.00 313.38,387.03 313.51,386.62 C313.56,386.44 313.67,386.02 313.82,385.35" fill="none" stroke="rgb(148, 201, 254)" stroke-width="16.27" stroke-opacity="1.00" stroke-linejoin="round"/>
<path d="M210.24,322.64 C209.81,321.10 209.63,319.74 209.97,318.69 C210.83,316.08 214.51,311.73 216.14,310.24 C219.67,307.09 234.53,300.48 239.82,298.93 C247.82,296.62 289.31,289.56 294.46,289.32 C304.73,288.93 318.68,289.04 321.60,290.34 C322.57,290.80 326.24,294.59 326.72,295.89 C326.31,297.09 323.84,298.91 320.43,299.63 C315.71,300.57 296.89,301.53 295.02,301.72 C290.22,302.22 278.24,306.42 272.42,309.18 C268.80,310.89 251.23,320.18 246.74,321.89 C244.67,322.67 237.47,324.56 235.61,324.68 C234.55,324.75 225.41,324.53 221.69,324.44 C218.01,324.31 214.63,323.41 213.77,323.01 C217.33,322.77 257.65,323.01 260.46,322.87 C266.98,322.53 271.51,321.33 274.40,320.16 C276.55,319.28 280.90,317.09 281.77,316.65 C278.38,318.14 260.87,327.30 254.92,329.28 C252.33,330.12 245.35,331.75 242.32,331.96 C239.23,332.14 233.16,331.04 229.69,329.43 C226.47,327.89 220.80,323.99 219.74,322.74 C218.50,321.20 216.89,315.46 216.46,311.84 C215.93,306.95 215.74,300.21 215.52,299.32 C215.52,299.32 215.37,323.39 215.37,323.39 C215.37,323.39 232.54,298.33 232.54,298.33 C232.54,298.33 230.19,331.51 230.19,331.51 C230.73,330.55 237.63,310.41 239.36,305.98 C240.28,303.62 243.01,297.34 244.52,295.43 C244.52,295.43 241.64,328.57 241.64,328.57 C242.76,324.25 247.15,312.09 250.52,305.19 C252.06,302.08 254.26,299.27 255.03,298.56 C255.71,300.27 254.48,308.15 253.94,311.21 C252.34,319.73 252.29,322.02 252.34,323.64 C259.57,307.67 265.02,298.61 267.55,295.85 C268.41,297.49 267.46,302.34 266.53,306.48 C261.77,326.96 261.37,333.14 261.38,334.09 C261.65,334.09 268.33,318.07 270.35,313.76 C271.99,310.39 275.38,303.55 277.38,300.06 C278.50,298.12 279.29,297.33 280.12,297.04 C280.16,300.05 276.89,314.57 275.44,321.53 C273.70,330.94 273.28,334.92 273.60,335.88 C274.15,334.97 281.26,317.70 283.86,311.80 C285.21,308.81 288.12,303.27 289.43,302.50 C289.43,302.50 286.60,328.02 286.60,328.02 C288.50,324.67 296.20,309.90 300.92,302.76 C302.75,300.04 305.53,297.02 306.50,297.05 C307.05,298.36 306.42,302.29 305.19,307.71 C304.65,310.06 302.25,319.83 302.26,319.88 C307.11,305.52 312.06,295.92 312.87,295.63 C312.87,295.63 312.39,310.87 312.39,310.87 C312.39,310.87 317.20,295.54 317.20,295.54 C318.38,297.72 318.86,299.14 319.02,301.32 C319.17,303.15 319.40,306.19 319.49,307.41 C319.49,307.41 323.43,293.95 323.43,293.95 C323.43,293.95 322.93,307.23 322.93,307.23 C322.93,307.23 322.21,307.23 322.21,307.23 C322.21,307.23 321.76,306.75 321.76,306.75" fill="none" stroke="rgb(148, 201, 254)" stroke-width="16.27" stroke-opacity="1.00" stroke-linejoin="round"/>
<path d="M201.53,318.44 C201.53,318.44 201.58,318.19 201.58,318.19 C199.76,326.62 198.34,335.79 197.97,342.02 C197.61,348.28 198.22,360.59 199.26,366.97 C200.31,373.23 203.57,384.21 206.50,388.99 C208.01,391.42 211.12,395.03 211.88,395.60 C212.31,395.92 213.34,396.57 214.95,397.56" fill="none" stroke="rgb(0, 0, 0)" stroke-width="8.00" stroke-opacity="1.00" stroke-linejoin="round"/>
<path d="M331.80,290.98 C331.73,291.07 331.69,291.25 331.70,291.52 C331.74,293.73 336.59,311.39 337.37,319.27 C337.89,324.80 336.92,339.74 335.95,345.44 C334.68,352.76 329.43,371.40 328.41,374.18 C326.50,379.28 319.86,391.78 316.99,394.75 C316.71,395.04 315.96,395.78 314.75,396.98" fill="none" stroke="rgb(0, 0, 0)" stroke-width="8.00" stroke-opacity="1.00" stroke-linejoin="round"/>
<path d="M216.71,302.41 C216.71,302.41 215.87,301.70 215.87,301.70 C213.74,302.14 210.01,325.68 209.83,326.84 C209.83,326.84 210.22,325.98 210.22,325.98" fill="none" stroke="rgb(148, 201, 254)" stroke-width="16.27" stroke-opacity="1.00" stroke-linejoin="round"/>
<path d="M212.14,315.41 C212.14,315.43 212.12,315.38 212.11,315.36 C211.86,312.96 212.61,308.39 214.23,305.68 C215.56,303.52 220.85,298.77 222.97,298.38 C223.35,298.31 239.00,295.93 248.91,295.82 C253.35,295.80 263.88,295.83 264.74,295.87 C269.19,296.09 272.54,296.64 272.78,296.64" fill="none" stroke="rgb(148, 201, 254)" stroke-width="16.27" stroke-opacity="1.00" stroke-linejoin="round"/>
<path d="M206.84,296.23 C205.46,299.79 203.70,306.23 203.02,309.23 C202.08,313.51 201.19,318.40 200.84,321.17 C200.73,322.09 200.62,323.01 200.51,323.94" fill="none" stroke="rgb(0, 0, 0)" stroke-width="8.00" stroke-opacity="1.00" stroke-linejoin="round"/>
<path d="M219.26,301.63 C219.26,301.63 218.36,300.96 218.36,300.96 C217.81,301.13 214.11,318.15 212.43,326.05 C210.94,333.54 209.96,346.49 210.17,352.76 C210.35,356.81 210.74,364.96 211.17,368.75 C211.48,371.44 212.15,373.09 213.03,373.27 C215.51,373.72 250.61,373.79 263.19,373.74 C272.46,373.76 282.02,372.67 289.30,371.00 C299.99,368.50 312.36,364.17 312.72,364.03 C314.86,363.14 317.81,360.38 319.11,358.31 C319.57,357.58 322.65,351.77 322.91,350.92 C324.15,346.84 324.97,337.73 325.15,327.81 C325.29,317.45 324.20,308.05 322.78,303.52 C322.57,302.83 319.38,293.59 317.98,289.91 C316.20,289.60 286.83,293.13 266.41,294.27 C259.33,294.62 252.05,294.64 241.50,295.08 C229.48,295.71 225.76,296.38 223.66,297.22 C224.42,298.07 227.49,298.45 230.17,298.62 C234.12,298.84 277.24,298.72 289.40,299.07 C298.62,299.42 307.92,300.24 308.93,300.77 C307.16,302.06 290.19,305.19 282.98,306.44 C241.98,313.97 227.17,318.75 226.89,318.93 C228.55,318.78 269.51,313.82 280.60,313.04 C301.78,312.08 309.35,312.00 310.24,312.00 C295.83,312.65 266.19,314.24 250.20,315.53 C241.59,316.43 227.47,317.92 223.53,318.21 C233.45,318.23 281.95,311.96 283.10,311.68 C281.27,311.00 270.41,310.70 259.88,311.04 C239.91,311.99 220.88,313.61 220.06,314.16 C220.01,314.86 234.31,316.31 243.09,316.43 C267.28,316.39 274.84,316.66 274.48,317.02 C273.14,317.40 251.47,321.74 247.81,322.62 C228.77,327.22 222.10,331.34 220.51,332.56 C221.50,333.35 222.73,333.74 225.00,333.71 C227.81,333.67 265.98,330.68 282.90,330.24 C289.30,330.17 304.78,329.87 308.78,329.49 C304.49,329.28 291.73,329.90 283.00,331.02 C278.22,331.66 259.55,335.65 253.19,337.49 C245.20,339.90 237.63,342.47 232.40,344.55 C234.73,344.21 271.97,334.89 287.11,331.47 C300.12,328.85 314.14,326.02 315.15,325.79 C310.77,325.50 297.43,326.34 289.18,327.77 C284.36,328.61 271.71,331.93 264.29,334.51 C256.92,337.26 243.35,342.58 236.47,345.29 C230.55,347.53 218.20,351.11 214.48,351.72 C218.21,352.02 251.96,347.68 265.40,346.68 C278.72,346.04 299.77,345.33 301.25,345.23 C282.48,348.06 257.72,353.10 247.00,356.57 C241.16,358.47 231.28,362.97 228.90,364.74 C229.92,365.55 239.57,364.06 248.36,362.23 C262.98,359.10 299.07,351.78 304.45,350.39 C312.06,348.41 319.29,345.31 318.90,344.79 C318.35,344.08 314.37,343.54 311.17,343.93 C308.53,344.26 302.66,346.11 300.35,347.21 C296.30,349.19 293.69,351.07 292.40,352.24 C294.39,351.83 297.55,349.99 300.73,347.79 C310.31,341.09 312.80,339.44 314.45,338.69 C314.24,339.18 305.68,350.16 303.96,352.44 C303.80,352.65 303.52,352.97 303.11,353.40" fill="none" stroke="rgb(255, 255, 255)" stroke-width="20.30" stroke-opacity="1.00" stroke-linejoin="round"/>
<path d="M207.08,381.17 C207.31,382.10 216.04,384.76 222.69,385.31 C226.21,385.60 242.75,385.77 250.05,385.75 C261.37,385.46 288.33,382.32 301.51,379.89 C315.07,377.22 325.20,372.26 328.11,371.25 C328.49,371.12 328.82,371.00 329.12,370.89" fill="none" stroke="rgb(0, 0, 0)" stroke-width="8.00" stroke-opacity="1.00" stroke-linejoin="round"/>
<path d="M223.88,293.58 C222.89,299.45 220.23,313.55 219.66,317.51 C218.36,327.29 217.66,335.32 217.20,345.16 C216.61,359.84 218.94,375.13 219.40,376.98 C220.06,379.64 220.64,381.40 221.03,381.91 C221.09,381.98 221.18,382.06 221.29,382.14" fill="none" stroke="rgb(0, 0, 0)" stroke-width="8.00" stroke-opacity="1.00" stroke-linejoin="round"/>
<path d="M242.89,290.48 C241.93,294.99 241.24,298.71 240.77,302.17 C240.45,304.62 240.04,307.78 239.95,308.48" fill="none" stroke="rgb(0, 0, 0)" stroke-width="8.00" stroke-opacity="1.00" stroke-linejoin="round"/>
<path d="M241.57,349.67 C241.46,351.41 241.28,354.63 241.20,356.10 C240.65,367.87 240.54,379.17 241.25,383.08 C241.43,384.07 241.71,384.83 241.84,384.89" fill="none" stroke="rgb(0, 0, 0)" stroke-width="8.00" stroke-opacity="1.00" stroke-linejoin="round"/>
<path d="M266.09,286.39 C266.08,286.41 266.06,286.53 266.02,286.74 C265.42,289.86 264.70,296.06 264.35,300.27 C263.76,308.02 262.76,323.09 262.69,329.50 C262.78,339.49 264.03,365.60 264.44,373.01 C264.57,374.84 265.53,383.14 265.91,385.35 C265.95,385.59 265.99,385.86 266.04,386.15" fill="none" stroke="rgb(0, 0, 0)" stroke-width="8.00" stroke-opacity="1.00" stroke-linejoin="round"/>
<path d="M286.09,284.44 C285.82,284.74 286.84,333.85 287.02,338.00 C287.39,344.62 288.32,362.51 288.30,366.99 C288.27,370.55 288.01,374.49 287.89,375.48 C287.86,375.66 287.83,375.85 287.79,376.06" fill="none" stroke="rgb(0, 0, 0)" stroke-width="8.00" stroke-opacity="1.00" stroke-linejoin="round"/>
<path d="M298.22,283.57 C298.89,283.43 300.07,284.02 300.69,285.84 C302.29,290.66 304.50,325.13 305.79,338.16 C307.65,356.76 308.45,367.03 308.68,371.60 C308.70,371.95 308.71,372.26 308.72,372.52 C308.72,372.57 308.72,372.62 308.72,372.65" fill="none" stroke="rgb(0, 0, 0)" stroke-width="8.00" stroke-opacity="1.00" stroke-linejoin="round"/>
<path d="M317.59,283.73 C317.98,284.11 319.56,289.64 320.08,293.12 C320.90,298.91 322.49,346.21 322.43,352.14 C322.18,361.79 321.13,367.96 320.75,369.35 C320.61,369.87 320.35,370.60 319.97,371.53" fill="none" stroke="rgb(0, 0, 0)" stroke-width="8.00" stroke-opacity="1.00" stroke-linejoin="round"/>
<path d="M255.13,324.61 C255.13,324.61 253.49,324.21 253.49,324.21 C253.49,324.21 277.44,321.74 277.44,321.74 C278.34,322.97 279.20,329.71 279.33,332.51 C279.46,336.08 278.38,340.99 277.06,342.45 C276.37,343.16 274.67,343.69 273.53,343.54 C271.26,343.16 267.26,339.85 264.43,336.54 C261.53,333.12 258.98,329.88 258.18,329.30 C257.38,331.55 255.71,344.56 255.92,348.57 C256.03,350.46 257.00,352.60 258.12,352.96 C259.72,353.43 265.72,352.65 265.87,352.66 C266.28,352.68 267.14,353.64 267.37,353.89 C267.37,353.89 266.00,338.52 266.00,338.52 C266.00,338.52 264.86,351.11 264.86,351.11 C267.48,345.86 273.63,333.46 274.54,330.37 C274.94,329.07 276.71,323.36 277.14,323.08 C277.65,323.46 278.03,325.61 277.77,327.72 C276.55,336.86 269.31,353.02 267.88,354.75" fill="none" stroke="rgb(0, 40, 255)" stroke-width="15.70" stroke-opacity="1.00" stroke-linejoin="round"/>
<path d="M277.54,309.61 C277.56,309.61 277.48,309.60 277.46,309.60 C273.04,309.56 246.84,312.15 239.70,312.64 C239.69,312.77 240.58,314.25 241.09,318.06 C243.06,332.02 243.22,343.63 243.36,344.10 C243.36,344.10 243.99,344.49 243.99,344.49" fill="none" stroke="rgb(255, 0, 9)" stroke-width="9.73" stroke-opacity="1.00" stroke-linejoin="round"/>
<path d="M265.17,328.94 C265.20,328.94 265.12,328.87 265.09,328.86 C263.34,328.16 261.28,327.49 260.56,327.54 C259.47,327.65 257.61,328.69 256.85,329.70 C256.12,330.76 255.83,333.16 256.34,334.33 C256.73,335.18 259.43,338.43 259.55,338.60 C260.16,339.53 260.59,341.59 260.38,342.37 C260.15,343.07 258.92,343.76 257.90,343.79 C255.70,343.81 253.22,342.67 252.45,342.16 C252.45,342.16 252.43,341.54 252.43,341.54 C252.43,341.54 252.60,341.33 252.60,341.33" fill="none" stroke="rgb(0, 0, 0)" stroke-width="8.00" stroke-opacity="1.00" stroke-linejoin="round"/>
<path d="M268.42,333.78 C268.31,333.96 268.22,334.14 268.15,334.34 C267.75,335.55 267.40,338.19 267.64,339.51 C267.96,341.23 269.19,342.44 270.62,342.91 C271.96,342.39 273.06,341.27 273.31,339.75 C273.53,338.33 272.87,335.39 272.11,334.32 C271.40,333.35 269.85,332.74 268.98,332.87 C268.82,332.90 268.64,332.98 268.44,333.11" fill="none" stroke="rgb(0, 0, 0)" stroke-width="8.00" stroke-opacity="1.00" stroke-linejoin="round"/>
<path d="M276.83,329.63 C277.63,338.28 278.92,340.68 279.33,340.87 C280.30,340.16 280.97,339.73 281.34,339.57 C281.70,339.40 282.29,339.28 283.09,339.19" fill="none" stroke="rgb(0, 0, 0)" stroke-width="8.00" stroke-opacity="1.00" stroke-linejoin="round"/>
<path d="M643.02,444.44 C643.02,444.44 642.78,445.11 642.78,445.11" fill="none" stroke="rgb(0, 0, 0)" stroke-width="8.00" stroke-opacity="1.00" stroke-linejoin="round"/>
<path d="M246.23,317.92 C248.64,318.11 250.05,318.09 252.36,317.79 C268.81,315.79 286.00,314.30 286.46,314.50 C287.62,315.11 287.48,320.84 287.38,322.54 C287.11,327.09 287.84,346.22 287.58,347.02 C287.41,347.54 286.74,348.03 286.56,348.03" fill="none" stroke="rgb(0, 0, 0)" stroke-width="8.00" stroke-opacity="1.00" stroke-linejoin="round"/>
<path d="M246.31,316.81 C245.15,321.15 248.36,352.72 248.37,352.72 C251.55,352.79 261.97,361.89 265.83,365.44 C266.99,366.47 276.10,355.08 280.62,350.98 C282.57,349.21 283.26,348.50 283.91,347.61" fill="none" stroke="rgb(0, 0, 0)" stroke-width="8.00" stroke-opacity="1.00" stroke-linejoin="round"/>
</g>
</svg>
