<?xml version="1.0" encoding="UTF-8" standalone="no"?>
<!DOCTYPE svg PUBLIC "-//W3C//DTD SVG 1.1//EN" "http://www.w3.org/Graphics/SVG/1.1/DTD/svg11.dtd">
<svg width="102.86" height="102.86" viewBox="0.00 0.00 500.00 500.00" xmlns="http://www.w3.org/2000/svg" xmlns:xlink="http://www.w3.org/1999/xlink">
<g stroke-linecap="round" id="레이어_7">
<path d="M384.51,238.67 C384.11,238.61 383.77,238.57 383.49,238.57 C381.13,238.58 377.20,240.37 375.12,241.94 C371.74,244.55 366.00,251.83 363.86,255.92 C362.95,257.69 361.17,262.48 360.96,263.72 C360.67,265.66 360.74,268.33 361.23,269.50 C361.74,270.61 363.61,272.26 364.98,272.81 C366.43,273.34 369.74,273.65 371.41,273.38 C373.06,273.08 376.25,271.66 377.74,270.59 C379.16,269.51 381.53,266.86 382.42,265.34 C384.01,262.52 384.98,256.34 384.91,254.20 C384.73,250.06 383.31,244.47 382.31,243.34 C381.74,242.76 380.17,242.20 379.20,242.31 C376.96,242.62 372.37,246.37 370.53,248.57 C367.52,252.26 362.37,262.18 361.15,266.82 C360.58,269.13 360.32,274.01 361.43,274.96 C362.15,275.51 364.77,275.75 366.28,275.34 C369.24,274.49 373.48,271.30 374.75,269.91 C376.22,268.27 378.62,264.40 379.50,262.28 C380.23,260.48 381.45,255.53 381.47,252.72 C381.47,251.42 380.92,249.24 380.45,248.53 C379.92,247.82 378.20,246.89 377.08,246.80 C374.49,246.63 369.84,249.53 368.19,251.41 C366.86,252.97 364.47,257.17 363.69,259.35 C362.86,261.70 361.89,266.38 361.87,268.13 C361.89,270.22 362.39,272.73 363.14,273.58 C363.92,274.38 366.68,275.16 368.33,275.00 C371.57,274.64 376.63,271.95 378.34,270.62 C380.32,269.05 384.14,265.00 385.77,262.72 C387.41,260.38 389.66,255.89 390.53,253.26 C391.41,250.41 391.50,244.17 390.36,242.49 C389.81,241.79 388.04,241.34 386.85,241.71 C384.29,242.55 380.03,246.23 378.57,248.04 C375.37,252.07 370.48,263.21 369.26,268.72 C368.98,270.08 368.65,272.91 368.68,274.11 C368.74,275.31 369.67,276.67 370.55,276.90 C372.51,277.30 377.33,274.94 379.27,273.30 C382.53,270.45 387.99,261.75 388.76,257.99 C389.17,255.90 389.30,252.95 389.00,251.55 C388.74,250.49 387.78,249.00 387.13,248.68 C386.34,248.35 384.09,248.67 382.84,249.40 C380.27,250.94 376.39,255.53 375.16,257.47 C373.75,259.74 371.31,264.97 370.42,267.63 C369.67,269.89 368.46,275.70 368.58,278.59 C368.67,280.08 369.60,282.08 370.43,282.52 C372.19,283.35 377.24,281.18 379.32,279.50 C382.85,276.59 389.26,267.07 391.04,262.17 C391.93,259.66 392.75,254.77 392.10,253.44 C391.73,252.78 390.27,252.08 389.34,252.24 C387.22,252.65 383.28,255.73 381.89,257.33 C380.27,259.23 377.50,263.95 376.37,266.70 C374.35,271.73 372.99,280.65 373.20,283.61 C373.34,285.08 374.26,286.98 375.02,287.36 C376.69,288.07 381.50,285.55 383.51,283.67 C385.22,282.03 388.38,277.78 389.68,275.42 C390.94,273.10 392.70,268.43 393.18,266.17 C393.66,263.82 393.79,258.70 393.20,256.88 C392.93,256.10 392.10,255.15 391.56,255.09 C390.21,255.01 386.60,258.67 385.19,260.93 C383.93,263.00 381.94,267.92 381.42,270.35 C380.89,272.89 380.57,277.79 380.81,279.48 C381.12,281.42 381.95,283.77 382.68,284.46 C383.39,285.07 385.38,285.16 386.59,284.62 C389.11,283.41 392.59,278.46 393.55,276.06 C394.17,274.41 395.29,269.84 395.45,267.97 C395.73,264.09 395.28,260.64 394.30,259.53 C394.30,259.53 396.24,268.04 396.24,268.04 C396.24,268.04 396.64,256.26 396.64,256.26 C396.94,258.20 397.15,262.71 397.21,269.05 C397.24,272.87 396.59,277.07 395.70,279.48 C395.10,280.99 393.78,283.53 392.92,284.42 C389.75,287.61 381.74,287.26 381.04,287.08 C382.36,287.19 387.59,287.47 391.06,286.43 C392.75,285.90 395.66,284.34 396.48,283.53 C397.83,282.10 399.55,275.64 399.70,272.23 C399.83,268.58 399.53,266.77 399.19,266.12 C398.66,269.25 396.79,286.74 395.88,288.36 C394.60,290.40 387.88,290.18 387.92,290.18 C391.69,289.76 396.04,287.87 397.26,286.38 C397.26,286.38 396.82,285.96 396.82,285.96 C396.82,285.96 398.78,282.17 398.78,282.17 C398.06,283.64 397.58,284.58 397.32,285.01 C397.07,285.44 396.69,285.96 396.19,286.56" fill="none" stroke="rgb(204, 170, 254)" stroke-width="13.70" stroke-opacity="1.00" stroke-linejoin="round"/>
<path d="M386.99,234.88 C387.62,235.55 389.36,237.40 390.04,238.08 C395.14,243.05 401.49,251.15 403.34,255.27 C405.07,259.18 406.84,268.55 406.92,273.36 C406.95,275.61 406.64,280.08 406.36,281.73 C405.60,285.96 403.30,290.73 401.20,292.42 C399.24,293.94 393.01,295.84 389.87,296.04 C386.25,296.22 379.48,294.35 377.07,293.40 C367.00,289.30 356.36,280.12 356.05,279.81 C355.96,279.73 355.88,279.63 355.80,279.51" fill="none" stroke="rgb(0, 0, 0)" stroke-width="5.00" stroke-opacity="1.00" stroke-linejoin="round"/>
<path d="M383.42,285.17 C384.55,286.60 386.32,288.57 387.66,289.72 C388.33,290.31 394.49,294.94 394.93,295.31 C395.03,295.39 395.13,295.48 395.21,295.57" fill="none" stroke="rgb(0, 0, 0)" stroke-width="5.00" stroke-opacity="1.00" stroke-linejoin="round"/>
<path d="M395.41,277.24 C396.45,278.45 398.51,280.87 399.53,282.07 C400.47,283.19 402.33,285.43 402.64,285.88 C402.79,286.08 402.92,286.33 403.06,286.61 C403.08,286.66 403.09,286.69 403.09,286.71" fill="none" stroke="rgb(0, 0, 0)" stroke-width="5.00" stroke-opacity="1.00" stroke-linejoin="round"/>
<path d="M399.89,267.00 C399.89,267.00 399.79,266.98 399.79,266.98 C403.11,268.62 404.97,270.17 405.59,271.09 C405.72,271.29 405.87,271.61 406.04,272.04" fill="none" stroke="rgb(0, 0, 0)" stroke-width="5.00" stroke-opacity="1.00" stroke-linejoin="round"/>
<path d="M384.50,241.83 C382.87,241.51 381.83,241.46 380.87,241.81 C378.54,242.70 373.44,246.19 370.86,248.97 C368.23,251.87 364.66,258.84 363.87,262.44 C363.22,265.53 363.19,271.54 363.83,273.39 C364.42,274.99 365.29,275.72 365.66,275.90 C366.44,275.78 368.63,272.97 370.14,269.17 C370.44,268.42 373.63,259.68 375.73,255.93 C379.59,249.20 384.78,246.88 385.64,246.67 C385.83,246.76 387.02,247.49 387.27,247.83 C387.83,248.67 384.69,253.13 382.76,255.14 C380.50,257.46 375.83,262.36 373.41,264.93 C370.76,267.79 367.96,272.24 367.31,275.18 C367.08,276.29 366.97,278.14 367.10,278.72 C367.15,278.92 367.28,279.28 367.50,279.82" fill="none" stroke="rgb(255, 255, 255)" stroke-width="18.59" stroke-opacity="1.00" stroke-linejoin="round"/>
<path d="M371.28,287.25 C372.44,282.71 378.83,270.52 382.46,266.08 C385.11,262.85 393.72,254.12 398.05,250.06 C398.05,250.06 398.08,250.60 398.08,250.60" fill="none" stroke="rgb(0, 0, 0)" stroke-width="6.00" stroke-opacity="1.00" stroke-linejoin="round"/>
<path d="M360.33,262.37 C363.61,265.33 367.57,268.23 371.03,270.47 C372.95,271.70 374.69,272.76 375.27,273.04 C375.40,273.10 375.51,273.13 375.62,273.15" fill="none" stroke="rgb(0, 0, 0)" stroke-width="6.00" stroke-opacity="1.00" stroke-linejoin="round"/>
<path d="M374.00,239.92 C378.43,247.62 383.49,253.21 385.91,255.10 C386.28,255.39 386.94,255.86 387.88,256.51" fill="none" stroke="rgb(0, 0, 0)" stroke-width="6.00" stroke-opacity="1.00" stroke-linejoin="round"/>
</g>
</svg>
