<?xml version="1.0" encoding="UTF-8" standalone="no"?>
<!DOCTYPE svg PUBLIC "-//W3C//DTD SVG 1.1//EN" "http://www.w3.org/Graphics/SVG/1.1/DTD/svg11.dtd">
<svg width="102.86" height="102.86" viewBox="0.00 0.00 500.00 500.00" xmlns="http://www.w3.org/2000/svg" xmlns:xlink="http://www.w3.org/1999/xlink">
<g stroke-linecap="round" id="레이어_11">
<path d="M208.63,320.93 C208.63,320.90 208.66,321.95 208.66,322.54 C208.33,328.83 207.95,339.12 208.48,347.27 C209.14,356.03 210.63,370.40 212.08,375.80 C214.58,384.88 218.03,389.07 219.57,390.52 C219.39,387.93 216.92,370.69 215.80,363.15 C214.63,356.27 213.90,345.11 214.91,340.18 C216.02,335.01 219.56,329.66 220.68,328.26 C221.86,331.54 222.03,338.12 222.15,342.07 C222.47,350.24 223.56,367.75 224.44,374.50 C225.88,384.89 227.31,388.86 227.84,390.12 C228.25,386.47 226.17,330.93 226.24,330.49 C226.28,330.23 226.36,330.11 226.49,330.13 C227.25,330.22 227.88,330.52 228.20,331.33 C229.45,334.54 230.97,351.83 231.60,359.33 C233.61,380.20 235.96,387.65 236.15,388.11 C237.38,380.98 237.17,338.55 238.01,332.23 C238.20,330.82 238.38,330.10 238.61,329.59 C239.98,333.07 240.67,340.86 240.85,342.76 C243.42,372.12 244.89,383.62 246.70,388.87 C246.70,388.87 249.39,335.26 249.39,335.26 C249.60,336.18 251.55,354.78 252.46,363.10 C253.65,372.61 255.86,382.18 256.29,382.11 C256.29,382.11 259.89,327.49 259.89,327.49 C263.03,373.45 264.98,387.89 265.79,391.13 C265.79,391.13 269.83,325.09 269.83,325.09 C269.63,332.43 269.24,347.88 269.04,355.98 C268.79,374.92 270.62,386.84 270.82,387.84 C270.90,387.86 271.86,372.70 272.40,365.80 C273.24,356.83 280.41,312.41 280.41,312.44 C280.41,312.44 281.53,389.14 281.53,389.14 C281.53,389.14 289.16,305.45 289.16,305.45 C289.16,305.45 291.14,380.27 291.14,380.27 C291.56,372.92 292.42,359.78 293.77,350.79 C296.27,334.98 300.91,305.15 300.91,299.28 C301.78,305.62 301.94,319.87 301.88,325.14 C300.65,355.78 299.40,387.41 299.37,388.39 C299.52,379.92 299.98,371.84 300.96,361.53 C308.06,304.47 308.58,298.41 308.90,294.41 C310.17,300.53 310.59,307.17 310.79,319.79 C310.86,327.62 310.92,338.52 310.33,347.87 C309.72,356.36 308.54,372.82 308.49,375.38 C310.23,363.53 316.19,330.60 318.66,314.61 C319.72,307.42 320.84,297.22 320.80,293.06 C323.52,299.05 326.39,311.01 326.92,316.53 C327.57,323.64 326.90,337.93 325.62,345.74 C323.54,358.22 314.17,385.82 313.15,386.00 C312.92,385.99 305.51,388.20 303.18,388.65 C292.70,390.65 268.73,386.91 253.61,387.48 C239.11,388.06 223.44,390.44 217.56,392.01 C221.66,393.40 224.92,393.86 228.00,393.93 C232.17,394.02 251.12,393.67 257.37,394.24 C262.13,394.67 281.65,394.72 284.86,394.46 C288.41,394.17 308.58,390.66 309.88,390.11 C312.43,389.00 313.38,387.03 313.51,386.62 C313.56,386.44 313.67,386.02 313.82,385.35" fill="none" stroke="rgb(148, 201, 254)" stroke-width="16.27" stroke-opacity="1.00" stroke-linejoin="round"/>
<path d="M210.24,322.64 C209.81,321.10 209.63,319.74 209.97,318.69 C210.83,316.08 214.51,311.73 216.14,310.24 C219.67,307.09 234.53,300.48 239.82,298.93 C247.82,296.62 289.31,289.56 294.46,289.32 C304.73,288.93 318.68,289.04 321.60,290.34 C322.57,290.80 326.24,294.59 326.72,295.89 C326.31,297.09 323.84,298.91 320.43,299.63 C315.71,300.57 296.89,301.53 295.02,301.72 C290.22,302.22 278.24,306.42 272.42,309.18 C268.80,310.89 251.23,320.18 246.74,321.89 C244.67,322.67 237.47,324.56 235.61,324.68 C234.55,324.75 225.41,324.53 221.69,324.44 C218.01,324.31 214.63,323.41 213.77,323.01 C217.33,322.77 257.65,323.01 260.46,322.87 C266.98,322.53 271.51,321.33 274.40,320.16 C276.55,319.28 280.90,317.09 281.77,316.65 C278.38,318.14 260.87,327.30 254.92,329.28 C252.33,330.12 245.35,331.75 242.32,331.96 C239.23,332.14 233.16,331.04 229.69,329.43 C226.47,327.89 220.80,323.99 219.74,322.74 C218.50,321.20 216.89,315.46 216.46,311.84 C215.93,306.95 215.74,300.21 215.52,299.32 C215.52,299.32 215.37,323.39 215.37,323.39 C215.37,323.39 232.54,298.33 232.54,298.33 C232.54,298.33 230.19,331.51 230.19,331.51 C230.73,330.55 237.63,310.41 239.36,305.98 C240.28,303.62 243.01,297.34 244.52,295.43 C244.52,295.43 241.64,328.57 241.64,328.57 C242.76,324.25 247.15,312.09 250.52,305.19 C252.06,302.08 254.26,299.27 255.03,298.56 C255.71,300.27 254.48,308.15 253.94,311.21 C252.34,319.73 252.29,322.02 252.34,323.64 C259.57,307.67 265.02,298.61 267.55,295.85 C268.41,297.49 267.46,302.34 266.53,306.48 C261.77,326.96 261.37,333.14 261.38,334.09 C261.65,334.09 268.33,318.07 270.35,313.76 C271.99,310.39 275.38,303.55 277.38,300.06 C278.50,298.12 279.29,297.33 280.12,297.04 C280.16,300.05 276.89,314.57 275.44,321.53 C273.70,330.94 273.28,334.92 273.60,335.88 C274.15,334.97 281.26,317.70 283.86,311.80 C285.21,308.81 288.12,303.27 289.43,302.50 C289.43,302.50 286.60,328.02 286.60,328.02 C288.50,324.67 296.20,309.90 300.92,302.76 C302.75,300.04 305.53,297.02 306.50,297.05 C307.05,298.36 306.42,302.29 305.19,307.71 C304.65,310.06 302.25,319.83 302.26,319.88 C307.11,305.52 312.06,295.92 312.87,295.63 C312.87,295.63 312.39,310.87 312.39,310.87 C312.39,310.87 317.20,295.54 317.20,295.54 C318.38,297.72 318.86,299.14 319.02,301.32 C319.17,303.15 319.40,306.19 319.49,307.41 C319.49,307.41 323.43,293.95 323.43,293.95 C323.43,293.95 322.93,307.23 322.93,307.23 C322.93,307.23 322.21,307.23 322.21,307.23 C322.21,307.23 321.76,306.75 321.76,306.75" fill="none" stroke="rgb(148, 201, 254)" stroke-width="16.27" stroke-opacity="1.00" stroke-linejoin="round"/>
<path d="M201.53,318.44 C201.53,318.44 201.58,318.19 201.58,318.19 C199.76,326.62 198.34,335.79 197.97,342.02 C197.61,348.28 198.22,360.59 199.26,366.97 C200.31,373.23 203.57,384.21 206.50,388.99 C208.01,391.42 211.12,395.03 211.88,395.60 C212.31,395.92 213.34,396.57 214.95,397.56" fill="none" stroke="rgb(0, 0, 0)" stroke-width="8.00" stroke-opacity="1.00" stroke-linejoin="round"/>
<path d="M331.80,290.98 C331.73,291.07 331.69,291.25 331.70,291.52 C331.74,293.73 336.59,311.39 337.37,319.27 C337.89,324.80 336.92,339.74 335.95,345.44 C334.68,352.76 329.43,371.40 328.41,374.18 C326.50,379.28 319.86,391.78 316.99,394.75 C316.71,395.04 315.96,395.78 314.75,396.98" fill="none" stroke="rgb(0, 0, 0)" stroke-width="8.00" stroke-opacity="1.00" stroke-linejoin="round"/>
<path d="M216.71,302.41 C216.71,302.41 215.87,301.70 215.87,301.70 C213.74,302.14 210.01,325.68 209.83,326.84 C209.83,326.84 210.22,325.98 210.22,325.98" fill="none" stroke="rgb(148, 201, 254)" stroke-width="16.27" stroke-opacity="1.00" stroke-linejoin="round"/>
<path d="M212.14,315.41 C212.14,315.43 212.12,315.38 212.11,315.36 C211.86,312.96 212.61,308.39 214.23,305.68 C215.56,303.52 220.85,298.77 222.97,298.38 C223.35,298.31 239.00,295.93 248.91,295.82 C253.35,295.80 263.88,295.83 264.74,295.87 C269.19,296.09 272.54,296.64 272.78,296.64" fill="none" stroke="rgb(148, 201, 254)" stroke-width="16.27" stroke-opacity="1.00" stroke-linejoin="round"/>
<path d="M206.84,296.23 C205.46,299.79 203.70,306.23 203.02,309.23 C202.08,313.51 201.19,318.40 200.84,321.17 C200.73,322.09 200.62,323.01 200.51,323.94" fill="none" stroke="rgb(0, 0, 0)" stroke-width="8.00" stroke-opacity="1.00" stroke-linejoin="round"/>
<path d="M221.10,329.04 C221.10,329.04 222.07,350.38 222.07,350.38 C222.07,350.38 223.95,332.66 223.95,332.66 C225.14,332.66 230.47,334.40 233.06,334.83 C236.21,335.33 244.80,335.77 247.60,335.60 C253.60,335.19 270.15,328.94 274.85,326.88 C279.68,324.75 281.94,323.42 284.10,322.09 C284.10,322.09 273.32,331.67 273.32,331.67 C273.28,331.70 277.60,327.33 279.69,324.75 C283.28,320.30 292.17,307.21 295.23,304.78 C305.06,297.10 318.50,292.68 319.47,292.37 C319.40,292.76 311.76,304.79 308.66,310.99 C304.56,319.06 299.12,339.00 298.59,341.19 C298.59,341.19 299.20,340.66 299.20,340.66" fill="none" stroke="rgb(191, 122, 58)" stroke-width="17.79" stroke-opacity="1.00" stroke-linejoin="round"/>
<path d="M323.99,292.44 C321.25,294.74 309.58,307.06 304.05,312.81 C302.79,314.10 300.07,316.86 298.62,318.33 C297.46,319.50 295.57,321.39 294.84,322.12" fill="none" stroke="rgb(191, 122, 58)" stroke-width="17.79" stroke-opacity="1.00" stroke-linejoin="round"/>
<path d="M220.09,296.83 C220.74,300.81 221.20,304.65 221.33,308.64 C221.47,313.32 221.01,330.65 220.76,336.92 C221.06,335.55 228.23,313.01 229.03,309.47 C230.25,302.91 231.90,297.38 232.19,296.42 C232.84,297.64 232.92,297.92 232.94,297.92 C232.95,297.91 239.70,297.44 245.39,296.40 C245.39,296.40 259.48,300.75 259.48,300.75" fill="none" stroke="rgb(191, 122, 58)" stroke-width="17.79" stroke-opacity="1.00" stroke-linejoin="round"/>
<path d="M269.39,298.60 C269.39,298.60 285.60,288.84 285.60,288.84 C296.44,287.10 306.14,286.00 312.21,286.36 C313.78,286.45 314.56,286.71 315.06,287.14 C315.03,288.54 305.79,292.62 296.85,295.78 C289.49,298.23 276.59,302.47 275.96,302.67" fill="none" stroke="rgb(191, 122, 58)" stroke-width="17.79" stroke-opacity="1.00" stroke-linejoin="round"/>
<path d="M251.00,309.67 C250.77,309.74 247.91,310.68 245.27,311.55 C237.24,314.19 235.68,318.25 235.57,319.39 C235.57,319.39 236.39,320.38 236.39,320.38 C240.64,319.80 249.58,315.28 252.65,313.61" fill="none" stroke="rgb(191, 122, 58)" stroke-width="17.79" stroke-opacity="1.00" stroke-linejoin="round"/>
<path d="M272.37,302.73 C272.37,302.73 264.89,312.84 264.89,312.84" fill="none" stroke="rgb(191, 122, 58)" stroke-width="17.79" stroke-opacity="1.00" stroke-linejoin="round"/>
<path d="M251.07,310.76 C248.43,312.10 243.75,314.88 241.09,316.72 C238.30,318.68 232.28,323.94 231.47,326.17 C231.35,326.54 231.42,326.95 231.70,327.38 C233.42,328.46 239.65,328.06 243.48,327.18 C248.95,325.90 277.39,316.57 282.96,314.83 C279.13,315.50 268.41,321.14 262.79,325.33 C257.51,329.30 247.88,338.36 244.98,342.81 C242.29,346.95 239.29,351.10 237.81,352.11 C236.27,353.12 231.86,354.56 230.61,354.40 C229.77,354.27 228.24,353.38 227.63,352.63 C226.31,350.89 225.97,347.50 225.83,344.42 C223.34,348.52 221.42,351.47 219.67,353.35 C216.95,356.26 211.96,361.66 211.58,362.57 C210.32,365.71 210.66,366.95 210.94,367.53 C212.39,366.96 213.65,365.61 214.81,363.22 C215.91,360.89 217.12,355.34 216.45,353.51 C214.66,354.63 213.45,356.08 212.30,358.63 C210.20,363.31 208.96,369.58 209.26,370.96 C209.99,371.38 213.94,366.84 217.04,362.42 C219.87,358.34 223.14,352.72 223.62,350.84 C221.06,352.26 218.01,356.57 216.56,358.92 C215.05,361.39 212.46,366.91 212.09,369.81 C211.98,370.88 214.11,372.35 215.97,372.30 C217.85,372.22 222.97,370.03 225.30,368.57 C226.38,367.88 233.30,363.06 235.94,360.88 C238.24,358.96 240.60,355.70 240.36,354.79 C239.43,354.26 235.77,355.16 232.17,357.34 C231.48,357.76 224.72,362.81 222.40,365.30 C220.55,367.31 218.10,371.61 218.06,372.87 C218.07,373.61 218.75,374.68 219.48,374.94 C221.20,375.47 227.22,373.56 231.47,371.32 C236.74,368.51 253.13,356.97 256.34,353.83 C259.73,350.44 262.35,346.23 261.96,345.20 C261.71,344.76 261.21,344.23 260.69,344.17 C259.26,344.06 256.72,344.69 254.88,345.70 C252.04,347.30 247.04,352.01 244.29,355.54 C241.34,359.32 237.73,362.48 235.81,363.64 C226.08,369.34 212.48,373.99 209.57,374.56 C212.86,375.08 221.22,374.86 223.04,374.63 C227.32,374.06 240.71,369.87 247.14,367.86 C255.74,365.38 269.24,362.41 269.80,361.82 C271.85,359.58 280.89,341.45 281.60,339.67 C283.18,335.60 283.00,334.10 282.70,333.39 C281.48,332.63 276.75,334.05 273.47,335.89 C267.46,339.32 252.97,351.47 251.16,355.13 C250.92,355.63 250.57,356.69 250.11,358.31 C250.49,359.23 251.35,360.06 252.61,360.29 C254.96,360.69 260.23,359.92 262.27,359.34 C266.77,358.00 277.76,351.67 282.07,347.83 C289.36,341.27 290.61,336.14 290.38,335.70 C289.46,334.99 285.50,336.80 283.07,338.65 C280.90,340.33 277.43,343.66 275.90,345.57 C274.60,347.22 271.85,351.96 271.03,354.89 C270.65,356.30 270.66,358.76 271.00,359.61 C271.40,360.43 273.10,361.69 274.26,361.90 C276.79,362.30 281.76,360.95 283.61,360.05 C287.81,357.96 296.39,349.69 299.94,344.72 C301.38,342.68 304.39,337.49 305.38,334.71 C306.36,331.87 305.75,330.34 305.10,329.63 C303.13,329.17 298.20,331.41 295.67,333.25 C293.34,334.98 289.23,339.23 287.46,341.75 C285.78,344.19 283.23,349.36 282.44,351.84 C281.65,354.42 281.19,359.61 282.13,361.26 C282.62,362.04 284.26,363.26 285.22,363.56 C287.33,364.14 291.81,362.18 293.89,360.57 C297.91,357.37 305.70,347.43 308.41,341.93 C309.96,338.73 311.15,334.92 311.68,331.52 C312.38,326.70 312.80,311.01 312.65,310.42 C311.58,312.26 309.67,330.28 310.24,335.91 C310.57,338.91 311.75,345.55 312.25,347.34 C313.38,351.26 315.63,354.99 317.84,355.90 C318.05,355.98 318.31,356.04 318.62,356.10 C319.18,355.27 319.25,354.35 318.68,353.01 C318.13,351.72 317.17,350.44 315.66,348.84 C315.34,349.71 315.24,350.69 315.63,351.89 C316.43,354.20 318.00,356.72 319.36,357.65 C320.47,358.39 322.00,358.71 323.22,358.67 C323.22,358.67 324.93,355.82 324.93,355.82 C325.74,356.92 325.78,360.88 324.55,362.57 C323.37,364.08 319.36,365.90 314.91,366.96 C306.19,368.99 285.40,368.32 274.90,367.03 C275.91,367.86 279.96,369.32 282.06,369.63 C285.24,370.09 307.00,370.48 310.97,370.21 C311.91,370.15 320.64,369.09 320.82,369.24" fill="none" stroke="rgb(191, 122, 58)" stroke-width="17.79" stroke-opacity="1.00" stroke-linejoin="round"/>
<path d="M210.24,375.37 C210.24,375.37 208.67,375.99 208.67,375.99 C208.90,376.68 209.87,377.16 211.16,376.98 C211.68,376.91 214.58,375.88 215.15,375.71 C215.41,375.64 215.80,375.55 216.32,375.46" fill="none" stroke="rgb(191, 122, 58)" stroke-width="17.79" stroke-opacity="1.00" stroke-linejoin="round"/>
<path d="M256.73,307.05 C256.70,307.01 256.65,306.95 256.60,306.86 C256.23,306.22 256.09,305.72 256.14,305.29 C256.14,305.29 262.10,310.93 262.10,310.93 C262.10,310.93 260.27,305.35 260.27,305.35 C260.27,305.35 261.13,314.68 261.13,314.68 C261.13,314.68 260.32,312.11 260.32,312.11 C260.32,312.11 260.95,312.99 260.95,312.99" fill="none" stroke="rgb(191, 122, 58)" stroke-width="8.00" stroke-opacity="1.00" stroke-linejoin="round"/>
<path d="M265.61,322.94 C265.22,326.56 265.51,340.07 266.29,347.61 C267.19,355.00 269.27,371.96 269.97,373.65 C270.27,374.32 275.63,376.00 278.56,376.92 C285.04,378.80 295.59,379.83 303.07,379.04 C315.41,377.71 319.49,377.49 322.25,377.99 C322.73,378.08 323.21,378.18 323.69,378.27" fill="none" stroke="rgb(0, 0, 0)" stroke-width="8.00" stroke-opacity="1.00" stroke-linejoin="round"/>
<path d="M211.88,385.35 C214.86,385.61 219.19,385.11 224.70,384.04 C241.26,380.46 260.60,376.21 263.38,375.54 C263.71,375.47 264.33,375.33 265.24,375.14" fill="none" stroke="rgb(0, 0, 0)" stroke-width="8.00" stroke-opacity="1.00" stroke-linejoin="round"/>
<path d="M331.99,291.46 C331.95,291.43 331.85,291.47 331.69,291.59 C329.77,293.07 327.85,296.32 326.22,300.24 C324.20,305.18 321.05,321.04 320.88,328.41 C320.81,332.40 321.85,339.21 322.81,342.51 C323.70,345.43 325.80,348.13 326.84,348.88 C327.20,349.13 327.78,349.37 328.57,349.59" fill="none" stroke="rgb(0, 0, 0)" stroke-width="8.00" stroke-opacity="1.00" stroke-linejoin="round"/>
<path d="M213.30,317.56 C213.35,317.68 213.30,318.99 213.17,321.13 C212.91,324.80 212.14,335.04 211.95,336.49 C211.26,341.34 208.64,347.84 207.33,350.03 C206.23,351.85 202.13,356.60 200.53,358.16 C199.29,359.38 197.23,361.25 196.95,361.47" fill="none" stroke="rgb(0, 0, 0)" stroke-width="8.00" stroke-opacity="1.00" stroke-linejoin="round"/>
<path d="M280.49,337.66 C287.58,336.19 308.07,335.03 308.93,335.20 C309.23,335.26 309.67,335.45 310.25,335.79 C310.70,337.20 309.40,342.86 308.68,346.02 C308.21,348.09 307.70,349.60 307.20,350.21 C306.68,350.78 305.11,351.04 304.05,350.75 C293.30,347.70 282.74,345.64 282.43,345.51 C281.23,344.99 280.53,343.85 281.00,342.75 C281.91,340.73 282.44,339.59 282.58,339.33 C282.81,338.93 283.10,338.59 283.44,338.32" fill="none" stroke="rgb(0, 0, 0)" stroke-width="8.00" stroke-opacity="1.00" stroke-linejoin="round"/>
<path d="M281.63,348.12 C280.69,352.53 280.76,356.05 280.96,358.55 C281.08,359.87 281.61,362.34 282.08,363.55 C282.51,364.57 283.77,365.68 284.77,365.96 C287.14,366.54 291.44,366.57 294.85,366.21 C298.30,365.82 306.27,364.92 306.98,364.85 C307.55,364.77 307.84,359.29 307.87,357.25 C307.90,356.73 307.97,356.07 308.08,355.27 C308.11,355.05 308.16,354.78 308.22,354.46" fill="none" stroke="rgb(0, 0, 0)" stroke-width="8.00" stroke-opacity="1.00" stroke-linejoin="round"/>
<path d="M221.59,348.84 C228.25,344.84 242.74,341.80 245.31,341.31 C245.99,342.79 246.29,346.71 246.26,349.32 C246.22,351.60 245.08,353.93 243.94,353.97 C241.57,353.84 235.66,353.75 231.92,354.91 C231.05,355.19 222.37,357.95 221.19,357.81 C220.70,357.17 220.60,352.58 220.63,352.12 C220.65,351.83 220.71,351.48 220.82,351.06" fill="none" stroke="rgb(0, 0, 0)" stroke-width="8.00" stroke-opacity="1.00" stroke-linejoin="round"/>
<path d="M220.87,361.28 C220.79,361.23 220.77,361.28 220.80,361.43 C221.99,368.51 223.50,373.51 223.93,374.35 C224.96,374.83 227.62,374.19 234.19,372.19 C245.84,368.49 249.00,367.33 251.68,366.30 C251.60,365.67 249.75,360.87 249.57,358.15 C249.54,357.67 249.52,356.99 249.51,356.10 C249.51,355.90 249.51,355.70 249.51,355.51" fill="none" stroke="rgb(0, 0, 0)" stroke-width="8.00" stroke-opacity="1.00" stroke-linejoin="round"/>
<path d="M265.11,324.34 C265.00,323.54 264.96,322.55 264.98,320.02 C265.03,311.74 265.10,302.29 265.11,301.12 C265.11,301.12 284.34,281.72 284.34,281.72 C284.34,281.72 284.04,282.14 284.04,282.14" fill="none" stroke="rgb(0, 0, 0)" stroke-width="8.00" stroke-opacity="1.00" stroke-linejoin="round"/>
<path d="M245.95,289.02 C247.72,290.67 250.46,292.89 253.92,295.45 C256.33,297.24 261.16,301.03 262.02,301.13 C262.15,301.14 262.34,301.12 262.59,301.05" fill="none" stroke="rgb(0, 0, 0)" stroke-width="8.00" stroke-opacity="1.00" stroke-linejoin="round"/>
<path d="M212.19,293.42 C212.20,296.70 212.85,322.89 212.62,324.60 C212.59,324.79 212.56,324.98 212.53,325.17" fill="none" stroke="rgb(0, 0, 0)" stroke-width="8.00" stroke-opacity="1.00" stroke-linejoin="round"/>
<path d="M288.09,291.97 C288.06,291.98 288.15,291.96 288.18,291.95 C291.70,291.25 295.05,290.70 298.48,290.37 C309.70,289.38 311.57,289.77 312.25,290.18 C312.69,291.22 312.35,296.26 312.02,296.68 C311.42,297.34 306.64,297.78 305.05,297.92 C298.48,298.53 294.04,298.84 292.36,298.76 C289.98,298.63 288.68,297.95 287.99,297.39 C287.86,297.18 287.88,296.10 288.05,293.44 C288.07,293.09 288.09,292.90 288.09,292.87" fill="none" stroke="rgb(0, 0, 0)" stroke-width="8.00" stroke-opacity="1.00" stroke-linejoin="round"/>
<path d="M286.36,298.66 C286.36,298.65 286.35,298.68 286.35,298.69 C285.96,301.77 285.60,308.86 285.85,309.92 C286.08,310.71 286.83,311.59 287.56,311.83 C296.46,314.47 309.74,310.71 310.52,310.08 C310.84,309.75 310.95,303.88 310.95,302.56 C310.95,302.19 310.94,301.82 310.93,301.46" fill="none" stroke="rgb(0, 0, 0)" stroke-width="8.00" stroke-opacity="1.00" stroke-linejoin="round"/>
<path d="M221.41,298.50 C221.60,298.42 223.77,297.61 224.83,297.25 C230.89,295.22 240.76,294.02 241.90,294.32 C242.96,294.73 243.26,306.25 242.88,307.06 C242.32,308.01 227.27,308.61 223.33,308.26 C222.37,308.15 221.89,301.81 221.81,300.72 C221.78,300.35 221.75,299.98 221.72,299.62" fill="none" stroke="rgb(0, 0, 0)" stroke-width="8.00" stroke-opacity="1.00" stroke-linejoin="round"/>
<path d="M221.55,312.00 C221.55,312.00 223.11,321.94 223.11,321.94 C223.91,322.54 229.09,322.39 233.41,321.98 C237.66,321.56 242.76,320.61 243.86,319.89 C244.69,319.27 244.83,317.04 244.89,311.95 C244.91,310.48 244.86,309.84 244.73,309.35 C244.73,309.35 244.48,309.36 244.48,309.36" fill="none" stroke="rgb(0, 0, 0)" stroke-width="8.00" stroke-opacity="1.00" stroke-linejoin="round"/>
</g>
</svg>
