<?xml version="1.0" encoding="UTF-8" standalone="no"?>
<!DOCTYPE svg PUBLIC "-//W3C//DTD SVG 1.1//EN" "http://www.w3.org/Graphics/SVG/1.1/DTD/svg11.dtd">
<svg width="102.86" height="102.86" viewBox="0.00 0.00 500.00 500.00" xmlns="http://www.w3.org/2000/svg" xmlns:xlink="http://www.w3.org/1999/xlink">
<g stroke-linecap="round" id="레이어_11">
<path d="M208.63,320.93 C208.63,320.90 208.66,321.95 208.66,322.54 C208.33,328.83 207.95,339.12 208.48,347.27 C209.14,356.03 210.63,370.40 212.08,375.80 C214.58,384.88 218.03,389.07 219.57,390.52 C219.39,387.93 216.92,370.69 215.80,363.15 C214.63,356.27 213.90,345.11 214.91,340.18 C216.02,335.01 219.56,329.66 220.68,328.26 C221.86,331.54 222.03,338.12 222.15,342.07 C222.47,350.24 223.56,367.75 224.44,374.50 C225.88,384.89 227.31,388.86 227.84,390.12 C228.25,386.47 226.17,330.93 226.24,330.49 C226.28,330.23 226.36,330.11 226.49,330.13 C227.25,330.22 227.88,330.52 228.20,331.33 C229.45,334.54 230.97,351.83 231.60,359.33 C233.61,380.20 235.96,387.65 236.15,388.11 C237.38,380.98 237.17,338.55 238.01,332.23 C238.20,330.82 238.38,330.10 238.61,329.59 C239.98,333.07 240.67,340.86 240.85,342.76 C243.42,372.12 244.89,383.62 246.70,388.87 C246.70,388.87 249.39,335.26 249.39,335.26 C249.60,336.18 251.55,354.78 252.46,363.10 C253.65,372.61 255.86,382.18 256.29,382.11 C256.29,382.11 259.89,327.49 259.89,327.49 C263.03,373.45 264.98,387.89 265.79,391.13 C265.79,391.13 269.83,325.09 269.83,325.09 C269.63,332.43 269.24,347.88 269.04,355.98 C268.79,374.92 270.62,386.84 270.82,387.84 C270.90,387.86 271.86,372.70 272.40,365.80 C273.24,356.83 280.41,312.41 280.41,312.44 C280.41,312.44 281.53,389.14 281.53,389.14 C281.53,389.14 289.16,305.45 289.16,305.45 C289.16,305.45 291.14,380.27 291.14,380.27 C291.56,372.92 292.42,359.78 293.77,350.79 C296.27,334.98 300.91,305.15 300.91,299.28 C301.78,305.62 301.94,319.87 301.88,325.14 C300.65,355.78 299.40,387.41 299.37,388.39 C299.52,379.92 299.98,371.84 300.96,361.53 C308.06,304.47 308.58,298.41 308.90,294.41 C310.17,300.53 310.59,307.17 310.79,319.79 C310.86,327.62 310.92,338.52 310.33,347.87 C309.72,356.36 308.54,372.82 308.49,375.38 C310.23,363.53 316.19,330.60 318.66,314.61 C319.72,307.42 320.84,297.22 320.80,293.06 C323.52,299.05 326.39,311.01 326.92,316.53 C327.57,323.64 326.90,337.93 325.62,345.74 C323.54,358.22 314.17,385.82 313.15,386.00 C312.92,385.99 305.51,388.20 303.18,388.65 C292.70,390.65 268.73,386.91 253.61,387.48 C239.11,388.06 223.44,390.44 217.56,392.01 C221.66,393.40 224.92,393.86 228.00,393.93 C232.17,394.02 251.12,393.67 257.37,394.24 C262.13,394.67 281.65,394.72 284.86,394.46 C288.41,394.17 308.58,390.66 309.88,390.11 C312.43,389.00 313.38,387.03 313.51,386.62 C313.56,386.44 313.67,386.02 313.82,385.35" fill="none" stroke="rgb(148, 201, 254)" stroke-width="16.27" stroke-opacity="1.00" stroke-linejoin="round"/>
<path d="M210.24,322.64 C209.81,321.10 209.63,319.74 209.97,318.69 C210.83,316.08 214.51,311.73 216.14,310.24 C219.67,307.09 234.53,300.48 239.82,298.93 C247.82,296.62 289.31,289.56 294.46,289.32 C304.73,288.93 318.68,289.04 321.60,290.34 C322.57,290.80 326.24,294.59 326.72,295.89 C326.31,297.09 323.84,298.91 320.43,299.63 C315.71,300.57 296.89,301.53 295.02,301.72 C290.22,302.22 278.24,306.42 272.42,309.18 C268.80,310.89 251.23,320.18 246.74,321.89 C244.67,322.67 237.47,324.56 235.61,324.68 C234.55,324.75 225.41,324.53 221.69,324.44 C218.01,324.31 214.63,323.41 213.77,323.01 C217.33,322.77 257.65,323.01 260.46,322.87 C266.98,322.53 271.51,321.33 274.40,320.16 C276.55,319.28 280.90,317.09 281.77,316.65 C278.38,318.14 260.87,327.30 254.92,329.28 C252.33,330.12 245.35,331.75 242.32,331.96 C239.23,332.14 233.16,331.04 229.69,329.43 C226.47,327.89 220.80,323.99 219.74,322.74 C218.50,321.20 216.89,315.46 216.46,311.84 C215.93,306.95 215.74,300.21 215.52,299.32 C215.52,299.32 215.37,323.39 215.37,323.39 C215.37,323.39 232.54,298.33 232.54,298.33 C232.54,298.33 230.19,331.51 230.19,331.51 C230.73,330.55 237.63,310.41 239.36,305.98 C240.28,303.62 243.01,297.34 244.52,295.43 C244.52,295.43 241.64,328.57 241.64,328.57 C242.76,324.25 247.15,312.09 250.52,305.19 C252.06,302.08 254.26,299.27 255.03,298.56 C255.71,300.27 254.48,308.15 253.94,311.21 C252.34,319.73 252.29,322.02 252.34,323.64 C259.57,307.67 265.02,298.61 267.55,295.85 C268.41,297.49 267.46,302.34 266.53,306.48 C261.77,326.96 261.37,333.14 261.38,334.09 C261.65,334.09 268.33,318.07 270.35,313.76 C271.99,310.39 275.38,303.55 277.38,300.06 C278.50,298.12 279.29,297.33 280.12,297.04 C280.16,300.05 276.89,314.57 275.44,321.53 C273.70,330.94 273.28,334.92 273.60,335.88 C274.15,334.97 281.26,317.70 283.86,311.80 C285.21,308.81 288.12,303.27 289.43,302.50 C289.43,302.50 286.60,328.02 286.60,328.02 C288.50,324.67 296.20,309.90 300.92,302.76 C302.75,300.04 305.53,297.02 306.50,297.05 C307.05,298.36 306.42,302.29 305.19,307.71 C304.65,310.06 302.25,319.83 302.26,319.88 C307.11,305.52 312.06,295.92 312.87,295.63 C312.87,295.63 312.39,310.87 312.39,310.87 C312.39,310.87 317.20,295.54 317.20,295.54 C318.38,297.72 318.86,299.14 319.02,301.32 C319.17,303.15 319.40,306.19 319.49,307.41 C319.49,307.41 323.43,293.95 323.43,293.95 C323.43,293.95 322.93,307.23 322.93,307.23 C322.93,307.23 322.21,307.23 322.21,307.23 C322.21,307.23 321.76,306.75 321.76,306.75" fill="none" stroke="rgb(148, 201, 254)" stroke-width="16.27" stroke-opacity="1.00" stroke-linejoin="round"/>
<path d="M201.53,318.44 C201.53,318.44 201.58,318.19 201.58,318.19 C199.76,326.62 198.34,335.79 197.97,342.02 C197.61,348.28 198.22,360.59 199.26,366.97 C200.31,373.23 203.57,384.21 206.50,388.99 C208.01,391.42 211.12,395.03 211.88,395.60 C212.31,395.92 213.34,396.57 214.95,397.56" fill="none" stroke="rgb(0, 0, 0)" stroke-width="8.00" stroke-opacity="1.00" stroke-linejoin="round"/>
<path d="M331.80,290.98 C331.73,291.07 331.69,291.25 331.70,291.52 C331.74,293.73 336.59,311.39 337.37,319.27 C337.89,324.80 336.92,339.74 335.95,345.44 C334.68,352.76 329.43,371.40 328.41,374.18 C326.50,379.28 319.86,391.78 316.99,394.75 C316.71,395.04 315.96,395.78 314.75,396.98" fill="none" stroke="rgb(0, 0, 0)" stroke-width="8.00" stroke-opacity="1.00" stroke-linejoin="round"/>
<path d="M216.71,302.41 C216.71,302.41 215.87,301.70 215.87,301.70 C213.74,302.14 210.01,325.68 209.83,326.84 C209.83,326.84 210.22,325.98 210.22,325.98" fill="none" stroke="rgb(148, 201, 254)" stroke-width="16.27" stroke-opacity="1.00" stroke-linejoin="round"/>
<path d="M212.14,315.41 C212.14,315.43 212.12,315.38 212.11,315.36 C211.86,312.96 212.61,308.39 214.23,305.68 C215.56,303.52 220.85,298.77 222.97,298.38 C223.35,298.31 239.00,295.93 248.91,295.82 C253.35,295.80 263.88,295.83 264.74,295.87 C269.19,296.09 272.54,296.64 272.78,296.64" fill="none" stroke="rgb(148, 201, 254)" stroke-width="16.27" stroke-opacity="1.00" stroke-linejoin="round"/>
<path d="M206.84,296.23 C205.46,299.79 203.70,306.23 203.02,309.23 C202.08,313.51 201.19,318.40 200.84,321.17 C200.73,322.09 200.62,323.01 200.51,323.94" fill="none" stroke="rgb(0, 0, 0)" stroke-width="8.00" stroke-opacity="1.00" stroke-linejoin="round"/>
<path d="M216.21,300.72 C216.14,308.09 215.20,316.48 213.65,327.79 C212.25,337.40 210.46,345.68 210.13,351.81 C209.06,349.67 208.28,334.58 208.75,330.33 C209.16,326.77 210.19,321.17 211.16,316.77 C212.41,318.94 212.57,350.65 212.20,354.90 C215.04,355.10 230.31,355.43 238.72,355.38 C244.71,355.10 252.86,354.76 253.35,354.41 C254.02,352.67 254.95,346.83 254.85,345.16 C254.80,344.34 253.75,328.65 252.30,320.03 C251.89,317.76 250.86,315.19 249.24,313.72 C248.84,313.37 229.13,297.66 228.93,297.65 C226.63,297.60 222.57,300.02 220.84,301.51 C219.83,302.39 219.31,303.03 219.05,303.59 C219.35,304.23 222.51,303.75 230.02,302.16 C234.83,301.13 238.80,301.01 239.30,301.55 C239.71,302.05 237.98,304.38 233.31,309.44 C225.78,317.60 221.24,322.87 219.22,326.31 C220.47,326.80 223.65,325.30 228.87,322.45 C230.37,321.60 237.86,317.22 239.65,316.17 C221.60,328.35 221.61,333.96 221.72,334.48 C223.03,334.62 240.58,323.19 240.82,323.04 C241.03,322.92 241.30,322.77 241.63,322.61 C230.07,335.31 225.12,344.06 225.51,344.56 C226.46,344.81 230.18,343.03 234.84,340.31 C236.00,339.63 245.16,334.23 246.10,333.77 C246.10,333.77 234.48,349.21 234.48,349.21 C235.93,349.62 246.47,343.40 247.38,342.85 C247.75,342.63 248.32,342.31 249.08,341.90" fill="none" stroke="rgb(0, 47, 148)" stroke-width="17.69" stroke-opacity="1.00" stroke-linejoin="round"/>
<path d="M272.33,315.18 C272.92,315.33 275.89,313.63 279.01,311.42 C284.61,307.44 291.24,300.87 295.74,295.34 C299.78,290.74 301.63,289.59 303.16,288.81 C298.21,292.77 285.00,303.08 284.11,304.06 C283.17,305.10 282.08,306.87 281.66,307.84 C284.28,304.42 299.22,292.00 299.37,291.90 C300.80,290.94 304.86,290.22 308.99,290.21 C311.67,290.23 313.64,290.43 315.52,290.87 C317.01,291.25 318.71,292.28 319.47,293.25 C320.89,295.21 322.65,305.63 324.86,317.59 C326.43,326.50 327.70,344.94 327.06,346.45 C326.29,348.17 322.09,351.16 320.38,351.95 C316.84,353.56 302.95,356.12 295.78,356.53 C293.33,356.67 279.57,356.29 278.64,356.08 C276.53,355.53 274.49,351.96 273.62,348.36 C270.53,334.88 272.06,323.55 272.44,321.67 C273.07,322.29 274.92,346.34 275.17,348.09 C275.50,350.48 276.00,352.41 276.42,353.15 C278.55,349.78 280.63,344.04 281.49,341.52 C286.15,327.48 289.41,308.86 289.12,307.84 C286.76,316.19 284.56,345.44 285.81,344.76 C285.81,344.76 298.54,303.80 298.54,303.80 C297.63,310.24 295.67,324.92 295.30,331.44 C294.77,341.17 295.74,347.77 296.27,348.30 C296.27,348.30 309.50,303.89 309.50,303.89 C307.19,321.27 306.29,342.07 307.29,343.69 C307.29,343.69 311.53,303.94 311.53,303.94 C311.53,303.94 314.81,340.74 314.81,340.74" fill="none" stroke="rgb(0, 47, 148)" stroke-width="17.69" stroke-opacity="1.00" stroke-linejoin="round"/>
<path d="M271.44,373.32 C271.44,373.32 271.19,373.20 271.19,373.20 C278.34,372.26 293.58,370.27 301.68,369.21 C311.95,367.86 322.13,365.60 325.29,365.04 C324.73,365.30 320.28,368.09 317.80,368.47 C314.28,368.97 297.69,370.26 290.79,370.75 C287.79,371.02 281.86,371.73 279.14,372.05 C278.48,372.12 277.82,372.19 277.16,372.26" fill="none" stroke="rgb(255, 255, 255)" stroke-width="8.25" stroke-opacity="1.00" stroke-linejoin="round"/>
<path d="M206.84,368.36 C206.84,368.36 206.42,368.19 206.42,368.19 C208.13,369.30 212.82,369.99 215.89,369.92 C219.04,369.84 232.91,369.05 244.82,369.15 C248.32,369.21 259.23,369.49 260.41,369.41 C260.43,369.35 260.23,370.80 260.03,371.87 C259.57,374.09 258.76,375.32 257.43,375.72 C253.38,376.83 238.68,377.67 233.55,377.02 C215.03,374.57 208.15,372.67 206.36,372.12 C206.39,372.11 210.04,373.18 211.97,373.16 C214.32,373.12 232.14,372.07 239.91,372.84 C248.97,373.78 252.16,373.45 252.70,373.31 C252.77,373.29 252.86,373.28 252.99,373.26" fill="none" stroke="rgb(255, 255, 255)" stroke-width="8.25" stroke-opacity="1.00" stroke-linejoin="round"/>
<path d="M313.31,300.61 C313.30,300.60 313.23,300.57 313.10,300.52 C310.75,299.56 305.95,298.44 302.52,299.41 C300.88,299.89 297.33,302.56 296.33,304.34 C295.38,306.11 294.98,310.23 295.65,312.04 C296.28,313.61 299.57,316.76 301.28,317.74 C302.80,318.60 308.10,321.11 309.70,322.46 C310.85,323.47 312.09,326.06 312.19,327.53 C312.24,328.98 311.35,331.79 310.49,332.89 C308.86,334.86 303.26,335.65 300.78,335.41 C298.44,335.14 292.87,333.27 290.80,331.32 C289.84,330.38 288.15,327.87 287.77,326.81 C287.62,326.40 287.41,325.58 287.11,324.32" fill="none" stroke="rgb(255, 255, 255)" stroke-width="8.25" stroke-opacity="1.00" stroke-linejoin="round"/>
<path d="M643.02,444.44 C643.02,444.44 642.78,445.11 642.78,445.11" fill="none" stroke="rgb(0, 0, 0)" stroke-width="8.00" stroke-opacity="1.00" stroke-linejoin="round"/>
<path d="M718.32,424.98 C718.32,424.98 721.15,430.08 721.15,430.08" fill="none" stroke="rgb(0, 0, 0)" stroke-width="8.00" stroke-opacity="1.00" stroke-linejoin="round"/>
<path d="M239.03,289.00 C240.29,289.95 241.19,290.68 243.05,292.34 C249.20,297.84 262.11,312.30 262.53,312.56 C262.66,312.71 274.41,299.61 279.16,294.34 C282.05,291.24 289.09,285.45 289.18,285.19 C289.18,285.19 288.75,285.62 288.75,285.62" fill="none" stroke="rgb(0, 0, 0)" stroke-width="8.00" stroke-opacity="1.00" stroke-linejoin="round"/>
<path d="M263.89,310.23 C263.32,313.30 263.15,314.83 263.23,316.82 C263.49,324.10 264.39,338.60 264.76,346.30 C265.19,359.58 265.71,363.66 266.32,364.26 C267.89,365.53 278.37,365.40 284.24,364.69 C299.38,362.57 330.29,357.03 333.79,355.99 C334.00,355.93 334.25,355.84 334.54,355.73 C334.54,355.73 334.24,355.69 334.24,355.69" fill="none" stroke="rgb(0, 0, 0)" stroke-width="8.00" stroke-opacity="1.00" stroke-linejoin="round"/>
<path d="M204.16,361.42 C207.50,362.40 222.12,364.08 230.61,364.14 C237.65,364.07 250.77,363.80 256.40,362.80 C257.69,362.58 263.43,361.41 264.07,361.37 C264.50,361.34 265.09,361.41 265.84,361.57" fill="none" stroke="rgb(0, 0, 0)" stroke-width="8.00" stroke-opacity="1.00" stroke-linejoin="round"/>
<path d="M264.96,366.20 C264.33,367.88 265.95,377.12 266.24,378.10 C266.64,379.36 267.80,380.62 268.86,380.88 C272.35,381.63 281.64,380.43 294.79,378.42 C302.33,377.41 315.93,375.82 322.08,374.93 C323.61,374.70 324.34,374.57 324.79,374.47" fill="none" stroke="rgb(0, 0, 0)" stroke-width="8.00" stroke-opacity="1.00" stroke-linejoin="round"/>
<path d="M204.01,378.10 C214.20,380.28 223.31,381.99 229.50,382.18 C237.33,382.36 256.11,382.66 261.25,382.20 C263.25,382.02 270.10,380.82 271.99,380.29 C272.34,380.20 272.75,380.06 273.22,379.88" fill="none" stroke="rgb(0, 0, 0)" stroke-width="8.00" stroke-opacity="1.00" stroke-linejoin="round"/>
</g>
</svg>
