<?xml version="1.0" encoding="UTF-8" standalone="no"?>
<!DOCTYPE svg PUBLIC "-//W3C//DTD SVG 1.1//EN" "http://www.w3.org/Graphics/SVG/1.1/DTD/svg11.dtd">
<svg width="102.86" height="102.86" viewBox="0.00 0.00 500.00 500.00" xmlns="http://www.w3.org/2000/svg" xmlns:xlink="http://www.w3.org/1999/xlink">
<g stroke-linecap="round" id="레이어_10">
<path d="M276.65,149.30 C275.00,149.30 272.43,149.40 271.22,149.62 C268.55,150.12 262.44,152.92 259.98,154.66 C254.39,158.68 246.33,167.58 243.21,172.14 C240.11,176.71 234.81,187.24 232.83,192.90 C230.89,198.50 228.68,209.43 228.31,215.17 C228.15,218.03 228.54,223.72 229.12,226.95 C229.52,229.05 231.93,234.97 233.77,237.32 C235.95,240.03 241.73,243.66 245.11,244.43 C248.74,245.19 255.52,244.36 258.18,243.49 C261.03,242.51 266.29,239.96 269.18,238.05 C275.19,234.03 285.76,224.11 290.63,218.11 C295.45,212.13 302.79,199.99 305.55,193.19 C306.97,189.64 308.36,184.52 308.83,181.21 C309.35,177.27 309.47,171.04 308.77,167.75 C307.92,163.90 305.19,157.87 302.95,155.29 C300.71,152.81 294.98,149.49 291.60,148.80 C288.38,148.19 283.30,148.64 280.21,149.29 C275.88,150.32 265.95,155.74 261.50,159.57 C257.47,163.06 250.58,171.80 247.95,176.92 C245.31,182.10 241.97,193.67 241.39,199.67 C241.11,202.73 241.14,207.94 241.42,211.24 C241.71,214.29 243.25,220.40 244.59,223.81 C245.40,225.85 248.21,230.07 249.36,231.38 C250.95,233.13 256.09,236.83 259.39,237.69 C262.54,238.49 267.85,238.31 269.65,237.98 C274.00,237.14 283.27,232.50 288.06,228.79 C292.71,225.15 301.77,215.71 305.88,210.26 C309.89,204.92 316.75,193.31 319.37,187.50 C321.94,181.77 325.18,170.93 325.80,166.10 C326.05,164.14 326.23,158.51 325.72,155.41 C325.42,153.63 324.21,150.28 323.38,148.89 C322.53,147.52 320.32,145.30 318.99,144.46 C316.06,142.73 309.43,142.10 306.47,142.55 C301.61,143.38 291.99,147.51 286.90,151.11 C281.67,154.84 272.03,164.86 267.90,170.94 C263.92,176.88 257.94,189.91 256.22,196.23 C254.59,202.32 254.00,212.64 254.96,217.38 C255.59,220.26 258.76,226.32 261.70,228.62 C263.10,229.68 266.29,231.16 268.05,231.59 C271.27,232.31 277.39,231.58 279.86,230.84 C284.16,229.49 293.04,224.12 297.56,220.15 C301.95,216.26 310.24,206.69 313.97,201.28 C317.56,196.05 323.14,185.71 324.89,181.03 C325.75,178.72 327.02,174.01 327.25,172.35 C327.81,168.05 326.90,161.77 325.39,159.29 C324.60,158.06 322.52,156.05 321.24,155.28 C318.40,153.67 312.03,153.08 309.21,153.52 C304.58,154.33 295.64,158.33 291.04,161.80 C286.39,165.35 278.28,174.66 275.10,180.15 C272.04,185.51 268.19,196.86 267.54,202.24 C267.24,204.84 267.26,209.24 267.58,211.82 C267.99,214.74 270.57,220.87 273.16,223.15 C274.39,224.18 277.26,225.62 278.84,226.01 C282.24,226.75 288.92,225.37 291.64,224.11 C296.01,221.99 304.00,215.86 308.19,211.48 C312.29,207.17 320.00,196.96 323.38,191.44 C326.68,186.03 331.50,176.05 333.23,171.17 C334.27,168.16 335.50,161.86 335.10,159.27 C334.87,158.04 334.09,156.39 333.34,155.55 C331.83,153.96 326.96,152.90 324.20,153.42 C320.94,154.08 315.11,157.08 311.59,159.50 C308.04,161.98 299.76,170.49 296.19,175.48 C292.72,180.37 287.24,191.14 286.01,195.33 C284.83,199.43 283.89,205.76 284.41,208.81 C284.67,210.20 285.77,212.80 286.42,213.49 C286.72,213.79 289.77,215.57 290.18,215.69 C292.24,216.21 298.13,214.14 301.74,211.52 C306.10,208.29 316.17,196.65 320.62,190.34 C323.85,185.75 330.83,174.38 335.74,165.41 C342.58,152.30 349.17,134.73 350.33,129.12 C351.13,125.10 351.07,119.12 350.15,116.67 C349.33,114.64 345.72,111.59 343.77,111.19 C341.66,110.80 336.55,111.77 334.09,113.01 C331.89,114.15 327.28,118.17 325.94,120.06 C324.88,121.60 322.75,127.20 322.99,130.32 C323.16,132.07 324.79,135.13 326.05,135.97 C327.30,136.76 330.11,137.48 331.37,137.45 C333.91,137.32 338.36,135.75 340.81,134.08 C343.16,132.45 347.79,127.87 349.87,125.24 C351.87,122.68 355.02,117.51 356.12,114.99 C357.03,112.86 358.54,107.29 358.55,104.33 C358.53,102.84 357.68,100.69 356.85,100.08 C354.96,98.83 349.08,100.12 346.54,101.63 C344.37,102.98 340.35,106.85 338.71,109.10 C337.03,111.45 334.38,117.17 334.41,119.32 C334.46,120.30 335.34,121.69 336.09,121.93 C337.94,122.40 342.86,118.73 344.88,116.28 C346.21,114.64 349.52,109.51 350.63,107.00 C351.42,105.19 353.77,98.57 354.35,95.34 C356.19,84.22 352.02,84.50 351.72,84.43 C350.01,84.05 345.14,86.94 343.03,88.33 C340.40,90.06 337.30,91.56 337.37,91.49 C337.28,90.18 339.94,86.21 344.09,81.23 C345.76,79.26 348.58,78.17 349.60,77.81 C350.37,77.56 356.20,74.73 359.01,74.51 C361.18,74.39 365.38,75.56 369.63,77.81 C371.50,78.84 372.62,80.19 373.78,82.63 C374.90,85.13 375.79,90.27 375.74,93.38 C375.48,100.73 374.16,108.72 371.70,115.31 C368.07,124.99 365.62,133.01 364.54,138.58 C363.39,144.56 362.05,159.37 362.00,162.01 C361.96,165.32 362.68,181.60 363.19,183.44 C363.27,183.70 363.50,184.46 363.88,185.71" fill="none" stroke="rgb(255, 255, 255)" stroke-width="34.86" stroke-opacity="1.00" stroke-linejoin="round"/>
<path d="M339.49,111.36 C338.55,111.50 336.89,111.74 335.32,111.93 C331.08,112.45 313.25,113.34 311.28,113.25 C305.49,112.92 301.03,109.46 299.20,107.83 C300.89,106.40 304.83,106.22 307.13,106.36 C312.18,106.67 317.07,106.79 320.20,106.92 C315.37,108.43 310.20,109.90 307.63,110.29 C304.01,110.80 297.34,110.57 296.47,109.80 C295.86,109.25 292.56,105.89 291.92,105.35 C290.10,103.81 286.24,102.53 283.32,102.17 C273.65,101.03 238.75,99.59 233.94,100.47 C232.23,100.78 222.00,102.32 221.78,102.34 C220.20,102.49 212.41,101.16 211.53,100.93 C206.24,99.52 199.59,94.12 197.93,91.98 C197.74,91.73 196.17,87.34 193.90,82.70 C193.35,81.59 192.66,80.91 190.69,79.39 C189.22,78.32 188.25,78.03 186.45,78.09 C184.44,78.20 175.48,80.15 175.46,80.18 C175.46,80.18 177.02,88.49 177.02,88.49 C177.02,88.49 175.93,81.47 175.93,81.47 C176.40,81.52 177.80,85.23 178.14,87.64 C178.60,91.31 178.07,97.56 177.35,100.11 C174.54,110.09 172.79,118.00 171.99,127.12 C170.91,139.97 173.30,159.33 174.50,162.84 C176.94,169.86 181.89,177.89 184.29,180.20 C187.31,183.07 192.63,185.96 196.33,187.18 C198.06,187.74 201.64,188.87 203.11,189.29 C206.25,190.17 211.66,191.27 213.05,191.54" fill="none" stroke="rgb(255, 255, 255)" stroke-width="59.55" stroke-opacity="1.00" stroke-linejoin="round"/>
<path d="M264.44,146.66 C264.28,146.16 263.74,145.06 263.26,144.58 C261.85,143.23 255.21,141.90 251.74,141.86 C245.77,141.84 236.49,143.35 227.19,145.41 C220.56,147.02 207.39,150.74 201.08,153.16 C192.21,156.57 185.21,160.19 183.22,161.63 C186.27,162.22 191.60,161.18 194.38,160.57 C199.94,159.32 239.42,147.43 253.94,143.44 C274.51,138.22 284.06,135.47 284.96,135.20 C283.90,134.81 269.92,137.81 263.34,140.24 C257.75,142.33 247.46,147.47 243.09,150.42 C239.47,152.88 233.92,157.48 231.44,160.05 C228.91,162.72 225.83,167.35 224.92,169.48 C224.16,171.35 223.89,176.19 224.48,177.82 C225.18,179.66 228.18,182.96 230.44,184.19 C232.77,185.43 238.93,186.93 242.48,187.10 C248.27,187.33 260.03,185.46 266.62,183.66 C271.27,182.36 288.91,175.48 292.76,173.32 C298.47,170.00 301.72,167.74 301.91,166.18 C300.09,164.86 295.90,164.42 292.16,164.78 C288.02,165.20 282.18,166.64 278.46,167.96 C271.07,170.65 257.83,177.80 251.47,182.39 C244.68,187.33 233.75,198.55 231.73,201.69 C229.32,205.48 227.04,209.64 226.32,211.70 C224.80,216.15 224.15,222.50 224.81,225.42 C225.49,228.21 228.66,232.41 231.08,233.81 C233.51,235.15 239.66,236.29 243.14,236.00 C246.65,235.67 251.37,234.19 255.72,232.39 C260.87,230.11 271.27,222.49 275.15,218.41 C277.45,215.95 281.20,211.00 282.59,208.28 C284.02,205.40 285.21,199.88 284.96,197.38 C284.65,194.88 282.34,190.38 280.35,188.46 C278.29,186.51 272.71,183.54 269.47,182.71 C266.00,181.86 258.94,181.86 254.76,182.79 C252.63,183.29 246.79,185.60 244.17,187.12 C241.23,188.85 236.65,192.33 233.99,194.85 C229.18,199.47 221.46,211.22 218.95,217.68 C217.62,221.16 216.34,226.38 215.79,230.39 C215.43,233.17 215.44,237.49 216.03,240.62 C216.68,243.87 219.82,249.20 221.96,250.84 C224.06,252.38 229.09,253.41 231.81,252.87 C234.57,252.27 240.06,249.10 242.97,246.42 C247.71,242.00 254.69,232.04 257.08,227.07 C258.53,224.00 260.80,217.83 261.60,214.32 C262.44,210.55 262.89,203.40 262.49,200.15 C262.07,196.92 260.02,191.45 258.42,189.28 C256.79,187.15 252.47,184.17 249.84,183.39 C247.10,182.62 240.87,182.67 237.54,183.54 C234.35,184.40 228.82,187.19 226.14,189.05 C221.68,192.19 214.09,200.99 211.43,206.09 C209.83,209.21 207.75,215.73 207.35,218.84 C206.94,222.40 208.19,228.92 209.73,231.50 C211.25,233.94 215.75,237.38 218.42,238.24 C221.10,239.05 226.80,238.75 229.59,237.63 C232.38,236.46 237.49,232.28 239.68,229.39 C241.82,226.52 245.12,219.63 246.14,215.96 C247.12,212.29 247.71,204.94 247.33,201.33 C246.92,197.81 244.86,191.05 243.29,187.99 C241.70,184.93 237.60,179.78 235.19,177.88 C232.67,175.94 227.03,173.72 223.95,173.51 C220.78,173.35 213.93,175.03 210.67,176.77 C206.25,179.16 199.33,185.47 196.71,188.94 C194.11,192.43 190.21,200.31 189.01,204.49 C188.53,206.20 187.51,211.42 187.39,214.61 C187.26,218.30 188.73,225.16 190.16,227.75 C191.56,230.20 195.51,233.47 197.81,234.17 C200.12,234.82 204.99,234.15 207.32,232.82 C209.68,231.43 213.71,227.02 215.57,223.80 C217.64,220.13 220.03,213.56 220.86,209.68 C221.63,205.93 222.14,198.21 221.86,194.36 C221.55,190.50 219.91,182.99 218.63,179.54 C217.31,176.03 214.31,170.70 212.11,168.19 C210.22,166.07 206.48,163.74 204.15,163.20 C201.41,162.61 196.83,163.16 194.22,164.27 C191.68,165.38 186.68,169.12 184.47,171.55 C182.26,174.02 178.82,179.70 177.68,182.77 C176.60,185.76 175.66,191.43 175.63,194.54 C175.65,196.06 176.10,199.26 176.55,200.65 C177.00,201.92 178.59,203.39 179.55,203.51 C180.76,203.57 182.91,202.03 184.30,200.19 C185.43,198.63 187.85,192.14 188.61,188.53 C189.94,181.88 189.72,166.62 188.45,159.43 C187.76,155.67 185.91,149.65 184.84,147.29 C183.69,144.82 180.64,141.01 179.30,140.08 C177.59,138.97 174.28,137.93 172.46,138.12 C169.51,138.48 165.06,141.29 163.77,142.53 C162.32,143.95 159.65,147.85 158.87,149.40 C156.26,154.77 153.35,170.04 152.05,172.75 C151.95,172.95 151.77,173.25 151.52,173.67 C150.72,172.69 149.76,168.00 149.69,164.82 C149.61,159.63 151.64,146.16 154.17,141.63 C158.31,134.42 162.36,131.61 164.66,130.31 C159.04,137.13 153.48,145.42 147.09,156.25 C144.13,161.38 142.39,164.78 141.62,167.40 C140.42,171.65 139.49,176.80 139.35,180.74 C139.26,184.45 139.98,191.12 140.86,194.77 C142.73,202.33 147.36,211.22 153.78,222.55 C155.81,226.11 167.30,241.16 170.65,244.00 C172.54,245.59 178.70,249.76 179.36,250.01 C176.61,248.16 171.16,243.91 169.01,241.77 C165.30,238.06 154.00,222.06 152.71,219.90 C150.92,216.82 147.30,206.25 146.89,202.74 C146.74,206.34 146.42,214.19 146.67,216.18 C147.13,219.64 152.20,231.50 153.96,233.72 C157.12,237.66 161.06,240.70 163.56,242.46 C157.53,235.28 151.17,226.04 148.69,220.80 C146.44,215.98 143.12,203.20 143.07,201.78 C143.06,201.52 143.05,201.08 143.06,200.45 C143.05,200.39 144.44,215.26 146.17,220.36 C147.11,223.07 149.61,228.46 150.66,230.19 C152.52,233.21 155.99,237.43 158.28,239.77 C160.59,242.08 178.95,253.65 180.20,254.60" fill="none" stroke="rgb(255, 255, 255)" stroke-width="59.55" stroke-opacity="1.00" stroke-linejoin="round"/>
<path d="M257.15,263.79 C257.15,263.79 324.45,251.01 324.45,251.01" fill="none" stroke="rgb(255, 255, 255)" stroke-width="59.55" stroke-opacity="1.00" stroke-linejoin="round"/>
<path d="M260.57,261.66 C260.57,261.66 327.98,249.75 327.98,249.75" fill="none" stroke="rgb(255, 255, 255)" stroke-width="59.55" stroke-opacity="1.00" stroke-linejoin="round"/>
<path d="M325.43,229.75 C325.43,229.75 340.66,220.15 340.66,220.15" fill="none" stroke="rgb(255, 255, 255)" stroke-width="59.55" stroke-opacity="1.00" stroke-linejoin="round"/>
<path d="M344.47,210.28 C347.33,204.80 349.86,199.64 351.07,196.03 C352.12,192.87 353.59,186.63 354.02,183.25 C354.63,178.23 353.23,154.80 355.49,141.67 C357.52,141.87 363.22,148.89 364.20,150.18 C364.20,150.18 361.81,142.16 361.81,142.16 C361.99,142.56 366.45,154.17 371.08,168.37 C374.30,178.33 376.44,187.69 376.33,192.31 C376.21,195.92 373.72,205.30 370.07,215.89 C369.09,218.67 367.20,223.95 366.12,225.82 C361.49,233.47 359.12,236.77 358.37,237.75" fill="none" stroke="rgb(255, 255, 255)" stroke-width="59.55" stroke-opacity="1.00" stroke-linejoin="round"/>
<path d="M365.85,214.81 C365.85,214.81 365.28,218.23 365.28,218.23 C365.28,218.23 375.22,206.21 375.22,206.21" fill="none" stroke="rgb(255, 255, 255)" stroke-width="59.55" stroke-opacity="1.00" stroke-linejoin="round"/>
<path d="M178.42,273.91 C177.97,273.84 177.51,273.77 177.06,273.70 C176.31,273.59 175.14,272.97 174.63,272.82 C173.66,272.54 171.59,272.32 171.11,272.37 C171.83,273.15 172.54,273.92 173.25,274.70 C173.51,274.98 173.87,275.32 174.31,275.71 C176.11,277.28 178.18,278.94 179.42,279.72 C181.92,281.27 186.12,282.40 191.39,283.20 C205.20,285.09 235.09,289.07 247.37,289.70 C255.54,290.06 267.84,289.60 275.24,288.18 C278.21,287.61 297.63,282.42 300.62,281.50 C304.90,280.16 322.45,273.52 328.71,270.60 C338.31,265.93 362.88,252.86 368.24,249.40 C368.47,248.70 329.30,264.04 314.72,268.59 C301.75,272.26 264.45,280.21 264.20,280.32 C264.02,280.40 263.74,280.54 263.36,280.75 C264.30,281.81 268.05,282.60 270.78,282.19 C275.03,281.51 284.07,277.31 293.29,272.46 C306.95,265.20 330.84,252.60 336.21,250.17 C322.56,256.15 295.01,268.16 282.30,272.90 C275.29,275.43 262.07,279.08 257.03,279.94 C250.48,281.05 242.05,281.48 229.43,281.63 C220.41,281.87 214.16,281.17 205.82,279.66 C201.89,278.93 195.42,275.99 194.41,275.61 C193.90,275.42 192.88,275.09 191.32,274.62" fill="none" stroke="rgb(255, 255, 255)" stroke-width="16.50" stroke-opacity="1.00" stroke-linejoin="round"/>
<path d="M156.03,265.49 C155.74,265.28 155.44,265.07 155.14,264.87 C154.99,264.76 154.77,264.62 154.49,264.43 C154.44,264.45 154.50,264.57 154.66,264.82 C155.16,265.55 155.79,266.41 156.54,267.39 C157.12,268.14 157.80,268.95 158.57,269.83 C160.98,272.52 167.66,277.88 169.19,278.75 C173.64,281.25 183.86,285.32 184.28,285.64 C184.37,285.70 184.54,285.84 184.79,286.05" fill="none" stroke="rgb(255, 255, 255)" stroke-width="16.50" stroke-opacity="1.00" stroke-linejoin="round"/>
<path d="M187.31,280.50 C187.31,280.50 186.64,281.10 186.64,281.10 C186.93,282.55 190.78,284.11 196.08,285.65 C204.38,288.01 222.44,290.39 223.04,290.49 C229.01,291.61 261.23,294.81 277.64,293.87 C283.41,293.53 293.95,291.52 299.00,289.91 C309.51,286.47 337.98,274.89 352.19,268.90 C357.99,266.37 369.31,258.39 372.71,255.33 C379.37,249.28 386.66,236.84 387.18,235.84 C387.70,234.85 388.21,233.86 388.72,232.86" fill="none" stroke="rgb(255, 255, 255)" stroke-width="16.50" stroke-opacity="1.00" stroke-linejoin="round"/>
<path d="M396.52,219.97 C396.27,222.68 395.58,225.41 393.62,231.68 C391.63,237.89 387.54,245.92 383.85,251.09 C380.35,255.97 373.90,262.52 367.15,267.63 C361.25,272.08 352.60,277.40 344.10,281.58 C336.58,285.22 325.69,288.67 317.80,290.23 C300.89,293.25 281.91,294.52 281.08,294.54 C280.06,294.57 279.04,294.59 278.02,294.61" fill="none" stroke="rgb(255, 255, 255)" stroke-width="16.50" stroke-opacity="1.00" stroke-linejoin="round"/>
<path d="M147.69,104.44 C147.97,102.21 147.68,98.14 146.77,91.77 C145.84,85.95 145.23,81.33 145.33,78.93 C145.45,76.30 146.48,69.71 147.24,67.93 C148.46,65.16 152.52,60.44 153.98,59.16 C156.24,57.19 162.28,53.50 164.54,52.54 C169.64,50.42 182.40,48.12 188.18,48.00 C190.09,47.97 195.01,48.34 196.98,48.98 C199.21,49.73 204.22,52.62 207.07,55.39 C210.16,58.42 212.77,61.58 213.65,62.70 C214.21,63.38 215.91,65.14 216.58,65.82 C219.07,68.28 223.08,70.43 226.16,70.80 C230.88,71.26 245.18,70.14 251.60,70.47 C257.88,70.71 271.63,71.34 279.09,71.72 C285.00,71.88 299.87,74.79 301.99,75.16 C311.17,76.76 317.66,78.47 318.93,78.32 C319.15,78.29 328.26,72.71 329.18,72.15 C329.29,72.08 332.95,68.70 335.87,66.20 C337.72,64.65 343.11,61.74 346.47,60.59 C348.44,59.94 357.03,58.13 359.75,58.01 C364.39,57.85 368.29,58.34 371.29,59.53 C375.80,61.45 379.27,63.53 382.35,66.18 C385.25,68.71 388.86,73.21 390.29,75.67 C391.24,77.31 393.26,81.98 393.62,83.63 C393.82,84.61 394.61,92.80 394.94,96.16 C395.24,99.49 394.75,105.97 394.32,107.47 C394.29,107.57 390.39,115.62 389.72,117.84 C388.82,120.87 388.32,127.00 388.77,129.12 C389.04,130.34 399.01,156.54 400.49,160.80" fill="none" stroke="rgb(0, 0, 0)" stroke-width="6.00" stroke-opacity="1.00" stroke-linejoin="round"/>
<path d="M147.39,104.44 C147.39,104.44 146.26,104.04 146.26,104.04 C143.39,107.50 134.30,117.85 129.55,124.17 C125.93,129.01 121.35,138.18 117.65,146.62 C114.93,152.99 111.06,165.38 110.14,170.67 C109.26,175.88 109.18,191.74 109.60,197.11 C110.15,203.81 113.93,221.23 115.00,224.69 C117.09,231.43 123.02,243.69 126.66,249.31 C130.05,254.51 137.23,262.89 141.38,266.63 C147.62,272.06 158.46,279.67 163.41,282.57 C167.07,284.69 185.97,291.99 186.63,292.19 C187.45,292.43 188.28,292.41 188.32,292.33" fill="none" stroke="rgb(0, 0, 0)" stroke-width="6.00" stroke-opacity="1.00" stroke-linejoin="round"/>
<path d="M184.56,291.14 C184.55,291.13 185.45,291.61 185.94,291.79 C188.38,292.60 194.33,294.66 196.58,295.18 C198.95,295.72 215.08,298.55 221.72,299.89 C233.53,301.96 269.06,303.38 279.26,303.01 C285.63,302.77 300.94,300.74 307.19,299.40 C308.79,299.05 328.42,294.05 331.23,293.08 C342.21,289.11 351.53,285.15 359.37,280.98 C361.51,279.83 369.15,274.77 371.46,272.78 C371.93,272.37 373.98,270.28 374.44,269.77 C374.66,269.52 375.08,269.02 375.69,268.28" fill="none" stroke="rgb(0, 0, 0)" stroke-width="6.00" stroke-opacity="1.00" stroke-linejoin="round"/>
<path d="M399.20,155.96 C400.04,156.92 403.27,169.24 403.75,174.62 C404.30,179.66 405.46,192.12 405.75,199.39 C406.08,209.48 405.42,218.64 403.32,225.98 C401.85,231.07 396.60,244.16 393.98,248.97 C392.95,250.84 388.25,258.57 386.63,260.61 C383.88,264.02 376.41,269.79 373.75,271.85 C372.34,272.95 369.91,275.02 368.71,276.16 C368.34,276.50 367.89,276.96 367.36,277.53" fill="none" stroke="rgb(0, 0, 0)" stroke-width="6.00" stroke-opacity="1.00" stroke-linejoin="round"/>
<path d="M174.62,64.42 C174.40,64.39 174.05,64.78 173.25,66.02 C171.22,69.24 167.39,75.31 166.87,76.31 C166.87,76.31 186.45,74.49 186.45,74.49 C179.25,81.44 174.82,85.23 173.88,85.97 C173.68,86.13 173.44,86.30 173.16,86.50" fill="none" stroke="rgb(0, 0, 0)" stroke-width="6.00" stroke-opacity="1.00" stroke-linejoin="round"/>
<path d="M373.12,82.60 C370.70,81.53 359.55,84.18 358.12,84.52 C362.51,86.30 369.12,92.89 369.33,93.42 C365.94,93.70 361.47,94.27 360.81,94.43 C360.40,94.53 359.64,94.76 358.55,95.14" fill="none" stroke="rgb(0, 0, 0)" stroke-width="6.00" stroke-opacity="1.00" stroke-linejoin="round"/>
<path d="M249.71,54.52 C248.02,54.96 246.88,55.60 245.39,57.10 C242.24,60.29 238.74,64.58 237.34,67.44 C236.40,69.41 234.84,74.18 234.57,76.23 C235.71,73.88 237.38,69.38 238.86,67.60 C242.09,63.79 244.08,61.09 244.06,61.13 C243.66,63.26 242.29,65.26 239.47,68.90 C234.65,75.04 232.62,79.06 232.08,80.13 C232.07,80.14 233.62,76.84 235.62,74.26 C236.33,73.35 252.13,54.00 253.89,52.16 C255.58,50.40 259.80,47.12 261.65,46.05 C263.67,44.90 269.05,42.74 271.48,42.32 C273.98,41.92 277.80,42.69 281.70,44.83 C275.80,44.17 258.86,46.05 257.05,47.03 C254.78,48.30 251.92,52.27 251.85,53.69 C251.84,53.99 253.26,59.46 253.44,62.84 C253.57,65.37 253.38,71.59 253.69,73.55 C253.79,74.09 254.75,74.79 255.15,74.89 C256.66,75.17 261.95,71.98 264.34,69.82 C266.11,68.18 269.93,63.28 270.76,61.12 C271.22,59.93 271.32,58.67 271.17,57.82 C269.78,57.77 268.44,58.61 266.96,60.65 C265.50,62.67 262.66,68.60 262.27,70.52 C261.90,72.50 262.33,74.60 263.27,75.75 C264.07,76.64 267.03,77.35 268.66,76.91 C270.29,76.43 273.83,73.91 275.12,72.24 C276.64,70.21 278.52,65.30 278.64,62.64 C278.71,60.76 278.39,55.75 278.81,54.62 C279.94,51.77 283.51,47.43 284.25,46.34 C284.06,45.90 288.66,47.91 290.50,49.52 C290.67,49.66 290.81,49.82 290.94,49.99 C290.94,49.99 287.22,47.01 287.22,47.01 C289.41,49.51 295.95,57.02 296.24,57.42 C298.17,60.08 299.59,64.70 300.10,67.69 C300.71,71.51 300.82,79.28 300.44,84.53 C299.76,84.13 294.61,80.57 291.86,79.90 C290.12,79.50 289.54,79.39 288.25,79.21 C290.39,79.05 295.55,78.15 298.37,77.66 C301.07,77.21 302.37,76.09 302.78,75.71 C303.61,74.94 303.67,80.65 303.01,82.87 C303.01,82.87 302.87,83.94 302.87,83.94" fill="none" stroke="rgb(81, 81, 81)" stroke-width="24.46" stroke-opacity="1.00" stroke-linejoin="round"/>
<path d="M223.93,82.76 C223.84,83.00 222.52,84.17 221.20,85.12 C216.42,88.27 208.34,94.38 203.53,96.60 C207.71,95.00 220.32,88.78 225.38,87.38 C227.61,86.78 232.40,86.25 236.27,87.03 C240.19,87.84 243.25,89.27 243.83,89.66 C243.83,89.66 219.76,92.44 219.76,92.44 C219.65,92.49 228.12,91.38 229.78,91.24 C234.57,90.86 252.77,93.35 253.28,93.40 C253.65,93.44 254.30,93.48 255.24,93.52 C255.29,92.74 253.93,89.78 252.46,88.43 C250.78,86.95 246.19,84.98 243.80,84.56 C244.39,84.73 249.07,85.26 251.80,85.57 C254.99,85.98 264.15,88.59 265.91,88.94 C271.94,90.10 280.68,88.91 284.16,88.13 C269.98,87.18 262.59,89.99 262.65,90.29 C263.48,91.51 268.94,91.99 272.18,91.92 C273.59,91.89 291.86,91.06 295.04,90.97 C295.04,90.97 283.51,97.76 283.51,97.76 C287.79,99.94 309.36,90.40 309.68,90.17 C309.25,90.37 304.35,94.04 300.67,95.71 C296.65,97.49 281.75,101.77 276.45,101.65 C266.90,101.36 249.73,98.17 246.24,96.66 C246.22,96.65 258.01,101.76 261.88,102.40 C262.74,102.54 264.14,102.50 264.68,102.33 C265.32,102.11 266.73,99.46 266.23,98.71 C264.31,96.11 257.93,94.98 256.23,94.73 C256.23,94.73 283.51,97.93 283.51,97.93 C280.88,99.22 274.75,102.24 272.82,102.84 C270.04,103.68 265.15,103.67 262.62,103.22 C260.24,102.78 257.37,102.27 256.77,102.19 C256.50,102.62 259.27,106.30 261.19,107.46 C262.76,108.37 267.60,109.95 269.49,110.17 C271.49,110.40 275.99,110.29 278.33,109.85 C280.30,109.46 285.87,107.63 287.65,106.62 C289.36,105.64 294.69,101.82 296.33,100.21 C296.33,100.21 281.68,108.48 281.68,108.48" fill="none" stroke="rgb(81, 81, 81)" stroke-width="10.54" stroke-opacity="1.00" stroke-linejoin="round"/>
<path d="M184.16,117.25 C184.89,115.95 193.34,109.79 201.73,104.02 C210.41,98.09 218.35,93.04 221.36,91.42 C221.65,91.27 222.16,91.01 222.90,90.66" fill="none" stroke="rgb(81, 81, 81)" stroke-width="7.67" stroke-opacity="1.00" stroke-linejoin="round"/>
<path d="M252.26,47.12 C252.25,47.15 252.18,47.22 252.03,47.35 C243.35,55.16 238.02,67.08 238.37,67.67 C238.92,68.20 241.36,67.71 246.15,65.09 C251.52,62.14 258.71,59.96 260.88,59.81 C261.36,59.78 261.84,59.78 262.32,59.79 C262.44,59.80 262.55,59.81 262.63,59.83" fill="none" stroke="rgb(255, 255, 255)" stroke-width="5.00" stroke-opacity="1.00" stroke-linejoin="round"/>
<path d="M269.78,53.15 C269.79,53.12 269.73,53.10 269.62,53.08 C268.23,52.92 265.96,53.99 264.59,55.64 C262.75,57.92 260.69,63.32 260.98,65.06 C261.15,65.81 262.14,66.80 262.98,67.03 C265.14,67.55 270.30,65.68 272.50,63.43 C274.24,61.59 276.47,57.59 276.51,56.39 C276.50,55.13 274.71,53.47 273.06,53.48 C272.28,53.50 270.49,53.96 269.74,54.40 C269.43,54.59 268.73,55.06 267.64,55.82" fill="none" stroke="rgb(255, 255, 255)" stroke-width="5.00" stroke-opacity="1.00" stroke-linejoin="round"/>
<path d="M282.07,55.64 C282.07,55.64 282.01,55.55 282.01,55.55 C282.01,55.55 281.21,69.87 281.21,69.87 C282.24,68.70 287.27,60.69 289.18,59.19 C290.20,58.41 291.50,58.14 292.11,58.42 C292.22,58.48 292.37,58.60 292.57,58.80" fill="none" stroke="rgb(255, 255, 255)" stroke-width="5.00" stroke-opacity="1.00" stroke-linejoin="round"/>
<path d="M292.91,67.82 C294.29,68.17 298.48,67.34 301.16,65.40 C302.52,64.39 303.49,62.60 303.53,61.33 C303.52,60.34 301.80,58.97 300.44,59.17 C298.81,59.46 295.59,62.15 294.24,64.55 C293.13,66.57 292.72,69.57 293.10,70.97 C293.53,72.40 295.20,73.81 296.78,74.00 C297.55,74.07 299.89,73.68 301.10,73.26 C301.52,73.12 302.12,72.83 302.90,72.41" fill="none" stroke="rgb(255, 255, 255)" stroke-width="5.00" stroke-opacity="1.00" stroke-linejoin="round"/>
<path d="M211.90,95.26 C212.91,94.83 218.84,90.72 221.87,89.06 C227.17,86.19 237.05,83.57 242.99,80.24 C243.71,79.85 244.42,79.45 245.14,79.06 C245.40,78.91 245.66,78.77 245.92,78.63" fill="none" stroke="rgb(242, 0, 255)" stroke-width="5.00" stroke-opacity="1.00" stroke-linejoin="round"/>
<path d="M278.13,33.78 C275.88,34.64 270.67,38.66 268.47,40.43 C265.24,43.10 260.85,47.08 259.44,48.87 C258.80,49.70 257.79,51.33 257.20,52.37" fill="none" stroke="rgb(242, 0, 255)" stroke-width="5.00" stroke-opacity="1.00" stroke-linejoin="round"/>
<path d="M254.86,68.95 C254.50,69.35 252.12,73.62 250.46,74.63 C250.08,74.85 249.29,75.20 248.08,75.66" fill="none" stroke="rgb(242, 0, 255)" stroke-width="5.00" stroke-opacity="1.00" stroke-linejoin="round"/>
<path d="M256.23,103.05 C256.23,103.05 256.11,103.07 256.11,103.07 C256.11,103.07 255.35,102.74 255.35,102.74 C255.97,101.04 264.28,92.25 269.89,87.77 C272.46,85.73 276.95,83.14 279.06,82.67 C282.37,81.94 284.28,81.31 285.51,80.41 C285.82,80.18 286.12,79.82 286.41,79.33" fill="none" stroke="rgb(242, 0, 255)" stroke-width="5.00" stroke-opacity="1.00" stroke-linejoin="round"/>
<path d="M298.10,44.48 C297.58,44.57 296.43,45.10 295.83,45.72 C295.08,46.51 294.16,48.63 293.80,50.13 C293.74,50.41 293.67,50.81 293.60,51.32" fill="none" stroke="rgb(242, 0, 255)" stroke-width="5.00" stroke-opacity="1.00" stroke-linejoin="round"/>
<path d="M288.86,75.64 C288.55,75.73 287.76,77.99 287.58,78.55 C287.49,78.81 287.35,79.18 287.18,79.66" fill="none" stroke="rgb(242, 0, 255)" stroke-width="5.00" stroke-opacity="1.00" stroke-linejoin="round"/>
<path d="M312.99,71.97 C310.36,74.91 306.33,78.49 305.67,79.33 C304.96,80.26 304.55,81.82 304.67,82.74 C304.70,82.95 304.80,83.32 304.95,83.85" fill="none" stroke="rgb(242, 0, 255)" stroke-width="5.00" stroke-opacity="1.00" stroke-linejoin="round"/>
<path d="M302.29,89.65 C302.30,89.64 302.27,89.69 302.27,89.70 C301.08,91.90 300.06,93.66 299.15,94.89 C296.88,97.96 289.51,105.59 288.89,106.20 C288.60,106.47 288.12,106.92 287.44,107.53" fill="none" stroke="rgb(242, 0, 255)" stroke-width="5.00" stroke-opacity="1.00" stroke-linejoin="round"/>
<path d="M258.62,82.39 C258.63,82.39 257.90,82.08 257.57,82.05 C253.85,81.98 247.87,91.17 244.99,96.13 C244.99,96.13 244.73,96.30 244.73,96.30" fill="none" stroke="rgb(0, 255, 57)" stroke-width="5.00" stroke-opacity="1.00" stroke-linejoin="round"/>
<path d="M261.59,78.00 C261.88,76.50 262.87,74.96 264.92,72.95 C265.40,72.48 265.89,72.04 266.38,71.58 C266.57,71.40 266.85,71.12 267.24,70.73" fill="none" stroke="rgb(0, 255, 57)" stroke-width="5.00" stroke-opacity="1.00" stroke-linejoin="round"/>
<path d="M287.89,34.78 C286.21,36.89 280.84,43.19 280.40,43.75 C279.61,44.75 279.01,45.60 278.59,46.31 C278.38,46.66 278.12,47.23 277.79,48.00" fill="none" stroke="rgb(0, 255, 57)" stroke-width="5.00" stroke-opacity="1.00" stroke-linejoin="round"/>
<path d="M237.80,52.77 C236.63,54.91 235.87,56.55 235.18,58.51 C234.49,60.50 233.75,62.96 233.27,64.86 C232.85,66.60 232.63,68.73 232.56,71.26 C232.55,71.69 232.55,72.28 232.55,73.01" fill="none" stroke="rgb(0, 255, 57)" stroke-width="5.00" stroke-opacity="1.00" stroke-linejoin="round"/>
<path d="M225.39,81.90 C225.40,81.89 224.12,82.92 223.65,83.40 C223.23,83.84 220.48,87.44 220.04,88.05 C218.06,90.88 216.06,94.61 215.55,95.56" fill="none" stroke="rgb(0, 255, 57)" stroke-width="5.00" stroke-opacity="1.00" stroke-linejoin="round"/>
<path d="M267.81,111.64 C267.49,111.05 267.56,108.54 269.42,104.86 C270.37,103.03 273.07,99.33 274.40,98.12 C277.21,95.59 284.56,92.08 285.89,91.34 C287.08,90.66 290.40,88.44 291.27,87.71 C291.66,87.40 292.41,86.72 293.52,85.69" fill="none" stroke="rgb(0, 221, 255)" stroke-width="5.00" stroke-opacity="1.00" stroke-linejoin="round"/>
<path d="M305.57,55.81 C305.61,55.83 305.87,56.87 305.76,57.35 C305.68,57.77 305.41,58.36 304.96,59.13 C304.85,59.31 304.73,59.47 304.60,59.60" fill="none" stroke="rgb(0, 221, 255)" stroke-width="5.00" stroke-opacity="1.00" stroke-linejoin="round"/>
<path d="M261.53,35.86 C261.54,35.85 261.17,36.42 260.83,36.94 C260.42,37.58 260.02,38.21 259.65,38.83 C259.20,39.58 258.75,40.33 258.30,41.08" fill="none" stroke="rgb(0, 221, 255)" stroke-width="5.00" stroke-opacity="1.00" stroke-linejoin="round"/>
<path d="M241.71,79.55 C241.15,79.74 239.43,81.33 239.39,83.29 C239.39,85.32 241.10,89.10 243.02,92.16 C243.79,93.42 244.31,95.12 244.03,96.08 C243.91,96.43 243.55,97.19 242.95,98.34" fill="none" stroke="rgb(0, 221, 255)" stroke-width="5.00" stroke-opacity="1.00" stroke-linejoin="round"/>
<path d="M263.01,82.54 C262.54,86.33 262.14,88.90 261.36,93.09 C260.81,96.56 260.49,101.28 261.48,103.50 C261.91,104.43 263.13,106.25 263.38,106.52" fill="none" stroke="rgb(0, 221, 255)" stroke-width="5.00" stroke-opacity="1.00" stroke-linejoin="round"/>
<path d="M289.94,93.70 C288.64,94.82 286.15,96.96 284.96,97.97 C278.01,103.94 275.18,108.11 274.83,108.83 C274.60,109.32 274.37,110.07 274.14,111.08" fill="none" stroke="rgb(0, 221, 255)" stroke-width="5.00" stroke-opacity="1.00" stroke-linejoin="round"/>
<path d="M225.76,93.34 C229.57,90.72 232.86,88.78 237.98,86.22 C243.03,83.72 245.89,82.53 247.23,82.21 C247.75,82.08 248.62,81.97 249.84,81.86" fill="none" stroke="rgb(0, 255, 172)" stroke-width="5.00" stroke-opacity="1.00" stroke-linejoin="round"/>
<path d="M252.46,39.43 C252.25,39.47 251.11,40.02 250.36,40.58 C249.41,41.30 247.39,43.18 246.11,44.49 C245.63,44.97 245.16,45.46 244.68,45.95" fill="none" stroke="rgb(0, 255, 172)" stroke-width="5.00" stroke-opacity="1.00" stroke-linejoin="round"/>
<path d="M213.84,89.59 C212.78,90.72 212.11,91.46 211.83,91.83 C211.54,92.20 211.22,92.73 210.88,93.42 C210.79,93.59 210.71,93.76 210.63,93.93" fill="none" stroke="rgb(0, 255, 172)" stroke-width="5.00" stroke-opacity="1.00" stroke-linejoin="round"/>
<path d="M262.90,82.43 C262.85,82.53 262.45,83.76 261.86,87.64 C261.45,90.36 260.68,97.71 260.69,98.63 C260.76,101.91 262.97,106.13 263.43,107.21 C263.59,107.59 263.68,107.98 263.68,108.38" fill="none" stroke="rgb(0, 255, 172)" stroke-width="5.00" stroke-opacity="1.00" stroke-linejoin="round"/>
<path d="M181.71,117.14 C182.61,114.67 184.87,111.92 187.78,109.30 C192.27,105.30 201.37,100.30 205.97,98.85 C211.09,97.26 222.15,95.49 229.50,95.34 C233.62,95.28 238.95,96.32 241.21,97.57 C242.98,98.58 255.75,110.09 261.36,112.88 C264.82,114.57 270.89,116.38 274.09,116.29 C277.55,116.14 283.55,113.42 286.81,111.36 C292.58,107.60 305.83,98.96 307.24,96.68 C307.48,96.29 308.04,95.26 308.92,93.61 C308.96,93.54 309.06,93.34 309.03,93.41" fill="none" stroke="rgb(0, 0, 0)" stroke-width="5.00" stroke-opacity="1.00" stroke-linejoin="round"/>
<path d="M185.00,111.93 C185.00,111.93 184.91,111.98 184.91,111.98 C186.96,108.62 198.28,98.00 201.45,95.28 C207.08,90.45 222.92,78.91 224.16,78.24 C224.50,78.06 224.73,78.05 224.85,78.21" fill="none" stroke="rgb(0, 0, 0)" stroke-width="5.00" stroke-opacity="1.00" stroke-linejoin="round"/>
<path d="M223.57,80.33 C228.35,78.82 241.94,77.27 247.43,77.14 C251.46,77.05 267.01,78.03 273.81,79.14 C284.00,80.86 294.25,83.19 298.27,85.81 C301.80,88.10 304.36,88.49 305.22,88.58 C305.46,88.60 305.58,88.65 305.59,88.74" fill="none" stroke="rgb(0, 0, 0)" stroke-width="5.00" stroke-opacity="1.00" stroke-linejoin="round"/>
<path d="M221.23,75.75 C221.22,75.79 221.24,75.68 221.25,75.64 C222.22,71.34 224.34,65.76 226.08,62.87 C227.97,59.79 231.75,54.47 234.61,50.84 C236.97,47.87 239.99,44.94 243.16,42.55 C248.93,38.24 261.17,32.84 266.63,31.61 C270.74,30.71 280.32,31.21 285.13,32.62 C287.53,33.34 291.86,35.28 293.94,36.62 C296.20,38.10 298.62,40.22 300.58,42.55 C304.86,47.67 309.73,56.66 311.97,62.74 C313.33,66.45 314.87,71.96 315.07,75.30 C315.45,82.38 314.71,91.32 314.71,91.35 C314.71,91.50 314.72,91.61 314.76,91.69" fill="none" stroke="rgb(0, 0, 0)" stroke-width="5.00" stroke-opacity="1.00" stroke-linejoin="round"/>
<path d="M181.23,117.15 C182.12,118.02 183.92,119.20 184.98,119.14 C187.63,118.88 193.04,114.79 202.68,107.11 C205.82,104.70 211.82,100.26 214.38,98.57 C214.76,98.32 218.20,96.14 218.81,95.74 C218.88,95.69 219.08,95.54 219.00,95.57" fill="none" stroke="rgb(0, 0, 0)" stroke-width="5.00" stroke-opacity="1.00" stroke-linejoin="round"/>
</g>
</svg>
