<?xml version="1.0" encoding="UTF-8" standalone="no"?>
<!DOCTYPE svg PUBLIC "-//W3C//DTD SVG 1.1//EN" "http://www.w3.org/Graphics/SVG/1.1/DTD/svg11.dtd">
<svg width="102.86" height="102.86" viewBox="0.00 0.00 500.00 500.00" xmlns="http://www.w3.org/2000/svg" xmlns:xlink="http://www.w3.org/1999/xlink">
<g stroke-linecap="round" id="레이어_10">
<path d="M276.65,149.30 C275.00,149.30 272.43,149.40 271.22,149.62 C268.55,150.12 262.44,152.92 259.98,154.66 C254.39,158.68 246.33,167.58 243.21,172.14 C240.11,176.71 234.81,187.24 232.83,192.90 C230.89,198.50 228.68,209.43 228.31,215.17 C228.15,218.03 228.54,223.72 229.12,226.95 C229.52,229.05 231.93,234.97 233.77,237.32 C235.95,240.03 241.73,243.66 245.11,244.43 C248.74,245.19 255.52,244.36 258.18,243.49 C261.03,242.51 266.29,239.96 269.18,238.05 C275.19,234.03 285.76,224.11 290.63,218.11 C295.45,212.13 302.79,199.99 305.55,193.19 C306.97,189.64 308.36,184.52 308.83,181.21 C309.35,177.27 309.47,171.04 308.77,167.75 C307.92,163.90 305.19,157.87 302.95,155.29 C300.71,152.81 294.98,149.49 291.60,148.80 C288.38,148.19 283.30,148.64 280.21,149.29 C275.88,150.32 265.95,155.74 261.50,159.57 C257.47,163.06 250.58,171.80 247.95,176.92 C245.31,182.10 241.97,193.67 241.39,199.67 C241.11,202.73 241.14,207.94 241.42,211.24 C241.71,214.29 243.25,220.40 244.59,223.81 C245.40,225.85 248.21,230.07 249.36,231.38 C250.95,233.13 256.09,236.83 259.39,237.69 C262.54,238.49 267.85,238.31 269.65,237.98 C274.00,237.14 283.27,232.50 288.06,228.79 C292.71,225.15 301.77,215.71 305.88,210.26 C309.89,204.92 316.75,193.31 319.37,187.50 C321.94,181.77 325.18,170.93 325.80,166.10 C326.05,164.14 326.23,158.51 325.72,155.41 C325.42,153.63 324.21,150.28 323.38,148.89 C322.53,147.52 320.32,145.30 318.99,144.46 C316.06,142.73 309.43,142.10 306.47,142.55 C301.61,143.38 291.99,147.51 286.90,151.11 C281.67,154.84 272.03,164.86 267.90,170.94 C263.92,176.88 257.94,189.91 256.22,196.23 C254.59,202.32 254.00,212.64 254.96,217.38 C255.59,220.26 258.76,226.32 261.70,228.62 C263.10,229.68 266.29,231.16 268.05,231.59 C271.27,232.31 277.39,231.58 279.86,230.84 C284.16,229.49 293.04,224.12 297.56,220.15 C301.95,216.26 310.24,206.69 313.97,201.28 C317.56,196.05 323.14,185.71 324.89,181.03 C325.75,178.72 327.02,174.01 327.25,172.35 C327.81,168.05 326.90,161.77 325.39,159.29 C324.60,158.06 322.52,156.05 321.24,155.28 C318.40,153.67 312.03,153.08 309.21,153.52 C304.58,154.33 295.64,158.33 291.04,161.80 C286.39,165.35 278.28,174.66 275.10,180.15 C272.04,185.51 268.19,196.86 267.54,202.24 C267.24,204.84 267.26,209.24 267.58,211.82 C267.99,214.74 270.57,220.87 273.16,223.15 C274.39,224.18 277.26,225.62 278.84,226.01 C282.24,226.75 288.92,225.37 291.64,224.11 C296.01,221.99 304.00,215.86 308.19,211.48 C312.29,207.17 320.00,196.96 323.38,191.44 C326.68,186.03 331.50,176.05 333.23,171.17 C334.27,168.16 335.50,161.86 335.10,159.27 C334.87,158.04 334.09,156.39 333.34,155.55 C331.83,153.96 326.96,152.90 324.20,153.42 C320.94,154.08 315.11,157.08 311.59,159.50 C308.04,161.98 299.76,170.49 296.19,175.48 C292.72,180.37 287.24,191.14 286.01,195.33 C284.83,199.43 283.89,205.76 284.41,208.81 C284.67,210.20 285.77,212.80 286.42,213.49 C286.72,213.79 289.77,215.57 290.18,215.69 C292.24,216.21 298.13,214.14 301.74,211.52 C306.10,208.29 316.17,196.65 320.62,190.34 C323.85,185.75 330.83,174.38 335.74,165.41 C342.58,152.30 349.17,134.73 350.33,129.12 C351.13,125.10 351.07,119.12 350.15,116.67 C349.33,114.64 345.72,111.59 343.77,111.19 C341.66,110.80 336.55,111.77 334.09,113.01 C331.89,114.15 327.28,118.17 325.94,120.06 C324.88,121.60 322.75,127.20 322.99,130.32 C323.16,132.07 324.79,135.13 326.05,135.97 C327.30,136.76 330.11,137.48 331.37,137.45 C333.91,137.32 338.36,135.75 340.81,134.08 C343.16,132.45 347.79,127.87 349.87,125.24 C351.87,122.68 355.02,117.51 356.12,114.99 C357.03,112.86 358.54,107.29 358.55,104.33 C358.53,102.84 357.68,100.69 356.85,100.08 C354.96,98.83 349.08,100.12 346.54,101.63 C344.37,102.98 340.35,106.85 338.71,109.10 C337.03,111.45 334.38,117.17 334.41,119.32 C334.46,120.30 335.34,121.69 336.09,121.93 C337.94,122.40 342.86,118.73 344.88,116.28 C346.21,114.64 349.52,109.51 350.63,107.00 C351.42,105.19 353.77,98.57 354.35,95.34 C356.19,84.22 352.02,84.50 351.72,84.43 C350.01,84.05 345.14,86.94 343.03,88.33 C340.40,90.06 337.30,91.56 337.37,91.49 C337.28,90.18 339.94,86.21 344.09,81.23 C345.76,79.26 348.58,78.17 349.60,77.81 C350.37,77.56 356.20,74.73 359.01,74.51 C361.18,74.39 365.38,75.56 369.63,77.81 C371.50,78.84 372.62,80.19 373.78,82.63 C374.90,85.13 375.79,90.27 375.74,93.38 C375.48,100.73 374.16,108.72 371.70,115.31 C368.07,124.99 365.62,133.01 364.54,138.58 C363.39,144.56 362.05,159.37 362.00,162.01 C361.96,165.32 362.68,181.60 363.19,183.44 C363.27,183.70 363.50,184.46 363.88,185.71" fill="none" stroke="rgb(255, 255, 255)" stroke-width="34.86" stroke-opacity="1.00" stroke-linejoin="round"/>
<path d="M339.49,111.36 C338.55,111.50 336.89,111.74 335.32,111.93 C331.08,112.45 313.25,113.34 311.28,113.25 C305.49,112.92 301.03,109.46 299.20,107.83 C300.89,106.40 304.83,106.22 307.13,106.36 C312.18,106.67 317.07,106.79 320.20,106.92 C315.37,108.43 310.20,109.90 307.63,110.29 C304.01,110.80 297.34,110.57 296.47,109.80 C295.86,109.25 292.56,105.89 291.92,105.35 C290.10,103.81 286.24,102.53 283.32,102.17 C273.65,101.03 238.75,99.59 233.94,100.47 C232.23,100.78 222.00,102.32 221.78,102.34 C220.20,102.49 212.41,101.16 211.53,100.93 C206.24,99.52 199.59,94.12 197.93,91.98 C197.74,91.73 196.17,87.34 193.90,82.70 C193.35,81.59 192.66,80.91 190.69,79.39 C189.22,78.32 188.25,78.03 186.45,78.09 C184.44,78.20 175.48,80.15 175.46,80.18 C175.46,80.18 177.02,88.49 177.02,88.49 C177.02,88.49 175.93,81.47 175.93,81.47 C176.40,81.52 177.80,85.23 178.14,87.64 C178.60,91.31 178.07,97.56 177.35,100.11 C174.54,110.09 172.79,118.00 171.99,127.12 C170.91,139.97 173.30,159.33 174.50,162.84 C176.94,169.86 181.89,177.89 184.29,180.20 C187.31,183.07 192.63,185.96 196.33,187.18 C198.06,187.74 201.64,188.87 203.11,189.29 C206.25,190.17 211.66,191.27 213.05,191.54" fill="none" stroke="rgb(255, 255, 255)" stroke-width="59.55" stroke-opacity="1.00" stroke-linejoin="round"/>
<path d="M264.44,146.66 C264.28,146.16 263.74,145.06 263.26,144.58 C261.85,143.23 255.21,141.90 251.74,141.86 C245.77,141.84 236.49,143.35 227.19,145.41 C220.56,147.02 207.39,150.74 201.08,153.16 C192.21,156.57 185.21,160.19 183.22,161.63 C186.27,162.22 191.60,161.18 194.38,160.57 C199.94,159.32 239.42,147.43 253.94,143.44 C274.51,138.22 284.06,135.47 284.96,135.20 C283.90,134.81 269.92,137.81 263.34,140.24 C257.75,142.33 247.46,147.47 243.09,150.42 C239.47,152.88 233.92,157.48 231.44,160.05 C228.91,162.72 225.83,167.35 224.92,169.48 C224.16,171.35 223.89,176.19 224.48,177.82 C225.18,179.66 228.18,182.96 230.44,184.19 C232.77,185.43 238.93,186.93 242.48,187.10 C248.27,187.33 260.03,185.46 266.62,183.66 C271.27,182.36 288.91,175.48 292.76,173.32 C298.47,170.00 301.72,167.74 301.91,166.18 C300.09,164.86 295.90,164.42 292.16,164.78 C288.02,165.20 282.18,166.64 278.46,167.96 C271.07,170.65 257.83,177.80 251.47,182.39 C244.68,187.33 233.75,198.55 231.73,201.69 C229.32,205.48 227.04,209.64 226.32,211.70 C224.80,216.15 224.15,222.50 224.81,225.42 C225.49,228.21 228.66,232.41 231.08,233.81 C233.51,235.15 239.66,236.29 243.14,236.00 C246.65,235.67 251.37,234.19 255.72,232.39 C260.87,230.11 271.27,222.49 275.15,218.41 C277.45,215.95 281.20,211.00 282.59,208.28 C284.02,205.40 285.21,199.88 284.96,197.38 C284.65,194.88 282.34,190.38 280.35,188.46 C278.29,186.51 272.71,183.54 269.47,182.71 C266.00,181.86 258.94,181.86 254.76,182.79 C252.63,183.29 246.79,185.60 244.17,187.12 C241.23,188.85 236.65,192.33 233.99,194.85 C229.18,199.47 221.46,211.22 218.95,217.68 C217.62,221.16 216.34,226.38 215.79,230.39 C215.43,233.17 215.44,237.49 216.03,240.62 C216.68,243.87 219.82,249.20 221.96,250.84 C224.06,252.38 229.09,253.41 231.81,252.87 C234.57,252.27 240.06,249.10 242.97,246.42 C247.71,242.00 254.69,232.04 257.08,227.07 C258.53,224.00 260.80,217.83 261.60,214.32 C262.44,210.55 262.89,203.40 262.49,200.15 C262.07,196.92 260.02,191.45 258.42,189.28 C256.79,187.15 252.47,184.17 249.84,183.39 C247.10,182.62 240.87,182.67 237.54,183.54 C234.35,184.40 228.82,187.19 226.14,189.05 C221.68,192.19 214.09,200.99 211.43,206.09 C209.83,209.21 207.75,215.73 207.35,218.84 C206.94,222.40 208.19,228.92 209.73,231.50 C211.25,233.94 215.75,237.38 218.42,238.24 C221.10,239.05 226.80,238.75 229.59,237.63 C232.38,236.46 237.49,232.28 239.68,229.39 C241.82,226.52 245.12,219.63 246.14,215.96 C247.12,212.29 247.71,204.94 247.33,201.33 C246.92,197.81 244.86,191.05 243.29,187.99 C241.70,184.93 237.60,179.78 235.19,177.88 C232.67,175.94 227.03,173.72 223.95,173.51 C220.78,173.35 213.93,175.03 210.67,176.77 C206.25,179.16 199.33,185.47 196.71,188.94 C194.11,192.43 190.21,200.31 189.01,204.49 C188.53,206.20 187.51,211.42 187.39,214.61 C187.26,218.30 188.73,225.16 190.16,227.75 C191.56,230.20 195.51,233.47 197.81,234.17 C200.12,234.82 204.99,234.15 207.32,232.82 C209.68,231.43 213.71,227.02 215.57,223.80 C217.64,220.13 220.03,213.56 220.86,209.68 C221.63,205.93 222.14,198.21 221.86,194.36 C221.55,190.50 219.91,182.99 218.63,179.54 C217.31,176.03 214.31,170.70 212.11,168.19 C210.22,166.07 206.48,163.74 204.15,163.20 C201.41,162.61 196.83,163.16 194.22,164.27 C191.68,165.38 186.68,169.12 184.47,171.55 C182.26,174.02 178.82,179.70 177.68,182.77 C176.60,185.76 175.66,191.43 175.63,194.54 C175.65,196.06 176.10,199.26 176.55,200.65 C177.00,201.92 178.59,203.39 179.55,203.51 C180.76,203.57 182.91,202.03 184.30,200.19 C185.43,198.63 187.85,192.14 188.61,188.53 C189.94,181.88 189.72,166.62 188.45,159.43 C187.76,155.67 185.91,149.65 184.84,147.29 C183.69,144.82 180.64,141.01 179.30,140.08 C177.59,138.97 174.28,137.93 172.46,138.12 C169.51,138.48 165.06,141.29 163.77,142.53 C162.32,143.95 159.65,147.85 158.87,149.40 C156.26,154.77 153.35,170.04 152.05,172.75 C151.95,172.95 151.77,173.25 151.52,173.67 C150.72,172.69 149.76,168.00 149.69,164.82 C149.61,159.63 151.64,146.16 154.17,141.63 C158.31,134.42 162.36,131.61 164.66,130.31 C159.04,137.13 153.48,145.42 147.09,156.25 C144.13,161.38 142.39,164.78 141.62,167.40 C140.42,171.65 139.49,176.80 139.35,180.74 C139.26,184.45 139.98,191.12 140.86,194.77 C142.73,202.33 147.36,211.22 153.78,222.55 C155.81,226.11 167.30,241.16 170.65,244.00 C172.54,245.59 178.70,249.76 179.36,250.01 C176.61,248.16 171.16,243.91 169.01,241.77 C165.30,238.06 154.00,222.06 152.71,219.90 C150.92,216.82 147.30,206.25 146.89,202.74 C146.74,206.34 146.42,214.19 146.67,216.18 C147.13,219.64 152.20,231.50 153.96,233.72 C157.12,237.66 161.06,240.70 163.56,242.46 C157.53,235.28 151.17,226.04 148.69,220.80 C146.44,215.98 143.12,203.20 143.07,201.78 C143.06,201.52 143.05,201.08 143.06,200.45 C143.05,200.39 144.44,215.26 146.17,220.36 C147.11,223.07 149.61,228.46 150.66,230.19 C152.52,233.21 155.99,237.43 158.28,239.77 C160.59,242.08 178.95,253.65 180.20,254.60" fill="none" stroke="rgb(255, 255, 255)" stroke-width="59.55" stroke-opacity="1.00" stroke-linejoin="round"/>
<path d="M257.15,263.79 C257.15,263.79 324.45,251.01 324.45,251.01" fill="none" stroke="rgb(255, 255, 255)" stroke-width="59.55" stroke-opacity="1.00" stroke-linejoin="round"/>
<path d="M260.57,261.66 C260.57,261.66 327.98,249.75 327.98,249.75" fill="none" stroke="rgb(255, 255, 255)" stroke-width="59.55" stroke-opacity="1.00" stroke-linejoin="round"/>
<path d="M325.43,229.75 C325.43,229.75 340.66,220.15 340.66,220.15" fill="none" stroke="rgb(255, 255, 255)" stroke-width="59.55" stroke-opacity="1.00" stroke-linejoin="round"/>
<path d="M344.47,210.28 C347.33,204.80 349.86,199.64 351.07,196.03 C352.12,192.87 353.59,186.63 354.02,183.25 C354.63,178.23 353.23,154.80 355.49,141.67 C357.52,141.87 363.22,148.89 364.20,150.18 C364.20,150.18 361.81,142.16 361.81,142.16 C361.99,142.56 366.45,154.17 371.08,168.37 C374.30,178.33 376.44,187.69 376.33,192.31 C376.21,195.92 373.72,205.30 370.07,215.89 C369.09,218.67 367.20,223.95 366.12,225.82 C361.49,233.47 359.12,236.77 358.37,237.75" fill="none" stroke="rgb(255, 255, 255)" stroke-width="59.55" stroke-opacity="1.00" stroke-linejoin="round"/>
<path d="M365.85,214.81 C365.85,214.81 365.28,218.23 365.28,218.23 C365.28,218.23 375.22,206.21 375.22,206.21" fill="none" stroke="rgb(255, 255, 255)" stroke-width="59.55" stroke-opacity="1.00" stroke-linejoin="round"/>
<path d="M178.42,273.91 C177.97,273.84 177.51,273.77 177.06,273.70 C176.31,273.59 175.14,272.97 174.63,272.82 C173.66,272.54 171.59,272.32 171.11,272.37 C171.83,273.15 172.54,273.92 173.25,274.70 C173.51,274.98 173.87,275.32 174.31,275.71 C176.11,277.28 178.18,278.94 179.42,279.72 C181.92,281.27 186.12,282.40 191.39,283.20 C205.20,285.09 235.09,289.07 247.37,289.70 C255.54,290.06 267.84,289.60 275.24,288.18 C278.21,287.61 297.63,282.42 300.62,281.50 C304.90,280.16 322.45,273.52 328.71,270.60 C338.31,265.93 362.88,252.86 368.24,249.40 C368.47,248.70 329.30,264.04 314.72,268.59 C301.75,272.26 264.45,280.21 264.20,280.32 C264.02,280.40 263.74,280.54 263.36,280.75 C264.30,281.81 268.05,282.60 270.78,282.19 C275.03,281.51 284.07,277.31 293.29,272.46 C306.95,265.20 330.84,252.60 336.21,250.17 C322.56,256.15 295.01,268.16 282.30,272.90 C275.29,275.43 262.07,279.08 257.03,279.94 C250.48,281.05 242.05,281.48 229.43,281.63 C220.41,281.87 214.16,281.17 205.82,279.66 C201.89,278.93 195.42,275.99 194.41,275.61 C193.90,275.42 192.88,275.09 191.32,274.62" fill="none" stroke="rgb(255, 255, 255)" stroke-width="16.50" stroke-opacity="1.00" stroke-linejoin="round"/>
<path d="M156.03,265.49 C155.74,265.28 155.44,265.07 155.14,264.87 C154.99,264.76 154.77,264.62 154.49,264.43 C154.44,264.45 154.50,264.57 154.66,264.82 C155.16,265.55 155.79,266.41 156.54,267.39 C157.12,268.14 157.80,268.95 158.57,269.83 C160.98,272.52 167.66,277.88 169.19,278.75 C173.64,281.25 183.86,285.32 184.28,285.64 C184.37,285.70 184.54,285.84 184.79,286.05" fill="none" stroke="rgb(255, 255, 255)" stroke-width="16.50" stroke-opacity="1.00" stroke-linejoin="round"/>
<path d="M187.31,280.50 C187.31,280.50 186.64,281.10 186.64,281.10 C186.93,282.55 190.78,284.11 196.08,285.65 C204.38,288.01 222.44,290.39 223.04,290.49 C229.01,291.61 261.23,294.81 277.64,293.87 C283.41,293.53 293.95,291.52 299.00,289.91 C309.51,286.47 337.98,274.89 352.19,268.90 C357.99,266.37 369.31,258.39 372.71,255.33 C379.37,249.28 386.66,236.84 387.18,235.84 C387.70,234.85 388.21,233.86 388.72,232.86" fill="none" stroke="rgb(255, 255, 255)" stroke-width="16.50" stroke-opacity="1.00" stroke-linejoin="round"/>
<path d="M396.52,219.97 C396.27,222.68 395.58,225.41 393.62,231.68 C391.63,237.89 387.54,245.92 383.85,251.09 C380.35,255.97 373.90,262.52 367.15,267.63 C361.25,272.08 352.60,277.40 344.10,281.58 C336.58,285.22 325.69,288.67 317.80,290.23 C300.89,293.25 281.91,294.52 281.08,294.54 C280.06,294.57 279.04,294.59 278.02,294.61" fill="none" stroke="rgb(255, 255, 255)" stroke-width="16.50" stroke-opacity="1.00" stroke-linejoin="round"/>
<path d="M147.69,104.44 C147.97,102.21 147.68,98.14 146.77,91.77 C145.84,85.95 145.23,81.33 145.33,78.93 C145.45,76.30 146.48,69.71 147.24,67.93 C148.46,65.16 152.52,60.44 153.98,59.16 C156.24,57.19 162.28,53.50 164.54,52.54 C169.64,50.42 182.40,48.12 188.18,48.00 C190.09,47.97 195.01,48.34 196.98,48.98 C199.21,49.73 204.22,52.62 207.07,55.39 C210.16,58.42 212.77,61.58 213.65,62.70 C214.21,63.38 215.91,65.14 216.58,65.82 C219.07,68.28 223.08,70.43 226.16,70.80 C230.88,71.26 245.18,70.14 251.60,70.47 C257.88,70.71 271.63,71.34 279.09,71.72 C285.00,71.88 299.87,74.79 301.99,75.16 C311.17,76.76 317.66,78.47 318.93,78.32 C319.15,78.29 328.26,72.71 329.18,72.15 C329.29,72.08 332.95,68.70 335.87,66.20 C337.72,64.65 343.11,61.74 346.47,60.59 C348.44,59.94 357.03,58.13 359.75,58.01 C364.39,57.85 368.29,58.34 371.29,59.53 C375.80,61.45 379.27,63.53 382.35,66.18 C385.25,68.71 388.86,73.21 390.29,75.67 C391.24,77.31 393.26,81.98 393.62,83.63 C393.82,84.61 394.61,92.80 394.94,96.16 C395.24,99.49 394.75,105.97 394.32,107.47 C394.29,107.57 390.39,115.62 389.72,117.84 C388.82,120.87 388.32,127.00 388.77,129.12 C389.04,130.34 399.01,156.54 400.49,160.80" fill="none" stroke="rgb(0, 0, 0)" stroke-width="6.00" stroke-opacity="1.00" stroke-linejoin="round"/>
<path d="M147.39,104.44 C147.39,104.44 146.26,104.04 146.26,104.04 C143.39,107.50 134.30,117.85 129.55,124.17 C125.93,129.01 121.35,138.18 117.65,146.62 C114.93,152.99 111.06,165.38 110.14,170.67 C109.26,175.88 109.18,191.74 109.60,197.11 C110.15,203.81 113.93,221.23 115.00,224.69 C117.09,231.43 123.02,243.69 126.66,249.31 C130.05,254.51 137.23,262.89 141.38,266.63 C147.62,272.06 158.46,279.67 163.41,282.57 C167.07,284.69 185.97,291.99 186.63,292.19 C187.45,292.43 188.28,292.41 188.32,292.33" fill="none" stroke="rgb(0, 0, 0)" stroke-width="6.00" stroke-opacity="1.00" stroke-linejoin="round"/>
<path d="M184.56,291.14 C184.55,291.13 185.45,291.61 185.94,291.79 C188.38,292.60 194.33,294.66 196.58,295.18 C198.95,295.72 215.08,298.55 221.72,299.89 C233.53,301.96 269.06,303.38 279.26,303.01 C285.63,302.77 300.94,300.74 307.19,299.40 C308.79,299.05 328.42,294.05 331.23,293.08 C342.21,289.11 351.53,285.15 359.37,280.98 C361.51,279.83 369.15,274.77 371.46,272.78 C371.93,272.37 373.98,270.28 374.44,269.77 C374.66,269.52 375.08,269.02 375.69,268.28" fill="none" stroke="rgb(0, 0, 0)" stroke-width="6.00" stroke-opacity="1.00" stroke-linejoin="round"/>
<path d="M399.20,155.96 C400.04,156.92 403.27,169.24 403.75,174.62 C404.30,179.66 405.46,192.12 405.75,199.39 C406.08,209.48 405.42,218.64 403.32,225.98 C401.85,231.07 396.60,244.16 393.98,248.97 C392.95,250.84 388.25,258.57 386.63,260.61 C383.88,264.02 376.41,269.79 373.75,271.85 C372.34,272.95 369.91,275.02 368.71,276.16 C368.34,276.50 367.89,276.96 367.36,277.53" fill="none" stroke="rgb(0, 0, 0)" stroke-width="6.00" stroke-opacity="1.00" stroke-linejoin="round"/>
<path d="M174.62,64.42 C174.40,64.39 174.05,64.78 173.25,66.02 C171.22,69.24 167.39,75.31 166.87,76.31 C166.87,76.31 186.45,74.49 186.45,74.49 C179.25,81.44 174.82,85.23 173.88,85.97 C173.68,86.13 173.44,86.30 173.16,86.50" fill="none" stroke="rgb(0, 0, 0)" stroke-width="6.00" stroke-opacity="1.00" stroke-linejoin="round"/>
<path d="M373.12,82.60 C370.70,81.53 359.55,84.18 358.12,84.52 C362.51,86.30 369.12,92.89 369.33,93.42 C365.94,93.70 361.47,94.27 360.81,94.43 C360.40,94.53 359.64,94.76 358.55,95.14" fill="none" stroke="rgb(0, 0, 0)" stroke-width="6.00" stroke-opacity="1.00" stroke-linejoin="round"/>
<path d="M229.34,60.29 C226.25,60.36 222.76,61.28 220.19,62.22 C204.19,68.21 199.68,75.07 198.58,75.01 C198.29,74.99 197.59,74.67 197.14,74.62 C197.14,74.62 198.25,75.12 198.25,75.12 C203.89,75.17 214.86,73.85 223.65,73.35 C241.81,72.35 271.15,72.15 282.87,71.22 C283.65,71.15 284.43,71.08 285.21,71.02 C284.94,70.98 268.21,73.63 260.12,74.60 C226.59,78.03 202.37,75.15 195.42,75.21 C196.90,76.17 210.14,75.18 217.16,74.59 C229.02,73.65 268.49,74.37 274.69,74.23 C281.17,74.07 294.47,72.30 299.03,70.89 C307.11,68.35 307.82,68.45 308.40,68.59 C307.54,69.04 302.65,70.58 300.81,70.82 C298.69,71.08 295.55,70.11 293.57,68.05 C293.10,67.56 291.36,65.28 290.73,64.46" fill="none" stroke="rgb(57, 57, 57)" stroke-width="24.00" stroke-opacity="1.00" stroke-linejoin="round"/>
<path d="M292.28,58.16 C292.39,58.13 300.41,60.01 301.95,60.51 C304.45,61.33 310.39,64.54 313.05,65.44 C317.95,66.99 332.09,71.61 333.61,72.63 C333.66,72.98 332.48,74.41 327.73,74.93 C325.18,75.20 302.43,76.41 299.19,76.70 C288.09,77.82 275.81,77.45 275.27,77.62 C275.25,77.62 274.11,77.87 273.58,78.01 C275.07,79.18 293.16,79.60 297.06,79.55 C301.59,79.49 314.72,78.39 317.79,78.12 C314.05,78.24 267.71,81.61 266.51,81.14 C266.21,81.02 264.34,79.63 262.98,78.68 C262.45,78.31 261.92,77.94 261.39,77.56" fill="none" stroke="rgb(57, 57, 57)" stroke-width="14.76" stroke-opacity="1.00" stroke-linejoin="round"/>
<path d="M255.77,70.20 C255.27,69.28 253.95,66.78 253.27,65.40 C250.34,59.49 246.23,43.99 245.91,39.60 C245.67,35.99 247.49,21.61 246.73,20.54 C246.21,20.44 244.25,21.45 243.02,22.71 C241.85,23.90 241.03,25.90 240.92,27.11 C240.91,27.15 243.49,21.85 244.97,18.81 C245.78,17.30 251.38,15.80 255.36,15.65 C259.62,15.54 275.60,18.18 280.26,18.69 C283.33,19.02 286.23,20.41 286.52,20.93 C280.98,19.31 272.27,16.37 266.31,15.70 C265.49,15.61 263.81,15.56 263.20,15.57 C263.20,15.57 275.89,16.38 275.89,16.38 C275.56,16.85 262.56,17.53 257.31,18.50 C252.32,19.43 248.85,20.23 247.13,21.13 C245.29,22.14 242.58,25.62 241.44,28.74 C239.57,34.02 237.22,46.73 236.95,52.59 C236.84,55.29 237.31,59.46 237.55,61.06 C237.55,61.06 248.75,31.30 248.75,31.30 C248.75,31.30 247.87,62.85 247.87,62.85 C248.92,62.54 254.47,47.26 256.36,39.92 C258.06,33.29 258.96,27.49 259.09,23.62 C258.95,30.95 258.77,44.77 259.05,50.48 C259.50,57.58 260.63,62.56 261.06,62.63 C261.06,62.63 272.62,26.60 272.62,26.60 C272.18,31.72 271.87,45.31 272.41,51.26 C272.89,56.18 274.05,60.91 274.50,60.76 C276.33,59.78 280.31,35.90 281.46,25.42 C281.46,25.42 282.96,57.38 282.96,57.38 C282.96,57.38 286.41,25.08 286.41,25.08 C287.27,30.06 285.47,60.49 285.11,62.19 C284.43,61.41 277.44,43.70 276.01,38.74 C272.88,27.82 270.93,24.35 269.91,22.90 C269.81,23.79 269.76,24.33 269.74,24.53 C269.73,24.72 269.74,24.82 269.78,24.85" fill="none" stroke="rgb(57, 57, 57)" stroke-width="14.76" stroke-opacity="1.00" stroke-linejoin="round"/>
<path d="M280.33,9.94 C280.28,9.93 280.21,9.91 280.11,9.87 C277.99,9.00 274.31,8.19 271.06,7.98 C264.70,7.61 253.36,8.32 247.31,9.74 C243.58,10.64 238.79,12.66 237.97,13.65 C237.36,14.51 237.99,16.09 239.68,16.89 C243.51,18.64 255.40,19.97 262.96,20.24 C271.93,20.46 282.05,19.86 286.86,18.78 C290.12,18.01 291.99,16.69 292.26,15.82 C291.88,14.96 289.49,13.61 287.02,12.74 C284.37,11.83 278.95,10.99 275.86,10.90 C275.36,10.89 274.23,10.87 272.47,10.85" fill="none" stroke="rgb(0, 0, 0)" stroke-width="5.00" stroke-opacity="1.00" stroke-linejoin="round"/>
<path d="M236.44,15.65 C235.17,20.16 227.91,54.79 227.18,61.22 C226.97,63.01 227.05,63.79 227.47,64.86 C227.47,64.86 228.18,64.45 228.18,64.45" fill="none" stroke="rgb(0, 0, 0)" stroke-width="5.00" stroke-opacity="1.00" stroke-linejoin="round"/>
<path d="M294.80,15.32 C293.83,23.84 292.98,53.51 293.69,60.29 C293.78,61.20 293.85,61.89 293.89,62.35 C293.90,62.57 293.91,62.76 293.89,62.92" fill="none" stroke="rgb(0, 0, 0)" stroke-width="5.00" stroke-opacity="1.00" stroke-linejoin="round"/>
<path d="M229.36,51.27 C229.26,51.22 229.14,51.17 229.00,51.13 C226.65,50.46 221.46,50.97 217.03,52.60 C211.55,54.67 197.96,62.18 192.98,65.68 C190.73,67.29 185.95,72.01 184.92,74.19 C184.36,75.48 184.16,77.87 184.70,78.82 C185.87,80.73 191.12,83.42 193.62,84.25 C199.73,86.24 212.88,87.48 219.80,87.67 C226.57,87.85 276.29,87.36 286.72,86.95 C292.33,86.59 310.13,85.02 313.90,84.51 C321.98,83.39 334.88,80.15 338.60,77.77 C340.40,76.58 341.81,73.60 341.11,71.96 C340.33,70.31 334.50,65.99 331.53,64.49 C324.57,61.01 316.05,58.08 305.80,55.20 C299.67,53.54 292.14,51.64 291.80,51.58 C291.56,51.53 291.11,51.47 290.45,51.39" fill="none" stroke="rgb(0, 0, 0)" stroke-width="5.00" stroke-opacity="1.00" stroke-linejoin="round"/>
<path d="M206.01,86.39 C206.03,86.39 206.03,86.40 206.01,86.41 C205.64,86.61 204.05,87.50 202.83,88.19 C190.47,95.09 165.00,109.48 152.73,117.39 C139.58,126.26 119.83,142.42 116.53,146.71 C113.76,150.35 114.09,152.14 114.26,152.24" fill="none" stroke="rgb(0, 0, 0)" stroke-width="5.00" stroke-opacity="1.00" stroke-linejoin="round"/>
<path d="M320.73,84.05 C323.00,85.86 335.69,93.95 343.39,99.65 C354.10,107.91 375.03,126.60 384.26,136.09 C386.56,138.52 390.83,143.08 392.80,145.20 C395.82,148.57 397.24,150.91 397.92,152.37 C398.08,152.71 398.19,153.05 398.27,153.41" fill="none" stroke="rgb(0, 0, 0)" stroke-width="5.00" stroke-opacity="1.00" stroke-linejoin="round"/>
</g>
</svg>
