<?xml version="1.0" encoding="UTF-8" standalone="no"?>
<!DOCTYPE svg PUBLIC "-//W3C//DTD SVG 1.1//EN" "http://www.w3.org/Graphics/SVG/1.1/DTD/svg11.dtd">
<svg width="102.86" height="102.86" viewBox="0.00 0.00 500.00 500.00" xmlns="http://www.w3.org/2000/svg" xmlns:xlink="http://www.w3.org/1999/xlink">
<g stroke-linecap="round" id="레이어_4">
<path d="M134.47,210.43 C134.37,210.06 134.52,208.40 134.90,206.30 C136.27,199.69 139.35,184.44 139.97,181.28 C141.19,175.45 144.61,165.07 148.51,152.29 C150.81,144.81 157.10,130.17 158.69,127.27 C162.00,121.28 170.71,111.29 174.82,106.44 C178.07,102.61 181.57,98.91 184.52,96.37 C187.93,93.46 192.49,89.97 197.18,87.57 C199.15,86.58 219.55,77.17 221.54,76.36 C227.11,74.13 240.17,71.57 244.81,70.95 C254.24,69.72 259.78,69.18 268.12,69.18 C279.75,69.30 288.22,69.71 297.11,71.04 C303.85,72.06 315.70,76.39 321.21,79.43 C325.38,81.74 339.46,91.67 340.02,92.14 C344.34,95.82 350.06,101.79 353.54,107.73 C357.11,113.88 365.31,132.38 366.33,134.71 C368.52,139.79 373.01,152.90 373.01,152.87 C373.01,152.87 362.07,118.69 362.07,118.69 C363.81,121.82 368.03,128.61 372.38,138.38 C378.05,151.11 379.41,154.71 382.50,165.24 C383.23,167.74 386.45,181.32 387.27,183.49 C387.28,183.53 386.93,175.35 386.74,173.91 C386.21,169.94 379.85,151.13 379.63,150.04 C379.99,151.76 384.57,164.60 387.57,171.57 C390.32,178.10 392.74,189.03 393.94,193.65 C394.43,196.04 397.01,204.94 397.02,204.92 C396.43,202.51 394.36,194.52 394.28,194.05 C393.97,192.21 393.57,185.21 393.32,182.55 C393.18,181.03 392.05,177.16 392.07,177.26 C393.29,182.62 399.96,198.74 400.78,201.52 C401.01,202.35 401.57,204.60 401.46,204.73 C400.83,205.41 398.84,207.07 398.11,207.48" fill="none" stroke="rgb(204, 170, 254)" stroke-width="30.41" stroke-opacity="1.00" stroke-linejoin="round"/>
<path d="M403.92,211.37 C403.92,211.37 405.13,215.75 405.13,215.75 C402.14,216.10 387.92,214.52 380.48,213.71 C363.82,212.06 334.84,209.32 319.21,208.49 C295.65,207.15 275.77,204.23 260.36,203.33 C256.08,203.08 239.34,203.06 232.76,203.11 C226.26,203.10 206.94,201.71 203.06,201.63 C196.29,201.51 189.73,202.74 181.17,205.01 C173.01,207.12 150.77,210.16 147.60,210.90 C149.88,212.27 159.35,212.95 171.05,213.17 C191.23,213.73 216.77,215.72 231.01,217.01 C247.19,218.12 271.66,218.64 286.30,218.59 C295.47,218.44 326.55,216.52 339.39,216.51 C342.26,216.54 356.24,217.12 364.74,216.64 C373.16,216.18 387.73,217.23 389.91,217.29 C392.71,217.37 401.10,217.27 401.27,217.42 C400.65,218.43 396.74,219.60 393.90,220.19 C387.81,221.42 378.82,222.14 369.19,222.28 C361.89,222.27 346.23,221.91 338.78,221.68 C336.16,221.57 295.26,217.64 281.12,216.36 C267.58,215.10 238.95,211.95 224.47,209.87 C217.97,208.82 200.54,205.70 198.79,205.45 C195.35,204.98 180.58,204.08 169.64,203.98 C163.03,203.96 160.10,203.87 158.94,203.15 C157.84,202.38 160.26,195.54 163.85,186.79 C167.01,179.53 174.14,164.85 177.60,158.18 C180.94,151.92 191.18,136.05 193.54,132.83 C197.96,126.79 208.36,115.36 214.24,110.36 C219.97,105.50 231.31,98.23 235.10,96.33 C241.74,93.09 246.04,92.06 246.80,92.42 C247.24,94.20 240.95,100.44 232.69,107.65 C226.70,112.87 216.30,122.05 210.80,127.47 C203.29,134.98 198.34,140.38 190.43,149.59 C177.34,165.32 175.26,169.47 175.17,169.87 C176.45,169.09 185.90,157.50 189.15,152.90 C197.98,139.77 221.83,103.76 223.74,100.06 C225.54,96.53 227.21,92.62 227.27,90.33 C226.27,88.95 222.51,89.55 219.74,90.70 C216.03,92.32 206.29,100.25 201.29,105.49 C196.56,110.48 186.96,122.30 182.68,128.61 C178.26,135.17 171.42,147.96 169.06,153.87 C166.72,159.79 164.02,171.44 164.50,175.70 C164.80,178.01 166.66,181.14 168.16,181.86 C169.73,182.54 173.74,182.09 176.56,180.83 C179.80,179.35 189.97,171.70 195.84,166.34 C203.35,159.30 226.67,135.84 238.03,124.43 C256.48,106.36 267.85,94.57 270.30,89.44 C270.72,88.54 270.71,87.74 270.38,86.45 C267.90,85.98 263.36,87.51 261.95,88.16 C257.31,90.32 247.84,96.86 243.56,100.59 C237.40,106.03 227.83,116.01 223.82,120.79 C218.80,126.79 209.71,139.54 205.90,145.94 C198.50,158.43 192.87,174.79 192.19,178.69 C191.49,182.94 191.87,188.26 192.93,189.88 C193.48,190.65 194.98,191.63 195.94,191.84 C197.94,192.20 203.31,190.57 207.05,188.38 C210.57,186.28 220.24,178.33 225.38,173.35 C237.39,161.34 255.95,140.88 266.00,129.71 C282.41,111.08 290.76,100.51 292.74,96.09 C293.32,94.78 293.29,93.54 292.81,91.37 C290.75,90.33 289.45,89.96 287.95,90.19 C283.38,90.91 273.03,95.74 268.66,98.52 C262.85,102.23 252.80,110.04 247.23,115.31 C241.70,120.58 231.34,132.46 226.89,138.75 C222.28,145.29 215.25,158.57 213.82,162.59 C211.75,168.52 210.48,177.28 210.96,180.26 C211.29,182.11 212.13,184.60 212.90,185.76 C213.63,186.82 215.55,188.40 216.72,188.89 C219.22,189.86 225.02,189.26 227.67,188.38 C231.96,186.88 240.99,181.89 245.64,178.52 C252.21,173.69 260.69,166.43 266.78,161.00 C272.57,155.56 283.55,144.63 288.94,139.14 C293.70,134.03 304.04,122.63 307.23,118.50 C312.24,111.95 314.98,105.34 315.20,102.85 C315.26,101.70 314.12,99.84 312.84,98.94 C311.76,98.24 306.04,98.85 302.14,100.32 C298.49,101.73 289.08,107.52 284.50,111.27 C280.01,114.95 271.13,123.84 266.60,129.53 C262.10,135.20 254.86,146.79 252.26,152.27 C249.71,157.70 246.36,168.22 245.70,172.95 C245.45,174.85 245.25,180.10 245.74,182.86 C246.03,184.40 247.18,187.19 247.94,188.28 C248.73,189.32 250.74,190.88 251.93,191.38 C254.52,192.38 260.34,191.90 262.95,191.08 C267.18,189.69 275.57,185.15 280.49,181.76 C284.04,179.30 297.35,168.57 302.00,164.47 C307.54,159.44 318.14,149.14 323.40,143.61 C329.21,137.24 337.05,126.83 339.08,122.52 C340.07,120.37 341.06,115.72 340.48,113.85 C339.86,112.05 336.54,110.02 333.87,109.92 C329.49,109.81 318.85,113.88 314.16,116.65 C309.17,119.62 299.15,127.69 294.44,132.60 C289.62,137.66 281.34,148.95 278.28,154.69 C275.24,160.45 271.67,171.51 271.20,176.50 C270.75,181.62 272.58,189.57 274.29,192.20 C275.24,193.61 277.63,195.90 279.05,196.78 C282.05,198.53 288.77,199.50 291.76,199.31 C296.48,198.95 306.01,196.42 311.31,194.13 C316.51,191.88 327.09,185.68 332.17,181.97 C342.05,174.71 352.43,163.24 355.10,159.35 C356.71,156.98 359.52,151.19 360.14,148.14 C360.65,145.37 359.92,140.77 358.72,139.12 C357.44,137.49 353.24,135.80 350.47,135.90 C347.58,136.05 341.32,138.25 337.56,140.49 C334.32,142.44 327.55,148.48 324.77,151.88 C321.98,155.33 317.72,163.00 316.58,166.63 C315.29,170.83 314.47,178.06 314.82,181.63 C315.20,185.14 317.47,191.32 319.28,193.91 C321.09,196.42 325.77,200.23 328.51,201.44 C331.28,202.62 337.48,203.48 340.79,203.14 C344.12,202.76 350.71,200.50 353.77,198.67 C356.76,196.84 361.91,192.12 363.94,189.39 C365.88,186.74 368.46,181.22 369.05,178.55 C369.58,175.97 369.33,171.25 368.61,169.25 C367.87,167.30 365.34,164.34 363.64,163.43 C361.91,162.55 357.77,162.09 355.55,162.57 C353.26,163.09 348.80,165.57 346.82,167.44 C344.85,169.36 341.74,174.17 340.73,176.89 C339.76,179.62 339.01,185.27 339.30,187.99 C339.61,190.66 341.42,195.35 342.84,197.18 C344.26,198.95 347.87,201.26 349.92,201.76 C351.93,202.21 356.01,201.82 357.88,201.03 C359.68,200.24 362.75,197.65 363.96,195.99 C365.09,194.42 366.66,190.75 366.86,189.42 C367.07,187.67 366.84,185.25 366.23,184.14 C365.60,183.10 363.50,181.60 362.09,181.19 C360.62,180.81 357.35,180.86 355.72,181.30 C354.24,181.74 351.17,183.34 349.95,184.32 C349.51,184.67 348.60,185.48 347.21,186.74" fill="none" stroke="rgb(204, 170, 254)" stroke-width="30.41" stroke-opacity="1.00" stroke-linejoin="round"/>
<path d="M381.30,196.72 C381.30,196.72 379.87,200.78 379.87,200.78 C377.48,200.47 371.63,199.23 369.05,198.97 C363.02,198.39 356.89,200.36 356.08,200.73 C355.73,200.88 354.97,201.25 353.82,201.83" fill="none" stroke="rgb(204, 170, 254)" stroke-width="30.41" stroke-opacity="1.00" stroke-linejoin="round"/>
<path d="M119.78,209.57 C119.82,207.69 119.94,206.63 120.41,204.45 C122.10,196.24 125.33,180.53 126.88,173.03 C128.03,167.19 130.07,157.07 132.88,149.27 C135.78,141.43 141.04,130.79 145.03,124.38 C147.41,120.57 157.29,106.18 160.87,102.42 C163.79,99.41 176.94,87.80 183.28,83.30 C191.44,77.68 202.22,71.02 206.44,68.75 C213.31,65.06 223.77,60.99 230.39,59.28 C238.31,57.25 248.37,56.20 256.88,56.01 C264.65,55.91 279.86,55.81 285.76,55.92 C290.55,56.04 303.02,57.58 310.05,59.61 C318.00,61.94 329.63,67.28 334.93,70.30 C340.68,73.59 349.39,80.16 354.58,85.41 C360.03,90.98 369.58,103.44 374.32,109.74 C377.63,114.19 384.65,126.38 386.34,129.55" fill="none" stroke="rgb(0, 0, 0)" stroke-width="5.00" stroke-opacity="1.00" stroke-linejoin="round"/>
<path d="M416.04,212.83 C416.08,212.92 416.11,213.06 416.12,213.24 C416.13,213.42 416.15,213.89 416.18,214.67" fill="none" stroke="rgb(0, 0, 0)" stroke-width="5.00" stroke-opacity="1.00" stroke-linejoin="round"/>
<path d="M381.03,122.30 C384.49,126.67 389.38,135.10 393.29,142.87 C398.82,154.38 408.20,177.35 411.48,189.60 C413.36,197.13 418.35,217.69 418.57,218.77 C418.79,219.84 419.15,222.01 419.32,223.15" fill="none" stroke="rgb(0, 0, 0)" stroke-width="5.00" stroke-opacity="1.00" stroke-linejoin="round"/>
<path d="M264.35,21.86 C262.93,22.78 261.27,25.71 257.97,31.94 C254.67,38.23 254.12,39.45 253.18,41.74 C253.17,41.77 259.56,29.81 264.02,23.79 C265.70,21.60 267.42,20.87 269.51,20.84 C288.43,20.71 292.27,19.37 293.19,19.02 C294.19,19.82 289.62,39.59 289.10,39.92 C289.10,39.92 265.25,37.73 265.25,37.73 C265.23,37.73 284.94,36.45 287.71,36.39 C289.88,36.32 291.18,36.05 291.56,35.43 C291.59,35.36 292.15,34.15 292.14,34.18" fill="none" stroke="rgb(85, 85, 85)" stroke-width="23.59" stroke-opacity="1.00" stroke-linejoin="round"/>
<path d="M169.00,65.53 C169.00,65.53 167.04,66.06 167.04,66.06 C167.36,64.86 177.08,59.34 181.84,57.45 C187.29,55.32 200.44,51.59 209.51,49.66 C217.32,48.14 229.37,46.31 233.43,46.19 C235.38,46.14 245.17,46.33 246.04,46.33 C241.83,45.50 227.17,44.72 221.47,45.45 C216.08,46.16 203.78,49.46 198.46,51.37 C194.07,52.98 176.78,58.99 175.18,59.78 C173.15,60.79 169.31,64.50 169.00,64.73 C168.48,63.84 169.62,61.91 172.92,59.35 C176.31,56.74 185.58,52.24 191.97,50.43 C193.91,49.88 207.44,46.84 217.90,45.39 C223.72,44.80 241.30,43.04 241.80,43.06 C241.24,43.61 232.66,45.10 220.44,46.94 C211.01,48.46 202.73,50.62 195.70,53.12 C188.39,55.82 181.16,59.13 172.38,63.65 C169.48,65.15 167.78,66.54 167.57,67.63 C167.43,68.70 167.85,70.06 168.18,70.90 C168.18,70.90 166.63,65.58 166.63,65.58 C166.63,65.58 167.87,71.91 167.87,71.91 C169.65,72.63 174.12,71.19 177.43,69.00 C184.88,64.01 186.89,61.99 187.03,61.69 C186.59,61.27 181.71,63.10 178.61,64.84 C176.03,66.32 172.96,68.93 172.86,69.75 C173.77,70.70 174.71,71.09 176.22,70.91 C180.78,70.33 193.20,63.69 198.06,60.94 C199.69,59.99 206.28,55.90 206.57,55.37 C205.24,55.23 192.11,60.48 186.16,63.82 C181.55,66.43 176.50,71.07 176.79,71.54 C179.03,71.62 183.02,69.85 185.28,68.72 C198.06,62.26 210.00,54.20 210.49,53.74 C207.01,54.34 198.20,58.24 191.90,62.15 C184.72,66.70 180.86,70.97 180.38,71.79 C180.38,71.79 183.79,71.11 183.79,71.11 C183.79,71.11 174.79,72.24 174.79,72.24 C175.32,72.83 177.92,73.59 180.71,73.65 C183.64,73.69 188.13,73.27 190.24,72.58 C191.60,72.11 196.82,67.51 198.22,66.45 C205.77,60.76 230.45,49.79 231.08,50.30 C229.96,50.81 212.79,56.49 206.48,59.12 C199.18,62.19 197.22,64.55 197.15,64.61 C202.61,60.38 212.58,55.47 218.64,52.95 C225.01,50.36 235.90,47.17 241.03,46.44 C243.91,46.05 248.30,45.88 248.54,46.16 C248.46,47.04 227.26,53.26 223.09,54.84 C211.10,59.52 199.36,65.64 198.39,66.18 C198.62,66.16 211.38,60.31 218.64,57.84 C224.13,56.07 236.11,52.48 240.83,51.47 C255.42,48.36 271.01,49.93 275.31,50.66 C275.31,50.66 243.70,50.91 243.70,50.91 C254.63,51.03 294.52,50.28 301.81,50.88 C307.91,51.44 315.70,52.68 322.05,54.27 C312.96,51.77 304.23,49.67 297.66,48.89 C296.38,48.74 286.20,47.66 285.50,47.43 C286.49,46.35 299.18,45.34 310.14,45.03 C327.09,44.65 333.07,47.56 333.03,47.67 C333.03,47.67 296.55,43.56 296.55,43.56 C298.05,43.06 311.71,43.93 320.49,45.04 C324.68,45.63 338.70,48.23 343.89,49.44 C351.29,51.22 364.22,55.59 368.58,57.78 C370.76,58.89 374.65,61.92 374.55,62.01 C374.31,62.20 373.73,63.84 373.27,64.42 C372.24,65.68 367.19,69.54 364.54,71.75 C361.92,73.84 354.90,75.86 354.06,76.09 C354.75,75.23 358.92,70.81 359.54,69.29 C359.87,68.38 359.71,66.56 359.15,65.65 C358.04,63.95 353.48,60.63 352.18,59.88 C347.79,57.38 333.95,52.75 327.00,51.71 C320.76,50.81 300.89,50.54 296.50,50.34 C294.93,50.26 288.13,49.96 286.99,50.58 C287.00,50.59 305.67,53.44 313.24,56.18 C325.19,61.04 348.85,70.40 350.95,73.38 C350.03,73.00 338.49,66.19 328.70,61.58 C325.57,60.14 317.06,56.20 315.09,55.15 C316.56,55.27 330.42,59.40 334.50,61.08 C337.55,62.34 352.22,68.91 355.10,70.74 C355.10,70.74 328.93,55.23 328.93,55.23 C333.23,58.62 356.87,63.87 367.11,66.49 C367.11,66.49 358.63,59.41 358.63,59.41 C358.63,59.41 368.67,62.98 368.67,62.98 C368.67,62.98 351.66,56.61 351.66,56.61 C351.66,56.61 365.30,61.21 365.30,61.21 C354.69,55.21 338.85,53.92 338.60,54.28 C339.02,55.35 343.07,57.39 348.53,60.00 C360.12,65.58 362.10,67.08 362.86,67.91 C362.63,69.00 357.98,70.77 355.34,71.76 C354.16,72.22 351.33,73.41 350.28,73.85 C350.28,73.85 350.75,73.94 350.75,73.94 C350.75,73.94 350.50,73.87 350.50,73.87" fill="none" stroke="rgb(85, 85, 85)" stroke-width="8.58" stroke-opacity="1.00" stroke-linejoin="round"/>
<path d="M190.22,77.78 C190.21,77.78 190.19,77.81 190.18,77.81 C184.49,78.10 179.10,78.22 175.76,77.76 C172.65,77.31 167.72,75.85 166.35,74.87 C164.28,73.30 162.08,70.80 161.63,69.08 C161.24,67.49 161.56,64.56 162.14,63.48 C163.52,61.19 169.22,56.45 171.74,54.93 C175.74,52.54 188.14,47.51 194.92,45.65 C200.64,44.10 216.97,41.11 222.17,40.40 C229.44,39.53 244.65,38.28 252.67,37.90 C267.02,37.51 295.84,38.43 309.95,39.82 C317.52,40.71 334.41,43.29 338.63,44.16 C347.46,46.12 357.95,49.03 363.57,51.13 C367.73,52.70 374.33,56.14 376.05,57.60 C377.93,59.25 379.84,63.20 379.41,65.13 C378.93,67.02 375.72,70.35 373.20,72.02 C369.26,74.58 359.42,77.77 356.88,78.40 C356.43,78.51 355.50,78.73 354.08,79.05" fill="none" stroke="rgb(0, 0, 0)" stroke-width="5.00" stroke-opacity="1.00" stroke-linejoin="round"/>
<path d="M255.49,13.69 C258.29,12.05 262.46,10.42 267.54,9.39 C274.57,8.01 289.26,7.51 294.24,8.18 C300.14,9.02 302.59,9.96 303.88,10.86 C303.88,10.86 304.02,11.92 304.02,11.92" fill="none" stroke="rgb(0, 0, 0)" stroke-width="5.00" stroke-opacity="1.00" stroke-linejoin="round"/>
<path d="M303.13,10.56 C303.67,10.29 303.89,10.71 304.02,12.78 C304.26,16.24 304.65,23.58 304.55,27.67 C304.45,31.62 304.71,34.25 304.86,35.11 C304.89,35.33 304.97,35.70 305.08,36.24" fill="none" stroke="rgb(0, 0, 0)" stroke-width="5.00" stroke-opacity="1.00" stroke-linejoin="round"/>
<path d="M254.03,14.58 C254.04,14.56 253.99,14.61 253.99,14.63 C252.68,17.62 249.57,24.75 247.76,28.90 C245.76,33.41 242.64,39.66 242.43,40.42 C242.43,40.42 242.93,40.65 242.93,40.65 C242.93,40.65 243.23,40.58 243.23,40.58" fill="none" stroke="rgb(0, 0, 0)" stroke-width="5.00" stroke-opacity="1.00" stroke-linejoin="round"/>
<path d="M131.77,156.51 C131.77,156.51 131.63,156.51 131.63,156.51 C131.03,157.30 130.42,159.64 130.58,161.35 C130.70,162.53 139.89,179.90 143.34,184.30 C147.73,189.82 157.98,197.87 162.30,200.35 C168.15,203.69 180.05,209.32 187.21,212.13 C194.25,214.87 207.43,218.05 214.86,218.57 C217.87,218.77 223.24,218.64 226.59,218.38 C229.41,218.15 234.10,217.30 235.93,216.93" fill="none" stroke="rgb(0, 0, 0)" stroke-width="5.00" stroke-opacity="1.00" stroke-linejoin="round"/>
<path d="M381.79,130.48 C381.21,131.43 380.81,132.06 380.60,132.38 C378.41,135.69 367.78,147.52 362.28,152.53 C357.59,156.79 345.82,165.86 340.13,169.97 C327.93,178.38 306.22,192.19 291.45,200.53 C284.73,204.19 269.06,212.63 265.10,214.57 C258.37,217.86 252.44,219.33 250.82,219.56 C250.63,219.59 250.26,219.64 249.69,219.70" fill="none" stroke="rgb(0, 0, 0)" stroke-width="5.00" stroke-opacity="1.00" stroke-linejoin="round"/>
<path d="M239.56,216.83 C239.42,216.54 237.67,213.96 235.06,211.82 C233.66,210.68 229.13,208.08 227.04,207.33 C224.70,206.52 220.05,206.26 218.65,206.86 C216.58,207.80 214.68,210.11 214.05,212.45 C213.61,214.22 214.51,218.76 215.76,220.57 C217.06,222.36 221.60,224.84 224.26,225.49 C227.85,226.32 235.11,225.94 238.49,224.90 C241.92,223.79 245.54,221.94 248.24,220.05 C249.57,219.09 251.49,217.03 252.58,215.36 C253.04,214.65 254.33,211.68 254.66,211.23 C255.13,210.64 256.73,210.46 257.70,210.86 C258.85,211.38 260.99,213.39 261.59,214.59 C262.13,215.76 262.32,218.81 261.94,220.11 C261.49,221.47 259.58,223.80 258.13,224.80 C256.63,225.77 253.23,227.01 251.39,227.24 C249.43,227.45 246.46,226.87 244.96,226.04 C244.32,225.68 239.94,222.49 239.43,222.38 C239.31,222.36 239.15,222.38 238.93,222.43" fill="none" stroke="rgb(0, 0, 0)" stroke-width="5.00" stroke-opacity="1.00" stroke-linejoin="round"/>
<path d="M238.06,221.46 C238.06,221.46 238.10,221.34 238.10,221.34 C238.10,221.34 238.41,220.92 238.41,220.92 C238.18,224.39 233.24,237.56 230.66,244.35 C229.30,247.80 227.15,253.18 226.72,255.85 C226.72,255.85 228.93,255.27 228.93,255.27" fill="none" stroke="rgb(0, 0, 0)" stroke-width="5.00" stroke-opacity="1.00" stroke-linejoin="round"/>
<path d="M241.20,224.97 C242.73,231.66 246.60,249.13 247.16,252.82 C247.39,254.30 247.85,256.25 248.28,257.64 C248.37,257.92 248.46,258.11 248.53,258.21" fill="none" stroke="rgb(0, 0, 0)" stroke-width="5.00" stroke-opacity="1.00" stroke-linejoin="round"/>
</g>
</svg>
