<?xml version="1.0" encoding="UTF-8" standalone="no"?>
<!DOCTYPE svg PUBLIC "-//W3C//DTD SVG 1.1//EN" "http://www.w3.org/Graphics/SVG/1.1/DTD/svg11.dtd">
<svg width="102.86" height="102.86" viewBox="0.00 0.00 500.00 500.00" xmlns="http://www.w3.org/2000/svg" xmlns:xlink="http://www.w3.org/1999/xlink">
<g stroke-linecap="round" id="레이어_5">
<path d="M213.95,174.95 C213.95,174.95 212.96,174.77 212.96,174.77 C211.98,175.23 211.19,177.99 211.51,178.83 C211.85,179.59 213.09,180.24 213.94,180.12 C215.91,179.79 216.34,176.61 215.60,175.61 C213.22,174.54 212.45,177.36 212.48,178.09 C212.75,178.45 212.95,178.67 213.10,178.76 C213.25,178.84 213.55,178.91 214.00,178.95" fill="none" stroke="rgb(0, 0, 0)" stroke-width="6.00" stroke-opacity="1.00" stroke-linejoin="round"/>
<path d="M255.14,176.66 C255.16,176.67 255.12,176.63 255.11,176.62 C255.02,176.56 254.72,176.36 254.22,176.03 C252.84,177.12 252.62,179.16 252.93,179.83 C253.26,180.48 254.47,181.15 255.28,181.21 C257.28,181.25 257.22,177.01 256.62,176.27 C255.26,176.48 254.44,176.92 254.18,177.77 C253.82,178.98 254.60,179.87 254.88,180.01 C254.93,180.04 254.99,180.05 255.07,180.07" fill="none" stroke="rgb(0, 0, 0)" stroke-width="6.00" stroke-opacity="1.00" stroke-linejoin="round"/>
</g>
</svg>
