<?xml version="1.0" encoding="UTF-8" standalone="no"?>
<!DOCTYPE svg PUBLIC "-//W3C//DTD SVG 1.1//EN" "http://www.w3.org/Graphics/SVG/1.1/DTD/svg11.dtd">
<svg width="102.86" height="102.86" viewBox="0.00 0.00 500.00 500.00" xmlns="http://www.w3.org/2000/svg" xmlns:xlink="http://www.w3.org/1999/xlink">
<g stroke-linecap="round" id="레이어_4">
<path d="M272.88,393.47 C272.57,397.17 273.21,402.68 274.33,406.60 C275.65,411.07 276.96,413.64 277.99,413.61 C279.29,413.47 284.63,409.54 285.88,408.30 C286.96,407.20 288.85,404.35 289.40,403.00 C289.87,401.77 289.85,399.89 289.40,398.87 C287.29,394.51 282.46,392.85 280.40,392.28 C293.86,386.26 298.76,386.94 298.87,387.01 C299.16,387.70 298.38,399.57 298.28,407.56 C298.25,413.14 297.89,417.15 296.06,419.20 C295.43,419.87 292.38,421.10 288.03,421.38 C284.69,421.56 280.81,421.37 278.67,420.11 C278.45,419.98 275.91,418.39 275.93,418.40 C277.38,420.25 280.43,422.38 282.83,423.15 C285.02,423.83 288.60,424.02 290.13,423.65 C291.39,423.32 294.75,420.89 294.96,420.82 C296.98,420.20 298.10,422.40 298.16,422.84 C298.16,422.84 297.42,421.59 297.42,421.59" fill="none" stroke="rgb(255, 255, 255)" stroke-width="19.68" stroke-opacity="1.00" stroke-linejoin="round"/>
<path d="M307.67,381.18 C307.90,382.40 307.91,384.62 307.78,390.28 C307.71,394.06 307.86,411.13 307.73,417.41 C307.46,425.17 306.45,429.06 305.56,429.95 C304.15,431.27 299.74,431.72 294.18,432.34 C291.29,432.64 284.44,432.67 281.88,432.11 C279.37,431.53 274.00,429.65 272.17,428.11 C270.24,426.43 267.21,421.59 265.86,417.74 C264.34,413.32 263.31,405.32 263.36,402.51 C263.37,402.23 263.39,401.80 263.42,401.22" fill="none" stroke="rgb(0, 0, 0)" stroke-width="6.00" stroke-opacity="1.00" stroke-linejoin="round"/>
</g>
</svg>
