<?xml version="1.0" encoding="UTF-8" standalone="no"?>
<!DOCTYPE svg PUBLIC "-//W3C//DTD SVG 1.1//EN" "http://www.w3.org/Graphics/SVG/1.1/DTD/svg11.dtd">
<svg width="102.86" height="102.86" viewBox="0.00 0.00 500.00 500.00" xmlns="http://www.w3.org/2000/svg" xmlns:xlink="http://www.w3.org/1999/xlink">
<g stroke-linecap="round" id="레이어_2">
<path d="M233.80,185.13 C233.09,184.62 231.84,184.40 230.44,184.79 C228.82,185.27 225.87,187.17 224.91,188.60 C223.98,190.06 224.05,192.28 224.64,193.14 C225.28,193.99 227.74,195.46 229.48,196.00 C231.03,196.45 234.14,196.49 236.88,195.66 C239.17,194.95 241.80,192.34 241.69,190.64 C241.60,189.85 240.68,188.56 239.79,188.13 C237.34,187.02 231.06,187.14 229.24,188.26 C228.50,188.77 227.88,190.54 228.41,191.54 C229.08,192.73 232.29,194.64 233.97,194.85 C235.38,195.00 238.30,193.99 238.75,192.97 C239.23,191.81 237.97,189.50 237.03,189.02 C236.16,188.60 233.79,188.53 232.80,188.87 C231.90,189.21 231.09,190.36 231.27,191.00 C232.16,193.54 236.07,192.82 236.68,192.53 C236.86,191.54 236.67,190.87 235.90,190.33 C234.28,189.24 231.57,189.28 231.25,189.78 C231.16,190.15 231.88,191.11 233.13,191.30 C234.30,191.45 237.27,189.98 237.80,189.33 C238.25,188.75 238.09,187.57 237.43,187.24 C236.41,186.76 233.04,186.87 232.30,187.80 C232.11,188.04 231.90,188.45 231.68,189.03 C231.63,189.17 231.57,189.37 231.50,189.62" fill="none" stroke="rgb(0, 0, 0)" stroke-width="6.00" stroke-opacity="1.00" stroke-linejoin="round"/>
<path d="M226.94,190.70 C226.24,190.38 224.92,190.27 223.31,190.60 C220.30,191.23 214.23,193.95 212.96,194.82 C211.33,195.95 207.81,199.93 206.73,201.72 C205.39,204.00 203.87,208.73 203.88,211.09 C203.92,213.38 205.38,217.44 206.64,219.30 C207.00,219.81 212.19,226.30 214.42,227.38 C217.34,228.76 231.71,231.36 236.72,231.08 C239.10,230.94 247.30,229.28 249.50,228.22 C251.58,227.18 256.06,223.32 257.85,220.98 C259.45,218.81 259.90,214.62 259.69,211.50 C259.48,208.98 257.90,204.98 256.24,202.61 C252.66,197.62 245.59,193.51 243.82,193.24 C242.53,193.05 240.48,193.27 239.06,193.65 C238.83,193.72 238.57,193.81 238.27,193.92" fill="none" stroke="rgb(0, 0, 0)" stroke-width="6.00" stroke-opacity="1.00" stroke-linejoin="round"/>
</g>
</svg>
