<?xml version="1.0" encoding="UTF-8" standalone="no"?>
<!DOCTYPE svg PUBLIC "-//W3C//DTD SVG 1.1//EN" "http://www.w3.org/Graphics/SVG/1.1/DTD/svg11.dtd">
<svg width="102.86" height="102.86" viewBox="0.00 0.00 500.00 500.00" xmlns="http://www.w3.org/2000/svg" xmlns:xlink="http://www.w3.org/1999/xlink">
<g stroke-linecap="round" id="레이어_7">
<path d="M197.11,318.87 C197.00,319.27 196.89,319.68 196.78,320.08 C196.72,320.29 196.63,320.52 196.50,320.77 C196.11,321.50 195.76,322.15 195.43,322.70 C193.27,326.34 180.44,340.67 179.46,341.89 C177.45,344.42 174.91,348.32 173.93,350.28 C172.87,352.49 172.41,356.47 172.79,358.72 C173.17,360.82 174.46,363.65 175.44,364.20 C176.49,364.74 179.38,364.63 181.01,364.00 C182.82,363.26 185.14,361.47 186.63,359.28 C188.94,355.80 193.90,339.39 195.46,336.20 C196.03,335.06 196.59,333.93 197.16,332.79 C195.42,333.96 187.48,342.71 184.87,347.35 C181.90,352.79 182.32,357.90 182.90,358.89 C184.37,358.73 184.93,358.58 185.41,357.97 C187.94,354.87 195.29,342.74 196.58,338.83 C198.47,332.96 198.45,327.62 198.46,325.81 C198.94,326.05 201.42,335.79 201.65,336.70 C202.02,338.29 201.99,338.92 201.46,339.56 C195.85,345.99 193.62,350.11 192.30,353.27 C192.23,353.45 192.15,353.63 192.08,353.81" fill="none" stroke="rgb(255, 255, 255)" stroke-width="12.00" stroke-opacity="1.00" stroke-linejoin="round"/>
<path d="M196.58,313.14 C195.24,314.29 191.58,318.19 189.48,320.43 C188.15,321.80 177.03,333.39 173.68,337.99 C171.85,340.52 168.01,347.10 167.70,347.75 C166.08,351.26 165.03,357.10 165.44,359.89 C165.84,362.29 167.72,366.24 168.85,367.30 C170.22,368.53 174.79,370.14 177.67,370.31 C179.68,370.40 185.84,369.45 188.21,368.45 C189.38,367.95 191.54,366.47 192.45,365.63 C193.17,364.94 194.00,362.66 194.53,361.12 C194.80,360.46 196.51,357.97 196.67,357.72 C196.77,357.55 196.88,357.36 196.97,357.15" fill="none" stroke="rgb(0, 0, 0)" stroke-width="6.00" stroke-opacity="1.00" stroke-linejoin="round"/>
<path d="M209.61,338.27 C206.05,342.71 202.30,348.49 195.88,359.05 C193.78,362.37 193.28,363.23 193.21,363.52 C193.19,363.61 193.21,363.71 193.27,363.82" fill="none" stroke="rgb(0, 0, 0)" stroke-width="6.00" stroke-opacity="1.00" stroke-linejoin="round"/>
</g>
</svg>
