<?xml version="1.0" encoding="UTF-8" standalone="no"?>
<!DOCTYPE svg PUBLIC "-//W3C//DTD SVG 1.1//EN" "http://www.w3.org/Graphics/SVG/1.1/DTD/svg11.dtd">
<svg width="102.86" height="102.86" viewBox="0.00 0.00 500.00 500.00" xmlns="http://www.w3.org/2000/svg" xmlns:xlink="http://www.w3.org/1999/xlink">
<g stroke-linecap="round" id="레이어_6">
<path d="M220.42,399.28 C220.42,399.28 219.49,398.82 219.49,398.82 C231.57,399.06 254.27,400.73 254.83,401.00 C255.24,401.26 255.41,404.07 254.88,407.53 C254.21,411.57 252.83,415.20 251.46,416.70 C250.00,418.22 247.07,419.80 245.13,420.27 C243.00,420.74 238.81,420.29 236.46,419.20 C234.09,418.04 230.83,414.80 229.48,412.29 C228.55,410.40 227.41,408.09 226.82,407.09 C226.51,407.48 226.23,411.64 226.48,414.23 C226.80,417.04 228.54,421.67 230.46,423.08 C231.40,423.72 233.83,424.40 235.07,424.37 C236.40,424.30 238.75,423.32 240.10,422.26 C242.76,420.10 246.24,415.17 247.11,412.44 C247.44,411.33 247.65,410.22 247.71,409.48 C246.61,409.94 243.50,413.10 242.68,414.86 C242.34,415.62 242.28,416.94 242.50,417.55 C242.58,417.73 242.76,418.05 243.04,418.53" fill="none" stroke="rgb(255, 255, 255)" stroke-width="19.68" stroke-opacity="1.00" stroke-linejoin="round"/>
<path d="M210.73,396.29 C219.86,418.15 223.49,427.60 225.70,429.88 C226.89,431.07 230.55,432.64 232.59,433.06 C234.77,433.48 240.50,433.43 243.94,432.79 C247.35,432.13 253.94,430.22 256.22,428.59 C258.42,426.96 260.89,422.85 261.81,420.16 C263.38,415.41 263.76,407.06 262.90,401.66 C262.65,400.11 262.51,399.16 262.49,398.79 C262.45,398.36 262.45,397.66 262.47,396.67" fill="none" stroke="rgb(0, 0, 0)" stroke-width="6.00" stroke-opacity="1.00" stroke-linejoin="round"/>
</g>
</svg>
